<svg width="33" height="36" viewBox="0 0 33 36" fill="none" xmlns="http://www.w3.org/2000/svg">
<g clip-path="url(#clip0_248_294827)">
<path d="M25.7404 29.0039L22.1492 17.9498L31.5501 11.1199H19.9295L16.338 0.0661132L16.3368 0.0631133H27.9591L31.5516 11.1187L31.5518 11.1184L31.5548 11.1168C33.6411 17.5305 31.4923 24.8253 25.7404 29.0038V29.0039ZM6.93448 29.0039L6.9316 29.006L16.335 35.8378L25.7404 29.0042L16.338 22.1723L6.93448 29.0039ZM1.12269 11.1171C-1.07352 17.878 1.47581 25.0418 6.93273 29.0053L6.9336 29.0018L10.5254 17.9483L1.12657 11.1197H12.7444L16.3361 0.0659882L16.3368 0.0629883H4.71389L1.12269 11.1171Z" fill="#EB5424"/>
</g>
<defs>
<clipPath id="clip0_248_294827">
<rect width="32" height="35.8744" fill="white" transform="translate(0.335938 0.0629883)"/>
</clipPath>
</defs>
</svg>
