<svg width="41" height="40" viewBox="0 0 41 40" fill="none" xmlns="http://www.w3.org/2000/svg">
<g clip-path="url(#clip0_248_294832)">
<path d="M20.6419 0.00439453C20.6843 0.00439453 20.7267 0.0573926 20.7903 0.15279C20.8433 0.237588 25.3058 5.59045 30.7116 12.0457C36.1175 18.5009 40.527 23.8114 40.5058 23.8432C40.4952 23.875 36.1917 27.4047 30.9448 31.6764C25.698 35.9481 21.2355 39.5838 21.0341 39.7534C20.6843 40.0396 20.6631 40.0502 20.5359 39.923C20.4617 39.8488 15.9886 36.1919 10.5933 31.793C5.19808 27.3941 0.799189 23.769 0.820389 23.716C0.841588 23.663 5.27228 18.3737 10.6887 11.9503C16.1052 5.52686 20.5359 0.216389 20.5571 0.131591C20.5783 0.0467931 20.6101 0.00439453 20.6419 0.00439453Z" fill="#00BEF2"/>
<path d="M19.9099 33.6374C19.2951 33.4148 18.5532 32.7788 18.2458 32.1852C17.8642 31.4539 17.896 30.3091 18.32 29.3975C18.6486 28.7191 18.6486 28.6979 18.4366 28.5389C18.32 28.4541 16.9102 27.6698 15.3202 26.8112C13.7303 25.9526 12.3417 25.2 12.2463 25.147C12.1191 25.0728 11.9071 25.147 11.5255 25.3908C10.2854 26.1752 8.9922 26.0904 7.97463 25.147C7.24324 24.4686 7.03125 23.9916 7.03125 23.0165C7.03125 22.0731 7.22205 21.5855 7.82623 20.9813C8.64241 20.1651 9.73418 19.8895 10.7836 20.2393C11.3559 20.4301 11.3665 20.4301 11.7269 20.1545C12.1509 19.8365 15.5534 16.7308 17.1964 15.1727L18.3306 14.0915L17.9914 13.3813C17.3024 11.9503 17.6522 10.3604 18.8606 9.40641C19.5177 8.88702 20.0053 8.72803 20.9487 8.72803C23.1534 8.72803 24.6904 11.0388 23.8636 13.1057C23.641 13.6781 23.641 13.6887 23.853 14.0385C24.0332 14.3459 27.0965 18.0452 28.7183 19.9319C29.0045 20.2605 29.3225 20.5255 29.4285 20.5255C29.5345 20.5255 29.8949 20.4195 30.2341 20.2923C31.8134 19.667 33.4776 20.3665 34.1348 21.9353C34.5588 22.9423 34.1878 24.299 33.2868 25.1152C32.6508 25.6876 32.1844 25.8678 31.3364 25.8678C30.7428 25.8678 30.5203 25.8042 29.8949 25.465C29.4285 25.2106 29.0681 25.0834 28.9197 25.1258C28.6653 25.1894 24.754 27.8711 23.8848 28.5707C23.3548 29.0053 23.3124 29.1643 23.588 29.8109C23.853 30.4469 23.8212 31.4433 23.5244 32.0686C23.1958 32.7576 22.3797 33.4466 21.6695 33.6586C20.9487 33.86 20.5141 33.86 19.9099 33.6374ZM20.0901 21.9565V15.9146L19.7509 15.4483C19.5601 15.1939 19.3799 14.9819 19.3481 14.9819C19.2103 14.9819 12.3629 21.2039 12.3629 21.3311C12.3629 21.3629 12.4689 21.6809 12.5961 22.0201C12.7233 22.3699 12.8187 22.8681 12.8081 23.1543C12.7975 23.4405 12.7975 23.7584 12.7975 23.8644C12.8081 24.1082 15.0976 25.571 18.532 27.5532C19.4753 28.1043 19.8039 28.2421 19.9205 28.1467C20.0583 28.0301 20.0901 26.8536 20.0901 21.9565ZM22.9944 27.2988C27.5311 24.4474 28.3791 23.875 28.4321 23.6631C28.4639 23.5359 28.5063 23.0377 28.5169 22.5395L28.5487 21.6491L26.238 18.9038C23.7576 15.9676 22.846 14.9713 22.6341 14.9713C22.5599 14.9713 22.1889 15.1833 21.8073 15.4377L21.1077 15.904L21.1395 21.9353C21.1713 27.3412 21.2137 28.2527 21.4151 28.2527C21.4363 28.2633 22.1571 27.8287 22.9944 27.2988Z" fill="white" stroke="white" stroke-width="0.130981" stroke-linecap="round" stroke-linejoin="round"/>
</g>
<defs>
<clipPath id="clip0_248_294832">
<rect width="39.696" height="40" fill="white" transform="translate(0.8125)"/>
</clipPath>
</defs>
</svg>
