<svg width="45" height="26" viewBox="0 0 45 26" fill="none" xmlns="http://www.w3.org/2000/svg">
<mask id="mask0_248_294744" style="mask-type:luminance" maskUnits="userSpaceOnUse" x="0" y="0" width="45" height="26">
<path d="M0.34375 25.5312H44.3348V0.468836H0.34375V25.5312Z" fill="white"/>
</mask>
<g mask="url(#mask0_248_294744)">
<path d="M29.1558 17.7753C29.0816 17.7377 28.5024 17.3945 27.6415 17.3945C26.478 17.3945 25.6707 18.204 25.6707 19.2969C25.6707 20.3568 26.4432 21.2011 27.6415 21.2011C28.4876 21.2011 29.0765 20.8647 29.1558 20.8226V22.737C28.93 22.7997 28.3148 22.9907 27.5156 22.9907C25.4911 22.9907 23.7141 21.595 23.7141 19.2964C23.7141 17.167 25.3218 15.6049 27.5156 15.6049C28.3593 15.6049 28.9853 15.8102 29.1558 15.8609V17.7753ZM10.3691 17.7753C10.2967 17.7377 9.718 17.3945 8.85714 17.3945C7.69128 17.3945 6.88458 18.204 6.88458 19.2969C6.88458 20.3568 7.65764 21.2011 8.85714 21.2011C9.70318 21.2011 10.2915 20.8647 10.3691 20.8226V22.737C10.1456 22.7997 9.53101 22.9907 8.72716 22.9907C6.70443 22.9907 4.92969 21.595 4.92969 19.2964C4.92969 17.167 6.53739 15.6049 8.72773 15.6049C9.57491 15.6049 10.1997 15.8102 10.3691 15.8609V17.7753ZM34.8175 17.4213C33.7497 17.4213 32.9566 18.2616 32.9566 19.2969C32.9566 20.3345 33.7497 21.1743 34.8175 21.1743C35.8841 21.1743 36.6794 20.3345 36.6794 19.2969C36.6794 18.2616 35.8841 17.4213 34.8175 17.4213ZM38.5864 19.2969C38.5864 21.3373 37.0112 22.9907 34.818 22.9907C32.6237 22.9907 31.0508 21.3374 31.0508 19.2964C31.0508 17.26 32.6243 15.6049 34.8175 15.6049C37.0112 15.6049 38.5864 17.26 38.5864 19.2969ZM21.4684 17.3529C21.4417 17.3443 20.684 17.1351 20.0614 17.1351C19.3402 17.1351 18.948 17.3768 18.948 17.7195C18.948 18.1539 19.4771 18.3055 19.773 18.399L20.2695 18.557C21.4382 18.9287 21.9701 19.7285 21.9701 20.5974C21.9701 22.3892 20.3944 22.9912 19.017 22.9912C18.0598 22.9912 17.163 22.8145 17.0746 22.7962V21.1543C17.2331 21.1942 17.988 21.42 18.7741 21.42C19.6698 21.42 20.0814 21.1578 20.0814 20.7541C20.0814 20.3927 19.7251 20.184 19.2787 20.0438C19.1704 20.0073 19.0062 19.956 18.8944 19.9195C17.8922 19.6025 17.0564 19.013 17.0564 17.8329C17.0564 16.4989 18.0552 15.6032 19.7142 15.6032C20.5905 15.6032 21.4149 15.8159 21.4684 15.8301V17.3523V17.3529Z" fill="#C4122E"/>
<path d="M3.02166 8.06623C3.02166 7.5748 2.6203 7.17627 2.1283 7.17627C1.6363 7.17627 1.23438 7.57478 1.23438 8.06564V9.93845C1.24026 10.1716 1.337 10.3931 1.50395 10.5559C1.6709 10.7187 1.89484 10.8098 2.12802 10.8098C2.36119 10.8098 2.58514 10.7187 2.75208 10.5559C2.91903 10.3931 3.01577 10.1716 3.02166 9.93845V8.06623ZM7.9297 5.60907C7.9297 5.37207 7.83554 5.14476 7.66795 4.97717C7.50036 4.80958 7.27307 4.71543 7.03606 4.71543C6.79905 4.71543 6.57175 4.80958 6.40416 4.97717C6.23657 5.14476 6.14241 5.37207 6.14241 5.60907V9.93845C6.14241 10.1755 6.23657 10.4028 6.40416 10.5704C6.57175 10.7379 6.79905 10.8321 7.03606 10.8321C7.27307 10.8321 7.50036 10.7379 7.66795 10.5704C7.83554 10.4028 7.9297 10.1755 7.9297 9.93845V5.60848V5.60907ZM12.8383 2.24658C12.8383 1.75515 12.437 1.35607 11.9449 1.35607C11.4524 1.35607 11.051 1.75515 11.051 2.24658V11.7177C11.0569 11.9508 11.1536 12.1724 11.3206 12.3352C11.4875 12.498 11.7115 12.5891 11.9447 12.5891C12.1778 12.5891 12.4018 12.498 12.5687 12.3352C12.7357 12.1724 12.8324 11.9508 12.8383 11.7177V2.24658ZM17.7463 5.60907C17.7463 5.37207 17.6522 5.14476 17.4846 4.97717C17.317 4.80958 17.0897 4.71543 16.8527 4.71543C16.6157 4.71543 16.3884 4.80958 16.2208 4.97717C16.0532 5.14476 15.9591 5.37207 15.9591 5.60907V9.93845C15.9591 10.1755 16.0532 10.4028 16.2208 10.5704C16.3884 10.7379 16.6157 10.8321 16.8527 10.8321C17.0897 10.8321 17.317 10.7379 17.4846 10.5704C17.6522 10.4028 17.7463 10.1755 17.7463 9.93845V5.60848V5.60907ZM22.6493 8.06623C22.6494 7.83045 22.5559 7.60426 22.3894 7.43739C22.2228 7.27051 21.9968 7.17657 21.761 7.17627C21.5247 7.17612 21.298 7.26967 21.1306 7.43638C20.9631 7.60308 20.8686 7.82935 20.8677 8.06564V9.93845C20.8677 10.1747 20.9615 10.4013 21.1286 10.5683C21.2956 10.7354 21.5222 10.8292 21.7585 10.8292C21.9947 10.8292 22.2213 10.7354 22.3883 10.5683C22.5554 10.4013 22.6493 10.1747 22.6493 9.93845V8.06623ZM27.5596 5.60907C27.5537 5.37672 27.4573 5.15585 27.2908 4.99359C27.1244 4.83134 26.9012 4.74052 26.6688 4.74052C26.4364 4.74052 26.2131 4.83134 26.0467 4.99359C25.8803 5.15585 25.7839 5.37672 25.778 5.60907V9.93845C25.778 10.1747 25.8718 10.4013 26.0389 10.5683C26.206 10.7354 26.4325 10.8292 26.6688 10.8292C26.905 10.8292 27.1316 10.7354 27.2987 10.5683C27.4657 10.4013 27.5596 10.1747 27.5596 9.93845V5.60848V5.60907ZM32.471 2.24658C32.471 2.01033 32.3772 1.78375 32.2101 1.6167C32.0431 1.44964 31.8165 1.35579 31.5802 1.35579C31.344 1.35579 31.1174 1.44964 30.9504 1.6167C30.7833 1.78375 30.6894 2.01033 30.6894 2.24658V11.7177C30.6842 11.838 30.7033 11.9581 30.7457 12.0707C30.7881 12.1834 30.8529 12.2863 30.9361 12.3733C31.0193 12.4603 31.1193 12.5295 31.23 12.5768C31.3407 12.624 31.4599 12.6484 31.5802 12.6484C31.7006 12.6484 31.8198 12.624 31.9305 12.5768C32.0412 12.5295 32.1411 12.4603 32.2244 12.3733C32.3076 12.2863 32.3724 12.1834 32.4148 12.0707C32.4572 11.9581 32.4763 11.838 32.471 11.7177V2.24658ZM37.3814 5.60907C37.3814 5.11707 36.9828 4.71741 36.4794 4.71741C36.2432 4.71757 36.0167 4.8115 35.8497 4.9786C35.6827 5.14569 35.5889 5.37225 35.5889 5.60848V9.93845C35.5889 10.4327 35.988 10.8312 36.4794 10.8312C36.9828 10.8312 37.3814 10.4327 37.3814 9.93845V5.60848V5.60907ZM42.2826 8.06623C42.2826 7.82975 42.1886 7.60293 42.0214 7.43572C41.8542 7.2685 41.6274 7.17457 41.3909 7.17457C41.1544 7.17457 40.9276 7.2685 40.7604 7.43572C40.5932 7.60293 40.4993 7.82975 40.4993 8.06623V9.93845C40.4993 10.4327 40.8989 10.8318 41.3909 10.8318C41.8823 10.8318 42.282 10.4327 42.282 9.93845V8.06623H42.2826Z" fill="#15495D"/>
<path d="M41.2529 21.9243V22.0361H40.9348V22.8633H40.8036V22.0367H40.4844V21.9243H41.2529ZM41.3196 21.9243H41.5242L41.8053 22.6946H41.8099L42.0818 21.9249H42.2825V22.8633H42.1485V22.0937H42.1439L41.8589 22.8633H41.7352L41.457 22.0937H41.4507V22.8633H41.3196V21.9243Z" fill="#C4122E"/>
</g>
</svg>
