<svg width="54" height="36" viewBox="0 0 54 36" fill="none" xmlns="http://www.w3.org/2000/svg">
<g clip-path="url(#clip0_248_294764)">
<path d="M4.32812 0.697111C4.32812 0.795751 5.05922 2.27536 5.14626 2.35079C5.16367 2.3682 5.2391 2.48424 5.31453 2.6119C5.38996 2.73955 5.51761 2.90782 5.58724 2.98905C5.66267 3.07028 5.7207 3.15152 5.7207 3.16892C5.7207 3.18633 5.77292 3.26756 5.84255 3.34299C5.90637 3.41843 6.09785 3.63892 6.26032 3.83039C7.00882 4.70075 8.08807 5.71037 9.23113 6.60393C9.26595 6.62714 9.35298 6.69677 9.42841 6.7606C9.50385 6.82442 9.58508 6.87664 9.60249 6.87664C9.61989 6.87664 9.70693 6.93467 9.78236 7.0043C9.99125 7.18997 10.2001 7.33503 11.2968 8.06613C12.3122 8.73921 12.3296 8.75661 12.7416 9.00031C12.8866 9.08735 13.0375 9.19759 13.0781 9.23821C13.1187 9.27883 13.1826 9.31364 13.2116 9.31364C13.2522 9.31364 13.8382 9.64438 14.1341 9.83586C14.1806 9.87067 14.285 9.92869 14.3662 9.96351C14.5751 10.068 15.7356 10.77 16.0779 11.0021C17.0643 11.6636 18.3119 12.7951 18.689 13.3579C18.8457 13.5958 18.9501 13.6712 18.9501 13.5436C18.9501 13.4681 18.7122 13.033 18.6194 12.9227C18.5788 12.8821 18.544 12.8183 18.544 12.7893C18.544 12.7254 18.1958 12.1568 18.0914 12.0466C18.0507 12.0001 17.9695 11.8957 17.9173 11.8145C17.7606 11.5766 17.5692 11.3619 16.9773 10.7642C16.2636 10.0563 16.1824 9.99252 15.1786 9.24401C14.7144 8.90167 14.314 8.59995 14.2792 8.57094C14.2502 8.54773 14.1167 8.46069 13.9891 8.38526C13.8614 8.30983 13.7454 8.2286 13.728 8.21119C13.7106 8.19378 13.5945 8.11255 13.4669 8.03712C13.3392 7.96169 12.9737 7.72959 12.6545 7.52071C12.0105 7.09713 11.9002 7.0275 11.7146 6.92886C11.6391 6.88825 11.5811 6.83603 11.5811 6.80701C11.5811 6.78381 11.5521 6.7606 11.5231 6.7606C11.4883 6.7606 11.349 6.67936 11.2155 6.58072C10.9893 6.41826 10.293 5.92505 10.0551 5.76259C9.99125 5.72197 9.89261 5.64074 9.82878 5.58271C9.75915 5.53049 9.68952 5.48407 9.67212 5.48407C9.65471 5.48407 9.57347 5.42605 9.49224 5.35062C9.41101 5.28099 9.18472 5.09531 8.98743 4.94445C8.79015 4.79359 8.59287 4.63692 8.55226 4.59631C8.51164 4.55569 8.33177 4.41063 8.15769 4.27138C7.40919 3.68534 4.85614 1.23673 4.60084 0.859577C4.49059 0.697111 4.32812 0.59847 4.32812 0.697111Z" fill="#DA1B1B"/>
<path d="M9.76767 1.74738C9.72125 1.79379 9.78508 2.00268 9.8431 2.00268C9.87211 2.00268 9.89532 2.03169 9.89532 2.07231C9.89532 2.15934 10.3131 2.99489 10.4059 3.09353C10.4407 3.13414 10.4756 3.19217 10.4756 3.22118C10.4756 3.29661 10.9746 4.0161 11.2183 4.28882C11.7985 4.93868 12.8545 5.91928 13.2607 6.18619C13.3419 6.23842 13.487 6.35446 13.5798 6.4357C13.6785 6.52273 13.8583 6.66199 13.986 6.74902C14.1137 6.83606 14.2703 6.95211 14.3283 7.00433C14.3922 7.06235 14.5488 7.1784 14.6765 7.26544C14.8099 7.35827 14.9666 7.47432 15.0246 7.52654C15.0885 7.58457 15.2451 7.70061 15.3728 7.78765C15.5062 7.87469 15.6223 7.96172 15.6397 7.97913C15.6571 7.99654 15.8544 8.1532 16.0749 8.32727C16.3011 8.50134 16.51 8.66961 16.5448 8.70443C16.5797 8.73344 16.8118 8.94232 17.0613 9.16862C17.9084 9.92873 18.5583 10.6366 18.9528 11.2285C19.3358 11.8087 19.4867 12.064 19.829 12.7255C20.0089 13.0852 20.2758 13.561 20.4092 13.7873C20.5485 14.0136 20.7226 14.3037 20.798 14.4372C20.8734 14.5706 20.9721 14.7157 21.0185 14.7563C21.0591 14.7969 21.0939 14.8607 21.0939 14.8898C21.0939 14.9188 21.1229 14.9768 21.1519 15.0174C21.1868 15.058 21.4595 15.4642 21.767 15.9284C22.7476 17.4138 24.0937 18.5975 25.4167 19.1255C26.0433 19.375 27.3547 19.4736 29.0722 19.3982C30.2675 19.3518 31.6368 19.3866 31.8747 19.4736C31.9502 19.5027 32.1184 19.5259 32.2519 19.5259C32.3853 19.5317 32.6 19.5665 32.7277 19.6129C32.8553 19.6593 33.012 19.6999 33.0758 19.6999C33.1396 19.6999 33.2673 19.7405 33.3601 19.787C33.4472 19.8334 33.5632 19.874 33.6096 19.874C33.7025 19.874 34.0216 20.0133 34.7585 20.373C35.8203 20.901 36.6791 21.5277 37.5843 22.4387C38.1877 23.0479 38.2109 23.0653 38.2457 22.9144C38.2922 22.7346 38.2341 22.1195 38.1587 21.9803C38.1297 21.9222 38.0427 21.7424 37.9672 21.5857C37.8222 21.2608 37.5495 20.872 37.1433 20.402C36.9866 20.2105 36.8764 20.0249 36.8764 19.9436C36.8764 19.7057 36.6501 19.3344 36.3832 19.1371C36.0466 18.8876 35.0138 18.3654 34.8572 18.3654C34.8281 18.3654 34.7237 18.3248 34.6367 18.2783C34.5438 18.2319 34.422 18.1913 34.364 18.1913C34.3117 18.1913 34.2189 18.1681 34.1609 18.1391C34.1086 18.1101 33.8649 18.0288 33.627 17.9592C32.8321 17.7213 32.3215 17.5414 32.1416 17.4312C31.9502 17.3152 31.7703 17.0134 31.7703 16.8103C31.7703 16.6595 31.9908 15.9748 32.0604 15.9052C32.0952 15.8704 32.1184 15.8065 32.1184 15.7601C32.1184 15.7079 32.1532 15.5977 32.1997 15.5106C32.2461 15.4294 32.3099 15.1741 32.3505 14.9478C32.542 13.8221 31.9328 13.1026 29.9715 12.122C29.7104 11.9944 29.2346 11.7797 29.0142 11.6868C28.9503 11.6636 28.7763 11.5882 28.6254 11.5244C28.4745 11.4548 28.3121 11.4025 28.2657 11.4025C28.2192 11.4025 28.1612 11.3735 28.1438 11.3445C28.1264 11.3097 28.0684 11.2865 28.0161 11.2865C27.9697 11.2865 27.8479 11.2517 27.7492 11.2053C27.6448 11.1588 27.1458 10.9848 26.6352 10.8223C26.1246 10.654 25.6662 10.4974 25.614 10.4742C25.5617 10.4451 25.4167 10.4045 25.2948 10.3813C25.1672 10.3639 25.0453 10.3233 25.0105 10.3001C24.9815 10.2769 24.8597 10.2363 24.7494 10.2188C24.6392 10.1956 24.4941 10.155 24.4303 10.126C24.3665 10.1028 24.1982 10.0506 24.0531 10.01C23.9081 9.97515 23.6876 9.91712 23.5599 9.88811C23.4323 9.8533 23.2756 9.80108 23.2118 9.77787C23.148 9.74885 23.0029 9.70824 22.8926 9.68503C22.7824 9.66762 22.6548 9.627 22.6025 9.6038C22.5561 9.58059 22.3182 9.49935 22.0803 9.42972C21.8424 9.3601 21.6045 9.28466 21.5581 9.26146C21.5059 9.23244 21.3782 9.19183 21.268 9.16862C21.1577 9.14541 21.0417 9.11059 21.0069 9.08738C20.9779 9.06417 20.7516 8.98294 20.5137 8.90751C20.2758 8.83788 20.0553 8.75665 20.0205 8.73344C19.9915 8.71023 19.7942 8.6348 19.5853 8.55937C19.3764 8.48394 19.1849 8.4027 19.1559 8.37369C19.1211 8.35048 19.0631 8.32727 19.0167 8.32727C18.9006 8.32727 18.3552 8.07777 16.9742 7.40469C16.0052 6.9289 15.1117 6.4415 14.9144 6.28483C14.8854 6.26163 14.6475 6.10496 14.3922 5.93669C14.1369 5.76842 13.9048 5.61176 13.87 5.58855C13.8409 5.56534 13.5682 5.36226 13.2665 5.13596C12.2163 4.35264 10.6902 2.88464 10.0462 2.03169C9.92433 1.86923 9.81989 1.73577 9.81409 1.72417C9.80248 1.71836 9.78508 1.72997 9.76767 1.74738ZM35.7159 19.3286C36.3077 19.5259 36.4992 19.6767 36.6385 20.0307C36.7777 20.373 36.5456 20.4542 36.2613 20.1583C36.1685 20.0597 36.0002 19.9262 35.89 19.8566C35.7797 19.787 35.6521 19.6999 35.6115 19.6593C35.5708 19.6187 35.5012 19.5839 35.4548 19.5839C35.3794 19.5839 35.3097 19.462 35.3097 19.317C35.3097 19.2125 35.391 19.2125 35.7159 19.3286ZM5.60156 5.40287C5.60156 5.4667 6.09476 6.4415 6.1818 6.54594C6.21661 6.58656 6.33846 6.74322 6.45451 6.90569C6.87809 7.47432 7.53956 8.1532 8.42152 8.90751C8.64201 9.09899 9.24546 9.55157 9.43693 9.67342C9.51817 9.72565 9.62261 9.80688 9.66903 9.84749C9.71545 9.89391 9.85471 9.99255 9.98236 10.068C10.11 10.1434 10.2261 10.2246 10.2435 10.2421C10.2783 10.2885 11.99 11.3039 12.5354 11.6056C12.9648 11.8493 13.429 12.0814 15.0594 12.8763C16.0168 13.3463 16.1967 13.4392 16.8988 13.8627C17.4268 14.1819 18.274 14.8433 18.6975 15.2669C18.9354 15.5048 19.1385 15.6963 19.1501 15.6963C19.1675 15.6963 19.1443 15.6325 19.1095 15.5512C19.0747 15.47 19.0225 15.4062 18.9935 15.4062C18.9702 15.4062 18.947 15.3714 18.947 15.3307C18.947 15.2843 18.8948 15.1857 18.831 15.1103C18.7672 15.0348 18.6975 14.942 18.6743 14.913C18.2507 14.3559 17.9026 14.0194 16.835 13.1142C16.6899 12.9866 15.7325 12.3367 15.2857 12.0582C14.9318 11.8319 14.2181 11.4315 13.4928 11.0428C13.3187 10.9441 13.1505 10.8455 13.1156 10.8223C13.0634 10.7817 12.8139 10.6482 11.9842 10.1956C11.462 9.91712 10.139 9.09899 9.92433 8.92492C9.89532 8.8959 9.76187 8.80887 9.63422 8.73344C9.50656 8.65801 9.37891 8.57097 9.3441 8.54776C9.31508 8.52455 9.00176 8.29246 8.64781 8.03135C8.29967 7.77024 7.99794 7.53815 7.98054 7.52074C7.96313 7.49753 7.82387 7.38148 7.66141 7.25963C7.33647 7.01593 6.9187 6.63298 6.14118 5.86706C5.84526 5.57694 5.60156 5.36806 5.60156 5.40287ZM12.1931 15.7949C12.135 15.853 13.1098 16.7581 13.7539 17.2397C14.073 17.4776 14.3632 17.6923 14.3922 17.7155C14.543 17.8316 15.0652 18.1333 15.1117 18.1333C15.1407 18.1333 15.2045 18.1681 15.2451 18.2029C15.2857 18.2435 15.4134 18.319 15.5236 18.377C16.2953 18.7425 16.6261 18.8876 16.7073 18.8876C16.7537 18.8876 16.806 18.9108 16.8234 18.934C16.8698 19.0094 18.6975 19.5839 18.9006 19.5839C18.9586 19.5839 19.0515 19.6071 19.1095 19.6419C19.1617 19.6709 19.3242 19.7231 19.4692 19.7522C19.9741 19.8624 20.2526 19.932 20.3686 19.9842C20.4324 20.0133 20.6819 20.0945 20.9198 20.1699C21.1577 20.2454 21.3782 20.3208 21.413 20.3498C21.4421 20.373 21.5001 20.3962 21.5465 20.3962C21.5929 20.3962 21.709 20.431 21.8076 20.4774C22.7592 20.8894 23.0145 20.9881 23.0493 20.959C23.0667 20.9358 23.0087 20.8604 22.9159 20.7908C22.7708 20.6747 22.5155 20.4484 21.9643 19.932C21.8772 19.8508 21.7206 19.7115 21.6161 19.6187C21.326 19.3692 20.1075 18.464 19.8464 18.3074C19.7187 18.2319 19.6027 18.1507 19.5853 18.1333C19.5679 18.1101 19.5157 18.0753 19.4692 18.0521C19.4228 18.0288 19.2255 17.9244 19.0341 17.8142C18.6743 17.6053 17.9374 17.2397 17.5254 17.0657C17.3978 17.0134 17.2527 16.9438 17.2063 16.9206C17.1541 16.8916 17.0322 16.851 16.9278 16.8336C16.8292 16.8103 16.7305 16.7639 16.7131 16.7349C16.6899 16.7059 16.6203 16.6827 16.5507 16.6827C16.423 16.6885 16.423 16.6885 16.539 16.7523C16.6029 16.7871 16.6667 16.8336 16.6841 16.8568C16.7015 16.8742 16.8292 16.9612 16.9742 17.0482C17.2817 17.2281 17.8446 17.7271 17.8446 17.82C17.8446 17.8548 17.804 17.9186 17.7575 17.9592C17.6879 18.0172 17.5196 18.0114 16.9162 17.936C16.4984 17.8838 16.0981 17.8142 16.0284 17.7851C15.9588 17.7619 15.7557 17.6923 15.5817 17.6401C14.6765 17.3674 12.8545 16.3578 12.3265 15.8414C12.2743 15.7949 12.2163 15.7717 12.1931 15.7949Z" fill="#DA1B1B"/>
<path d="M22.1111 18.789C23.1962 19.787 25.9755 22.6243 26.1496 22.9029C26.2192 23.0073 26.138 23.1233 26.0045 23.1233C25.9407 23.1175 25.7782 23.0711 25.6506 23.0073C25.5229 22.9435 25.4011 22.897 25.3779 22.8912C25.3024 22.8912 24.728 22.5257 24.5771 22.3864C24.4031 22.224 24.3102 22.2124 24.4147 22.3632C24.5829 22.6069 25.4243 23.4367 25.9523 23.8893C26.1902 24.0923 26.8227 24.5275 27.0373 24.632C27.3855 24.806 27.4203 24.835 27.4203 24.9453C27.4203 25.0439 27.3913 25.0497 27.1012 25.0149C26.9271 24.9975 26.782 24.9975 26.782 25.0265C26.782 25.0671 27.1244 25.2354 27.5364 25.3921C27.8381 25.5139 28.6794 25.4965 28.9173 25.3689C29.0218 25.3108 29.1668 25.2702 29.2306 25.2818C29.3583 25.2992 29.3699 25.3166 29.5498 25.7054C29.7703 26.1812 30.2809 26.8369 30.4259 26.8369C30.4549 26.8369 30.513 26.8717 30.5478 26.9181C30.6174 26.9993 31.4123 27.214 31.4588 27.1676C31.4762 27.1502 31.3659 27.0457 31.2209 26.9297C30.8147 26.6222 30.6174 26.3321 30.6116 26.0477C30.6116 25.7402 30.7393 25.4907 31.0062 25.2818C31.3949 24.9859 31.6328 24.9047 32.2015 24.8989C32.6657 24.8989 32.7585 24.9105 32.9616 25.0381C33.0892 25.1136 33.2285 25.218 33.2691 25.2702C33.3793 25.4037 33.5708 25.8447 33.5708 25.9723C33.5708 26.1696 33.6811 26.0884 33.7217 25.8621C33.8029 25.4211 33.7797 24.9453 33.6695 24.8176C33.5128 24.6436 33.0892 24.5333 32.4394 24.4869C31.3311 24.4173 30.7683 24.2316 30.2693 23.779C29.7529 23.3148 29.7761 23.2626 30.513 23.2278C31.0352 23.1988 31.482 23.1059 31.8591 22.9493C31.9229 22.9203 32.1086 22.839 32.2653 22.7752C32.4278 22.7056 32.7643 22.5489 33.0196 22.4271C33.9944 21.9629 34.592 21.8236 35.59 21.8236C36.3153 21.8236 36.5068 21.783 36.2399 21.7018C36.1761 21.6844 36.1239 21.6379 36.1239 21.6089C36.1239 21.5799 36.1007 21.5567 36.0716 21.5567C36.0252 21.5567 35.5262 21.255 35.3347 21.1099C35.2477 21.0403 34.9228 20.8662 34.4702 20.6457C34.2497 20.5355 34.0176 20.4194 33.9654 20.3904C33.9074 20.3614 33.8377 20.3382 33.8087 20.3382C33.7797 20.3382 33.6811 20.3092 33.5882 20.2686C33.3503 20.1699 32.9616 20.0597 32.4974 19.9494C31.9055 19.8102 29.6832 19.816 28.6968 19.9494C27.2288 20.1525 26.9735 20.1757 26.2888 20.1467C25.5868 20.1177 25.3314 20.0713 24.6352 19.8624C24.2116 19.7348 24.1362 19.7057 23.759 19.5317C23.6139 19.4678 23.4747 19.4098 23.4573 19.4098C23.4341 19.4098 23.2484 19.3054 23.0395 19.1777C22.8306 19.0501 22.6449 18.9456 22.6333 18.9456C22.6043 18.9456 22.1169 18.6149 21.8152 18.3828C21.4206 18.0869 21.5657 18.2842 22.1111 18.789ZM2.60934 30.7767C2.2728 30.8637 1.86083 31.0958 1.58812 31.3511C1.32701 31.5948 1.01949 32.117 1.01949 32.3143C1.01949 32.3607 0.996277 32.4187 0.961463 32.4362C0.891835 32.4826 0.886032 33.5502 0.955661 33.5908C0.97887 33.6082 1.01949 33.7127 1.03689 33.8229C1.12393 34.3509 1.83182 35.082 2.44107 35.2677C2.79501 35.378 3.65957 35.4012 3.71759 35.3083C3.735 35.2793 3.80463 35.2503 3.86845 35.2503C4.10055 35.2503 4.79103 34.8267 4.79103 34.6875C4.79103 34.5714 4.68079 34.5946 4.4777 34.7455C4.37906 34.8209 4.20499 34.9254 4.09475 34.9776C3.86265 35.0878 3.17797 35.2503 3.08513 35.2213C3.05032 35.2097 2.87625 35.1691 2.69637 35.1343C1.89565 34.9776 1.26319 34.2697 1.13553 33.3935C1.00788 32.4884 1.35602 31.6644 2.05231 31.2235C2.31342 31.061 2.84724 30.8985 3.12575 30.8985C3.43328 30.8985 4.03092 31.0668 4.28042 31.2235C4.50672 31.3685 4.67498 31.4033 4.67498 31.3047C4.67498 31.2293 4.26882 30.974 3.96709 30.8695C3.67117 30.7651 2.86464 30.7071 2.60934 30.7767ZM12.8853 30.7593C12.1368 30.9565 11.5624 31.3917 11.2665 32.001C11.2143 32.1112 11.133 32.3897 11.0808 32.616C11.0054 32.9874 11.0054 33.0802 11.0866 33.4574C11.1388 33.6953 11.2317 34.0028 11.3013 34.1421C11.5334 34.6179 12.2819 35.2503 12.6242 35.2503C12.6823 35.2503 12.7519 35.2735 12.7693 35.3083C12.8157 35.3838 13.7673 35.3838 13.8137 35.3083C13.8311 35.2735 13.9008 35.2503 13.9646 35.2503C14.3127 35.2503 15.1077 34.5888 15.3165 34.1305C15.5835 33.5502 15.6357 32.9642 15.4732 32.3607C15.392 32.0648 15.3281 31.9372 15.0612 31.5948C14.7653 31.2119 14.7421 31.1944 13.9994 30.8289C13.8776 30.7709 13.0536 30.7187 12.8853 30.7593ZM13.8311 30.9914C14.452 31.1712 14.9162 31.5774 15.2121 32.2041C15.2991 32.3839 15.3223 32.5638 15.3223 33.0454C15.3223 33.5966 15.3049 33.6895 15.1599 33.9796C14.9742 34.3509 14.5506 34.8035 14.2431 34.9602C14.1271 35.024 13.866 35.1111 13.6571 35.1575C13.3205 35.2329 13.2451 35.2329 12.9376 35.1575C12.7519 35.1111 12.5082 35.0298 12.3979 34.9776C12.0904 34.8383 11.6204 34.3335 11.4348 33.9448C11.2839 33.6314 11.2665 33.5386 11.2665 33.0164C11.2665 32.471 11.2781 32.4187 11.458 32.088C11.5624 31.8965 11.7075 31.676 11.7713 31.6064C12.0092 31.3511 12.427 31.0784 12.6765 31.0204C12.8099 30.9914 12.9376 30.9507 12.955 30.9333C13.0246 30.8637 13.512 30.8985 13.8311 30.9914ZM29.9385 30.8579C29.7761 30.9391 29.5904 31.0726 29.5208 31.1654C29.4511 31.2583 29.3699 31.3627 29.3409 31.3975C29.2539 31.502 29.2074 31.9255 29.2481 32.1809C29.2945 32.4536 29.631 32.8307 29.9734 32.999C30.0836 33.0512 30.3795 33.1905 30.629 33.3065C30.8785 33.4226 31.128 33.5618 31.1802 33.614C31.3485 33.7823 31.482 34.0202 31.482 34.1479C31.482 34.2581 31.3543 34.5076 31.2209 34.6469C31.1106 34.7629 30.7683 34.9022 30.5884 34.9022C30.2867 34.9022 29.6832 34.6469 29.5614 34.4728C29.4976 34.3916 29.3641 34.467 29.2248 34.6585L29.103 34.8325L29.3873 35.0124C29.544 35.1053 29.7645 35.2039 29.8805 35.2271C29.9966 35.2445 30.1068 35.2851 30.1242 35.3141C30.1648 35.3838 31.0004 35.3838 31.0468 35.3141C31.0642 35.2851 31.1512 35.2445 31.2441 35.2213C31.5516 35.1517 31.9055 34.7397 31.9752 34.3567C32.0912 33.7591 31.8069 33.2949 31.1454 32.9874C30.2751 32.5754 30.1474 32.5058 29.9501 32.3143C29.718 32.088 29.6948 31.943 29.8341 31.6644C29.9676 31.3917 30.2345 31.2293 30.5942 31.2003C30.8553 31.177 30.9598 31.2003 31.2847 31.3627C31.4936 31.4614 31.6734 31.5368 31.6793 31.5252C31.6909 31.5194 31.7431 31.4265 31.7895 31.3279C31.8765 31.1596 31.8765 31.1364 31.7837 31.061C31.5458 30.8579 31.2673 30.7709 30.7567 30.7419C30.2925 30.7187 30.1996 30.7361 29.9385 30.8579ZM6.75224 30.8231C6.6536 30.8463 6.64779 31.003 6.64779 33.0512C6.64779 35.0936 6.6536 35.2561 6.74643 35.2387C6.83347 35.2213 6.83927 35.1285 6.82767 34.3103C6.81606 33.4516 6.82186 33.3994 6.93211 33.3413C7.05396 33.2717 8.00555 33.2601 8.16802 33.3239C8.22024 33.3471 8.33629 33.4922 8.42332 33.6547C8.6206 34.0144 8.97455 34.6759 9.14862 35.0008C9.27627 35.2445 9.49096 35.349 9.49096 35.1633C9.49096 35.1169 9.46775 35.0762 9.43874 35.0762C9.40973 35.0762 9.3575 35.0066 9.32269 34.9138C9.28788 34.8267 9.14282 34.5482 8.99776 34.2929C8.8527 34.0376 8.70764 33.7591 8.67282 33.6663C8.63801 33.5792 8.58579 33.5096 8.55677 33.5096C8.52776 33.5096 8.50455 33.4458 8.50455 33.3645C8.50455 33.2601 8.54517 33.2021 8.64381 33.1615C9.06738 33.0048 9.3401 32.5522 9.3401 32.001C9.3401 31.6935 9.31108 31.5774 9.18923 31.3917C8.99195 31.0784 8.84689 30.9566 8.57998 30.8811C8.35369 30.8173 6.93211 30.7709 6.75224 30.8231ZM8.74825 31.2061C9.0964 31.473 9.22405 31.8617 9.108 32.3027C9.02096 32.6508 8.73665 32.9642 8.42912 33.0512C8.15061 33.1324 6.97853 33.1208 6.89149 33.0338C6.79285 32.9352 6.79285 31.1828 6.89149 31.0842C6.93791 31.0378 7.21062 31.0146 7.72704 31.0146H8.49295L8.74825 31.2061ZM19.4769 31.0204C19.413 31.148 19.3492 31.3337 19.326 31.4381C19.3086 31.5426 19.268 31.676 19.239 31.7399C19.2157 31.8037 19.1635 31.972 19.1229 32.117C19.0881 32.2621 19.0243 32.5058 18.9778 32.6683C18.798 33.3065 18.7051 33.6663 18.6471 33.9158C18.6181 34.0608 18.5659 34.2001 18.5369 34.2291C18.5079 34.2639 18.4846 34.3451 18.4846 34.4148C18.4846 34.4902 18.4556 34.6179 18.4208 34.7107L18.357 34.8732L18.2177 34.7107C18.1423 34.6237 18.0785 34.4786 18.0785 34.3916C18.0785 34.3045 18.0495 34.1421 18.0147 34.0318C17.9798 33.9216 17.916 33.6837 17.8754 33.5096C17.829 33.3355 17.7535 33.0338 17.7013 32.8423C17.6085 32.4942 17.4982 32.059 17.359 31.5078C17.3184 31.3453 17.2661 31.1712 17.2487 31.1132C17.2255 31.061 17.1965 30.974 17.1791 30.9275C17.1385 30.7883 17.034 30.8289 17.034 30.9798C17.034 31.0552 17.0863 31.2815 17.1501 31.4788C17.2139 31.676 17.2661 31.8907 17.2661 31.9488C17.2661 32.0126 17.2894 32.1054 17.3242 32.1634C17.3532 32.2157 17.4054 32.3897 17.4402 32.5522C17.5911 33.2021 17.6433 33.4226 17.6781 33.4806C17.7013 33.5096 17.7303 33.6431 17.7535 33.7707C17.7768 33.8984 17.8174 34.0782 17.8464 34.1769C17.8812 34.2697 17.9624 34.554 18.0321 34.7977C18.1249 35.1285 18.1829 35.2503 18.2525 35.2503C18.3976 35.2503 18.5253 35.0762 18.5717 34.8151C18.5949 34.6875 18.6297 34.554 18.6587 34.525C18.6819 34.4902 18.7283 34.3509 18.7632 34.2059C18.798 34.0608 18.8618 33.7997 18.914 33.6256C18.9604 33.4516 19.0301 33.1905 19.0649 33.0454C19.0997 32.9003 19.1519 32.7437 19.1751 32.6973C19.2041 32.645 19.2448 32.4884 19.268 32.3491C19.2912 32.2099 19.3318 32.0532 19.3608 32.001C19.384 31.9546 19.4246 31.7921 19.442 31.6412C19.4827 31.3337 19.5349 31.2699 19.6857 31.3569C19.7496 31.3917 19.8134 31.5426 19.854 31.7805C19.9294 32.1925 20.0397 32.6102 20.1093 32.7843C20.1383 32.8481 20.1905 33.0164 20.2254 33.1615C20.2602 33.3065 20.3298 33.5676 20.3762 33.7417C20.4284 33.9158 20.4923 34.1653 20.5213 34.2929C20.5503 34.4206 20.6025 34.5772 20.6315 34.6411C20.6663 34.7049 20.707 34.8616 20.736 34.9892C20.7766 35.1923 20.8056 35.2213 20.9565 35.2387C21.1189 35.2561 21.1305 35.2387 21.1944 34.9776C21.2292 34.8267 21.3046 34.5482 21.351 34.3683C21.4032 34.1827 21.4845 33.8868 21.5309 33.7127C21.6179 33.3994 21.6992 33.0976 21.8848 32.4188C21.9313 32.2389 22.0009 31.972 22.0299 31.8269C22.0589 31.6818 22.1111 31.5252 22.1401 31.473C22.2272 31.3105 22.2736 30.8405 22.204 30.8405C22.1053 30.8405 21.9603 31.2525 21.7862 32.059C21.7514 32.2041 21.705 32.3723 21.676 32.4362C21.6469 32.5 21.6005 32.6683 21.5657 32.8133C21.5367 32.9584 21.4671 33.2195 21.4206 33.3935C21.3742 33.5676 21.2988 33.8577 21.2524 34.0318C21.1247 34.525 21.0145 34.8151 20.9565 34.8151C20.8984 34.8151 20.7708 34.496 20.6489 34.0318C20.6025 33.8577 20.5329 33.5792 20.4865 33.4226C20.4458 33.2601 20.3762 33.0164 20.3414 32.8713C20.3066 32.7263 20.2544 32.558 20.2254 32.4942C20.1789 32.3781 20.0919 32.059 19.9817 31.5948C19.9468 31.4498 19.9004 31.3047 19.8772 31.2757C19.854 31.2409 19.8134 31.1364 19.796 31.032C19.7322 30.7535 19.6045 30.7477 19.4769 31.0204ZM24.1884 30.8231L24.0549 30.8463V35.2619L25.1748 35.2387C26.2018 35.2155 26.3062 35.2039 26.5499 35.082C26.8227 34.937 27.4203 34.3683 27.4203 34.2465C27.4203 34.2059 27.4667 34.0956 27.5189 34.0028C27.6002 33.8635 27.6176 33.6779 27.6176 33.0744C27.6234 32.1925 27.548 31.9604 27.0896 31.473C26.7704 31.1306 26.4861 30.9798 25.9697 30.8637C25.6216 30.7883 24.5017 30.7651 24.1884 30.8231ZM26.2308 31.1248C26.9677 31.3859 27.4783 32.1692 27.4783 33.0454C27.4783 33.9216 27.0025 34.6875 26.2772 34.9776C25.9291 35.1169 24.5597 35.1923 24.3567 35.082C24.229 35.0124 24.229 35.0066 24.229 33.086C24.229 31.6586 24.2464 31.1364 24.2986 31.0842C24.345 31.0378 24.6178 31.0146 25.14 31.0146C25.755 31.0146 25.9813 31.0378 26.2308 31.1248ZM33.095 30.9566C33.0834 31.0494 33.095 31.1538 33.1298 31.1886C33.1647 31.2235 33.4896 31.2467 33.8958 31.2467C34.4876 31.2467 34.6095 31.2641 34.6385 31.3395C34.6559 31.3917 34.6733 32.2911 34.6733 33.3413V35.2561L34.9402 35.2387L35.2071 35.2213L35.2013 33.3065C35.1955 32.2505 35.2129 31.3627 35.2419 31.3221C35.2709 31.2757 35.5262 31.2467 36.0368 31.2351L36.7911 31.2177V30.8115L34.9576 30.7941L33.1182 30.7825L33.095 30.9566ZM38.2011 32.97C38.1895 34.3858 38.2069 35.1807 38.2417 35.2039C38.2766 35.2271 38.3984 35.2503 38.5203 35.2503H38.7349V34.4612C38.7349 34.0318 38.764 33.6256 38.793 33.5618C38.8452 33.469 38.9206 33.4516 39.3152 33.4516H39.7736L39.9244 33.6663C40.0057 33.7881 40.0695 33.9158 40.0695 33.9506C40.0695 33.9912 40.0869 34.0318 40.1159 34.0434C40.1391 34.0492 40.2668 34.2813 40.406 34.554C40.7542 35.2445 40.76 35.2503 41.0791 35.2503C41.2242 35.2503 41.346 35.2271 41.346 35.1923C41.346 35.1633 41.2648 35.0008 41.1661 34.8325C41.0675 34.6643 40.9689 34.4844 40.9398 34.438C40.9108 34.3916 40.7948 34.1711 40.6787 33.9448C40.5627 33.7243 40.4408 33.5212 40.406 33.5038C40.3364 33.4574 40.4002 33.2195 40.4815 33.2195C40.5105 33.2195 40.6323 33.1266 40.76 33.0164C40.9979 32.8017 41.1719 32.3955 41.1719 32.0532C41.1719 31.7689 40.9863 31.3163 40.7948 31.1364C40.4815 30.8463 40.1971 30.7825 39.1527 30.7825H38.2127L38.2011 32.97ZM40.1739 31.3453C40.4524 31.5078 40.5917 31.7631 40.5917 32.117C40.5917 32.4884 40.4466 32.7437 40.1391 32.9061C39.8722 33.0512 38.88 33.0686 38.793 32.9294C38.7291 32.8365 38.7175 31.589 38.7698 31.3743C38.8046 31.2525 38.8336 31.2467 39.4022 31.2467C39.8606 31.2467 40.0405 31.2699 40.1739 31.3453ZM43.0693 30.8231C43.0461 30.8405 43.0287 31.8501 43.0287 33.057V35.2503H43.6089V30.7825H43.3594C43.2202 30.7825 43.0867 30.7999 43.0693 30.8231ZM45.6398 30.8115V35.1923C45.6398 35.2503 45.9241 35.2735 46.0575 35.2213C46.1156 35.1981 46.1272 34.995 46.1156 34.2581C46.104 33.5966 46.1156 33.3065 46.1678 33.2427C46.2374 33.1557 46.777 33.1266 46.8931 33.2079C46.9685 33.2601 47.4965 34.1305 47.4965 34.2059C47.4965 34.2349 47.5313 34.2929 47.572 34.3335C47.6184 34.3742 47.688 34.4786 47.7344 34.5656C47.7808 34.6469 47.8795 34.8383 47.9549 34.9834C48.0942 35.2445 48.1058 35.2503 48.3727 35.2503C48.6744 35.2503 48.7614 35.1865 48.6338 35.0646C48.5932 35.0182 48.5352 34.9254 48.5177 34.8557C48.4945 34.7861 48.4539 34.7281 48.4249 34.7281C48.4017 34.7281 48.3495 34.6585 48.3147 34.5656C48.274 34.4786 48.216 34.3567 48.1754 34.2929C48.1348 34.2291 47.9781 33.9564 47.8157 33.6953C47.3109 32.8597 47.3225 32.999 47.7054 32.3607C47.8911 32.0532 48.0594 31.7863 48.0884 31.7805C48.1116 31.7689 48.1348 31.7283 48.1348 31.6935C48.1348 31.6586 48.2508 31.4556 48.3959 31.2409C48.541 31.0262 48.657 30.8347 48.657 30.8173C48.657 30.7999 48.5352 30.7825 48.3785 30.7825C48.1754 30.7825 48.0768 30.8115 48.0013 30.8985C47.9491 30.9624 47.9027 31.032 47.9027 31.0494C47.9027 31.1132 47.4791 31.7979 47.4269 31.8153C47.4037 31.8269 47.3805 31.8675 47.3805 31.9023C47.3805 31.943 47.276 32.1344 47.1484 32.3317L46.9221 32.6973H46.603C46.0749 32.6973 46.104 32.7495 46.104 31.7051V30.7825H45.8719C45.7442 30.7825 45.6398 30.7941 45.6398 30.8115ZM50.3397 33.0164V35.2503H53.1248V34.8441H52.063C51.3145 34.8441 50.978 34.8209 50.9315 34.7745C50.8851 34.7281 50.8619 34.4844 50.8619 34.055C50.8619 33.1905 50.8387 33.2137 51.7497 33.2253C52.4169 33.2311 52.4518 33.2253 52.4982 33.1092C52.5968 32.8423 52.5272 32.8133 51.7265 32.8133C51.0476 32.8133 50.978 32.8017 50.9199 32.7031C50.8503 32.5696 50.8387 31.4265 50.9083 31.3221C50.9431 31.2699 51.2333 31.2467 51.9063 31.2351L52.8637 31.2177L52.8811 30.9972L52.8985 30.7825H50.3397V33.0164Z" fill="#DA1B1B"/>
</g>
<defs>
<clipPath id="clip0_248_294764">
<rect width="52.2388" height="35" fill="white" transform="translate(0.882812 0.5)"/>
</clipPath>
</defs>
</svg>
