<svg width="57" height="8" viewBox="0 0 57 8" fill="none" xmlns="http://www.w3.org/2000/svg">
<g clip-path="url(#clip0_248_294754)">
<path d="M36.9747 7.14614H35.4333V0.855469L40.3907 0.859443C40.3907 0.859443 41.2983 0.82584 41.8757 1.39601C41.8757 1.39601 42.4651 1.88814 42.4651 3.09099V7.14506H40.9276V2.9862C40.9276 2.9862 40.9464 2.56201 40.8022 2.41314C40.8022 2.41314 40.6743 2.25163 40.4312 2.25163H36.9711L36.9744 7.14397L36.9747 7.14614ZM43.5364 7.14506V0.860166H49.7223V2.25813L45.0684 2.25777V3.32657H48.3015V4.67648H45.0684V5.7489H49.7512V7.14723H43.5328L43.5364 7.14506ZM32.7472 7.14506V0.860166H34.2821V7.14723H32.7472V7.14506ZM51.9318 7.14506V2.25633H50.4829V0.858359H56.246V2.25633H53.4678V7.14506H51.9329H51.9318ZM27.6778 7.14506V2.25633H26.2289V0.858359H31.992V2.25633H29.2138V7.14506H27.6789H27.6778ZM23.0492 3.32224C23.4243 3.31935 23.6487 3.3226 23.739 3.26768C23.739 3.26768 23.8965 3.1806 23.8984 2.99343L23.8987 2.58224C23.8987 2.39435 23.7394 2.308 23.7394 2.308C23.6198 2.24296 23.4171 2.25524 22.9354 2.25488H19.9451V3.32224H23.1179H23.0492ZM23.8763 7.14506V4.99951C23.8763 4.80656 23.7152 4.72599 23.7152 4.72599C23.6425 4.68082 23.4247 4.67251 23.1042 4.67251H23.1786H19.9451V7.1447H18.4102V0.859805H23.2014C24.0288 0.862334 24.6001 0.984101 24.9935 1.36602C25.3802 1.75987 25.4315 2.27512 25.4336 2.81132V3.259C25.4387 3.71464 25.1991 4.13016 24.9137 4.37225L24.9711 4.40079C25.0875 4.45716 25.1514 4.53701 25.1514 4.53701C25.3682 4.81451 25.3657 5.05298 25.3653 5.34638V7.14614H23.8767L23.8763 7.14506ZM0.664785 0.857998V7.14325H2.19969V4.67323H6.84995V3.3226H2.19969V2.25452H7.60512V0.856553H0.664062L0.664785 0.857998ZM55.7275 6.03326V6.32196H55.9963C56.069 6.32196 56.1394 6.30209 56.1502 6.19405C56.1658 6.05096 56.0621 6.03326 55.9963 6.03326H55.7275ZM55.6195 5.93823H55.9938C56.1239 5.93823 56.2496 5.9628 56.2605 6.15214C56.2648 6.26053 56.2319 6.29992 56.1502 6.3617C56.2366 6.41663 56.2388 6.42999 56.2518 6.57489C56.2605 6.68545 56.2449 6.70316 56.2915 6.77578H56.1636L56.1463 6.66991C56.1282 6.57055 56.177 6.41699 56.0028 6.41699H55.7275V6.77578H55.6195V5.93823ZM55.9013 5.70698C55.813 5.70708 55.7256 5.72462 55.6442 5.7586C55.5627 5.79257 55.4887 5.84232 55.4265 5.90498C55.3643 5.96763 55.3152 6.04196 55.2818 6.12369C55.2484 6.20542 55.2316 6.29294 55.2321 6.38122C55.2321 6.75121 55.532 7.05328 55.9042 7.05111C55.9924 7.05095 56.0798 7.0334 56.1613 6.99947C56.2428 6.96554 56.3167 6.9159 56.379 6.85338C56.4413 6.79085 56.4907 6.71667 56.5243 6.63507C56.5579 6.55347 56.5752 6.46604 56.575 6.37778C56.5748 6.28953 56.5573 6.20217 56.5233 6.12069C56.4894 6.03922 56.4398 5.96522 56.3772 5.90293C56.3147 5.84064 56.2405 5.79128 56.1589 5.75766C56.0773 5.72404 55.9899 5.70682 55.9017 5.70698M55.9038 7.13855C55.804 7.13874 55.7051 7.11923 55.6128 7.08114C55.5206 7.04305 55.4367 6.98712 55.3661 6.91657C55.2955 6.84601 55.2395 6.76222 55.2013 6.66998C55.1631 6.57774 55.1435 6.47888 55.1436 6.37905C55.1435 6.27917 55.163 6.18025 55.2012 6.08795C55.2393 5.99565 55.2953 5.91179 55.3659 5.84117C55.4366 5.77055 55.5204 5.71455 55.6127 5.6764C55.705 5.63824 55.804 5.61868 55.9038 5.61882C56.323 5.61882 56.6641 5.96063 56.6641 6.37941C56.6636 6.58079 56.5833 6.77377 56.4408 6.91606C56.2983 7.05836 56.1052 7.13836 55.9038 7.13855Z" fill="#231F20"/>
<path d="M16.298 7.20726C16.7966 7.0378 17.1847 6.46366 17.2779 5.74173V5.53288H14.7215V7.20726H16.298ZM17.2782 2.46306V2.27409C17.1803 1.52073 16.7634 0.927431 16.2319 0.787598H14.7219V2.46306H17.2782ZM8.28125 5.53324V5.73992C8.37375 6.46257 8.76181 7.0378 9.26189 7.20726H10.83V5.53288H8.28125V5.53324ZM9.32729 0.789043C8.7965 0.928515 8.37845 1.52253 8.28125 2.27698V2.46451H10.83V0.789404H9.32729V0.789043ZM17.2801 3.1615H14.7237V4.83661H17.2801V3.1615ZM11.5278 7.20835H14.0285V5.53397H11.5278V7.20835ZM14.0285 0.787598H11.5278V2.4627H14.0285V0.787598ZM8.28342 4.83444H10.8322V3.15934H8.28342V4.83444Z" fill="#EE2E24"/>
</g>
<defs>
<clipPath id="clip0_248_294754">
<rect width="56" height="6.7872" fill="white" transform="translate(0.664062 0.606445)"/>
</clipPath>
</defs>
</svg>
