<svg width="44" height="32" viewBox="0 0 44 32" fill="none" xmlns="http://www.w3.org/2000/svg">
<g clip-path="url(#clip0_248_294014)">
<path d="M16.487 7.03107L13.6608 7.49007L11.0825 8.62057L8.89267 9.99807L6.80867 12.5411L5.6315 13.7881L4.49283 14.2077L4.19183 13.4717L4.71833 12.7119L4.83667 11.6402L5.18917 11.6546L5.5745 12.0061L5.4705 10.9144L5.04333 10.6277L5.05667 10.2117L4.04483 10.7841L3.12867 11.8651L2.9375 12.8311L3.3295 13.6047L3.69483 14.9189L4.438 15.2707L5.21967 15.2324L5.961 14.8017L5.4665 17.3096L5.961 20.0999L5.41667 21.3882L3.63367 23.3094L3.95067 24.4571L4.79533 25.7869L6.38783 26.9074L7.2325 27.0232L8.17167 27.0549L7.58567 29.4604L9.74033 30.3432L12.4247 30.6966L13.343 30.0962L13.4137 28.4712L14.4382 26.7757L14.5088 25.4336L16.9813 25.6102L19.2772 25.3984L16.9813 26.7757L17.37 28.4361L18.818 30.6966L20.2308 31.2969L21.3612 30.8377L21.8202 29.9194L24.1868 28.1181L24.646 28.5064L28.3548 28.6479L29.0965 28.0476L29.167 26.9876L28.92 26.5287L28.7432 23.6676L27.507 21.1951L27.719 20.1001L28.4607 20.4887L30.5447 22.4312L31.569 22.5021L32.6992 22.0427L33.8297 21.1951L34.3947 19.3584L37.715 19.5702L39.7283 18.7934L41.353 17.2744L42.5187 15.0844L42.801 12.5061L42.5538 9.50357L41.9182 6.81941L41.2823 5.97174L40.3995 5.68907L38.8452 7.38441L37.4323 7.87891L36.196 5.83024L34.9598 4.70007L34.2887 4.27624L31.6042 2.05091L29.4497 0.88524L27.295 0.70874L24.7873 1.13257L22.5973 1.94474L21.0785 3.18107L19.8777 4.62941L18.6415 4.98274L16.4867 7.03124" fill="#FFFF00"/>
<path d="M8.29104 13.4057C5.87071 16.2289 6.40838 19.6526 7.07921 23.0074C6.72129 22.1029 6.36329 21.1985 6.00521 20.2941L5.60938 17.8062C5.64704 16.9582 5.68454 16.1102 5.72254 15.2624L6.73987 12.8316L8.26621 10.5702L10.6405 8.5919L13.2409 7.51774L16.2937 7.12207L13.467 10.3442C11.1974 11.0802 9.85921 11.5762 8.29087 13.4057" fill="#FFFFCC"/>
<path d="M19.686 4.80413C18.0035 6.4458 17.0843 7.68413 16.0133 9.6063C15.2475 10.9813 14.3883 12.3058 13.5828 13.6616C13.1756 14.348 13.1371 14.9233 13.0153 15.7148L11.8281 14.3015C12.0168 13.7361 12.2051 13.1708 12.3935 12.6056L14.3156 9.1573L18.386 5.14346C18.8193 5.0303 19.2526 4.91746 19.686 4.80413ZM27.9961 0.734131C26.6483 1.2393 24.4103 1.4058 24.255 2.95246C24.1445 4.05113 24.3378 4.60313 25 5.76546C23.3645 4.07296 22.96 4.3348 19.7991 4.8608L21.1558 2.9388L23.5301 1.4688L26.583 0.790464L27.9961 0.734131Z" fill="#FFFFCC"/>
<path d="M31.7086 21.6575C32.1572 21.9345 32.1476 22.1352 32.0726 22.325C32.4264 22.1833 32.7804 22.0417 33.1342 21.9005L33.8222 20.9767L34.3328 19.6607L33.6802 19.1702L30.8286 19.5342C30.7582 19.7262 30.6873 19.9183 30.6164 20.1107C30.6366 20.3835 30.6571 20.6567 30.6771 20.9295C30.7681 21.0915 30.8592 21.2532 30.9504 21.415C31.0919 21.4857 31.2332 21.5567 31.3749 21.6273C31.4864 21.6373 31.5974 21.6477 31.7086 21.6575ZM31.4432 16.781C30.0137 17.1935 30.0249 17.3071 29.6029 18.7253C30.1601 17.8313 30.5726 17.3801 31.4432 16.781ZM40.9472 6.16915C40.6932 6.28665 40.4456 6.34298 40.2869 6.57548C39.9449 7.07582 39.6519 7.49665 39.0864 7.84782C38.8016 8.02482 38.5071 8.13948 38.2051 8.23365C37.9546 8.31148 37.8039 8.24182 37.5907 8.39532C37.7174 8.41698 37.8439 8.43932 37.9704 8.46148H38.8071L39.8386 7.82465L40.4452 7.18748L40.9472 6.16915ZM18.1786 9.34115C17.6164 10.88 17.1249 12.199 16.2733 13.592C17.3646 12.416 18.0264 11.4163 18.6516 10.0868C18.8946 9.57015 18.9404 8.96415 19.6169 9.18948C19.6472 9.70548 19.7562 10.2208 19.7866 10.7365C20.1521 8.11682 21.1827 7.02098 23.5786 6.00415L21.5461 6.24698L19.6347 6.67165L18.6944 8.03665L18.1786 9.34115ZM22.8201 9.28048C23.3368 11.7122 24.0808 14.0462 24.4039 16.5165C24.6138 18.1217 24.6366 18.8928 23.8291 20.2778C22.9464 20.2207 22.3984 20.3202 21.5446 20.6C18.1458 21.7142 16.1962 23.3525 13.9062 20.0515L16.0996 21.0852C16.6208 20.9827 17.1419 20.8805 17.6629 20.7777C18.5833 20.242 19.5034 19.706 20.4238 19.1702L22.5774 18.7452L23.2753 15.8333L22.7594 11.9805C22.7394 11.3738 22.7191 10.7672 22.6988 10.1605C22.7394 9.86715 22.7799 9.57365 22.8201 9.28048ZM28.6749 24.3272C28.3894 26.3028 29.3324 27.3648 28.9419 27.9105C28.8314 28.0648 28.6816 28.3345 28.5144 28.4085C27.9169 28.6723 27.0954 28.359 27.0369 28.5135H25.0651L24.2764 28.1798L25.4898 26.754C25.8841 25.8947 26.2786 25.035 26.6727 24.1753L27.4311 21.5666H27.8256L28.6749 24.3272Z" fill="#CCCC00"/>
<path d="M25.3645 18.5836C25.5247 19.4806 25.8028 19.6938 26.2248 20.5621C25.944 21.9788 25.4928 23.6633 24.9498 24.9133C24.7208 25.4405 24.5362 25.7311 24.1322 26.1385C23.4505 26.8268 22.7617 27.4261 21.9888 28.0228C21.4322 28.4516 21.0438 28.2366 20.3573 28.1395C20.0653 28.6686 19.9848 28.9628 19.4473 29.2315C18.621 29.6445 17.8815 28.7543 17.2328 28.2303C17.7012 28.962 18.1695 29.6931 18.6375 30.4246C18.9612 30.728 19.2848 31.0311 19.6083 31.3346L20.4275 31.4561L21.5193 30.7885C21.7117 30.4246 21.9037 30.0605 22.0958 29.6966C22.5003 29.3933 22.905 29.09 23.3092 28.7863C23.8048 28.3618 24.3003 27.937 24.7958 27.5123L25.7362 26.1775L26.5853 24.6001C26.9497 23.5081 27.3137 22.416 27.6778 21.324C27.708 20.9093 27.7382 20.4948 27.7687 20.08C27.3137 19.878 26.8587 19.6755 26.4035 19.4733C26.0698 19.16 25.6982 18.8971 25.3645 18.5836ZM14.4815 24.9035C16.0125 24.9035 17.6295 24.8185 19.032 24.1753C19.4287 23.5803 19.8205 23.094 20.306 22.5678C19.8642 23.4025 19.7255 23.8741 19.6083 24.8125L19.1533 25.48C18.0005 25.5101 16.8478 25.5405 15.695 25.571C15.3207 25.5303 14.9467 25.49 14.5725 25.4496C14.532 25.4088 14.4917 25.3685 14.4512 25.3281C14.4615 25.1865 14.4715 25.045 14.4815 24.9035ZM14.2693 23.8418L14.1503 22.7645C13.8888 24.3391 13.9517 25.3945 13.227 26.805C12.6857 27.432 12.0192 28.0026 11.2558 28.3081C11.3203 28.6948 11.3397 28.9365 11.3022 29.22C11.1677 30.24 9.12766 29.7893 8.28833 29.7486L12.3277 30.7886L13.2377 30.4246C13.339 29.8383 13.4402 29.2515 13.5412 28.6651L14.3905 27.0878L14.5422 26.117L14.2692 23.842M11.9938 14.9533C11.9517 15.7191 11.9022 16.0383 12.2398 16.7143C12.669 17.5736 13.196 18.3813 13.6623 19.2306L13.814 17.5318C13.2075 16.6721 12.6007 15.8128 11.994 14.9535M5.76666 20.7368C5.63516 21.0161 5.50416 21.2958 5.37266 21.5753C5.73399 22.7928 6.05549 23.564 6.74366 24.6275C6.62366 25.0583 6.53399 25.2468 6.25833 25.598C5.65266 25.505 5.11483 25.478 4.50099 25.48C5.17849 26.0055 5.85599 26.5316 6.53349 27.0575C6.86716 26.9965 7.20099 26.9358 7.53466 26.8753L8.53583 25.8743L7.10999 23.6596C6.66199 22.6855 6.21433 21.711 5.76666 20.7368ZM40.9553 5.76648C41.368 7.62265 41.9003 9.33581 41.8508 11.2371C41.7902 13.5696 41.3357 16.5161 39.1743 17.9226C36.754 19.498 33.9127 18.7528 31.2572 18.0778L34.5032 19.4126C35.5143 19.4633 36.5257 19.514 37.5368 19.5643C38.2245 19.3621 38.9122 19.16 39.5995 18.9576C40.1355 18.5126 40.6715 18.068 41.2075 17.6228L42.4208 15.0748L42.8758 12.1321C42.7547 11.1713 42.633 10.2108 42.5118 9.25015L41.8445 6.39865C41.5482 6.18781 41.2518 5.97698 40.9553 5.76648ZM4.83566 11.2991C3.73699 12.0143 3.30533 12.3283 3.42583 13.6538L3.75416 14.8446L4.21966 15.1596L4.79466 15.3513L5.83499 15.1048C6.01316 14.5526 6.19099 14.0006 6.36883 13.4485L4.89049 14.1741H4.54833C4.42061 13.9779 4.29283 13.7817 4.16499 13.5855L4.63049 12.901L4.87683 11.6005C4.98183 11.6323 5.08683 11.6645 5.19166 11.6961C5.31949 11.7968 5.44716 11.8971 5.57499 11.9973L5.52016 11.313L5.26016 10.875C5.17349 10.8016 5.08683 10.729 5.00016 10.6558L4.83566 11.2991ZM29.4873 0.85498C30.4627 1.76065 31.6595 2.54765 32.4395 3.65431C32.7413 4.08265 33.0767 4.30181 32.4345 4.90698C33.113 4.71315 33.3653 4.73415 33.9087 4.79998C34.897 4.91965 35.8233 6.32465 35.8823 7.33131C35.8707 7.42548 35.6078 7.63931 34.8437 7.85031C34.8287 7.87965 34.4123 7.79331 34.4227 7.82165C34.5022 8.03881 34.6082 8.07215 34.7703 8.17365C34.8053 8.41531 34.828 8.78815 34.9927 9.05248C35.4735 9.04381 35.9435 9.09631 36.4143 9.18948C36.5727 9.45231 36.549 9.71515 36.5357 9.97815L37.0817 9.88731C37.0313 9.47265 36.9807 9.05815 36.9302 8.64348C37.0918 8.37048 37.2535 8.09731 37.4155 7.82465L36.7177 6.24698C36.2728 5.82231 35.828 5.39748 35.3828 4.97281L35.2545 4.96648C34.7541 4.65941 34.2537 4.3523 33.7533 4.04515L31.305 2.04215L29.4873 0.85498ZM31.1302 8.32948C31.0787 8.41948 31.001 8.56315 30.9015 8.66281C31.3077 9.04698 31.5082 9.30431 31.653 9.84781C31.1937 10.0756 30.7347 10.3038 30.2755 10.5315L29.1098 11.649C28.5983 11.3736 28.471 11.1623 28.2235 10.6373C27.9352 10.7138 27.6623 10.7873 27.4243 10.6998C27.5753 10.701 27.668 10.6633 27.819 10.57L28.5607 9.79948C28.9973 9.46881 29.434 9.13781 29.8707 8.80731L30.7282 8.52781C30.8373 8.48298 31.021 8.37448 31.1302 8.32948Z" fill="#CCCC00"/>
<path d="M32.3993 9.69989C30.9383 10.4866 29.5393 11.2776 28.7923 12.7714C28.7923 10.8752 30.6961 10.0406 32.3991 9.69973M28.5023 5.96973C27.4174 6.70939 26.6504 8.20206 26.7468 9.65673C26.3934 8.39706 26.5186 7.20689 27.6034 6.33689C27.7868 6.24806 27.9696 6.15889 28.1528 6.07006C28.2693 6.03673 28.3856 6.00339 28.5023 5.96973Z" fill="#CCCC00"/>
<path d="M43.0953 9.40398C42.8986 8.16348 42.5725 6.95932 42.1198 6.09348C42.0648 5.98765 41.9811 5.88032 41.8775 5.77798C41.6526 5.55632 41.3198 5.34632 40.976 5.22815C40.6116 5.10282 40.2275 5.07732 39.9225 5.23665C39.8433 5.27832 39.7696 5.33165 39.7041 5.39832C39.5066 5.59832 39.34 5.84165 39.1731 6.08515C38.9876 6.35648 38.801 6.62915 38.5776 6.81965C38.3188 7.04098 37.995 7.17532 37.6895 7.29798C37.5609 6.98606 37.4063 6.6855 37.2273 6.39948C37.0185 6.06648 36.7806 5.75465 36.519 5.44282C36.3276 5.21314 36.1105 5.00607 35.8721 4.82565C35.6465 4.65348 35.4155 4.50848 35.1465 4.34015C34.4253 3.88848 33.8111 3.34982 33.1848 2.80015C32.9001 2.55048 32.6126 2.29848 32.3315 2.06665C30.8398 0.836651 29.4485 0.240151 27.9605 0.146651C26.4826 0.053651 24.9221 0.459651 23.0796 1.23532C22.1903 1.60948 21.53 2.05182 20.9546 2.58365C20.4051 3.09198 19.9386 3.67732 19.4258 4.36082C19.1275 4.38198 18.8631 4.42615 18.5933 4.53415C18.296 4.65315 17.9966 4.84582 17.638 5.16232C17.3883 5.38258 17.1438 5.60858 16.9046 5.84015C16.6855 6.05274 16.4703 6.26927 16.259 6.48965C14.5816 6.75915 13.215 7.05665 11.991 7.53065C10.7393 8.01565 9.63598 8.68265 8.50281 9.68732C8.05662 10.0815 7.64987 10.5182 7.28831 10.9912C6.94364 11.4427 6.64864 11.9173 6.38981 12.4178C6.16314 12.6687 5.93598 12.9218 5.69014 13.1433C5.45048 13.3592 5.19498 13.541 4.90864 13.6512L4.90881 13.6513C4.74231 13.7155 4.67348 13.753 4.66598 13.7505C4.65764 13.7458 4.65298 13.7208 4.64131 13.6748C5.05248 13.2825 5.11714 12.706 5.15514 12.1337C5.20448 12.1927 5.25181 12.2653 5.30098 12.3413C5.35531 12.4252 5.41098 12.5117 5.47764 12.5958L5.75681 12.948L5.85481 12.5087C5.93714 12.1405 5.99881 11.6503 5.90281 11.2253C5.84081 10.9495 5.71281 10.7037 5.48981 10.5295C5.51114 10.4738 5.53131 10.4225 5.55114 10.3718C5.62114 10.1927 5.69331 10.0088 5.75448 9.83515L5.87548 9.49098L5.51548 9.55332C5.03648 9.63665 4.00714 10.2023 3.28214 10.9545C3.01298 11.234 2.78148 11.5428 2.62964 11.8668C2.47164 12.204 2.40081 12.5568 2.46214 12.9098C2.51548 13.2185 2.66998 13.5215 2.95048 13.8072C3.00164 14.0133 3.04881 14.1922 3.09931 14.3535C3.15714 14.537 3.21931 14.7012 3.29714 14.8628C3.50814 15.3015 3.84448 15.5695 4.23381 15.6945C4.54664 15.795 4.89264 15.8 5.23198 15.7257C5.16308 16.1299 5.12154 16.5383 5.10764 16.9482C5.08614 17.5207 5.10714 18.1532 5.17014 18.8872C5.18398 19.0483 5.20481 19.2255 5.23164 19.4182C5.25498 19.5825 5.28264 19.7438 5.31248 19.904C5.24914 20.077 5.18531 20.2503 5.12164 20.4233L4.82548 21.2295L4.17381 21.8753C3.97098 22.0758 3.76814 22.2768 3.56548 22.4777C3.54881 22.4943 3.48031 22.56 3.41831 22.6198C3.00748 23.0152 2.92614 23.0937 3.04281 23.7893C3.11755 24.2345 3.26288 24.6649 3.47331 25.0643C3.67498 25.4485 3.94564 25.8225 4.29298 26.1708C4.72631 26.6052 5.43664 27.1448 6.18031 27.4275C6.60531 27.5888 7.04331 27.6678 7.45448 27.6018C7.43348 27.6652 7.41314 27.7282 7.38998 27.7918C7.3249 27.9723 7.25262 28.1501 7.17331 28.3248C6.66881 29.4307 7.18664 30.0082 7.99264 30.3757C8.39514 30.559 8.87364 30.6837 9.31814 30.7997C9.40914 30.823 9.50014 30.847 9.61481 30.878C10.1415 31.0203 11.0516 31.2818 11.883 31.3343C12.7903 31.3917 13.6086 31.2043 13.828 30.39C13.9146 30.0672 13.9651 29.82 13.9856 29.5778C14.0045 29.3532 13.9973 29.1262 13.971 28.8452C14.2296 28.2718 14.3393 28.1107 14.5285 27.8342C14.5655 27.7795 14.6103 27.7142 14.6238 27.6935C14.8266 27.393 14.9216 27.1797 14.9561 26.9395C14.9895 26.7077 14.9611 26.4767 14.9193 26.1237C14.9153 26.0902 14.9093 26.0412 14.9005 25.9763C15.4229 26.0442 15.949 26.0802 16.4758 26.0843C16.7401 26.086 17.0043 26.0782 17.2685 26.0643C17.201 26.0988 17.1348 26.1332 17.0625 26.1703L16.9641 26.2208C16.2635 26.5812 16.2343 27.2637 16.4536 27.9658C16.6513 28.599 17.0583 29.2455 17.3136 29.6387C17.8503 30.4658 18.3625 31.166 18.9835 31.5465C19.6343 31.9453 20.378 31.9923 21.3378 31.4728C21.8261 31.2085 21.9801 30.939 22.1875 30.5757C22.251 30.4648 22.321 30.344 22.399 30.2248C22.6006 30.0912 23.1028 29.677 23.5956 29.2695C23.7635 29.1308 23.9311 28.9928 24.1203 28.8387C24.2506 28.9345 24.408 29.001 24.5981 29.0463C24.8451 29.1055 25.1393 29.1322 25.4918 29.1575C25.7556 29.1768 26.616 29.1762 27.1718 29.176C27.3435 29.176 27.486 29.176 27.5715 29.1765C28.1453 29.18 28.6085 29.1498 28.9585 28.9515C29.3315 28.74 29.5526 28.3655 29.601 27.6938C29.622 27.3955 29.626 27.2115 29.5845 27.0237C29.5458 26.8477 29.4703 26.6882 29.3406 26.4548C29.3328 26.1645 29.325 25.8743 29.3173 25.584C29.3093 25.2762 29.3006 24.968 29.2926 24.6602C29.2828 24.2972 29.2428 24.0022 29.1691 23.712C29.0961 23.4238 28.9918 23.1467 28.8521 22.814C28.7653 22.6044 28.6831 22.3929 28.6058 22.1797L28.4045 22.2533L28.4355 22.242L28.6058 22.1797V22.1788C28.4858 21.8552 28.3675 21.54 28.2018 21.2028C28.2125 21.1378 28.2233 21.0678 28.2338 20.9932L28.5538 21.3015L29.0255 21.756C29.3851 22.1025 29.714 22.4177 30.1003 22.6453C30.4998 22.8812 30.949 23.018 31.5306 22.9903C32.1396 22.9617 32.7913 22.7052 33.3278 22.3093C33.8468 21.9262 34.2633 21.4095 34.4371 20.8377L34.5878 20.3417L34.7081 19.9458C35.5621 20.0905 36.4788 20.1372 37.3641 20.0445C38.2185 19.9547 39.0438 19.7372 39.7556 19.3575C40.802 18.7992 41.5865 17.9768 42.1503 17.0003H42.1506C42.7806 15.909 43.1335 14.623 43.2675 13.2997C43.375 12.2383 43.3163 10.7955 43.0953 9.40398ZM32.0308 18.3237C31.5386 18.158 31.1965 17.9163 30.7641 17.6438C30.8818 18.1743 30.9353 18.7353 30.7786 19.2648C30.53 20.1052 30.1283 21.4798 31.2691 21.7335C31.7033 21.8298 31.9003 21.816 32.5131 21.4997C32.0171 21.612 31.767 21.5847 31.426 21.5213C31.117 21.4645 30.9531 21.2683 30.8668 21.0368C30.9748 21.1147 31.1508 21.157 31.4518 21.2295C32.2975 21.4335 33.1033 21.0262 33.261 20.4398C33.3526 20.0972 33.3371 19.9172 33.532 19.4502C33.707 19.5043 33.8878 19.5535 34.0735 19.5985L33.7591 20.6233C33.4875 21.51 32.4283 22.225 31.4933 22.2085C30.629 22.1933 30.0808 21.6518 29.484 21.121C29.073 20.755 28.6773 20.4052 28.2853 20.0585C27.2095 19.719 26.3471 19.3223 25.3486 18.5832C26.0593 19.4182 26.5411 19.8805 27.5321 20.296C27.3881 21.766 26.8771 22.838 26.4416 24.2448C26.2443 24.8808 24.6881 27.43 24.2568 27.6785C23.9493 27.8557 22.023 29.478 21.6608 29.6922C21.3908 30.0505 21.154 30.5458 20.7481 30.7602C19.5118 31.414 18.7173 30.1622 18.052 29.105C17.7491 28.6233 16.9078 27.236 17.6411 26.8473C18.3345 26.4802 18.7228 26.2178 19.4303 25.7532C19.5343 25.9427 19.7125 26.1257 19.8286 26.3148L19.7516 25.6938C19.705 25.3188 19.707 25.0143 19.7366 24.637C19.7656 24.2717 19.7943 23.9063 19.823 23.5408C19.7165 23.9123 19.5038 24.2837 19.3976 24.6548C19.3551 24.8035 19.32 24.9235 19.2996 25.0348C17.7123 25.3592 16.1365 25.3793 14.5488 25.0962C14.4475 24.5083 14.3241 23.8958 14.2206 23.4567C14.1893 23.9483 14.2095 25.308 14.207 26.0693C14.205 26.659 14.1803 26.861 13.876 27.3627C13.5913 27.8323 13.4708 27.939 13.072 28.7327C13.1053 29.2335 13.1058 29.5643 12.9728 30.0397C12.7516 30.8298 10.5195 30.2177 9.93081 30.0563C9.20564 29.858 7.70664 29.563 8.08364 28.5963C8.41531 27.7457 8.62564 26.8487 8.78781 25.6583C7.45931 23.7445 6.22398 21.122 5.98681 18.7983C5.80264 16.9942 5.91314 15.8837 6.30348 14.78C6.92214 13.0313 7.78781 11.5177 9.17648 10.2988C11.0498 8.65498 12.8008 7.99498 15.5428 7.57748C14.8835 8.31582 14.2311 9.09615 13.5201 9.93298C12.8003 10.7802 12.3728 11.6358 11.9156 12.5627C11.2843 13.8425 11.298 14.3295 12.1348 15.4532C12.856 16.4215 13.2453 16.8573 13.5603 17.8048C13.3003 18.3408 13.2056 18.794 13.1183 19.5258C14.0013 20.4913 14.6576 21.1527 15.515 21.3563C16.3561 21.5563 17.0583 21.5177 17.811 21.133C19.4821 20.2787 21.0285 19.1753 22.9136 19.1297C23.7858 16.9857 23.6976 15.194 23.279 13.1195C22.993 11.7027 22.8781 10.3612 22.7893 8.91682C22.4358 10.4043 22.3693 11.7123 22.6316 13.1942C22.948 14.9797 23.1938 16.9525 22.3141 18.5218C20.6093 18.6523 19.1485 19.6895 17.6121 20.4852C16.9945 20.8052 16.3515 20.8363 15.668 20.6487C15.0335 20.4743 14.6053 20.0545 13.9218 19.2662C13.911 18.4747 14.0896 18.1095 14.4531 17.3925C15.0371 16.2413 15.6816 15.1698 16.389 14.0373C15.523 15.0827 14.7023 15.9562 14.0206 17.0073C13.76 16.265 13.3873 15.888 12.7701 15.052C12.1673 14.2355 12.1043 13.8782 12.5551 12.9332C13.0083 11.9837 13.3926 11.1492 14.1641 10.3162C15.497 8.87665 16.7181 7.27465 18.1758 5.85698C18.9673 5.08732 19.2886 5.11382 20.3385 4.95482C21.2875 4.81082 22.2138 4.62932 23.1815 4.40465C22.2456 4.49182 21.341 4.52382 20.4298 4.54632L20.4015 4.54715C21.2981 3.40232 21.8183 2.76432 23.2741 2.13165C26.8588 0.574984 29.1365 0.406651 31.9523 2.77348C32.6821 3.38715 33.3195 3.98265 34.0593 4.51182C33.791 4.53482 33.5598 4.58298 33.254 4.70298C33.6261 4.63198 34.056 4.70232 34.4423 4.77298C34.5506 4.84332 34.6623 4.91198 34.7761 4.97915C35.2986 5.28698 35.5951 5.45698 35.9485 5.94915C36.3218 6.46932 36.6331 6.98915 36.9073 7.56215C36.7276 7.49782 36.5768 7.44365 36.4425 7.40382C36.2927 7.33514 36.1282 7.30453 35.9637 7.31471C35.7993 7.32488 35.6398 7.37553 35.4996 7.46215L35.478 7.47215C35.189 7.61298 34.7413 7.77332 34.4418 7.82198C34.5946 7.87465 34.9326 7.89448 35.092 7.83132C35.1133 7.82298 35.135 7.81632 35.1573 7.81115C35.0834 7.9369 35.0379 8.07729 35.024 8.22248C35.0053 8.41418 35.0424 8.60719 35.1308 8.77832L35.1316 8.78015C35.1586 8.84382 35.1963 8.90232 35.2376 8.94465C35.1008 8.99515 34.961 9.05282 34.8168 9.11532C35.485 9.01365 36.0873 8.99615 36.7391 9.08198C36.7821 9.28748 36.8255 9.50532 36.8658 9.72682L36.6235 9.74582C36.617 9.7463 36.6105 9.74685 36.604 9.74748C36.2955 9.50098 35.9518 9.54248 35.4823 9.64965C34.0543 9.97515 34.3898 10.7763 33.7331 11.9837C34.4151 11.15 34.3645 10.2777 35.476 10.0143C35.735 9.95315 35.9113 9.87632 36.0866 9.90265C35.7711 10.0613 35.4983 10.3245 35.39 10.63C35.085 11.4915 35.2743 12.2173 34.9391 13.022C35.3541 12.3027 35.3793 11.6007 35.7506 10.8437C35.884 10.572 36.3786 10.137 36.6823 10.1303L36.9323 10.1248C37.0056 10.6035 37.0501 11.079 37.0218 11.4733C36.97 12.193 36.783 13.2612 36.6711 13.67C37.0471 13.1865 37.2185 12.1627 37.3836 11.4417C37.5556 10.6913 37.5121 9.79082 37.3616 8.98448C37.155 7.87832 38.2943 8.05832 38.9556 7.53698C39.4418 7.15365 39.7766 6.54182 40.2223 6.10815C40.6645 5.67815 41.3606 6.30998 41.5345 6.73015C42.2885 8.55465 42.632 11.4248 42.433 13.264C42.2093 15.3277 41.2126 17.5805 39.3925 18.5965C37.0721 19.8915 34.3363 19.1003 32.0308 18.3237ZM28.7338 27.4893C28.6581 28.3408 28.3743 28.397 27.6266 28.384C27.287 28.378 25.9343 28.3718 25.591 28.3423C25.106 28.3005 24.8336 28.2572 24.6855 28.1465C25.4475 27.5872 26.7421 25.2778 26.9946 24.4827C27.2616 23.6427 27.5538 22.9097 27.7711 22.1333C27.8711 22.4578 27.95 22.7793 28.0955 23.124C28.3383 23.7 28.4571 24.0558 28.4745 24.6737L28.5295 26.6292C28.7383 26.9945 28.7708 27.0725 28.7338 27.4892V27.4893ZM5.80164 21.039C6.28548 22.7128 7.10981 24.3577 8.02364 25.7405V25.7647C7.96614 26.0025 7.89998 26.2338 7.76114 26.4197C7.10781 27.2937 5.44648 26.0108 4.96548 25.5202C4.43981 24.9832 4.08798 24.3477 4.00414 23.7513C3.94314 23.3167 4.00248 23.306 4.30581 22.9983L5.53281 21.7562L5.80164 21.039ZM4.87748 10.5123C4.75348 10.7785 4.66548 10.9803 4.60564 11.188C4.34514 12.0877 4.72348 12.8907 3.90664 13.5428C4.29048 14.3172 4.27281 14.6262 5.16564 14.2683C5.50998 14.13 5.79398 13.9367 6.04764 13.7077C5.92485 14.0266 5.81196 14.3493 5.70914 14.6753C5.69148 14.7303 5.67464 14.7858 5.65848 14.8408C5.01998 15.1118 4.18014 15.284 3.85881 14.613C3.70281 14.2872 3.61464 13.9675 3.50081 13.5558C2.44931 12.4665 4.02114 11.0282 4.87748 10.5123ZM5.39431 11.6663C5.26448 11.5363 5.16064 11.4485 4.99281 11.4675C5.00698 11.3575 5.02581 11.2513 5.05231 11.1517C5.06564 11.1003 5.07998 11.05 5.09531 10.9995C5.31298 11.1263 5.37031 11.3563 5.39431 11.6663ZM36.924 7.59732C36.9636 7.68098 37.0026 7.76615 37.041 7.85232C37.0093 7.87565 36.9791 7.90015 36.951 7.92598C36.8992 7.80508 36.8244 7.69538 36.7308 7.60298C36.7935 7.60065 36.8578 7.59865 36.9241 7.59732H36.924ZM27.9786 21.235H27.979L27.9788 21.2352L27.9786 21.235ZM1.27581 13.5897C1.44314 11.6952 1.81148 10.8772 3.15748 9.45132C1.46914 10.641 1.04781 11.1818 1.27581 13.5897Z" fill="black"/>
<path d="M0.84159 12.0423C1.02742 11.1896 1.20076 10.8678 1.72659 10.1679C0.873423 10.7638 0.762423 11.0084 0.841423 12.0423M20.6499 0.155762C19.6384 0.399595 19.4456 0.586595 19.1423 1.5781C19.6263 0.852095 19.9049 0.615928 20.6499 0.155762Z" fill="black"/>
<path d="M22.2477 0.0113971C20.2415 0.503064 19.652 0.85273 18.9857 3.1779C19.8327 1.4749 20.474 0.847897 22.2477 0.0112305M26.5684 8.4874C26.7822 7.54006 27.1622 6.62723 28.6334 5.9209C26.6834 6.40923 26.3177 7.22823 26.5684 8.4874ZM38.9764 8.5529C40.1312 8.14123 40.6879 7.21273 40.9644 6.1204C40.5124 7.0359 39.8149 7.80156 38.8674 8.27056C38.3589 8.52223 38.034 8.4344 37.4662 8.38056C38.0437 8.5464 38.4095 8.7549 38.9764 8.5529ZM31.1094 9.48123C30.9613 9.1707 30.6971 8.93075 30.3739 8.81306C30.6572 8.6619 30.9354 8.50306 31.1524 8.30556C30.5165 8.5999 29.7764 8.52806 29.2307 8.89656C28.7502 9.22123 28.0869 10.2499 27.5985 10.6861C27.9522 10.5487 28.293 10.3112 28.6069 10.0611C28.6086 10.2987 28.675 10.5313 28.799 10.734C28.923 10.9367 29.0999 11.1018 29.3107 11.2116C29.1301 11.448 28.9864 11.7104 28.8844 11.9899C29.8142 10.8879 31.1624 10.0556 32.43 9.69973C32.0757 9.69473 31.6562 9.7609 31.2289 9.9014C31.2129 9.75562 31.1725 9.61358 31.1094 9.48123ZM29.7715 17.8082C29.7264 18.0936 29.6644 18.4482 29.6192 18.7337C29.74 18.4107 29.8854 18.0354 30.0259 17.7274C30.1749 17.4014 30.2587 17.3707 30.5749 17.1987C30.799 17.0767 31.206 16.9091 31.4302 16.7871C31.1995 16.8259 30.7862 16.9107 30.5555 16.9496C29.9395 17.0536 29.867 17.2016 29.7715 17.8082ZM19.2485 6.79106C18.5335 7.49773 17.839 9.92273 17.6172 10.8931C17.9667 10.0871 18.8414 7.8324 19.5124 7.2589C19.6977 7.1004 19.8272 7.00306 19.9664 6.93223C19.486 7.73773 19.5214 7.93806 19.6899 9.01723C19.833 7.92006 20.2124 7.49623 20.8349 6.67773C21.5172 6.50656 22.1559 6.3014 22.8559 6.0284C22.0675 6.11753 21.2783 6.19942 20.4884 6.27406C19.8254 6.3369 19.7187 6.32623 19.2485 6.79106Z" fill="black"/>
<path d="M28.9907 10.919C28.9282 10.7877 28.9205 10.6369 28.9691 10.4998C29.0177 10.3628 29.1187 10.2506 29.25 10.188C29.3216 10.1541 29.3996 10.136 29.4788 10.135C29.558 10.134 29.6365 10.15 29.7089 10.1821C29.7813 10.2142 29.846 10.2615 29.8985 10.3208C29.9509 10.3801 29.99 10.45 30.013 10.5258C29.752 10.7197 29.5128 10.9477 29.3122 11.212C29.1772 11.1577 29.0575 11.059 28.9905 10.919M35.0962 8.55699C35.1182 8.33116 35.3107 8.16466 35.5365 8.18649C35.6452 8.19721 35.7451 8.25051 35.8146 8.33475C35.8841 8.41898 35.9173 8.52729 35.9072 8.63599C35.9025 8.68261 35.8899 8.72809 35.87 8.77049C35.6633 8.80599 35.4567 8.86633 35.2437 8.94466C35.1547 8.85349 35.0837 8.68716 35.0962 8.55699Z" fill="#FFFFCC"/>
</g>
<defs>
<clipPath id="clip0_248_294014">
<rect width="42.6667" height="32" fill="white" transform="translate(0.664062)"/>
</clipPath>
</defs>
</svg>
