<svg width="32" height="12" viewBox="0 0 32 12" fill="none" xmlns="http://www.w3.org/2000/svg">
<g clip-path="url(#clip0_248_294822)">
<path d="M9.04871 5.97557C9.04871 4.31172 9.05128 2.64658 9.04486 0.984006C9.04486 0.752736 9.19775 0.608835 9.42902 0.608835C9.85687 0.606265 10.2873 0.60498 10.7151 0.608835C10.958 0.611405 11.0993 0.75916 11.0967 0.986575C11.0903 2.45899 11.0929 3.93398 11.0929 5.40639V5.48734C11.0954 5.65051 11.1674 5.77 11.3177 5.83424C11.4629 5.89591 11.5991 5.86379 11.7173 5.73788C12.149 5.27534 12.5794 4.81152 13.0086 4.34769C13.272 4.06246 13.5392 3.78108 13.8 3.49457C13.8989 3.38664 14.0133 3.33525 14.1611 3.33782C14.6994 3.34167 15.2403 3.34167 15.7787 3.33782C15.938 3.33782 16.0639 3.38664 16.1307 3.53439C16.1988 3.68729 16.1667 3.82348 16.0523 3.94811C15.2442 4.84235 14.4386 5.73788 13.6317 6.63212C13.5675 6.70407 13.5045 6.77859 13.4544 6.86082C13.3645 7.00601 13.3645 7.14862 13.448 7.29638C13.5379 7.4557 13.6651 7.58418 13.791 7.71395C14.7688 8.71869 15.7491 9.72343 16.7294 10.7256C16.8476 10.8477 16.8823 10.9813 16.8232 11.138C16.7667 11.2845 16.6549 11.3513 16.4712 11.3513C15.8724 11.3513 15.2724 11.3487 14.6737 11.3513C14.5388 11.3513 14.4347 11.3089 14.3384 11.2061C13.4685 10.2926 12.5923 9.38423 11.7186 8.47457C11.594 8.34352 11.4552 8.31011 11.3113 8.3705C11.1661 8.42832 11.0903 8.55166 11.0903 8.73025V10.9697C11.0903 11.2113 10.9682 11.3359 10.7293 11.3372H9.4136C9.15021 11.3372 9.04743 11.2331 9.04743 10.9736L9.04871 5.97557ZM17.2125 4.30144C17.2125 3.20034 17.2164 2.09795 17.2087 0.996854C17.2061 0.747597 17.3513 0.60498 17.6044 0.60498C18.0207 0.60755 18.4344 0.60498 18.8494 0.60498C19.0922 0.60498 19.231 0.741173 19.231 0.982721C19.2336 1.62514 19.2336 2.26884 19.2349 2.91125C19.2349 3.18878 19.3775 3.33268 19.6524 3.33268H21.3805C21.563 3.33268 21.6825 3.43161 21.7184 3.6102C21.7364 3.69628 21.73 3.78237 21.7326 3.87102V4.93615C21.7326 5.21495 21.6079 5.33958 21.3291 5.33958C20.7766 5.33958 20.2242 5.33701 19.6717 5.33701C19.389 5.33701 19.2438 5.47963 19.2413 5.75844C19.2387 6.32505 19.2297 6.88909 19.2374 7.4557C19.249 8.31911 19.9107 9.11442 20.7702 9.31742C21.0233 9.37781 21.2803 9.38808 21.5373 9.35211C21.7467 9.32256 21.8983 9.43434 21.9227 9.64505C21.9754 10.0935 22.0229 10.5431 22.0692 10.9916C22.0872 11.1624 21.9625 11.3192 21.7865 11.3475C21.3124 11.4284 20.8383 11.4001 20.3719 11.2948C18.7068 10.9222 17.4836 9.59109 17.2446 7.9041C17.2202 7.73708 17.2125 7.57005 17.2125 7.40431V4.30144ZM31.9971 9.56282C31.9971 9.40993 31.8802 9.30329 31.7273 9.29558C31.6232 9.29172 31.5204 9.28787 31.4163 9.27887C30.8844 9.23904 30.6107 8.98979 30.5144 8.46558C30.4399 8.06599 30.4424 7.65999 30.4399 7.25398C30.436 6.08864 30.4373 4.9233 30.4373 3.75796C30.4373 3.72326 30.4373 3.69114 30.4347 3.65774C30.4206 3.46887 30.2844 3.33396 30.093 3.33396C29.6446 3.33139 29.1949 3.33139 28.7465 3.33396C28.5435 3.33396 28.3996 3.47915 28.3906 3.67958C28.388 3.7284 28.3906 3.77851 28.3906 3.83633C28.352 3.81577 28.3225 3.80164 28.2942 3.78751C27.4848 3.36223 26.6265 3.22475 25.7245 3.37508C23.4285 3.76053 21.9317 6.06037 22.5022 8.31654C23.2268 11.1791 26.6586 12.3188 28.9546 10.4558C29.0086 10.4121 29.0304 10.4134 29.0728 10.4725C29.3092 10.8104 29.6214 11.0545 30.0094 11.2023C30.4373 11.3654 30.8831 11.3873 31.3354 11.3552C31.496 11.3436 31.6553 11.3205 31.8018 11.2472C31.9059 11.1946 31.9907 11.1162 31.9932 10.9967C32.0022 10.5187 31.9996 10.0408 31.9971 9.56282ZM26.4106 9.35596C25.2941 9.35211 24.4063 8.44373 24.4102 7.30537C24.414 6.22869 25.3262 5.33444 26.4209 5.33701C27.5439 5.33958 28.4304 6.24153 28.4278 7.38246C28.424 8.45787 27.5053 9.35725 26.4106 9.35596ZM4.03402 3.31726C1.9012 3.32111 0.0484718 4.96827 0.000933022 7.25655C-0.0478906 9.62321 1.82668 11.3166 3.91967 11.3693C6.15784 11.4258 8.01185 9.65918 8.0504 7.42743C8.08766 5.15585 6.30817 3.34296 4.03402 3.31726ZM4.01988 9.35596C2.91878 9.35596 2.01555 8.45144 2.01298 7.34649C2.01041 6.24025 2.91236 5.33701 4.02374 5.33316C5.13255 5.33059 6.03064 6.23126 6.03064 7.34392C6.03064 8.45658 5.13255 9.35596 4.01988 9.35596Z" fill="#007DC1"/>
</g>
<defs>
<clipPath id="clip0_248_294822">
<rect width="32" height="10.79" fill="white" transform="translate(0 0.60498)"/>
</clipPath>
</defs>
</svg>
