<svg width="32" height="32" viewBox="0 0 32 32" fill="none" xmlns="http://www.w3.org/2000/svg">
<g clip-path="url(#clip0_248_294735)">
<path d="M16 32C24.8366 32 32 24.8366 32 16C32 7.16344 24.8366 0 16 0C7.16344 0 0 7.16344 0 16C0 24.8366 7.16344 32 16 32Z" fill="#FA582D"/>
<path d="M18.5291 9.70361L16.0131 12.2189L17.2631 13.4708L10.9556 19.7814L13.4716 22.2974L15.9875 19.7814L14.7375 18.5314L21.045 12.2189L18.5291 9.70361ZM7.1875 16.0127L13.4966 9.70361L16.0128 12.2189L9.70344 18.5286L7.1875 16.0127ZM15.9872 19.7814L22.2966 13.4717L24.8125 15.9877L18.5034 22.2967L15.9872 19.7814Z" fill="white"/>
</g>
<defs>
<clipPath id="clip0_248_294735">
<rect width="32" height="32" fill="white"/>
</clipPath>
</defs>
</svg>
