<svg width="41" height="20" viewBox="0 0 41 20" fill="none" xmlns="http://www.w3.org/2000/svg">
<path d="M0.46875 0.00606624V19.9332H28.5601L30.8794 14.9209L33.2359 19.9701H40.2631V0.00488281L0.46875 0.00606624Z" fill="#D9222A"/>
<path d="M36.6964 14.9168L31.8689 3.89642L31.8708 3.89571H31.8689V3.89453L31.8682 3.89571H29.9295L25.2109 14.921H27.2902L30.8824 6.27512L34.6285 14.921L36.6964 14.9168Z" fill="white"/>
<path d="M11.4723 10.198C12.9875 9.63212 13.7123 8.38076 13.6948 7.10573C13.6678 5.17034 12.1497 3.81934 10.0025 3.81934H5.35938V14.9029H7.05026V5.4378H9.90612C10.8633 5.4378 11.8912 5.93579 11.908 7.12916C11.9225 8.19212 11.1291 8.85602 9.7847 8.9133L9.75843 8.91448L8.73405 8.92324L12.1449 14.9209L14.1423 14.9166C14.1423 14.9166 12.5014 12.0172 11.4723 10.198Z" fill="white"/>
<path d="M15.9872 6.68117C15.9872 8.88827 18.1775 9.51099 19.8804 9.99099C21.6544 10.4925 22.2724 11.058 22.2724 11.915C22.2724 13.3446 20.8224 13.5678 19.9256 13.5678C18.6942 13.5678 17.6783 13.2239 16.6842 12.6102L15.8359 14.0476C17.0901 14.8208 18.39 15.1813 19.9256 15.1813C22.4908 15.1813 24.195 13.8523 24.195 11.7953C24.195 9.49797 22.1219 8.86223 20.3789 8.36945C18.6035 7.86768 17.9093 7.44353 17.9093 6.58602C17.9093 5.28756 19.4987 5.1614 20.0679 5.1614C20.9633 5.1614 22.1015 5.46129 22.7756 5.80921L23.4892 4.40424C22.5803 3.93419 21.186 3.61963 20.0203 3.61963C17.5401 3.61963 15.9872 4.74886 15.9872 6.68117Z" fill="white"/>
</svg>
