<svg width="57" height="10" viewBox="0 0 57 10" fill="none" xmlns="http://www.w3.org/2000/svg">
<g clip-path="url(#clip0_248_294782)">
<path d="M1.10786 7.98347H5.3269C6.06218 7.98347 6.46482 7.91403 6.70086 7.76143C6.99234 7.58055 7.15894 7.27619 7.15894 6.91527C7.15894 6.48491 6.93662 6.10999 6.56226 5.92939C6.36822 5.81851 6.00674 5.76279 5.56266 5.76279H3.8555C2.74558 5.76279 2.02374 5.56847 1.53822 5.15211C0.982983 4.66603 0.664062 3.91675 0.664062 3.11203C0.664062 1.93239 1.31618 0.905345 2.27378 0.572145C2.69014 0.419265 3.17566 0.378105 4.25842 0.378105H8.8381V2.02955H4.70222C3.82778 2.04327 3.75834 2.04327 3.46714 2.11271C3.07878 2.20959 2.84274 2.57051 2.84274 3.05603C2.84274 3.47295 3.03678 3.80587 3.37026 3.95847C3.64774 4.08363 3.86978 4.11107 4.53618 4.11107H6.02102C7.38126 4.11107 8.11654 4.31939 8.65806 4.87463C9.07442 5.29071 9.35218 6.10999 9.35218 6.91527C9.35218 7.90059 8.8941 8.81618 8.17254 9.26055C7.71474 9.55175 7.13206 9.63491 5.75754 9.63491H1.10786V7.98347ZM14.6394 0.308105C13.3349 0.308105 12.1967 0.627585 11.4751 1.21055C10.5593 1.93239 10.0737 3.27891 10.0737 5.05551C10.0737 6.29031 10.3367 7.30419 10.8785 8.06719C11.6 9.10851 13.0023 9.69175 14.7786 9.69175C16.0277 9.69175 17.0827 9.3857 17.7768 8.83075C18.6927 8.09575 19.2071 6.76211 19.2071 5.13811L19.2029 4.87323L19.1917 4.61255L19.1732 4.35887L19.1483 4.10995L19.1158 3.86719L19.0755 3.63199L19.0293 3.40435L18.9758 3.18399L18.9467 3.07647L18.9156 2.97147L18.8831 2.86759L18.8492 2.76763L18.8142 2.66795L18.7767 2.57135L18.7375 2.47783L18.6966 2.38487L18.6555 2.29639L18.6121 2.20903L18.567 2.12419L18.5205 2.04271L18.4718 1.96291L18.4228 1.88535L18.3715 1.81143L18.3189 1.74031C17.6105 0.822186 16.2911 0.308105 14.6394 0.308105ZM14.6529 1.87583C16.3046 1.87583 17.0401 2.84827 17.0401 5.01295C17.0401 7.15047 16.2906 8.13579 14.6529 8.13579C12.9877 8.13579 12.2379 7.14991 12.2379 4.98523L12.239 4.89395L12.2401 4.80379L12.2415 4.71531L12.2451 4.62795L12.2491 4.54255L12.253 4.45771L12.258 4.37511L12.2642 4.29363L12.2715 4.21327L12.279 4.13571L12.2877 4.05983L12.2975 3.98479L12.3076 3.91087L12.3188 3.83807L12.3314 3.76807L12.344 3.69807L12.358 3.63087L12.3731 3.56591L12.3882 3.50095L12.4047 3.43823L12.4221 3.37663L12.4395 3.31643L12.4579 3.25903L12.4781 3.20275L12.4994 3.14787L12.5207 3.09411L12.5433 3.04287L12.5671 2.99163L12.5907 2.94291L12.6156 2.89643L12.6419 2.85107L12.6682 2.80767C13.0431 2.21015 13.751 1.87583 14.6529 1.87583ZM20.2613 0.378105V9.63547H22.2308V6.40035H25.3965C26.4512 6.40035 26.9493 6.26259 27.4909 5.80451C28.1293 5.26355 28.5182 4.36139 28.5182 3.38951C28.5182 2.57079 28.227 1.80695 27.6857 1.22399C27.0753 0.543866 26.5055 0.378105 24.8818 0.378105H20.2613ZM22.2308 2.02983H24.951C25.2702 2.02983 25.5202 2.05699 25.6728 2.11271C26.1035 2.26531 26.3535 2.70939 26.3535 3.31979C26.3535 3.83359 26.2003 4.27795 25.9509 4.48627L25.931 4.50363L25.9108 4.52071L25.8895 4.53723L25.8685 4.55375L25.8459 4.56859L25.8235 4.58259L25.7997 4.59631L25.7747 4.60919L25.7495 4.62123L25.7232 4.63383L25.6969 4.64419L25.6695 4.65511L25.6403 4.66519L25.6115 4.67331L25.5815 4.68227L25.5502 4.69095L25.518 4.69795L25.4855 4.70383L25.4516 4.70999L25.4166 4.71615L25.3805 4.72119L25.3441 4.72623L25.3052 4.73015L25.2663 4.73519L25.2262 4.73799L25.1837 4.74051L25.1411 4.74331L25.0974 4.74583L25.0521 4.74667L25.0056 4.74807H24.958L24.909 4.74919H22.2302V2.02983H22.2308ZM36.9425 9.63435H34.9716V5.81823H31.405V9.63435H29.4341V0.378105H31.405V4.16679H34.9716V0.378105H36.9425V9.63435ZM42.6887 0.308105C41.3845 0.308105 40.2463 0.627585 39.5244 1.21055C38.6085 1.93239 38.1216 3.27891 38.1216 5.05551C38.1216 6.29031 38.3857 7.30419 38.9277 8.06719C39.6485 9.10851 41.0507 9.69175 42.8276 9.69175C44.0772 9.69175 45.1311 9.3857 45.8244 8.83075C46.7403 8.09575 47.2544 6.76211 47.2544 5.13811L47.2505 4.87323L47.2395 4.61255L47.2211 4.35887L47.1959 4.10995L47.1631 3.86719L47.1231 3.63199L47.0766 3.40435L47.0239 3.18399L46.994 3.07647L46.964 2.97147L46.9318 2.86759L46.8968 2.76763L46.8618 2.66795L46.824 2.57135L46.7851 2.47783L46.7451 2.38487L46.7025 2.29639L46.6588 2.20903L46.614 2.12419L46.5675 2.04271L46.5188 1.96291L46.4701 1.88535L46.418 1.81143L46.3654 1.74031C45.6581 0.822186 44.3407 0.308105 42.6887 0.308105ZM42.703 1.87583C44.3539 1.87583 45.09 2.84827 45.09 5.01295C45.09 7.15047 44.3401 8.13579 42.703 8.13579C41.0378 8.13579 40.288 7.14991 40.288 4.98523V4.89395L40.2891 4.80379L40.2919 4.71531L40.2941 4.62795L40.2981 4.54255L40.3037 4.45771L40.3087 4.37511L40.3146 4.29363L40.3205 4.21327L40.328 4.13571L40.3378 4.05983L40.3465 3.98479L40.3563 3.91087L40.3678 3.83807L40.3798 3.76807L40.393 3.69807L40.4067 3.63087L40.4215 3.56591L40.4369 3.50095L40.4535 3.43823L40.4708 3.37663L40.4882 3.31643L40.5078 3.25903L40.5274 3.20275L40.5475 3.14787L40.5688 3.09411L40.5912 3.04287L40.6153 2.99163L40.6388 2.94291L40.664 2.89643L40.6903 2.85107L40.7183 2.80767C41.0924 2.21015 41.8005 1.87583 42.703 1.87583ZM48.4206 7.98347H52.6396C53.3746 7.98347 53.777 7.91403 54.0133 7.76143C54.3042 7.58055 54.4711 7.27619 54.4711 6.91527C54.4711 6.48491 54.2491 6.10999 53.8744 5.92939C53.6798 5.81851 53.3195 5.76279 52.8754 5.76279H51.1679C50.0577 5.76279 49.3359 5.56847 48.8504 5.15211C48.2954 4.66603 47.9759 3.91675 47.9759 3.11203C47.9759 1.93239 48.6278 0.905345 49.5859 0.572145C50.002 0.419265 50.4884 0.378105 51.5706 0.378105H56.1505V2.02955H52.0147C51.1402 2.04327 51.0708 2.04327 50.7799 2.11271C50.3909 2.20959 50.1549 2.57051 50.1549 3.05603C50.1549 3.47295 50.3495 3.80587 50.6833 3.95847C50.9599 4.08363 51.1819 4.11107 51.8486 4.11107H53.3335C54.6934 4.11107 55.429 4.31939 55.9711 4.87463C56.3869 5.29071 56.6641 6.10971 56.6641 6.91499C56.6641 7.90031 56.2063 8.81591 55.4844 9.26027C55.0266 9.55147 54.4437 9.63463 53.0694 9.63463H48.4203V7.98347H48.4206Z" fill="#007AFF"/>
</g>
<defs>
<clipPath id="clip0_248_294782">
<rect width="56" height="9.968" fill="white" transform="translate(0.664062 0.0161133)"/>
</clipPath>
</defs>
</svg>
