<svg width="40" height="40" viewBox="0 0 40 40" fill="none" xmlns="http://www.w3.org/2000/svg">
<g clip-path="url(#clip0_248_293233)">
<path d="M40 0H0V40H40V0Z" fill="url(#paint0_linear_248_293233)"/>
<path d="M7.707 7L12.3535 11.6465L11.6465 12.3535L7 7.707V11.5H6V6.5C6 6.224 6.2235 6 6.5 6H11.5V7H7.707ZM34 6.5V11.5H33V7.707L28.3535 12.3535L27.6465 11.6465L32.293 7H28.5V6H33.5C33.7765 6 34 6.224 34 6.5ZM33 28.5H34V33.5C34 33.776 33.7765 34 33.5 34H28.5V33H32.293L27.6465 28.3535L28.3535 27.6465L33 32.293V28.5ZM32.75 19.6065C32.75 17.947 30.834 16.3075 27.625 15.221L27.9455 14.274C31.634 15.5225 33.75 17.466 33.75 19.6065C33.75 21.7475 31.634 23.6915 27.945 24.9395L27.6245 23.992C30.834 22.906 32.75 21.267 32.75 19.6065ZM7.278 19.6065C7.278 21.1965 9.0715 22.7925 12.076 23.8765L11.7365 24.817C8.2675 23.5655 6.278 21.6665 6.278 19.6065C6.278 17.547 8.2675 15.648 11.7365 14.396L12.076 15.3365C9.0715 16.421 7.278 18.017 7.278 19.6065ZM12.3535 28.3535L7.707 33H11.5V34H6.5C6.2235 34 6 33.776 6 33.5V28.5H7V32.293L11.6465 27.6465L12.3535 28.3535ZM20 15.643C16.427 15.643 14.5 14.72 14.5 14.343C14.5 13.9655 16.427 13.043 20 13.043C23.5725 13.043 25.5 13.9655 25.5 14.343C25.5 14.72 23.5725 15.643 20 15.643ZM20.0145 19.5155C16.5935 19.5155 14.5 18.581 14.5 18.0725V15.642C15.7315 16.3215 17.916 16.643 20 16.643C22.084 16.643 24.2685 16.3215 25.5 15.642V18.0725C25.5 18.5815 23.4175 19.5155 20.0145 19.5155ZM20.0145 23.3335C16.5935 23.3335 14.5 22.399 14.5 21.8905V19.431C15.7155 20.1455 17.871 20.5155 20.0145 20.5155C22.146 20.5155 24.289 20.146 25.5 19.4335V21.8905C25.5 22.3995 23.4175 23.3335 20.0145 23.3335ZM20 26.759C16.4415 26.759 14.5 25.8025 14.5 25.311V23.249C15.7155 23.9635 17.871 24.3335 20.0145 24.3335C22.146 24.3335 24.289 23.9645 25.5 23.2515V25.311C25.5 25.8025 23.5585 26.759 20 26.759ZM20 12.043C16.8695 12.043 13.5 12.7625 13.5 14.343V25.311C13.5 26.918 16.77 27.759 20 27.759C23.23 27.759 26.5 26.918 26.5 25.311V14.343C26.5 12.7625 23.1305 12.043 20 12.043Z" fill="white"/>
</g>
<defs>
<linearGradient id="paint0_linear_248_293233" x1="0" y1="40" x2="40" y2="0" gradientUnits="userSpaceOnUse">
<stop stop-color="#2E27AD"/>
<stop offset="1" stop-color="#527FFF"/>
</linearGradient>
<clipPath id="clip0_248_293233">
<rect width="40" height="40" fill="white"/>
</clipPath>
</defs>
</svg>
