<svg width="32" height="32" viewBox="0 0 32 32" fill="none" xmlns="http://www.w3.org/2000/svg">
<g clip-path="url(#clip0_248_293263)">
<path d="M32 0H0V32H32V0Z" fill="url(#paint0_linear_248_293263)"/>
<path d="M11.2022 26.4008H6.23551L11.7287 14.9192L14.2176 20.0432L11.2022 26.4008ZM12.0871 13.822C12.0197 13.684 11.8794 13.5964 11.7262 13.5964H11.725C11.5707 13.5968 11.4304 13.6852 11.3642 13.824L5.2384 26.6284C5.17906 26.7524 5.18748 26.898 5.26125 27.0144C5.33422 27.1304 5.46252 27.2008 5.60004 27.2008H11.456C11.6112 27.2008 11.7519 27.1116 11.8185 26.972L15.0247 20.212C15.0764 20.1024 15.076 19.9756 15.0227 19.8668L12.0871 13.822ZM25.9974 26.4008H21.0627L13.1459 9.82878C13.0798 9.68958 12.9387 9.60078 12.7839 9.60078H9.55521L9.55882 5.60078H15.8871L23.7674 22.1724C23.8335 22.3116 23.9747 22.4008 24.1294 22.4008H25.9974V26.4008ZM26.3983 21.6008H24.3832L16.5029 5.02918C16.4368 4.88998 16.2957 4.80078 16.1405 4.80078H9.15829C8.93738 4.80078 8.75776 4.97958 8.75736 5.20038L8.75295 10.0004C8.75295 10.1068 8.79465 10.2084 8.87042 10.2836C8.9454 10.3588 9.04723 10.4008 9.15388 10.4008H12.5309L20.4481 26.9728C20.5146 27.112 20.655 27.2008 20.8097 27.2008H26.3983C26.62 27.2008 26.7992 27.0216 26.7992 26.8008V22.0008C26.7992 21.78 26.62 21.6008 26.3983 21.6008Z" fill="white"/>
</g>
<defs>
<linearGradient id="paint0_linear_248_293263" x1="0" y1="32" x2="32" y2="0" gradientUnits="userSpaceOnUse">
<stop stop-color="#C8511B"/>
<stop offset="1" stop-color="#FF9900"/>
</linearGradient>
<clipPath id="clip0_248_293263">
<rect width="32" height="32" fill="white"/>
</clipPath>
</defs>
</svg>
