<svg width="37" height="32" viewBox="0 0 37 32" fill="none" xmlns="http://www.w3.org/2000/svg">
<g clip-path="url(#clip0_248_293271)">
<path fill-rule="evenodd" clip-rule="evenodd" d="M36.2166 16.214C36.5497 15.8925 36.4944 15.3034 36.2166 14.9818L34.4949 13.3214L26.8315 6.14353C26.4985 5.82195 25.9984 5.82195 25.6096 6.14353C25.2766 6.46471 25.1652 7.05415 25.6096 7.37573L33.6618 14.9822C33.9948 15.3034 33.9948 15.8929 33.6618 16.2144L25.4433 24.0884C25.1099 24.41 25.1099 24.999 25.4433 25.3206C25.7763 25.6422 26.3875 25.5885 26.6648 25.3206L34.2729 18.0353L34.3286 17.9816L36.2166 16.214ZM1.12013 16.214C0.787093 15.8925 0.842401 15.3034 1.12013 14.9818L2.84181 13.3214L10.5052 6.14353C10.8383 5.82195 11.338 5.82195 11.7271 6.14353C12.0602 6.46471 12.1712 7.05415 11.7271 7.37573L3.84132 14.9818C3.50828 15.303 3.50828 15.8925 3.84132 16.214L11.8935 24.0884C12.2265 24.41 12.2265 24.999 11.8935 25.3206C11.5604 25.6422 10.9493 25.5885 10.6715 25.3206L2.89712 18.1423L2.84141 18.0886L1.12013 16.214Z" fill="#3999C6"/>
<path fill-rule="evenodd" clip-rule="evenodd" d="M27.3316 0.197266H16.503L10.6719 16.0535L17.7802 16.1072L12.2268 31.8022L27.5537 10.8572H20.1123L27.3316 0.197266Z" fill="#FCD116"/>
<path opacity="0.3" fill-rule="evenodd" clip-rule="evenodd" d="M20.112 10.8572L27.3314 0.197266H21.667L15.6695 13.3749L22.7779 13.4287L12.2266 31.8022L27.5534 10.8572H20.112Z" fill="#FF8C00"/>
</g>
<defs>
<clipPath id="clip0_248_293271">
<rect width="35.9506" height="32" fill="white" transform="translate(0.691406)"/>
</clipPath>
</defs>
</svg>
