<svg width="40" height="30" viewBox="0 0 40 30" fill="none" xmlns="http://www.w3.org/2000/svg">
<path d="M39.1743 11.5621C38.2736 10.9371 36.2094 10.7027 34.5956 11.0152C34.408 9.45277 33.5448 8.08563 32.0436 6.87475L31.1804 6.24977L30.5799 7.14817C29.8293 8.32 29.454 9.96056 29.5666 11.523C29.6041 12.0698 29.7918 13.0464 30.3547 13.9057C29.8293 14.2182 28.7409 14.6088 27.3148 14.6088H0.180433L0.105372 14.9213C-0.157339 16.4837 -0.157339 21.3664 2.92014 25.1162C5.24701 27.9676 8.69979 29.4129 13.2409 29.4129C23.0739 29.4129 30.3547 24.6865 33.77 16.1322C35.1211 16.1712 38.0109 16.1322 39.4746 13.2026C39.5121 13.1245 39.5872 12.9683 39.8499 12.3823L40 12.0698L39.1743 11.5621ZM21.8729 0.546875H17.7446V4.45297H21.8729V0.546875ZM21.8729 5.23419H17.7446V9.14028H21.8729V5.23419ZM16.994 5.23419H12.8656V9.14028H16.994V5.23419ZM12.115 5.23419H7.98672V9.14028H12.115V5.23419ZM7.23611 9.9215H3.10779V13.8276H7.23611V9.9215ZM12.115 9.9215H7.98672V13.8276H12.115V9.9215ZM16.994 9.9215H12.8656V13.8276H16.994V9.9215ZM21.8729 9.9215H17.7446V13.8276H21.8729V9.9215ZM26.7518 9.9215H22.6235V13.8276H26.7518V9.9215Z" fill="#2396ED"/>
</svg>
