<svg width="41" height="32" viewBox="0 0 41 32" fill="none" xmlns="http://www.w3.org/2000/svg">
<g clip-path="url(#clip0_248_293187)">
<path d="M26.0164 8.81136H27.2298L30.6867 5.35451L30.8567 3.88777C24.4247 -1.7892 14.6058 -1.1775 8.92887 5.2545C7.35046 7.04126 6.2054 9.16637 5.58203 11.4665C5.96705 11.3082 6.39374 11.2831 6.79543 11.3932L13.7075 10.2531C13.7075 10.2531 14.0591 9.6714 14.2408 9.70807C17.316 6.33123 22.4912 5.93787 26.0414 8.81136H26.0164Z" fill="#EA4335"/>
<path d="M35.6102 11.4655C34.8152 8.54035 33.1851 5.91021 30.9166 3.89844L26.0664 8.74869C28.1148 10.4221 29.2815 12.9439 29.2315 15.589V16.4508C31.6167 16.4508 33.5484 18.3842 33.5484 20.7677C33.5484 23.1528 31.615 25.0845 29.2315 25.0845H20.5961L19.7344 25.9579V31.1365L20.5961 31.9982H29.2315C34.1818 32.0366 38.5737 28.8281 40.0438 24.1012C41.5105 19.3726 39.7104 14.239 35.6102 11.4655Z" fill="#4285F4"/>
<path d="M11.9483 31.9508H20.5838V25.0387H11.9483C11.3333 25.0387 10.7249 24.9071 10.1649 24.6504L8.9515 25.0254L5.47132 28.4823L5.16797 29.6957C7.11974 31.1691 9.50153 31.9608 11.9483 31.9508Z" fill="#34A853"/>
<path d="M11.9483 9.52545C7.15136 9.55379 2.9028 12.6256 1.37272 17.1709C-0.157358 21.7161 1.36772 26.733 5.16959 29.6565L10.1782 24.6479C8.00473 23.6662 7.03968 21.1094 8.0214 18.9359C9.00312 16.7625 11.5599 15.7974 13.7334 16.7792C14.6901 17.2125 15.4568 17.9792 15.8901 18.9359L20.8987 13.9273C18.767 11.1422 15.4551 9.51379 11.9483 9.52545Z" fill="#FBBC05"/>
</g>
<defs>
<clipPath id="clip0_248_293187">
<rect width="39.7637" height="32" fill="white" transform="translate(0.785156)"/>
</clipPath>
</defs>
</svg>
