<svg width="45" height="40" viewBox="0 0 45 40" fill="none" xmlns="http://www.w3.org/2000/svg">
<path d="M22.3431 40.0127L30.3268 15.4414H14.3594L22.3431 40.0127Z" fill="#E24329"/>
<path d="M22.3446 40.0127L14.3609 15.4414H3.17188L22.3446 40.0127Z" fill="#FC6D26"/>
<path d="M3.1712 15.4434L0.745085 22.9103C0.523797 23.5914 0.76616 24.3374 1.34552 24.7583L22.3439 40.0146L3.1712 15.4434Z" fill="#FCA326"/>
<path d="M3.17188 15.4424H14.3609L9.55225 0.643384C9.30492 -0.118211 8.22762 -0.118004 7.98029 0.643384L3.17188 15.4424Z" fill="#E24329"/>
<path d="M22.3438 40.0127L30.3275 15.4414H41.5165L22.3438 40.0127Z" fill="#FC6D26"/>
<path d="M41.5165 15.4434L43.9426 22.9103C44.1639 23.5914 43.9215 24.3374 43.3422 24.7583L22.3438 40.0146L41.5165 15.4434Z" fill="#FCA326"/>
<path d="M41.5171 15.4424H30.3281L35.1368 0.643384C35.3841 -0.118211 36.4614 -0.118004 36.7087 0.643384L41.5171 15.4424Z" fill="#E24329"/>
</svg>
