<svg width="41" height="40" viewBox="0 0 41 40" fill="none" xmlns="http://www.w3.org/2000/svg">
<g clip-path="url(#clip0_248_293237)">
<path d="M9.29662 35.4996L1.29758 21.6444C0.990033 21.1117 0.828125 20.5074 0.828125 19.8923C0.828125 19.2773 0.990033 18.673 1.29758 18.1403L9.29662 4.28537C9.60421 3.75261 10.0466 3.31021 10.5794 3.00264C11.1122 2.69507 11.7165 2.53317 12.3317 2.5332H28.3298C28.9449 2.53322 29.5492 2.69515 30.0819 3.00272C30.6146 3.31029 31.057 3.75266 31.3645 4.28537L39.3636 18.1403C39.6712 18.673 39.8331 19.2773 39.8331 19.8925C39.8331 20.5076 39.6712 21.1119 39.3636 21.6447L31.3645 35.4996C31.0569 36.0323 30.6145 36.4746 30.0818 36.7821C29.5491 37.0896 28.9449 37.2515 28.3298 37.2515H12.3317C11.7165 37.2515 11.1121 37.0897 10.5794 36.7821C10.0466 36.4745 9.60418 36.0324 9.29662 35.4996Z" fill="url(#paint0_linear_248_293237)"/>
<path opacity="0.07" d="M37.1609 26.743L25.3973 14.9788L20.3313 13.623L15.7808 15.3143L14.0234 19.8928L15.4364 24.9905L27.9113 37.4654L30.5584 37.3477L37.1609 26.743Z" fill="black"/>
<path d="M20.3337 12.8242C16.4302 12.8242 13.2656 15.9888 13.2656 19.8926C13.2656 23.7962 16.4302 26.9607 20.3337 26.9607C24.2373 26.9607 27.4015 23.7962 27.4015 19.8926C27.4015 15.9888 24.237 12.8242 20.3337 12.8242ZM20.3337 25.2555C17.3718 25.2555 14.9706 22.8543 14.9706 19.8923C14.9706 16.9304 17.3718 14.5295 20.3337 14.5295C23.2957 14.5295 25.6969 16.9307 25.6969 19.8926C25.6969 22.8546 23.2957 25.2555 20.3337 25.2555Z" fill="white"/>
<path d="M16.9805 19.6197V21.8168C17.3055 22.3749 17.7642 22.8434 18.3152 23.1804V19.6197H16.9805ZM19.627 17.7676V23.6826C19.854 23.7243 20.0862 23.7496 20.3248 23.7496C20.5424 23.7496 20.7545 23.7268 20.9626 23.692V17.7676H19.627ZM22.3973 20.5327V23.1417C22.957 22.7858 23.4166 22.2928 23.7326 21.7095V20.533L22.3973 20.5327ZM25.4217 24.2463L24.6894 24.9792C24.6274 25.0414 24.5926 25.1256 24.5926 25.2134C24.5926 25.3012 24.6274 25.3854 24.6894 25.4476L27.467 28.2242C27.5291 28.2863 27.6134 28.3211 27.7012 28.3211C27.789 28.3211 27.8732 28.2863 27.9353 28.2242L28.6676 27.4923C28.7292 27.43 28.7638 27.3459 28.7638 27.2582C28.7638 27.1706 28.7292 27.0865 28.6676 27.0242L25.8897 24.2463C25.8275 24.1846 25.7434 24.1499 25.6557 24.1499C25.568 24.1499 25.4839 24.1846 25.4217 24.2463Z" fill="white"/>
</g>
<defs>
<linearGradient id="paint0_linear_248_293237" x1="20.3307" y1="2.53351" x2="20.3307" y2="37.1975" gradientUnits="userSpaceOnUse">
<stop stop-color="#4387FD"/>
<stop offset="1" stop-color="#4683EA"/>
</linearGradient>
<clipPath id="clip0_248_293237">
<rect width="40" height="40" fill="white" transform="translate(0.332031)"/>
</clipPath>
</defs>
</svg>
