<svg width="41" height="38" viewBox="0 0 41 38" fill="none" xmlns="http://www.w3.org/2000/svg">
<g clip-path="url(#clip0_248_293267)">
<mask id="mask0_248_293267" style="mask-type:alpha" maskUnits="userSpaceOnUse" x="0" y="0" width="41" height="37">
<path d="M39.8517 17.0839L31.6332 2.79057C31.0043 1.67535 29.8321 0.976316 28.552 0.953125H12.1119C10.8316 0.975685 9.65909 1.67489 9.03069 2.79057L0.809052 17.0464C0.173024 18.1532 0.173024 19.5146 0.809052 20.6213L9.02757 34.9959C9.64953 36.127 10.8189 36.8492 12.1087 36.899H28.5489C29.8387 36.8547 31.0101 36.1355 31.6332 35.0053L39.8517 20.7119C40.4921 19.5874 40.4921 18.2085 39.8517 17.0839Z" fill="white"/>
</mask>
<g mask="url(#mask0_248_293267)">
<path d="M39.8517 17.0839L31.6332 2.79057C31.0043 1.67535 29.8321 0.976316 28.552 0.953125H12.1119C10.8316 0.975685 9.65909 1.67489 9.03069 2.79057L0.809052 17.0464C0.173024 18.1532 0.173024 19.5146 0.809052 20.6213L9.02757 34.9959C9.64953 36.127 10.8189 36.8492 12.1087 36.899H28.5489C29.8387 36.8547 31.0101 36.1355 31.6332 35.0053L39.8517 20.7119C40.4921 19.5874 40.4921 18.2085 39.8517 17.0839Z" fill="#4285F4"/>
<path opacity="0.07" d="M29.5769 14.1928L28.4438 15.4287L28.6991 22.7721L27.6251 24.3285L27.0025 23.706H27.5753V21.1596L24.8266 18.4109L22.749 19.4493L15.8582 12.543L12.5398 14.3205L12.1289 17.7634L13.2931 24.0639L14.9804 25.7169L14.2115 26.8096L24.2501 37.0843H28.4438C29.7286 37.0402 31.1201 36.1982 31.7408 35.0723L38.5812 23.1968L29.5769 14.1928Z" fill="black"/>
<path d="M14.2107 26.8098L15.8574 25.1631L13.3888 22.6945V15.0118L15.8574 12.5432L14.2107 10.8965L10.9141 14.1931V23.5132L14.2107 26.8098Z" fill="white"/>
<path d="M16.7611 20.0202C17.4058 20.0202 17.9285 19.4976 17.9285 18.8529C17.9285 18.2082 17.4058 17.6855 16.7611 17.6855C16.1164 17.6855 15.5938 18.2082 15.5938 18.8529C15.5938 19.4976 16.1164 20.0202 16.7611 20.0202Z" fill="white"/>
<path d="M20.2533 20.0202C20.898 20.0202 21.4206 19.4976 21.4206 18.8529C21.4206 18.2082 20.898 17.6855 20.2533 17.6855C19.6086 17.6855 19.0859 18.2082 19.0859 18.8529C19.0859 19.4976 19.6086 20.0202 20.2533 20.0202Z" fill="white"/>
<path d="M23.7455 20.0202C24.3902 20.0202 24.9128 19.4976 24.9128 18.8529C24.9128 18.2082 24.3902 17.6855 23.7455 17.6855C23.1008 17.6855 22.5781 18.2082 22.5781 18.8529C22.5781 19.4976 23.1008 20.0202 23.7455 20.0202Z" fill="white"/>
<path d="M26.2796 10.8965L24.6328 12.5432L27.1014 15.0118V22.6945L24.6328 25.1631L26.2796 26.8098L29.5762 23.5132V14.1931L26.2796 10.8965Z" fill="white"/>
</g>
</g>
<defs>
<clipPath id="clip0_248_293267">
<rect width="40" height="36.0938" fill="white" transform="translate(0.332031 0.953125)"/>
</clipPath>
</defs>
</svg>
