<svg width="26" height="40" viewBox="0 0 26 40" fill="none" xmlns="http://www.w3.org/2000/svg">
<g clip-path="url(#clip0_248_293217)">
<path d="M24.7764 16.2387C24.7764 22.9013 19.494 28.3075 12.9742 28.3075C6.45435 28.3075 1.17188 22.9013 1.17188 16.2387C1.17188 9.57613 6.45435 4.16992 12.9742 4.16992C19.494 4.16992 24.7764 9.57613 24.7764 16.2387Z" fill="#D33833"/>
<path d="M1.65382 19.2276C1.65382 19.2276 0.797207 6.64487 12.3996 6.28319L11.5906 4.93164L5.29921 7.04463L3.50031 9.11003L1.92985 12.1177L1.03516 15.6203L1.30166 17.9617" fill="#EF3D3A"/>
<path d="M4.8918 8.00505C2.8264 10.1276 1.54148 13.0496 1.54148 16.2857C1.54148 19.5218 2.8264 22.4438 4.8918 24.5663C6.96672 26.6888 9.81259 27.9928 12.9726 27.9928C16.1325 27.9928 18.9784 26.6888 21.0533 24.5663C23.1187 22.4438 24.4036 19.5218 24.4036 16.2857C24.4036 13.0496 23.1187 10.1276 21.0533 8.00505C18.9784 5.89207 16.1325 4.57859 12.9726 4.57859C9.82211 4.57859 6.96672 5.88255 4.8918 8.00505ZM4.36831 25.0708C2.16966 22.8245 0.808594 19.7122 0.808594 16.2857C0.808594 12.8592 2.16966 9.74684 4.36831 7.49108C6.56696 5.24484 9.61271 3.8457 12.9726 3.8457C16.3324 3.8457 19.3781 5.24484 21.5768 7.49108C23.7754 9.73732 25.1365 12.8497 25.1365 16.2857C25.1365 19.7122 23.7754 22.8245 21.5768 25.0708C19.3781 27.3265 16.3324 28.7162 12.9726 28.7162C9.61271 28.7162 6.56696 27.3265 4.36831 25.0708Z" fill="#231F20"/>
<path d="M17.9397 16.3054L16.1408 16.5719L13.7137 16.848L12.1432 16.886L10.6108 16.8384L9.44011 16.4768L8.40265 15.3536L7.59362 13.0598L7.41278 12.5649L6.33725 12.2032L5.70906 11.1657L5.26172 9.68093L5.75665 8.37697L6.92736 7.9677L7.86964 8.41504L8.31699 9.40491L8.85951 9.31925L9.04035 9.09082L8.85951 8.05336L8.81192 6.7494L9.07842 4.9505L9.06891 3.92256L9.88745 2.60908L11.3247 1.57162L13.8374 0.496094L16.6262 0.905366L19.0533 2.65667L20.1764 4.45557L20.8997 5.75953L21.0806 8.99564L20.5381 11.7844L19.5482 14.2591L18.6154 15.5821" fill="#F0D6B7"/>
<path d="M16.4179 24.0819L9.99329 24.3484V25.4239L10.5358 29.2025L10.2693 29.5166L5.77683 27.9842L5.46274 27.4417L5.01539 22.3591L3.9589 19.3133L3.73047 18.59L7.32826 16.1153L8.45138 15.668L9.44125 16.8863L10.2979 17.6477L11.2877 17.9618L11.7351 18.0951L12.2776 20.4365L12.6869 20.9314L13.7243 20.5697L13.001 21.9689L16.9033 23.8153L16.4179 24.0819Z" fill="#335061"/>
<path d="M5.75897 8.39543L6.92968 7.98616L7.87196 8.4335L8.3193 9.42337L8.86182 9.33771L8.99508 8.79519L8.72857 7.75773L8.99508 5.28306L8.76664 3.93151L9.57567 2.98923L11.327 1.5996L10.832 0.923828L8.35737 2.14213L7.31991 2.95116L6.73932 4.20753L5.84463 5.42583L5.57812 6.86304L5.75897 8.39543Z" fill="#6D6B6D"/>
<path d="M7.60386 4.16901C7.60386 4.16901 8.27964 2.50336 10.9732 1.69433C13.6668 0.885306 11.1065 1.11374 11.1065 1.11374L8.18446 2.23686L7.06134 3.35998L6.56641 4.25467L7.60386 4.16901Z" fill="#DCD9D8"/>
<path d="M6.2539 8.08172C6.2539 8.08172 5.31162 4.93127 8.90941 4.48393L8.77616 3.94141L6.30149 4.522L5.57812 6.86342L5.75897 8.39581L6.2539 8.08172Z" fill="#DCD9D8"/>
<path d="M7.69141 12.2605L8.28152 11.6895C8.28152 11.6895 8.54802 11.718 8.59561 12.0321C8.6432 12.3462 8.77645 15.1825 10.7086 16.7054C10.8894 16.8482 9.27139 16.477 9.27139 16.477L7.83418 14.2308" fill="#F7E4CD"/>
<path d="M15.9628 11.4027C15.9628 11.4027 16.0675 10.0417 16.4387 10.1464C16.8099 10.2511 16.8099 10.6223 16.8099 10.6223C16.8099 10.6223 15.9152 11.1933 15.9628 11.4027Z" fill="#F7E4CD"/>
<path d="M19.6915 6.41602C19.6915 6.41602 18.9491 6.5683 18.8825 7.22504C18.8159 7.88178 19.6915 7.35829 19.8248 7.3107" fill="#F7E4CD"/>
<path d="M14.2594 6.46289C14.2594 6.46289 13.2695 6.59614 13.2695 7.22433C13.2695 7.85251 14.3927 7.80492 14.7067 7.53842" fill="#F7E4CD"/>
<path d="M8.14858 9.38599C8.14858 9.38599 6.44486 8.34853 6.26402 9.3384C6.08318 10.3283 5.68342 11.0421 6.53052 12.0796L5.94993 11.8987L5.4074 10.5091L5.22656 9.15756L6.26402 8.08203L7.43473 8.16769L8.11051 8.71022L8.14858 9.38599Z" fill="#F7E4CD"/>
<path d="M8.95468 6.54922C8.95468 6.54922 9.71612 2.58975 13.5804 1.82831C16.7594 1.20013 18.4346 1.96157 19.0628 2.68493C19.0628 2.68493 16.2264 -0.68443 13.5328 0.343511C10.8392 1.38097 8.8595 3.26553 8.90709 4.47431C8.98323 6.54922 8.95468 6.54922 8.95468 6.54922Z" fill="#F7E4CD"/>
<path d="M19.3789 3.13308C19.3789 3.13308 18.0749 3.08549 18.0273 4.2562C18.0273 4.2562 18.0273 4.43704 18.113 4.61788C18.113 4.61788 19.1505 3.44717 19.7786 4.07536" fill="#F7E4CD"/>
<path d="M13.6771 4.74148C13.6771 4.74148 13.4487 2.9521 11.9258 3.98956C10.936 4.66533 11.0311 5.60761 11.2025 5.78845C11.3833 5.96929 11.3357 6.33098 11.469 6.08351C11.6022 5.83604 11.5641 5.02701 12.0591 4.79858C12.5445 4.57015 13.363 4.32268 13.6771 4.74148Z" fill="#F7E4CD"/>
<path d="M9.44906 16.8853L5.22308 18.7698C5.22308 18.7698 6.97439 25.737 6.0797 27.8976L5.45152 27.6691L5.40393 25.0136L4.23322 19.9881L3.73828 18.5985L8.1451 15.6289L9.44906 16.8853Z" fill="#49728B"/>
<path d="M9.87956 20.7402L10.4792 21.4731V24.1667H9.76535C9.76535 24.1667 9.67969 22.2821 9.67969 22.0537C9.67969 21.8253 9.76535 21.0163 9.76535 21.0163" fill="#49728B"/>
<path d="M9.89842 24.5762L7.87109 24.6618L8.45169 25.0711L9.8889 25.2995" fill="#49728B"/>
<path d="M16.8164 24.1296L18.482 24.082L18.8913 28.2128L17.1876 28.4413L16.8164 24.1296Z" fill="#335061"/>
<path d="M17.2656 24.1297L19.7784 23.9964C19.7784 23.9964 20.8158 21.3885 20.8158 21.2553C20.8158 21.122 21.7105 17.4766 21.7105 17.4766L19.6832 15.3636L19.2739 15.002L18.1984 16.0775V20.2559L17.2656 24.1297Z" fill="#335061"/>
<path d="M18.3869 23.8145L16.8164 24.1285L17.0448 25.3849C17.6254 25.6514 18.6153 24.9376 18.6153 24.9376" fill="#49728B"/>
<path d="M18.4375 15.9425L21.5879 18.2839L21.6736 17.2084L19.2941 15.0098L18.4375 15.9425Z" fill="#49728B"/>
<path d="M11.4597 32.9804L10.5269 29.2017L10.0605 26.413L9.98438 24.3476L14.2008 24.1191H16.8183L16.5803 28.8401L16.9896 32.4854L16.942 33.1612L13.5251 33.4277L11.4597 32.9804Z" fill="white"/>
<path d="M16.2377 24.081C16.2377 24.081 16.0093 28.7543 16.6851 32.0856C16.6851 32.0856 15.3335 32.9422 13.3633 33.1611L17.1419 33.0278L17.5893 32.7613L17.0467 25.3944L16.904 23.8145" fill="#DCD9D8"/>
<path d="M18.9603 27.8602L20.7116 27.3653L24.0334 27.1844L24.5283 25.652L23.6336 22.9965L22.5961 22.8633L21.1589 23.3106L19.7883 23.9864L19.0555 23.8531L18.4844 24.0816" fill="white"/>
<path d="M18.9297 26.9558C18.9297 26.9558 20.1004 26.4133 20.2812 26.4609L19.7863 23.9862L20.3669 23.7578C20.3669 23.7578 20.7762 26.0992 20.7762 26.3657C20.7762 26.3657 23.2889 26.499 23.5173 26.499C23.5173 26.499 24.0599 25.4615 23.9266 24.386L24.4216 25.8232L24.4691 26.6322L23.7458 27.7078L22.9368 27.8886L21.5852 27.841L21.1379 27.2604L19.5674 27.4889L19.0725 27.6697" fill="#DCD9D8"/>
<path d="M17.1601 23.7664L16.1703 21.2536L15.1328 19.7688C15.1328 19.7688 15.3612 19.1406 15.6753 19.1406H16.7128L17.7027 19.5023L17.617 21.168L17.1601 23.7664Z" fill="white"/>
<path d="M17.3602 22.9109C17.3602 22.9109 16.1039 20.4838 16.1039 20.1222C16.1039 20.1222 16.3323 19.5796 16.6464 19.7129C16.9605 19.8461 17.6363 20.2078 17.6363 20.2078V19.3512L16.1039 19.0371L15.0664 19.1704L16.8177 23.3202L17.1794 23.3678" fill="#DCD9D8"/>
<path d="M11.859 16.9813L10.6121 16.848L9.44141 16.4863V16.8956L10.0125 17.5238L11.8114 18.3328" fill="white"/>
<path d="M9.8503 17.1133C9.8503 17.1133 11.2399 17.6939 11.6968 17.5606L11.7444 18.1031L10.488 17.8366L9.72656 17.2941L9.8503 17.1133Z" fill="#DCD9D8"/>
<path d="M18.9594 19.2939C18.1979 19.2749 17.5031 19.1797 16.9035 19.0084C16.9416 18.7609 16.8654 18.523 16.9321 18.3421C17.1034 18.2184 17.3794 18.2184 17.6364 18.1898C17.4175 18.0851 17.1034 18.0375 16.8559 18.1042C16.8464 17.9328 16.7702 17.8281 16.7227 17.6949C17.151 17.5426 18.1599 16.5432 18.7309 16.8668C19.007 17.0286 19.1212 17.9233 19.1402 18.3707C19.1593 18.7323 19.1021 19.094 18.9594 19.2939Z" fill="#D33833"/>
<path d="M18.9594 19.2939C18.1979 19.2749 17.5031 19.1797 16.9035 19.0084C16.9416 18.7609 16.8654 18.523 16.9321 18.3421C17.1034 18.2184 17.3794 18.2184 17.6364 18.1898C17.4175 18.0851 17.1034 18.0375 16.8559 18.1042C16.8464 17.9328 16.7702 17.8281 16.7227 17.6949C17.151 17.5426 18.1599 16.5432 18.7309 16.8668C19.007 17.0286 19.1212 17.9233 19.1402 18.3707C19.1593 18.7323 19.1021 19.094 18.9594 19.2939Z" fill="black" stroke="#D33833" stroke-width="2"/>
<path d="M15.315 18.0472C15.315 18.1043 15.315 18.1614 15.3055 18.2185C15.0675 18.3708 14.6868 18.3708 14.4203 18.5041C14.801 18.5231 15.1056 18.6183 15.3721 18.742C15.3626 18.8848 15.3626 19.0371 15.3531 19.1798C14.9153 19.4749 14.5155 19.9222 14.0015 20.2078C13.7541 20.341 12.907 20.6837 12.65 20.6171C12.5072 20.579 12.4882 20.3981 12.4311 20.2268C12.3073 19.8651 12.0218 19.275 11.9932 18.723C11.9647 18.0282 11.8885 16.8575 12.6405 17.0002C13.2496 17.1144 13.9539 17.3905 14.4203 17.6474C14.7154 17.8188 14.8772 18.0091 15.315 18.0472Z" fill="#D33833"/>
<path d="M15.315 18.0472C15.315 18.1043 15.315 18.1614 15.3055 18.2185C15.0675 18.3708 14.6868 18.3708 14.4203 18.5041C14.801 18.5231 15.1056 18.6183 15.3721 18.742C15.3626 18.8848 15.3626 19.0371 15.3531 19.1798C14.9153 19.4749 14.5155 19.9222 14.0015 20.2078C13.7541 20.341 12.907 20.6837 12.65 20.6171C12.5072 20.579 12.4882 20.3981 12.4311 20.2268C12.3073 19.8651 12.0218 19.275 11.9932 18.723C11.9647 18.0282 11.8885 16.8575 12.6405 17.0002C13.2496 17.1144 13.9539 17.3905 14.4203 17.6474C14.7154 17.8188 14.8772 18.0091 15.315 18.0472Z" fill="black" stroke="#D33833" stroke-width="2"/>
<path d="M15.7415 18.8754C15.6749 18.4947 15.5987 18.39 15.6273 18.0569C16.6457 17.3811 16.8265 19.2181 15.7415 18.8754Z" fill="#D33833"/>
<path d="M15.7415 18.8754C15.6749 18.4947 15.5987 18.39 15.6273 18.0569C16.6457 17.3811 16.8265 19.2181 15.7415 18.8754Z" fill="black" stroke="#D33833" stroke-width="2"/>
<path d="M17.2085 19.1797C17.2085 19.1797 16.8944 18.7323 17.1229 18.5991C17.3513 18.4658 17.5702 18.5991 17.7034 18.3706C17.8367 18.1422 17.7034 18.009 17.751 17.7425C17.7986 17.4759 18.0175 17.4284 18.246 17.3808C18.4744 17.3332 19.1026 17.2475 19.1882 17.4664L18.9217 16.6574L18.3792 16.4766L16.6755 17.4664L16.5898 17.9614V18.9512" fill="#EF3D3A"/>
<path d="M12.4867 20.665C12.4296 19.9607 12.3725 19.2659 12.3154 18.5616C12.2202 17.5146 12.5629 17.6954 13.4766 17.6954C13.6194 17.6954 14.3332 17.8572 14.3808 17.9619C14.6283 18.4664 13.9715 18.3522 14.6663 18.7329C15.2469 19.047 16.2844 18.5425 16.0464 17.8287C15.9132 17.6669 15.3612 17.7811 15.1613 17.6764C14.8091 17.4955 14.4569 17.3147 14.1048 17.1339C13.6574 16.9054 12.6295 16.5628 12.1536 16.8864C10.9448 17.7049 12.2297 19.7608 12.6581 20.6174" fill="#EF3D3A"/>
<path d="M13.6763 4.74035C12.4485 4.45482 11.8393 5.25432 11.4681 6.08239C11.135 6.00624 11.2683 5.54938 11.3539 5.32095C11.5728 4.72132 12.458 3.91229 13.1814 4.02651C13.4859 4.06458 13.9047 4.35012 13.6763 4.74035Z" fill="#231F20"/>
<path d="M19.6446 6.13086H19.7018C19.9778 6.70194 20.2157 7.31109 20.5679 7.82506C20.3299 8.3771 18.7975 8.853 18.8166 7.88217C19.1497 7.7394 19.7208 7.85361 20.0158 7.66325C19.8445 7.19687 19.6066 6.79712 19.6446 6.13086Z" fill="#231F20"/>
<path d="M14.2971 6.15039C14.5636 6.63581 14.6493 7.14026 15.0205 7.50194C15.1918 7.66375 15.5154 7.86362 15.3536 8.32049C15.3155 8.42518 15.0395 8.66313 14.8777 8.71072C14.2971 8.88205 12.936 8.7488 13.3929 8.01591C13.8783 8.03495 14.5255 8.33 14.8872 7.97784C14.6112 7.54001 14.1163 6.66436 14.2971 6.15039Z" fill="#231F20"/>
<path d="M19.4264 11.0422C18.5508 11.6037 17.5704 12.2224 16.1237 12.0796C15.8191 11.8131 15.6954 11.2135 16 10.8233C16.1523 11.0898 16.0571 11.5847 16.4949 11.6608C17.3134 11.8036 18.2652 11.1564 18.8554 10.9375C19.217 10.3188 18.8268 10.0999 18.4937 9.70013C17.8179 8.8911 16.9232 7.8822 16.9518 6.67342C17.2278 6.47354 17.2468 6.97799 17.2849 7.06365C17.6371 7.8822 18.5222 8.93869 19.1599 9.64302C19.3217 9.81435 19.5787 9.98567 19.6073 10.0999C19.6929 10.4235 19.3884 10.8233 19.4264 11.0422Z" fill="#231F20"/>
<path d="M7.83213 10.4517C7.55611 10.2899 7.48948 9.60462 7.16587 9.58558C6.69949 9.55703 6.78515 10.4803 6.78515 11.0228C6.47106 10.7373 6.41395 9.84257 6.64238 9.3857C6.37588 9.25245 6.26166 9.52847 6.10938 9.62365C6.30925 8.24355 8.1367 8.98595 7.83213 10.4517Z" fill="#231F20"/>
<path d="M19.9759 11.623C19.5667 12.4035 18.9861 13.2601 17.7868 13.2887C17.7582 13.0412 17.7392 12.651 17.7868 12.4987C18.71 12.4035 19.2811 11.9371 19.9759 11.623Z" fill="#231F20"/>
<path d="M14.2305 12.127C14.9919 12.5267 16.4006 12.5743 17.4475 12.5457C17.5046 12.7742 17.5046 13.0597 17.5046 13.3357C16.1626 13.3928 14.5826 13.0597 14.2305 12.127Z" fill="#231F20"/>
<path d="M14.0867 12.8691C14.6197 14.2017 16.4376 14.0494 17.97 14.0113C17.9034 14.1826 17.7606 14.392 17.5703 14.4586C17.0754 14.6585 15.7238 14.8108 15.0385 14.4491C14.6102 14.2207 14.3247 13.6972 14.0867 13.3926C13.982 13.2499 13.4109 12.8787 14.0867 12.8691Z" fill="#231F20"/>
<path d="M19.3574 20.2079C18.7388 21.2739 18.1391 22.3685 17.4062 23.3013C17.7108 22.3971 17.8441 20.8742 17.8917 19.713C18.5389 19.4084 19.0909 19.7796 19.3574 20.2079Z" fill="#81B0C4"/>
<path d="M22.7015 24.0332C22.0066 24.176 21.5212 24.8517 20.8359 24.8042C21.2167 24.2807 21.8639 24.0522 22.7015 24.0332Z" fill="#231F20"/>
<path d="M23.0037 25.1189C22.4326 25.176 21.7664 25.2711 21.1953 25.2236C21.4713 24.8048 22.5183 24.9571 23.0037 25.1189Z" fill="#231F20"/>
<path d="M23.2048 26.061C22.5671 26.0706 21.7771 26.061 21.168 26.0135C21.5297 25.6232 22.7955 25.8707 23.2048 26.061Z" fill="#231F20"/>
<path d="M18.1609 28.6303C18.256 29.4298 18.5701 30.2389 18.5321 31.1145C18.1799 31.2287 17.98 31.3334 17.5041 31.3334C17.4756 30.591 17.3709 29.4489 17.3994 28.735C17.6278 28.7541 17.9705 28.5732 18.1609 28.6303Z" fill="#DCD9D8"/>
<path d="M17.1314 16.8281C16.8078 17.0375 16.5413 17.2945 16.2272 17.5229C15.5419 17.561 15.1707 17.4753 14.6758 17.0851C14.6853 17.0566 14.7329 17.0661 14.7329 17.028C15.4658 17.3516 16.3985 16.8948 17.1314 16.8281Z" fill="#F0D6B7"/>
<path d="M13.3047 21.8067C13.5046 20.9406 14.2946 20.4837 15.0084 20.0078C15.7413 20.9406 16.1886 22.1398 16.6836 23.301C15.5129 22.9489 14.3231 22.3873 13.3047 21.8067Z" fill="#81B0C4"/>
<path d="M17.3973 28.7452C17.3687 29.459 17.4639 30.5917 17.502 31.3436C17.9779 31.3436 18.1778 31.2389 18.5299 31.1247C18.568 30.249 18.2539 29.44 18.1587 28.6405C17.9684 28.5738 17.6257 28.7547 17.3973 28.7452ZM10.0494 24.7095C10.3635 27.5745 10.8109 29.973 11.6389 32.5143C13.4759 33.0758 15.6841 33.1234 17.3116 32.619C17.0166 31.1913 17.1403 29.4495 16.969 27.9171C16.8357 26.7654 16.9024 25.6138 16.7215 24.443C14.7513 24.0338 11.972 24.3479 10.0494 24.7095ZM17.1879 24.4621C17.1689 25.6899 17.245 26.9082 17.3402 28.136C17.8161 28.0694 18.1302 28.0218 18.568 27.9171C18.4252 26.7369 18.4443 25.3948 18.1492 24.3479C17.8161 24.3574 17.521 24.3479 17.1879 24.4621ZM19.5769 24.2622C19.3485 24.2146 19.0915 24.2622 18.8821 24.2622C18.9868 25.2616 19.2247 26.3657 19.3104 27.4222C19.6435 27.4317 19.8244 27.2699 20.1004 27.2223C20.1194 26.299 20.0242 25.0236 19.5769 24.2622ZM23.2032 27.5745C23.9076 27.4031 24.3454 26.5465 24.1455 25.6613C24.0123 25.0712 23.7838 23.9481 23.5269 23.5674C23.346 23.2914 22.8416 22.9202 22.4323 23.1772C21.7756 23.5959 20.6239 23.7197 20.148 24.2241C20.3859 25.0236 20.4621 26.1087 20.5573 27.1176C21.3758 27.1652 22.3752 26.8892 23.0605 27.1842C22.5846 27.3365 21.9754 27.3365 21.5662 27.5649C21.9088 27.7267 22.6893 27.6982 23.2032 27.5745ZM16.6739 23.3009C16.179 22.1397 15.7316 20.9404 14.9988 20.0077C14.2849 20.4836 13.5044 20.9404 13.295 21.8066C14.323 22.3872 15.5127 22.9487 16.6739 23.3009ZM17.8922 19.7126C17.8446 20.8738 17.7114 22.3967 17.4068 23.3009C18.1397 22.3586 18.7393 21.2736 19.358 20.2075C19.0915 19.7792 18.5394 19.408 17.8922 19.7126ZM16.5121 19.2272C16.2361 19.1986 15.9981 19.5508 15.6365 19.3985C15.5508 19.4937 15.4747 19.5889 15.389 19.6841C16.1885 20.6549 16.5597 22.0255 17.1784 23.1581C17.5115 22.0636 17.4734 20.8738 17.5496 19.6841C17.0927 19.7031 16.8357 19.2558 16.5121 19.2272ZM15.6269 18.0565C15.5984 18.3896 15.6745 18.4943 15.7412 18.875C16.8262 19.2177 16.6454 17.3807 15.6269 18.0565ZM14.4182 17.6567C13.9518 17.3997 13.2475 17.1237 12.6383 17.0095C11.8864 16.8667 11.9625 18.0375 11.9911 18.7323C12.0196 19.2843 12.3052 19.8649 12.4289 20.2361C12.486 20.4074 12.5051 20.5883 12.6478 20.6263C12.9048 20.6834 13.7614 20.3503 13.9994 20.2171C14.5133 19.941 14.9131 19.4937 15.3509 19.1891C15.3604 19.0464 15.3604 18.8941 15.37 18.7513C15.1035 18.618 14.8084 18.5324 14.4182 18.5133C14.6751 18.3801 15.0654 18.3801 15.3033 18.2278C15.3033 18.1707 15.3033 18.1136 15.3129 18.0565C14.875 18.0089 14.7132 17.8185 14.4182 17.6567ZM9.94472 16.8477C9.55448 17.2475 11.0393 17.7805 11.5057 17.809C11.5057 17.5616 11.6484 17.3236 11.6199 17.1428C11.0583 17.0476 10.3254 17.1142 9.94472 16.8477ZM14.7418 17.0285C14.7418 17.0666 14.6942 17.0571 14.6847 17.0857C15.1891 17.4759 15.5603 17.5616 16.2361 17.5235C16.5407 17.3046 16.8167 17.0381 17.1403 16.8287C16.3979 16.8953 15.4651 17.3522 14.7418 17.0285ZM19.1391 18.3611C19.12 17.9232 19.0058 17.019 18.7298 16.8572C18.1587 16.5241 17.1498 17.533 16.7215 17.6853C16.7691 17.8185 16.8452 17.9232 16.8548 18.0946C17.1117 18.0279 17.4163 18.0755 17.6352 18.1802C17.3783 18.2088 17.1022 18.2088 16.9309 18.3325C16.8738 18.5133 16.9499 18.7513 16.9024 18.9988C17.502 19.1701 18.1968 19.2558 18.9582 19.2843C19.101 19.0939 19.1581 18.7323 19.1391 18.3611ZM9.28798 17.2284C9.16425 17.1428 8.33618 16.0672 8.22197 16.1148C6.72765 16.7049 5.32851 17.7234 4.08165 18.6942C5.2714 21.2545 5.75681 24.3859 5.84248 27.4031C7.20354 28.0408 8.40281 28.9641 10.2588 29.0593C10.0399 27.5459 9.84954 26.1848 9.72581 24.7571C9.25943 24.5573 8.59317 24.7667 8.15534 24.7C8.15534 24.1765 8.8216 24.4716 8.87871 24.1194C8.91678 23.8529 8.50751 23.8339 8.64076 23.4151C8.9834 23.5388 9.16425 23.8149 9.52593 23.9196C9.85906 23.1962 9.52593 21.9113 9.57352 21.3021C9.58304 21.1879 9.63063 20.6739 9.88761 20.7596C10.116 20.8357 9.87809 22.1397 9.89713 22.7108C9.91617 23.2438 9.8305 23.7482 10.0494 24.0814C11.8388 23.8339 13.6567 23.6816 15.5984 23.6245C15.1701 23.4437 14.6656 23.2723 14.1136 22.9582C13.809 22.7869 12.8667 22.4348 12.7811 22.1492C12.6383 21.6924 13.1428 21.4544 13.2284 21.0642C12.3242 21.5591 12.1529 20.5883 11.934 19.9125C11.7436 19.2938 11.6294 18.8274 11.5818 18.4753C10.7918 18.0755 9.95424 17.7043 9.28798 17.2284ZM18.3491 16.2386C19.5959 15.6389 19.8244 18.4943 19.3294 19.4176C19.4056 19.6936 19.6626 19.7983 19.7673 20.0457C19.0725 21.2926 18.3015 22.4538 17.5876 23.6816C18.1111 23.3485 18.8726 23.6245 19.4912 23.377C19.7197 23.2914 19.8815 22.7679 20.0528 22.3491C20.5287 21.2069 21.0236 19.7602 21.2425 18.6752C21.2901 18.4277 21.4329 17.8852 21.3948 17.6663C21.3377 17.2665 20.8047 16.9714 20.5287 16.7335C20.0242 16.2766 19.7102 15.8864 19.1771 15.4581C18.9773 15.7722 18.5204 15.9816 18.3491 16.2386ZM6.44211 5.1882C5.85199 5.84494 5.97573 7.06324 6.04235 7.93889C7.11788 7.26311 8.53606 7.996 8.52654 9.13815C9.04051 9.12863 8.7169 8.50045 8.62172 8.09118C8.31715 6.76818 9.13569 5.34048 8.65979 4.1317C7.73655 4.20785 6.98463 4.57905 6.44211 5.1882ZM10.6871 1.39053C9.34509 1.77125 7.62234 2.7516 7.07029 3.96038C7.4986 3.89375 7.79366 3.68436 8.21245 3.6558C8.37425 3.64629 8.58365 3.72243 8.76449 3.67484C9.12617 3.57966 9.44027 2.76111 9.71629 2.45654C9.98279 2.16148 10.3064 2.02823 10.5253 1.76173C10.6681 1.6951 10.8775 1.6951 10.887 1.48571C10.8299 1.41908 10.7633 1.37149 10.6871 1.39053ZM17.6828 1.75221C16.2837 0.962219 13.9232 0.372105 12.4384 1.11451C11.2392 1.71414 9.62111 2.70401 9.06907 3.95086C9.58304 5.15964 8.91678 6.26373 8.86919 7.49154C8.85015 8.14828 9.17376 8.70984 9.20232 9.42369C9.02148 9.71875 8.48847 9.7473 8.11727 9.72827C7.99354 9.10008 7.77462 8.39575 7.1274 8.31961C6.21368 8.21491 5.5379 8.97635 5.49983 9.76634C5.45224 10.6991 6.21368 12.241 7.29872 12.1363C7.71751 12.0982 7.82221 11.6794 8.27907 11.6794C8.52654 12.1744 7.89836 12.3267 7.83173 12.6788C7.8127 12.774 7.87932 13.1262 7.92691 13.2975C8.12679 14.1065 8.56461 15.163 8.99292 15.7817C9.54496 16.5717 10.6205 16.6859 11.7817 16.762C11.9911 16.3147 12.7525 16.3528 13.2475 16.467C12.6478 16.229 12.0958 15.658 11.6389 15.1535C11.1154 14.5729 10.5824 13.9542 10.5539 13.1928C11.5533 14.5729 12.3718 15.7817 14.1802 16.3908C15.5508 16.8477 17.1498 16.1814 18.2063 15.439C18.6441 15.1345 18.9011 14.6395 19.2152 14.2017C20.3764 12.5265 20.9189 10.1471 20.8047 7.83419C20.7571 6.88239 20.7571 5.9306 20.4335 5.29289C20.1004 4.62664 18.9678 4.01749 18.3015 4.62664C18.1778 3.9699 18.8535 3.57014 19.6435 3.80809C19.082 3.07521 18.4919 2.20907 17.6828 1.75221ZM20.2908 23.2723C21.3853 22.7298 23.4222 21.8161 24.0979 23.2723C24.3549 23.8149 24.65 24.7191 24.7737 25.2806C24.9546 26.0611 24.5738 27.7172 23.7648 27.9742C23.051 28.2026 22.2229 28.1931 21.3663 28.0218C21.2616 27.9361 21.1569 27.7934 21.0712 27.6411C20.4621 27.622 19.8815 27.6696 19.4056 27.9266C19.4532 28.3835 19.1486 28.4501 18.8535 28.5453C18.6441 29.3924 19.2818 30.4965 19.1296 31.2579C19.0249 31.81 18.3491 31.8956 17.8541 31.9908C17.8351 32.2954 17.8732 32.5523 17.9113 32.8093C17.797 33.2281 17.2926 33.4661 16.8072 33.5232C15.2177 33.7135 12.8096 33.7992 11.2868 33.2472C10.8584 32.2002 10.5253 30.9343 10.1732 29.7446C8.68835 29.9064 7.47957 29.1068 6.34693 28.5738C5.95669 28.393 5.41417 28.2883 5.26188 27.9742C5.11911 27.6696 5.17622 27.089 5.13815 26.5465C5.05248 25.1474 4.96682 23.7958 4.60514 22.3681C4.44333 21.7209 4.14828 21.1593 3.9484 20.5407C3.75804 19.9696 3.43443 19.2558 3.34877 18.6847C3.22503 17.8376 4.02454 17.79 4.529 17.4188C5.31899 16.8477 5.93766 16.5336 6.79427 16.0196C7.05126 15.8674 7.8127 15.4866 7.89836 15.3058C8.06968 14.9536 7.6033 14.4587 7.47957 14.1827C7.27969 13.7448 7.17499 13.3736 7.14644 12.9453C6.43259 12.8311 5.88055 12.4028 5.55694 11.9269C5.01441 11.1274 4.63369 9.65212 5.10959 8.53852C5.14766 8.45286 5.3285 8.27202 5.35706 8.13877C5.41417 7.87226 5.25236 7.5201 5.24284 7.23456C5.19525 5.77831 5.49031 4.52194 6.47066 4.08411C6.87042 2.49461 8.29811 1.97112 9.64014 1.18113C10.1446 0.886075 10.6966 0.695716 11.2677 0.48632C13.3141 -0.265599 16.4645 -0.122829 18.1682 1.1621C18.8916 1.70462 20.0433 2.85629 20.4526 3.69388C21.5471 5.89253 21.4615 9.57598 20.7 12.26C20.5953 12.6217 20.4526 13.1452 20.2432 13.583C20.1004 13.8876 19.653 14.4872 19.7006 14.7538C19.7577 15.0298 20.7286 15.7627 20.938 15.9625C21.3092 16.3242 22.023 16.8001 22.0801 17.257C22.1468 17.7424 21.8707 18.4087 21.728 18.875C21.2711 20.436 20.8142 21.8732 20.2908 23.2723Z" fill="#231F20"/>
<path d="M13.0116 12.4598C13.0687 12.3837 13.3923 12.26 13.8491 12.4789C13.8491 12.4789 13.3066 12.5645 13.3542 13.4688L13.1258 13.4212C13.1353 13.4307 12.8973 12.6121 13.0116 12.4598Z" fill="#F7E4CD"/>
<path d="M16.952 20.1889C16.952 20.3221 16.8378 20.4363 16.7045 20.4363C16.5712 20.4363 16.457 20.3221 16.457 20.1889C16.457 20.0556 16.5712 19.9414 16.7045 19.9414C16.8473 19.9414 16.952 20.0556 16.952 20.1889Z" fill="#1D1919"/>
<path d="M17.1981 21.3393C17.1981 21.4725 17.0838 21.5867 16.9506 21.5867C16.8173 21.5867 16.7031 21.4725 16.7031 21.3393C16.7031 21.206 16.8173 21.0918 16.9506 21.0918C17.0934 21.0918 17.1981 21.1965 17.1981 21.3393Z" fill="#1D1919"/>
<path d="M4.23336 35.904C4.15721 35.9135 4.09059 35.923 4.03348 35.9325C3.97637 35.942 3.91926 35.9516 3.84312 35.9706C3.75746 35.9896 3.70987 36.0277 3.69083 36.0848C3.6718 36.1419 3.65276 36.199 3.65276 36.2752V38.5975C3.65276 38.8069 3.60517 39.0068 3.51951 39.1877C3.43385 39.3685 3.31963 39.5113 3.16734 39.635C3.01506 39.7492 2.84373 39.8444 2.65337 39.9015C2.46301 39.9586 2.26314 39.9967 2.05374 39.9967C1.68254 39.9967 1.38748 39.911 1.15905 39.7302C0.930622 39.5493 0.816406 39.3114 0.816406 38.9973C0.816406 38.8165 0.863996 38.6642 0.968694 38.5404C1.07339 38.4167 1.21616 38.3596 1.397 38.3596C1.56833 38.3596 1.70158 38.4072 1.80627 38.5119C1.91097 38.6166 1.95856 38.7403 1.95856 38.8831C1.95856 39.0068 1.91097 39.1306 1.82531 39.2353C1.73965 39.3399 1.63495 39.4446 1.52074 39.5303V39.5684C1.53977 39.6065 1.57784 39.6445 1.63495 39.6731C1.69206 39.7016 1.75868 39.7112 1.81579 39.7112C2.05374 39.7112 2.2441 39.6255 2.37735 39.4542C2.5106 39.2828 2.57723 39.0259 2.57723 38.6832V36.3037C2.57723 36.2371 2.56771 36.1705 2.54868 36.1229C2.52964 36.0753 2.47253 36.0372 2.38687 35.9991C2.32976 35.9706 2.25362 35.9516 2.16796 35.9325C2.0823 35.9135 2.01567 35.904 1.95856 35.8944V35.666H4.2048V35.904H4.23336Z" fill="#231F20"/>
<path d="M7.75592 39.1781C7.68929 39.2923 7.60363 39.397 7.50845 39.5017C7.41327 39.6064 7.29905 39.6826 7.17532 39.7587C7.04207 39.8348 6.90882 39.8919 6.77557 39.93C6.64231 39.9681 6.48051 39.9871 6.30918 39.9871C6.01413 39.9871 5.76666 39.9491 5.54775 39.8634C5.33835 39.7777 5.15751 39.673 5.02426 39.5303C4.88149 39.3875 4.78631 39.2257 4.71017 39.0353C4.64354 38.845 4.60547 38.6356 4.60547 38.4167C4.60547 38.2168 4.64354 38.0169 4.71968 37.8361C4.79583 37.6552 4.90053 37.4839 5.03378 37.3411C5.16703 37.1984 5.33835 37.0841 5.54775 36.9985C5.75714 36.9128 5.98557 36.8652 6.23304 36.8652C6.50906 36.8652 6.73749 36.9033 6.91833 36.9699C7.09918 37.0366 7.24195 37.1317 7.35616 37.246C7.47038 37.3602 7.54652 37.4934 7.60363 37.6457C7.65122 37.798 7.67977 37.9598 7.67977 38.1311V38.3215H5.67148C5.67148 38.7308 5.74762 39.0353 5.90943 39.2447C6.06172 39.4541 6.3187 39.5588 6.65183 39.5588C6.84219 39.5588 7.004 39.5112 7.15628 39.4065C7.30857 39.3018 7.4323 39.1781 7.537 39.0163L7.75592 39.1781ZM6.62328 38.0455C6.62328 37.9312 6.61376 37.8075 6.60424 37.6838C6.59472 37.56 6.57569 37.4553 6.53762 37.3792C6.49954 37.284 6.46147 37.2174 6.39485 37.1698C6.33774 37.1222 6.2616 37.1032 6.17593 37.1032C6.02365 37.1032 5.89991 37.1793 5.81425 37.3316C5.71907 37.4839 5.67148 37.7314 5.66196 38.0645L6.62328 38.0455Z" fill="#231F20"/>
<path d="M11.9534 39.8819H10.164V39.663C10.2021 39.663 10.2497 39.6535 10.2972 39.644C10.3543 39.6345 10.3924 39.6249 10.421 39.6154C10.459 39.5964 10.4876 39.5583 10.5066 39.5203C10.5257 39.4822 10.5352 39.4156 10.5352 39.3394V37.9498C10.5352 37.7499 10.4971 37.5976 10.421 37.4929C10.3448 37.3882 10.2401 37.3406 10.0878 37.3406C10.0117 37.3406 9.93556 37.3502 9.86893 37.3787C9.80231 37.3977 9.73568 37.4358 9.66906 37.4834C9.61195 37.5215 9.56436 37.5596 9.52629 37.6071C9.48821 37.6452 9.45966 37.6833 9.44062 37.7214V39.3109C9.44062 39.3775 9.45014 39.4346 9.46918 39.4822C9.48821 39.5298 9.52629 39.5678 9.56436 39.5869C9.59291 39.6059 9.63098 39.6249 9.67857 39.6345C9.72616 39.644 9.77375 39.6535 9.82134 39.663V39.8819H8.01293V39.663C8.06052 39.663 8.10811 39.6535 8.16522 39.644C8.21281 39.6345 8.2604 39.6249 8.29847 39.6154C8.36509 39.5964 8.40317 39.5583 8.43172 39.5107C8.45076 39.4631 8.46979 39.406 8.46979 39.3299V37.5976C8.46979 37.5405 8.45076 37.4739 8.4222 37.4168C8.39365 37.3597 8.34606 37.3121 8.29847 37.274C8.2604 37.255 8.22232 37.2264 8.16522 37.2169C8.10811 37.1979 8.051 37.1884 7.98438 37.1884V36.9694L9.40255 36.8933L9.45014 36.9409V37.3692H9.45966C9.51677 37.3216 9.58339 37.2645 9.65954 37.1884C9.73568 37.1217 9.81182 37.0646 9.87845 37.017C9.95459 36.9694 10.0498 36.9314 10.164 36.8933C10.2782 36.8552 10.4115 36.8457 10.5447 36.8457C10.8683 36.8457 11.1063 36.9409 11.2681 37.1217C11.4299 37.3026 11.506 37.55 11.506 37.8546V39.3109C11.506 39.387 11.5155 39.4441 11.5346 39.4822C11.5536 39.5298 11.6012 39.5583 11.6583 39.5869C11.6869 39.5964 11.7249 39.6154 11.7725 39.6249C11.8201 39.6345 11.8677 39.644 11.9343 39.6535V39.8819H11.9534Z" fill="#231F20"/>
<path d="M16.0432 39.8821H14.6441C14.4727 39.5775 14.3109 39.3205 14.1682 39.1111C14.0254 38.9017 13.8922 38.7019 13.7684 38.5305L13.5971 38.6828V39.33C13.5971 39.3967 13.6066 39.4633 13.6256 39.5014C13.6447 39.549 13.6828 39.5775 13.7494 39.6061C13.7875 39.6251 13.8255 39.6346 13.8731 39.6441C13.9207 39.6537 13.9683 39.6632 14.0159 39.6632V39.8821H12.1694V39.6632C12.217 39.6632 12.2646 39.6537 12.3217 39.6441C12.3693 39.6346 12.4169 39.6251 12.4549 39.6156C12.5216 39.5965 12.5596 39.5585 12.5882 39.5109C12.6072 39.4633 12.6263 39.4062 12.6263 39.33V36.0178C12.6263 35.9512 12.6072 35.8845 12.5787 35.8179C12.5501 35.7513 12.512 35.6942 12.4549 35.6561C12.4169 35.6371 12.3598 35.6085 12.2836 35.599C12.2075 35.58 12.1408 35.5704 12.0742 35.5704V35.3515L13.5495 35.2754L13.5971 35.323V38.3878C13.7399 38.2545 13.9112 38.1022 14.092 37.9309C14.2729 37.7596 14.4252 37.6168 14.5299 37.5026C14.5965 37.436 14.6346 37.3884 14.6346 37.3503C14.6441 37.3122 14.6441 37.2932 14.6441 37.2837C14.6441 37.2456 14.6155 37.2171 14.5489 37.198C14.4823 37.179 14.3966 37.1504 14.2634 37.1314V36.922H15.7672V37.1314C15.5673 37.1885 15.415 37.2361 15.3103 37.2837C15.2056 37.3313 15.0914 37.3979 14.9677 37.474C14.882 37.5311 14.8059 37.5883 14.7297 37.6454C14.6536 37.7025 14.5679 37.7786 14.4632 37.8643C14.6536 38.1498 14.8344 38.4068 14.9962 38.6448C15.158 38.8827 15.3294 39.1397 15.5102 39.4062C15.5673 39.5014 15.6435 39.5585 15.7386 39.5965C15.8338 39.6251 15.9195 39.6441 16.0147 39.6537V39.8821H16.0432Z" fill="#231F20"/>
<path d="M17.9473 39.8823H16.0722V39.6634C16.1198 39.6634 16.1769 39.6539 16.2245 39.6444C16.2721 39.6349 16.3197 39.6253 16.3483 39.6158C16.4149 39.5968 16.453 39.5587 16.4815 39.5111C16.5101 39.4635 16.5196 39.4064 16.5196 39.3303V37.598C16.5196 37.5314 16.5005 37.4648 16.472 37.4172C16.4434 37.3601 16.4054 37.322 16.3578 37.2934C16.3197 37.2744 16.2721 37.2459 16.196 37.2268C16.1198 37.2078 16.0532 37.1887 15.9961 37.1887V36.9698L17.4523 36.8937L17.4999 36.9413V39.3017C17.4999 39.3684 17.519 39.4255 17.5475 39.4826C17.5761 39.5302 17.6237 39.5682 17.6713 39.5873C17.7093 39.6063 17.7569 39.6253 17.8045 39.6349C17.8521 39.6444 17.8997 39.6539 17.9568 39.6634V39.8823H17.9473ZM17.519 35.8372C17.519 35.9895 17.4619 36.1132 17.3476 36.2179C17.2334 36.3226 17.0907 36.3797 16.9384 36.3797C16.7766 36.3797 16.6433 36.3226 16.5196 36.2179C16.4054 36.1132 16.3483 35.98 16.3483 35.8372C16.3483 35.6849 16.4054 35.5612 16.5196 35.447C16.6338 35.3423 16.7766 35.2852 16.9384 35.2852C17.1002 35.2852 17.2334 35.3423 17.3476 35.447C17.4619 35.5517 17.519 35.6849 17.519 35.8372Z" fill="#231F20"/>
<path d="M22.1448 39.8819H20.3554V39.663C20.3935 39.663 20.4411 39.6535 20.4886 39.644C20.5458 39.6345 20.5838 39.6249 20.6124 39.6154C20.6505 39.5964 20.679 39.5583 20.698 39.5203C20.7171 39.4822 20.7266 39.4156 20.7266 39.3394V37.9498C20.7266 37.7499 20.6885 37.5976 20.6124 37.4929C20.5362 37.3882 20.4315 37.3406 20.2793 37.3406C20.2031 37.3406 20.127 37.3502 20.0603 37.3787C19.9937 37.4073 19.9271 37.4358 19.8605 37.4834C19.8034 37.5215 19.7558 37.5596 19.7177 37.6071C19.6796 37.6452 19.6511 37.6833 19.632 37.7214V39.3109C19.632 39.3775 19.6415 39.4346 19.6606 39.4822C19.6796 39.5298 19.7177 39.5678 19.7558 39.5869C19.7843 39.6059 19.8224 39.6249 19.87 39.6345C19.9176 39.644 19.9652 39.6535 20.0127 39.663V39.8819H18.2043V39.663C18.2519 39.663 18.2995 39.6535 18.3566 39.644C18.4042 39.6345 18.4518 39.6249 18.4899 39.6154C18.5565 39.5964 18.5946 39.5583 18.6231 39.5107C18.6422 39.4631 18.6612 39.406 18.6612 39.3299V37.5976C18.6612 37.5405 18.6422 37.4739 18.6136 37.4168C18.5851 37.3597 18.5375 37.3121 18.4899 37.274C18.4518 37.255 18.4137 37.2264 18.3566 37.2169C18.2995 37.1979 18.2424 37.1884 18.1758 37.1884V36.9694L19.594 36.8933L19.6415 36.9409V37.3692H19.6511C19.7082 37.3216 19.7748 37.2645 19.8509 37.1884C19.9271 37.1217 20.0032 37.0646 20.0699 37.017C20.146 36.9694 20.2412 36.9314 20.3554 36.8933C20.4696 36.8552 20.6029 36.8457 20.7361 36.8457C21.0597 36.8457 21.2977 36.9409 21.4595 37.1217C21.6213 37.3026 21.6974 37.55 21.6974 37.8546V39.3109C21.6974 39.387 21.7069 39.4441 21.726 39.4822C21.745 39.5298 21.7926 39.5583 21.8497 39.5869C21.8783 39.5964 21.9163 39.6154 21.9639 39.6249C22.0115 39.6345 22.0591 39.644 22.1257 39.6535V39.8819H22.1448Z" fill="#231F20"/>
<path d="M23.7913 39.9871C23.6009 39.9871 23.4105 39.9586 23.2297 39.9015C23.0489 39.8444 22.9061 39.7872 22.8014 39.7206L22.7157 39.9205H22.4873L22.4492 38.8164H22.6681C22.6967 38.9021 22.7443 39.0068 22.8204 39.121C22.887 39.2352 22.9727 39.3304 23.0584 39.4256C23.1535 39.5112 23.2582 39.5874 23.382 39.654C23.5057 39.7111 23.6294 39.7492 23.7627 39.7492C23.9435 39.7492 24.0768 39.7111 24.1625 39.6445C24.2481 39.5779 24.2957 39.4636 24.2957 39.3209C24.2957 39.2447 24.2767 39.1781 24.2386 39.121C24.2005 39.0734 24.1434 39.0258 24.0768 38.9877C24.0006 38.9497 23.915 38.9116 23.8198 38.883C23.7246 38.8545 23.6104 38.8259 23.4772 38.7783C23.3439 38.7403 23.2297 38.7022 23.1345 38.6546C23.0393 38.6165 22.9346 38.5499 22.8395 38.4643C22.7538 38.3881 22.6777 38.2929 22.6301 38.1882C22.573 38.0835 22.5539 37.9503 22.5539 37.798C22.5539 37.522 22.6681 37.2935 22.9061 37.1222C23.144 36.9509 23.4486 36.8652 23.8293 36.8652C24.0102 36.8652 24.172 36.8843 24.3243 36.9223C24.4765 36.9604 24.6003 36.9985 24.705 37.0461L24.7716 36.8748H25L25.0476 37.8837H24.8382C24.7716 37.6743 24.6479 37.5029 24.4861 37.3507C24.3147 37.1984 24.1339 37.1222 23.9435 37.1222C23.7913 37.1222 23.6675 37.1508 23.5819 37.2174C23.4962 37.284 23.4486 37.3697 23.4486 37.4839C23.4486 37.6362 23.5152 37.7409 23.639 37.8075C23.7627 37.8741 23.9435 37.9408 24.172 37.9979C24.5241 38.0931 24.7811 38.2168 24.9524 38.3691C25.1143 38.5309 25.1999 38.7308 25.1999 38.9687C25.1999 39.2923 25.0762 39.5493 24.8192 39.7206C24.5337 39.8919 24.2005 39.9871 23.7913 39.9871Z" fill="#231F20"/>
</g>
<defs>
<clipPath id="clip0_248_293217">
<rect width="24.5564" height="40" fill="white" transform="translate(0.722656)"/>
</clipPath>
</defs>
</svg>
