<svg width="42" height="40" viewBox="0 0 42 40" fill="none" xmlns="http://www.w3.org/2000/svg">
<g clip-path="url(#clip0_248_293207)">
<path d="M13.6231 39.348C12.668 39.348 11.7659 38.9234 11.1557 38.154L1.86948 26.6126C1.25925 25.8432 1.02046 24.8615 1.25925 23.9064L4.57574 9.49953C4.78799 8.54438 5.42476 7.77495 6.30031 7.35044L19.7255 0.929711C20.15 0.717456 20.6276 0.611328 21.1051 0.611328C21.5827 0.611328 22.0603 0.717456 22.4848 0.929711L35.91 7.32391C36.7855 7.74842 37.4223 8.51785 37.6345 9.47299L40.951 23.8798C41.1633 24.835 40.951 25.8167 40.3408 26.5861L31.0546 38.1275C30.4444 38.8704 29.5423 39.3214 28.5871 39.3214L13.6231 39.348Z" fill="#326DE6"/>
<path d="M21.0799 1.27434C21.4513 1.27434 21.8228 1.35394 22.1677 1.51313L35.5929 7.90733C36.2827 8.25224 36.8133 8.88901 36.9725 9.6319L40.289 24.0387C40.4747 24.8082 40.289 25.6041 39.7849 26.2144L30.4987 37.7558C30.0212 38.366 29.2783 38.7109 28.5088 38.7109H13.6244C12.855 38.7109 12.1121 38.366 11.6345 37.7558L2.34835 26.2144C1.87078 25.6041 1.68505 24.8082 1.84425 24.0387L5.16074 9.6319C5.34646 8.86248 5.85057 8.22571 6.5404 7.90733L19.9656 1.4866C20.3105 1.35394 20.7085 1.27434 21.0799 1.27434ZM21.0799 0.0273438C20.5227 0.0273438 19.9656 0.160003 19.4349 0.398791L6.00976 6.81952C4.94848 7.32363 4.20559 8.25224 3.94027 9.39312L0.623777 23.8C0.358458 24.9408 0.623777 26.1082 1.36667 27.0369L10.6528 38.5782C11.3692 39.4803 12.457 39.9844 13.5979 39.9844H28.4823C29.6232 39.9844 30.711 39.4803 31.4274 38.5782L40.7135 27.0369C41.4564 26.1348 41.7217 24.9408 41.4564 23.8L38.1399 9.39312C37.8746 8.25224 37.1317 7.32363 36.0704 6.81952L22.6983 0.398791C22.1942 0.160003 21.6371 0.0273438 21.0799 0.0273438Z" fill="white"/>
<path d="M34.5314 22.8979C34.5048 22.8979 34.5048 22.8979 34.5314 22.8979H34.5048C34.4783 22.8979 34.4518 22.8979 34.4518 22.8714C34.3987 22.8714 34.3456 22.8448 34.2926 22.8448C34.1069 22.8183 33.9477 22.7918 33.7885 22.7918C33.7089 22.7918 33.6293 22.7918 33.5231 22.7652H33.4966C32.9394 22.7122 32.4884 22.6591 32.0639 22.5265C31.8782 22.4469 31.8251 22.3407 31.772 22.2346C31.772 22.2081 31.7455 22.2081 31.7455 22.1815L31.4006 22.0754C31.5598 20.8549 31.5067 19.5814 31.2149 18.3344C30.923 17.0874 30.4189 15.92 29.7291 14.8587L29.9944 14.6199V14.5669C29.9944 14.4342 30.0209 14.3016 30.1271 14.1689C30.4454 13.877 30.8434 13.6383 31.321 13.3464C31.4006 13.2933 31.4802 13.2668 31.5598 13.2137C31.719 13.1341 31.8516 13.0546 32.0108 12.9484C32.0374 12.9219 32.0904 12.8954 32.1435 12.8423C32.17 12.8158 32.1966 12.8158 32.1966 12.7892C32.568 12.4708 32.6476 11.9402 32.3823 11.5953C32.2496 11.4096 32.0108 11.3034 31.772 11.3034C31.5598 11.3034 31.3741 11.383 31.1883 11.5157C31.1618 11.5422 31.1618 11.5422 31.1353 11.5688C31.0822 11.5953 31.0557 11.6484 31.0026 11.6749C30.87 11.8076 30.7638 11.9137 30.6577 12.0463C30.6046 12.0994 30.5516 12.179 30.472 12.2321C30.1005 12.63 29.7556 12.9484 29.4107 13.1872C29.3311 13.2403 29.2515 13.2668 29.1719 13.2668C29.1188 13.2668 29.0658 13.2668 29.0127 13.2403H28.9597L28.6413 13.4525C28.2964 13.0811 27.9249 12.7627 27.5535 12.4443C25.9615 11.1973 24.0247 10.4279 22.0083 10.2422L21.9818 9.89725C21.9552 9.87072 21.9552 9.87072 21.9287 9.84419C21.8491 9.76459 21.743 9.685 21.7164 9.49927C21.6899 9.07476 21.743 8.59719 21.796 8.06655V8.04002C21.796 7.96042 21.8226 7.85429 21.8491 7.7747C21.8756 7.61551 21.9022 7.45631 21.9287 7.27059V7.1114V7.0318C21.9287 6.55423 21.5572 6.15625 21.1062 6.15625C20.8939 6.15625 20.6817 6.26238 20.5225 6.42157C20.3633 6.58076 20.2837 6.79302 20.2837 7.0318V7.08487V7.24406C20.2837 7.42978 20.3102 7.58897 20.3633 7.74817C20.3898 7.82776 20.3898 7.90736 20.4164 8.01348V8.04002C20.4694 8.57066 20.549 9.04823 20.496 9.47274C20.4694 9.65847 20.3633 9.73806 20.2837 9.81766C20.2572 9.84419 20.2572 9.84419 20.2307 9.87072L20.2041 10.2156C19.7265 10.2687 19.249 10.3218 18.7714 10.4279C16.7284 10.8789 14.9243 11.9137 13.5181 13.3995L13.2528 13.2137H13.1997C13.1466 13.2137 13.0936 13.2403 13.0405 13.2403C12.9609 13.2403 12.8813 13.2137 12.8017 13.1607C12.4568 12.9219 12.1119 12.577 11.7404 12.179C11.6874 12.1259 11.6343 12.0463 11.5547 11.9933C11.4486 11.8606 11.3425 11.7545 11.2098 11.6218C11.1833 11.5953 11.1302 11.5688 11.0771 11.5157C11.0506 11.4892 11.0241 11.4892 11.0241 11.4626C10.8649 11.33 10.6526 11.2504 10.4404 11.2504C10.2016 11.2504 9.96279 11.3565 9.83013 11.5422C9.56481 11.8871 9.64441 12.4178 10.0159 12.7362C10.0424 12.7362 10.0424 12.7627 10.0689 12.7627C10.122 12.7892 10.1485 12.8423 10.2016 12.8688C10.3608 12.975 10.4934 13.0546 10.6526 13.1341C10.7322 13.1607 10.8118 13.2137 10.8914 13.2668C11.369 13.5587 11.767 13.7974 12.0853 14.0893C12.218 14.222 12.218 14.3546 12.218 14.4873V14.5403L12.4833 14.7791C12.4303 14.8587 12.3772 14.9118 12.3507 14.9914C11.0241 17.0874 10.52 19.5549 10.8649 21.9958L10.52 22.1019C10.52 22.1285 10.4934 22.1285 10.4934 22.155C10.4404 22.2611 10.3608 22.3673 10.2016 22.4469C9.8036 22.5795 9.32603 22.6326 8.76886 22.6856H8.74232C8.66273 22.6856 8.5566 22.6856 8.47701 22.7122C8.31781 22.7122 8.15862 22.7387 7.9729 22.7652C7.91983 22.7652 7.86677 22.7918 7.81371 22.7918C7.78717 22.7918 7.76064 22.7918 7.73411 22.8183C7.25654 22.9244 6.96468 23.3755 7.04428 23.8C7.12388 24.1714 7.46879 24.4102 7.8933 24.4102C7.9729 24.4102 8.02596 24.4102 8.10556 24.3837C8.13209 24.3837 8.15862 24.3837 8.15862 24.3572C8.21169 24.3572 8.26475 24.3306 8.31781 24.3306C8.50354 24.2776 8.6362 24.2245 8.79539 24.1449C8.87498 24.1184 8.95458 24.0653 9.03418 24.0388H9.06071C9.56481 23.853 10.0159 23.6939 10.4404 23.6408H10.4934C10.6526 23.6408 10.7588 23.7204 10.8383 23.7735C10.8649 23.7735 10.8649 23.8 10.8914 23.8L11.2629 23.7469C11.8996 25.7103 13.1201 27.4614 14.7385 28.7349C15.11 29.0268 15.4814 29.2656 15.8794 29.5043L15.7202 29.8493C15.7202 29.8758 15.7468 29.8758 15.7468 29.9023C15.7998 30.0085 15.8529 30.1411 15.7998 30.3268C15.6406 30.7248 15.4018 31.1228 15.11 31.5738V31.6004C15.0569 31.68 15.0039 31.733 14.9508 31.8126C14.8447 31.9453 14.7651 32.0779 14.6589 32.2371C14.6324 32.2637 14.6059 32.3167 14.5793 32.3698C14.5793 32.3963 14.5528 32.4229 14.5528 32.4229C14.3406 32.8739 14.4998 33.378 14.8977 33.5637C15.0039 33.6168 15.11 33.6433 15.2161 33.6433C15.5345 33.6433 15.8529 33.4311 16.0121 33.1392C16.0121 33.1127 16.0386 33.0862 16.0386 33.0862C16.0651 33.0331 16.0917 32.98 16.1182 32.9535C16.1978 32.7678 16.2243 32.6351 16.2774 32.4759C16.3039 32.3963 16.3305 32.3167 16.357 32.2371C16.5427 31.7065 16.6754 31.282 16.9142 30.9105C17.0203 30.7514 17.1529 30.7248 17.2591 30.6718C17.2856 30.6718 17.2856 30.6718 17.3121 30.6452L17.4979 30.3003C18.6653 30.7514 19.9388 30.9901 21.2123 30.9901C21.9818 30.9901 22.7777 30.9105 23.5206 30.7248C23.9982 30.6187 24.4492 30.486 24.9003 30.3268L25.0595 30.6187C25.086 30.6187 25.086 30.6187 25.1125 30.6452C25.2452 30.6718 25.3513 30.7248 25.4574 30.884C25.6697 31.2555 25.8289 31.7065 26.0146 32.2106V32.2371C26.0411 32.3167 26.0677 32.3963 26.0942 32.4759C26.1473 32.6351 26.1738 32.7943 26.2534 32.9535C26.2799 33.0066 26.3065 33.0331 26.333 33.0862C26.333 33.1127 26.3595 33.1392 26.3595 33.1392C26.5187 33.4576 26.8371 33.6433 27.1555 33.6433C27.2616 33.6433 27.3677 33.6168 27.4739 33.5637C27.6596 33.4576 27.8188 33.2984 27.8718 33.0862C27.9249 32.8739 27.9249 32.6351 27.8188 32.4229C27.8188 32.3963 27.7923 32.3963 27.7923 32.3698C27.7657 32.3167 27.7392 32.2637 27.7127 32.2371C27.6331 32.0779 27.5269 31.9453 27.4208 31.8126C27.3677 31.733 27.3147 31.68 27.2616 31.6004V31.5738C26.9698 31.1228 26.7044 30.7248 26.5718 30.3268C26.5187 30.1411 26.5718 30.035 26.5983 29.9023C26.5983 29.8758 26.6248 29.8758 26.6248 29.8493L26.4922 29.5309C27.8984 28.7084 29.0923 27.541 29.9944 26.1083C30.472 25.3654 30.8434 24.5429 31.1087 23.7204L31.4271 23.7735C31.4537 23.7735 31.4537 23.7469 31.4802 23.7469C31.5863 23.6939 31.6659 23.6143 31.8251 23.6143H31.8782C32.3027 23.6673 32.7537 23.8265 33.2578 24.0122H33.2844C33.364 24.0388 33.4436 24.0918 33.5231 24.1184C33.6823 24.198 33.815 24.251 34.0007 24.3041C34.0538 24.3041 34.1069 24.3306 34.1599 24.3306C34.1864 24.3306 34.213 24.3306 34.2395 24.3572C34.3191 24.3837 34.3722 24.3837 34.4518 24.3837C34.8497 24.3837 35.1947 24.1184 35.3008 23.7735C35.3008 23.4551 35.0089 23.0306 34.5314 22.8979ZM22.2471 21.5978L21.0797 22.155L19.9123 21.5978L19.6204 20.3508L20.4164 19.3426H21.7164L22.5124 20.3508L22.2471 21.5978ZM29.1719 18.8385C29.3842 19.7406 29.4372 20.6427 29.3576 21.5182L25.2983 20.3508C24.9268 20.2447 24.7146 19.8733 24.7941 19.5018C24.8207 19.3957 24.8737 19.2896 24.9533 19.21L28.1637 16.318C28.6147 17.0609 28.9597 17.9099 29.1719 18.8385ZM26.8902 14.7261L23.4145 17.1935C23.1226 17.3793 22.7247 17.3262 22.4859 17.0343C22.4063 16.9547 22.3797 16.8486 22.3532 16.7425L22.1144 12.4178C23.9451 12.63 25.6166 13.4525 26.8902 14.7261ZM19.1959 12.5504C19.4878 12.4974 19.7531 12.4443 20.0449 12.3913L19.8061 16.6364C19.7796 17.0078 19.4878 17.3262 19.0898 17.3262C18.9837 17.3262 18.851 17.2997 18.7714 17.2466L15.2426 14.7261C16.3305 13.6383 17.6836 12.8954 19.1959 12.5504ZM13.9691 16.318L17.1264 19.1304C17.4183 19.3692 17.4448 19.8202 17.206 20.112C17.1264 20.2182 17.0203 20.2978 16.8876 20.3243L12.7752 21.5182C12.616 19.7141 13.014 17.8834 13.9691 16.318ZM13.2528 23.5081L17.4713 22.7918C17.8162 22.7652 18.1346 23.004 18.2142 23.3489C18.2408 23.5081 18.2408 23.6408 18.1877 23.7735L16.5692 27.6736C15.0835 26.7185 13.8895 25.2592 13.2528 23.5081ZM22.9369 28.788C22.3267 28.9206 21.7164 29.0002 21.0797 29.0002C20.1511 29.0002 19.249 28.8411 18.3999 28.5757L20.496 24.7817C20.7082 24.5429 21.0531 24.4368 21.345 24.5959C21.4777 24.6755 21.5838 24.7817 21.6634 24.8878L23.7063 28.5757C23.4675 28.6553 23.2022 28.7084 22.9369 28.788ZM28.1106 25.1C27.4473 26.1613 26.5718 27.0103 25.5636 27.6736L23.8921 23.6673C23.8125 23.3489 23.9451 23.004 24.2635 22.8448C24.3696 22.7918 24.5023 22.7652 24.635 22.7652L28.8801 23.4816C28.7209 24.0653 28.4556 24.5959 28.1106 25.1Z" fill="white"/>
</g>
<defs>
<clipPath id="clip0_248_293207">
<rect width="41.1245" height="40" fill="white" transform="translate(0.4375)"/>
</clipPath>
</defs>
</svg>
