<svg width="31" height="40" viewBox="0 0 31 40" fill="none" xmlns="http://www.w3.org/2000/svg">
<g clip-path="url(#clip0_248_293246)">
<path fill-rule="evenodd" clip-rule="evenodd" d="M0.851562 5.64258V34.3537C0.851562 37.3349 7.48465 39.7517 15.6664 39.7517V5.64258H0.851562Z" fill="#0072C6"/>
<path fill-rule="evenodd" clip-rule="evenodd" d="M15.4648 39.7507H15.6678C23.8495 39.7507 30.4826 37.3349 30.4826 34.3537V5.64258H15.4648V39.7512V39.7507Z" fill="#0072C6"/>
<path opacity="0.15" fill-rule="evenodd" clip-rule="evenodd" d="M15.4648 39.7527H15.6678C23.8495 39.7527 30.4826 37.3369 30.4826 34.3556V5.64453H15.4648V39.7532V39.7527Z" fill="white"/>
<path fill-rule="evenodd" clip-rule="evenodd" d="M30.4812 5.64313C30.4812 8.62387 23.8481 11.0402 15.6664 11.0402C7.48465 11.0402 0.851562 8.62387 0.851562 5.64313C0.851562 2.66239 7.48465 0.246094 15.6664 0.246094C23.8481 0.246094 30.4812 2.66239 30.4812 5.64313Z" fill="white"/>
<path fill-rule="evenodd" clip-rule="evenodd" d="M27.4513 5.33247C27.4513 7.30037 22.1747 8.89346 15.6656 8.89346C9.15644 8.89346 3.87891 7.30037 3.87891 5.33247C3.87891 3.36457 9.15644 1.77148 15.6656 1.77148C22.1747 1.77148 27.4513 3.36556 27.4513 5.33247Z" fill="#7FBA00"/>
<path fill-rule="evenodd" clip-rule="evenodd" d="M24.9816 7.50827C26.5243 6.9063 27.4517 6.15272 27.4517 5.33346C27.4513 3.36556 22.1747 1.77148 15.6646 1.77148C9.15446 1.77148 3.87891 3.36556 3.87891 5.33346C3.87891 6.15223 4.80582 6.9063 6.34903 7.50827C8.5036 6.66679 11.871 6.12408 15.6651 6.12408C19.4592 6.12408 22.8256 6.66679 24.9816 7.50827Z" fill="#B8D432"/>
<path fill-rule="evenodd" clip-rule="evenodd" d="M10.9605 25.5733C10.9605 26.4657 10.639 27.1565 9.99504 27.6459C9.35109 28.1353 8.46319 28.3807 7.32887 28.3807C6.36393 28.3807 5.55751 28.2059 4.90961 27.8558V25.7565C5.65727 26.395 6.48097 26.7145 7.38072 26.7145C7.81529 26.7145 8.15159 26.6271 8.38862 26.4518C8.62566 26.2765 8.74418 26.0454 8.74418 25.756C8.74418 25.4721 8.63011 25.2252 8.40196 25.0153C8.17381 24.8054 7.70961 24.5343 7.00986 24.202C5.58369 23.5294 4.87109 22.6099 4.87109 21.4479C4.87109 20.6044 5.18171 19.9279 5.80393 19.4182C6.42616 18.9086 7.25134 18.6543 8.28097 18.6543C9.19406 18.6543 9.94961 18.7753 10.5506 19.0153V20.9763C9.92048 20.5387 9.20295 20.3205 8.39899 20.3205C7.99504 20.3205 7.67554 20.4064 7.44097 20.5787C7.32946 20.6557 7.2389 20.7593 7.17751 20.8801C7.11612 21.0009 7.08582 21.1351 7.08937 21.2706C7.08937 21.5679 7.18369 21.8118 7.37332 22.002C7.56295 22.1921 7.95011 22.4271 8.53677 22.7071C9.41085 23.1229 10.0331 23.5442 10.4054 23.9728C10.7778 24.4015 10.9605 24.9358 10.9605 25.5733ZM21.0197 23.4489C21.0197 24.555 20.7694 25.5155 20.2696 26.3279C19.7699 27.1402 19.0657 27.7111 18.1575 28.0395L20.8691 30.5644H18.1313L16.195 28.3802C15.3649 28.3501 14.6158 28.1289 13.9486 27.718C13.2815 27.3071 12.7659 26.7442 12.4034 26.0291C12.041 25.314 11.8587 24.517 11.8587 23.6385C11.8587 22.6637 12.0553 21.7945 12.4484 21.0316C12.8415 20.2686 13.3946 19.6815 14.1076 19.2706C14.8207 18.8597 15.637 18.6543 16.5595 18.6543C17.4192 18.6543 18.1901 18.8533 18.8706 19.2513C19.5511 19.6494 20.0785 20.2148 20.4548 20.9496C20.8311 21.6844 21.0197 22.518 21.0197 23.4489ZM18.8034 23.5674C18.8034 22.6138 18.597 21.8612 18.1837 21.3076C17.7704 20.754 17.2059 20.4775 16.4884 20.4775C15.758 20.4775 15.1738 20.755 14.7343 21.3096C14.2948 21.8642 14.076 22.6039 14.076 23.5264C14.076 24.4449 14.2908 25.1778 14.721 25.7264C15.1511 26.275 15.7225 26.5491 16.4355 26.5491C17.162 26.5491 17.7373 26.2834 18.1634 25.7526C18.5896 25.2217 18.8034 24.4938 18.8034 23.5674ZM28.1333 28.2163H22.5654V18.8123H24.6711V26.4982H28.1328L28.1333 28.2163Z" fill="white"/>
</g>
<defs>
<clipPath id="clip0_248_293246">
<rect width="30.1235" height="40" fill="white" transform="translate(0.605469)"/>
</clipPath>
</defs>
</svg>
