<svg width="72" height="72" viewBox="0 0 72 72" fill="none" xmlns="http://www.w3.org/2000/svg">
<path fill-rule="evenodd" clip-rule="evenodd" d="M36.0049 54.435V66C55.3309 66 70.4029 47.019 64.0729 26.436C61.3279 17.457 54.2599 10.311 45.4159 7.48803C25.1509 1.05904 6.46094 16.368 6.46094 36H17.8849C17.8849 23.685 29.9089 14.16 42.6709 18.852C45.0228 19.7306 47.155 21.1111 48.9192 22.8975C50.6833 24.6839 52.0369 26.8333 52.8859 29.196C57.5359 42.144 48.1459 54.345 36.0379 54.366V42.837H24.6169V54.438L36.0049 54.435ZM24.6169 63.315H15.8749V54.435L24.6169 54.438V63.315ZM8.53694 54.435H15.8749V46.98H8.53994L8.53694 54.435Z" fill="#39A300"/>
</svg>
