<svg width="72" height="72" viewBox="0 0 72 72" fill="none" xmlns="http://www.w3.org/2000/svg">
<path fill-rule="evenodd" clip-rule="evenodd" d="M38.01 6.65113L63.51 20.9011C64.2586 21.2748 64.8881 21.8498 65.328 22.5615C65.7678 23.2732 66.0005 24.0935 66 24.9301V29.2501C66 31.3201 64.32 33.0001 62.25 33.0001H60V57.0001H63C63.7957 57.0001 64.5587 57.3162 65.1213 57.8788C65.6839 58.4414 66 59.2045 66 60.0001C66 60.7958 65.6839 61.5588 65.1213 62.1214C64.5587 62.6841 63.7957 63.0001 63 63.0001H9C8.20435 63.0001 7.44129 62.6841 6.87868 62.1214C6.31607 61.5588 6 60.7958 6 60.0001C6 59.2045 6.31607 58.4414 6.87868 57.8788C7.44129 57.3162 8.20435 57.0001 9 57.0001H12V33.0001H9.75C7.68 33.0001 6 31.3201 6 29.2501V24.9301C6 23.3641 6.81 21.9241 8.118 21.1081L33.987 6.65113C34.612 6.33853 35.3012 6.17578 36 6.17578C36.6988 6.17578 37.385 6.33853 38.01 6.65113ZM51 33.0001H21V57.0001H27V39.0001H33V57.0001H39V39.0001H45V57.0001H51V33.0001ZM36 18.0001C35.2044 18.0001 34.4413 18.3162 33.8787 18.8788C33.3161 19.4414 33 20.2045 33 21.0001C33 21.7958 33.3161 22.5588 33.8787 23.1214C34.4413 23.6841 35.2044 24.0001 36 24.0001C36.7956 24.0001 37.5587 23.6841 38.1213 23.1214C38.6839 22.5588 39 21.7958 39 21.0001C39 20.2045 38.6839 19.4414 38.1213 18.8788C37.5587 18.3162 36.7956 18.0001 36 18.0001Z" fill="#39A300"/>
</svg>
