<svg width="66" height="66" viewBox="0 0 66 66" fill="none" xmlns="http://www.w3.org/2000/svg">
<path fill-rule="evenodd" clip-rule="evenodd" d="M39.875 15.1195C39.875 9.80384 35.5657 5.49463 30.25 5.49463L29.7218 5.50881C24.6517 5.78299 20.6249 9.98108 20.6249 15.1195C20.6249 20.4354 24.9343 24.7446 30.25 24.7446L30.7781 24.7303C35.8482 24.4562 39.875 20.2581 39.875 15.1195ZM32.9999 46.7446C32.9999 49.75 33.8034 52.5677 35.2073 54.9946H11V45.0946C11 37.0982 17.1447 30.578 24.8423 30.257L25.4374 30.2446H35.0624C37.5676 30.2446 39.9237 30.9009 41.9772 32.0554C36.6471 34.7906 32.9999 40.3417 32.9999 46.7446ZM41.4179 57.8686L49.4999 52.9321L57.5819 57.8686L55.3846 48.6566L62.5769 42.4956L53.1369 41.7388L49.4999 32.9946L45.863 41.7388L36.4229 42.4956L43.6152 48.6566L41.4179 57.8686Z" fill="#39A300"/>
</svg>
