<svg width="66" height="66" viewBox="0 0 66 66" fill="none" xmlns="http://www.w3.org/2000/svg">
<path d="M15.4688 6.1875C13.0072 6.1875 10.6465 7.16534 8.90592 8.90592C7.16534 10.6465 6.1875 13.0072 6.1875 15.4688V50.5312C6.1875 52.9928 7.16534 55.3535 8.90592 57.0941C10.6465 58.8347 13.0072 59.8125 15.4688 59.8125H50.5312C52.9928 59.8125 55.3535 58.8347 57.0941 57.0941C58.8347 55.3535 59.8125 52.9928 59.8125 50.5312V15.4688C59.8125 13.0072 58.8347 10.6465 57.0941 8.90592C55.3535 7.16534 52.9928 6.1875 50.5312 6.1875H15.4688ZM47.4375 20.625V45.375C47.4375 45.922 47.2202 46.4466 46.8334 46.8334C46.4466 47.2202 45.922 47.4375 45.375 47.4375C44.828 47.4375 44.3034 47.2202 43.9166 46.8334C43.5298 46.4466 43.3125 45.922 43.3125 45.375V20.625C43.3125 20.078 43.5298 19.5534 43.9166 19.1666C44.3034 18.7798 44.828 18.5625 45.375 18.5625C45.922 18.5625 46.4466 18.7798 46.8334 19.1666C47.2202 19.5534 47.4375 20.078 47.4375 20.625ZM33 33C33.547 33 34.0716 33.2173 34.4584 33.6041C34.8452 33.9909 35.0625 34.5155 35.0625 35.0625V45.375C35.0625 45.922 34.8452 46.4466 34.4584 46.8334C34.0716 47.2202 33.547 47.4375 33 47.4375C32.453 47.4375 31.9284 47.2202 31.5416 46.8334C31.1548 46.4466 30.9375 45.922 30.9375 45.375V35.0625C30.9375 34.5155 31.1548 33.9909 31.5416 33.6041C31.9284 33.2173 32.453 33 33 33ZM22.6875 26.8125V45.375C22.6875 45.922 22.4702 46.4466 22.0834 46.8334C21.6966 47.2202 21.172 47.4375 20.625 47.4375C20.078 47.4375 19.5534 47.2202 19.1666 46.8334C18.7798 46.4466 18.5625 45.922 18.5625 45.375V26.8125C18.5625 26.2655 18.7798 25.7409 19.1666 25.3541C19.5534 24.9673 20.078 24.75 20.625 24.75C21.172 24.75 21.6966 24.9673 22.0834 25.3541C22.4702 25.7409 22.6875 26.2655 22.6875 26.8125Z" fill="#39A300"/>
</svg>
