<svg width="59" height="37" viewBox="0 0 59 37" fill="none" xmlns="http://www.w3.org/2000/svg">
<path d="M15.368 36.48C12.488 36.48 9.912 35.728 7.64 34.224C5.4 32.688 3.64 30.576 2.36 27.888C1.08 25.168 0.44 22.064 0.44 18.576C0.44 15.088 1.08 12.032 2.36 9.408C3.64 6.752 5.4 4.688 7.64 3.216C9.912 1.712 12.488 0.959999 15.368 0.959999C18.28 0.959999 20.856 1.712 23.096 3.216C25.336 4.688 27.096 6.752 28.376 9.408C29.656 12.032 30.296 15.088 30.296 18.576C30.296 22.096 29.656 25.2 28.376 27.888C27.096 30.576 25.32 32.688 23.048 34.224C20.808 35.728 18.248 36.48 15.368 36.48ZM15.368 30.336C17 30.336 18.344 29.792 19.4 28.704C20.456 27.616 21.24 26.176 21.752 24.384C22.264 22.592 22.52 20.64 22.52 18.528C22.52 16.416 22.264 14.496 21.752 12.768C21.24 11.04 20.456 9.664 19.4 8.64C18.344 7.616 17 7.104 15.368 7.104C13.736 7.104 12.392 7.632 11.336 8.688C10.28 9.712 9.496 11.088 8.984 12.816C8.472 14.544 8.216 16.448 8.216 18.528C8.216 20.672 8.472 22.64 8.984 24.432C9.496 26.224 10.28 27.664 11.336 28.752C12.424 29.808 13.768 30.336 15.368 30.336ZM45.7415 36.48C43.3095 36.48 41.1175 36.048 39.1655 35.184C37.2455 34.288 35.6775 32.992 34.4615 31.296C33.2775 29.568 32.5895 27.472 32.3975 25.008H39.7415C39.9975 26.992 40.6055 28.464 41.5655 29.424C42.5255 30.352 43.8215 30.816 45.4535 30.816C46.8615 30.816 48.0295 30.4 48.9575 29.568C49.9175 28.736 50.3975 27.52 50.3975 25.92C50.3975 24.384 49.9335 23.152 49.0055 22.224C48.1095 21.264 46.5735 20.784 44.3975 20.784H41.3255V15.216H44.2535C46.1415 15.216 47.5015 14.8 48.3335 13.968C49.1655 13.136 49.5815 12.08 49.5815 10.8C49.5815 9.584 49.2615 8.592 48.6215 7.824C47.9815 7.024 46.8935 6.624 45.3575 6.624C44.0455 6.624 42.9095 7.024 41.9495 7.824C40.9895 8.624 40.3975 9.84 40.1735 11.472H32.7815C33.0695 9.296 33.7575 7.424 34.8455 5.856C35.9335 4.288 37.3895 3.088 39.2135 2.256C41.0375 1.392 43.1655 0.959999 45.5975 0.959999C48.0295 0.959999 50.1095 1.344 51.8375 2.112C53.5975 2.848 54.9575 3.904 55.9175 5.28C56.8775 6.656 57.3575 8.304 57.3575 10.224C57.3575 11.824 56.9895 13.232 56.2535 14.448C55.5175 15.664 54.5895 16.608 53.4695 17.28C52.3815 17.952 51.2775 18.288 50.1575 18.288L50.1095 17.28C51.8055 17.28 53.2615 17.696 54.4775 18.528C55.6935 19.328 56.6215 20.416 57.2615 21.792C57.9015 23.136 58.2215 24.64 58.2215 26.304C58.2215 28.384 57.6775 30.192 56.5895 31.728C55.5015 33.264 54.0135 34.448 52.1255 35.28C50.2375 36.08 48.1095 36.48 45.7415 36.48Z" fill="#39A300"/>
</svg>
