<svg width="59" height="37" viewBox="0 0 59 37" fill="none" xmlns="http://www.w3.org/2000/svg">
<path d="M15.368 36.48C12.488 36.48 9.912 35.728 7.64 34.224C5.4 32.688 3.64 30.576 2.36 27.888C1.08 25.168 0.44 22.064 0.44 18.576C0.44 15.088 1.08 12.032 2.36 9.408C3.64 6.752 5.4 4.688 7.64 3.216C9.912 1.712 12.488 0.959999 15.368 0.959999C18.28 0.959999 20.856 1.712 23.096 3.216C25.336 4.688 27.096 6.752 28.376 9.408C29.656 12.032 30.296 15.088 30.296 18.576C30.296 22.096 29.656 25.2 28.376 27.888C27.096 30.576 25.32 32.688 23.048 34.224C20.808 35.728 18.248 36.48 15.368 36.48ZM15.368 30.336C17 30.336 18.344 29.792 19.4 28.704C20.456 27.616 21.24 26.176 21.752 24.384C22.264 22.592 22.52 20.64 22.52 18.528C22.52 16.416 22.264 14.496 21.752 12.768C21.24 11.04 20.456 9.664 19.4 8.64C18.344 7.616 17 7.104 15.368 7.104C13.736 7.104 12.392 7.632 11.336 8.688C10.28 9.712 9.496 11.088 8.984 12.816C8.472 14.544 8.216 16.448 8.216 18.528C8.216 20.672 8.472 22.64 8.984 24.432C9.496 26.224 10.28 27.664 11.336 28.752C12.424 29.808 13.768 30.336 15.368 30.336ZM45.6901 36.48C42.1381 36.48 39.2261 35.568 36.9541 33.744C34.6821 31.92 33.2741 29.36 32.7301 26.064H40.0741C40.3301 27.536 40.9701 28.704 41.9941 29.568C43.0181 30.4 44.1861 30.816 45.4981 30.816C47.0021 30.816 48.2021 30.304 49.0981 29.28C50.0261 28.224 50.4901 26.64 50.4901 24.528C50.4901 22.512 50.0581 20.976 49.1941 19.92C48.3301 18.832 47.1461 18.288 45.6421 18.288C44.7781 18.288 43.9621 18.496 43.1941 18.912C42.4261 19.296 41.7861 19.936 41.2741 20.832H34.5541L36.3301 1.44H56.2021V7.104H38.9221L42.8581 6.576L41.9941 17.376L39.5941 17.04C40.4261 15.728 41.4341 14.736 42.6181 14.064C43.8341 13.36 45.3701 13.008 47.2261 13.008C49.4341 13.008 51.3701 13.488 53.0341 14.448C54.6981 15.408 55.9941 16.752 56.9221 18.48C57.8501 20.208 58.3141 22.256 58.3141 24.624C58.3141 27.12 57.7861 29.248 56.7301 31.008C55.6741 32.768 54.2021 34.128 52.3141 35.088C50.4261 36.016 48.2181 36.48 45.6901 36.48Z" fill="#39A300"/>
</svg>
