<svg width="64" height="64" viewBox="0 0 64 64" fill="none" xmlns="http://www.w3.org/2000/svg">
<rect x="0.5" y="0.5" width="63" height="63" rx="7.5" fill="#3F3873"/>
<rect x="0.5" y="0.5" width="63" height="63" rx="7.5" fill="url(#paint0_linear_248_298281)" fill-opacity="0.2"/>
<rect x="0.5" y="0.5" width="63" height="63" rx="7.5" stroke="#463E85"/>
<path d="M41 31.7501H23C22.04 31.7501 21.25 30.9601 21.25 30.0001V26.6801C21.25 26.0001 21.72 25.3101 22.35 25.0601L31.35 21.4602C31.73 21.3102 32.27 21.3102 32.65 21.4602L41.65 25.0601C42.28 25.3101 42.75 26.0101 42.75 26.6801V30.0001C42.75 30.9601 41.96 31.7501 41 31.7501ZM32 22.8402C31.96 22.8402 31.92 22.8401 31.9 22.8501L22.91 26.4501C22.85 26.4801 22.75 26.6101 22.75 26.6801V30.0001C22.75 30.1401 22.86 30.2501 23 30.2501H41C41.14 30.2501 41.25 30.1401 41.25 30.0001V26.6801C41.25 26.6101 41.16 26.4801 41.09 26.4501L32.09 22.8501C32.07 22.8401 32.04 22.8402 32 22.8402Z" fill="#88E755"/>
<path d="M42 42.75H22C21.59 42.75 21.25 42.41 21.25 42V39C21.25 38.04 22.04 37.25 23 37.25H41C41.96 37.25 42.75 38.04 42.75 39V42C42.75 42.41 42.41 42.75 42 42.75ZM22.75 41.25H41.25V39C41.25 38.86 41.14 38.75 41 38.75H23C22.86 38.75 22.75 38.86 22.75 39V41.25Z" fill="#88E755"/>
<path d="M24 38.75C23.59 38.75 23.25 38.41 23.25 38V31C23.25 30.59 23.59 30.25 24 30.25C24.41 30.25 24.75 30.59 24.75 31V38C24.75 38.41 24.41 38.75 24 38.75Z" fill="#88E755"/>
<path d="M28 38.75C27.59 38.75 27.25 38.41 27.25 38V31C27.25 30.59 27.59 30.25 28 30.25C28.41 30.25 28.75 30.59 28.75 31V38C28.75 38.41 28.41 38.75 28 38.75Z" fill="#88E755"/>
<path d="M32 38.75C31.59 38.75 31.25 38.41 31.25 38V31C31.25 30.59 31.59 30.25 32 30.25C32.41 30.25 32.75 30.59 32.75 31V38C32.75 38.41 32.41 38.75 32 38.75Z" fill="#88E755"/>
<path d="M36 38.75C35.59 38.75 35.25 38.41 35.25 38V31C35.25 30.59 35.59 30.25 36 30.25C36.41 30.25 36.75 30.59 36.75 31V38C36.75 38.41 36.41 38.75 36 38.75Z" fill="#88E755"/>
<path d="M40 38.75C39.59 38.75 39.25 38.41 39.25 38V31C39.25 30.59 39.59 30.25 40 30.25C40.41 30.25 40.75 30.59 40.75 31V38C40.75 38.41 40.41 38.75 40 38.75Z" fill="#88E755"/>
<path d="M43 42.75H21C20.59 42.75 20.25 42.41 20.25 42C20.25 41.59 20.59 41.25 21 41.25H43C43.41 41.25 43.75 41.59 43.75 42C43.75 42.41 43.41 42.75 43 42.75Z" fill="#88E755"/>
<path d="M32 29.25C30.76 29.25 29.75 28.24 29.75 27C29.75 25.76 30.76 24.75 32 24.75C33.24 24.75 34.25 25.76 34.25 27C34.25 28.24 33.24 29.25 32 29.25ZM32 26.25C31.59 26.25 31.25 26.59 31.25 27C31.25 27.41 31.59 27.75 32 27.75C32.41 27.75 32.75 27.41 32.75 27C32.75 26.59 32.41 26.25 32 26.25Z" fill="#88E755"/>
<defs>
<linearGradient id="paint0_linear_248_298281" x1="148.364" y1="-63.6364" x2="6.01465e-06" y2="64" gradientUnits="userSpaceOnUse">
<stop offset="0.224072" stop-color="#88E755"/>
<stop offset="0.687143" stop-color="#88E755" stop-opacity="0"/>
</linearGradient>
</defs>
</svg>
