<svg width="64" height="64" viewBox="0 0 64 64" fill="none" xmlns="http://www.w3.org/2000/svg">
<rect x="0.5" y="0.5" width="63" height="63" rx="7.5" fill="#3F3873"/>
<rect x="0.5" y="0.5" width="63" height="63" rx="7.5" fill="url(#paint0_linear_248_298297)" fill-opacity="0.2"/>
<rect x="0.5" y="0.5" width="63" height="63" rx="7.5" stroke="#463E85"/>
<g clip-path="url(#clip0_248_298297)">
<path d="M43.625 43.2501H43.25V24.1064C43.25 23.6944 42.9599 23.1918 42.6025 22.984C42.6025 22.984 39.9039 21.6319 39.8984 21.6292C39.5176 21.4384 39.0199 21.4578 38.6912 21.7491L37.4346 22.864C37.1253 23.1381 36.875 23.6944 36.875 24.1064V32.4016C37.1589 32.2691 37.5051 32.1938 37.8654 32.1938C38.1076 32.1938 38.4678 32.2269 38.8081 32.3846L39.6875 32.7916V31.3596L42.5 32.8396V34.242L41.5737 33.7544C41.6821 33.9384 41.75 34.6947 41.75 34.6947L42.5 35.0892V36.4916L41.75 36.0971V36.9443L42.5 37.3391V38.7415L41.75 38.3467V39.1941L42.5 39.5889V40.9913L41.75 40.5965V41.4439L42.5 41.8385V43.2501H41V34.9764C41 34.5624 40.6953 34.0856 40.3194 33.9115L38.4931 33.0665C38.3175 32.9852 38.0926 32.9451 37.8654 32.9451C37.6061 32.9451 37.3438 32.9973 37.1484 33.0998L35.6641 33.8782C35.2974 34.0706 35 34.5624 35 34.9764V43.2501H34.25V22.6208C34.25 22.2067 33.9601 21.7013 33.6025 21.4922L31.2734 20.1301C30.909 19.9169 30.3815 19.9717 30.0662 20.2507L28.8096 21.3717C28.5005 21.6473 28.25 22.2067 28.25 22.6208V43.2501H27.5V26.1544C27.5 25.7375 27.201 25.2455 26.8322 25.0556L25.2374 24.2342C24.9415 24.0817 24.5465 24.0866 24.2482 24.2322C24.1671 24.2717 24.0715 24.3259 24.0074 24.39L21.3121 26.7863C21.0016 27.0626 20.75 27.6242 20.75 28.0411V43.2501H20.375C20.1679 43.2501 20 43.418 20 43.6251C20 43.8322 20.1679 44.0001 20.375 44.0001H43.625C43.8321 44.0001 44 43.8322 44 43.6251C44 43.418 43.8321 43.2501 43.625 43.2501ZM24.3125 43.2501H23.069L24.3125 42.1981V43.2501ZM24.3125 41.216L21.914 43.2451L21.9182 43.2501H21.5V42.2329L24.3125 39.8425V41.216ZM24.3125 38.8587L21.5 41.2491V39.7958L24.3125 37.4053V38.8587ZM24.3125 36.4215L21.5 38.8118V37.3585L24.3125 34.968V36.4215ZM24.3125 33.9842L21.5 36.3746V34.9212L24.3125 32.5309V33.9842ZM24.3125 31.5469L21.5 33.9373V32.484L24.3125 30.0936V31.5469ZM24.3125 29.1098L21.5 31.5V30.0467L24.3125 27.6564V29.1098ZM24.3125 26.6724L21.5 29.0629V28.0411C21.5 27.8379 21.6597 27.481 21.8106 27.3468L24.3125 25.1223V26.6724ZM33.5 43.2501H31.25V41.3604L33.5 42.6259V43.2501ZM33.5 41.7653L31.25 40.4998V39.1106L33.5 40.376V41.7653ZM33.5 39.5156L31.25 38.25V36.8608L33.5 38.1264V39.5156ZM33.5 37.2658L31.25 36.0004V34.6112L33.5 35.8766V37.2658ZM33.5 35.016L31.25 33.7505V32.3613L33.5 33.6268V35.016ZM33.5 32.7664L31.25 31.5007V30.1115L33.5 31.3771V32.7664ZM33.5 30.5166L31.25 29.2511V27.8619L33.5 29.1273V30.5166ZM33.5 28.2667L31.25 27.0013V25.6121L33.5 26.8775V28.2667ZM33.5 26.0171L31.25 24.7517V23.3622L33.5 24.6279V26.0171ZM33.5 23.7673L31.25 22.5018V20.9854L33.2239 22.1396C33.3504 22.2136 33.5 22.4744 33.5 22.6208V23.7673ZM37.4375 43.2501H35.75V34.9764C35.75 34.8406 35.8923 34.6055 36.0126 34.5423L37.4375 33.7949V43.2501ZM42.5 31.9922L39.6875 30.512V29.1098L42.5 30.5898V31.9922ZM42.5 29.7426L39.6875 28.2622V26.8599L42.5 28.34V29.7426ZM42.5 27.4927L39.6875 26.0125V24.6103L42.5 26.0903V27.4927ZM42.5 25.2429L39.6875 23.7627V22.3623L42.2383 23.6402C42.3612 23.7226 42.5 23.9672 42.5 24.1064V25.2429Z" fill="#88E755"/>
</g>
<defs>
<linearGradient id="paint0_linear_248_298297" x1="148.364" y1="-63.6364" x2="6.01465e-06" y2="64" gradientUnits="userSpaceOnUse">
<stop offset="0.224072" stop-color="#88E755"/>
<stop offset="0.687143" stop-color="#88E755" stop-opacity="0"/>
</linearGradient>
<clipPath id="clip0_248_298297">
<rect width="24" height="30" fill="white" transform="translate(20 20)"/>
</clipPath>
</defs>
</svg>
