<svg width="64" height="64" viewBox="0 0 64 64" fill="none" xmlns="http://www.w3.org/2000/svg">
<rect x="0.5" y="0.5" width="63" height="63" rx="7.5" fill="#3F3873"/>
<rect x="0.5" y="0.5" width="63" height="63" rx="7.5" fill="url(#paint0_linear_248_298306)" fill-opacity="0.2"/>
<rect x="0.5" y="0.5" width="63" height="63" rx="7.5" stroke="#463E85"/>
<g clip-path="url(#clip0_248_298306)">
<path d="M22.5 21H22C21.8674 21 21.7402 21.0527 21.6464 21.1464C21.5527 21.2402 21.5 21.3674 21.5 21.5C21.5 21.6326 21.5527 21.7598 21.6464 21.8536C21.7402 21.9473 21.8674 22 22 22H22.5C22.6326 22 22.7598 21.9473 22.8536 21.8536C22.9473 21.7598 23 21.6326 23 21.5C23 21.3674 22.9473 21.2402 22.8536 21.1464C22.7598 21.0527 22.6326 21 22.5 21Z" fill="#88E755"/>
<path d="M25 21H24.5C24.3674 21 24.2402 21.0527 24.1464 21.1464C24.0527 21.2402 24 21.3674 24 21.5C24 21.6326 24.0527 21.7598 24.1464 21.8536C24.2402 21.9473 24.3674 22 24.5 22H25C25.1326 22 25.2598 21.9473 25.3536 21.8536C25.4473 21.7598 25.5 21.6326 25.5 21.5C25.5 21.3674 25.4473 21.2402 25.3536 21.1464C25.2598 21.0527 25.1326 21 25 21Z" fill="#88E755"/>
<path d="M22.5 23H22C21.8674 23 21.7402 23.0527 21.6464 23.1464C21.5527 23.2402 21.5 23.3674 21.5 23.5C21.5 23.6326 21.5527 23.7598 21.6464 23.8536C21.7402 23.9473 21.8674 24 22 24H22.5C22.6326 24 22.7598 23.9473 22.8536 23.8536C22.9473 23.7598 23 23.6326 23 23.5C23 23.3674 22.9473 23.2402 22.8536 23.1464C22.7598 23.0527 22.6326 23 22.5 23Z" fill="#88E755"/>
<path d="M25 23H24.5C24.3674 23 24.2402 23.0527 24.1464 23.1464C24.0527 23.2402 24 23.3674 24 23.5C24 23.6326 24.0527 23.7598 24.1464 23.8536C24.2402 23.9473 24.3674 24 24.5 24H25C25.1326 24 25.2598 23.9473 25.3536 23.8536C25.4473 23.7598 25.5 23.6326 25.5 23.5C25.5 23.3674 25.4473 23.2402 25.3536 23.1464C25.2598 23.0527 25.1326 23 25 23Z" fill="#88E755"/>
<path d="M22.5 25H22C21.8674 25 21.7402 25.0527 21.6464 25.1464C21.5527 25.2402 21.5 25.3674 21.5 25.5C21.5 25.6326 21.5527 25.7598 21.6464 25.8536C21.7402 25.9473 21.8674 26 22 26H22.5C22.6326 26 22.7598 25.9473 22.8536 25.8536C22.9473 25.7598 23 25.6326 23 25.5C23 25.3674 22.9473 25.2402 22.8536 25.1464C22.7598 25.0527 22.6326 25 22.5 25Z" fill="#88E755"/>
<path d="M25 25H24.5C24.3674 25 24.2402 25.0527 24.1464 25.1464C24.0527 25.2402 24 25.3674 24 25.5C24 25.6326 24.0527 25.7598 24.1464 25.8536C24.2402 25.9473 24.3674 26 24.5 26H25C25.1326 26 25.2598 25.9473 25.3536 25.8536C25.4473 25.7598 25.5 25.6326 25.5 25.5C25.5 25.3674 25.4473 25.2402 25.3536 25.1464C25.2598 25.0527 25.1326 25 25 25Z" fill="#88E755"/>
<path d="M22.5 27H22C21.8674 27 21.7402 27.0527 21.6464 27.1464C21.5527 27.2402 21.5 27.3674 21.5 27.5C21.5 27.6326 21.5527 27.7598 21.6464 27.8536C21.7402 27.9473 21.8674 28 22 28H22.5C22.6326 28 22.7598 27.9473 22.8536 27.8536C22.9473 27.7598 23 27.6326 23 27.5C23 27.3674 22.9473 27.2402 22.8536 27.1464C22.7598 27.0527 22.6326 27 22.5 27Z" fill="#88E755"/>
<path d="M25 27H24.5C24.3674 27 24.2402 27.0527 24.1464 27.1464C24.0527 27.2402 24 27.3674 24 27.5C24 27.6326 24.0527 27.7598 24.1464 27.8536C24.2402 27.9473 24.3674 28 24.5 28H25C25.1326 28 25.2598 27.9473 25.3536 27.8536C25.4473 27.7598 25.5 27.6326 25.5 27.5C25.5 27.3674 25.4473 27.2402 25.3536 27.1464C25.2598 27.0527 25.1326 27 25 27Z" fill="#88E755"/>
<path d="M16.5 30H30.5C30.6326 30 30.7598 29.9473 30.8536 29.8536C30.9473 29.7598 31 29.6326 31 29.5C31 29.3674 30.9473 29.2402 30.8536 29.1464C30.7598 29.0527 30.6326 29 30.5 29H30V23C30 22.8674 29.9473 22.7402 29.8535 22.6465L27.5 20.293V19.5C27.5 19.3674 27.4473 19.2402 27.3535 19.1465C27.2598 19.0527 27.1326 19 27 19H26.5V17.5C26.5 17.3674 26.4473 17.2402 26.3535 17.1465C26.2598 17.0527 26.1326 17 26 17H25.5V16.5C25.5 16.3674 25.4473 16.2402 25.3536 16.1464C25.2598 16.0527 25.1326 16 25 16C24.8674 16 24.7402 16.0527 24.6464 16.1464C24.5527 16.2402 24.5 16.3674 24.5 16.5V17H22.5V16.5C22.5 16.3674 22.4473 16.2402 22.3536 16.1464C22.2598 16.0527 22.1326 16 22 16C21.8674 16 21.7402 16.0527 21.6464 16.1464C21.5527 16.2402 21.5 16.3674 21.5 16.5V17H21C20.8674 17 20.7402 17.0527 20.6465 17.1465C20.5527 17.2402 20.5 17.3674 20.5 17.5V19H20C19.8674 19 19.7402 19.0527 19.6465 19.1465C19.5527 19.2402 19.5 19.3674 19.5 19.5V20.293L17.1465 22.6465C17.0527 22.7402 17 22.8674 17 23V29H16.5C16.3674 29 16.2402 29.0527 16.1464 29.1464C16.0527 29.2402 16 29.3674 16 29.5C16 29.6326 16.0527 29.7598 16.1464 29.8536C16.2402 29.9473 16.3674 30 16.5 30ZM27.5 21.7072L29 23.2072V29H27.5V21.7072ZM21.5 18H25.5V19H21.5V18ZM20.5 20H26.5V29H20.5V20ZM18 23.2072L19.5 21.7072V29H18V23.2072Z" fill="#88E755"/>
<path d="M39 22H39.5C39.6326 22 39.7598 21.9473 39.8536 21.8536C39.9473 21.7598 40 21.6326 40 21.5C40 21.3674 39.9473 21.2402 39.8536 21.1464C39.7598 21.0527 39.6326 21 39.5 21H39C38.8674 21 38.7402 21.0527 38.6464 21.1464C38.5527 21.2402 38.5 21.3674 38.5 21.5C38.5 21.6326 38.5527 21.7598 38.6464 21.8536C38.7402 21.9473 38.8674 22 39 22Z" fill="#88E755"/>
<path d="M41.5 22H42C42.1326 22 42.2598 21.9473 42.3536 21.8536C42.4473 21.7598 42.5 21.6326 42.5 21.5C42.5 21.3674 42.4473 21.2402 42.3536 21.1464C42.2598 21.0527 42.1326 21 42 21H41.5C41.3674 21 41.2402 21.0527 41.1464 21.1464C41.0527 21.2402 41 21.3674 41 21.5C41 21.6326 41.0527 21.7598 41.1464 21.8536C41.2402 21.9473 41.3674 22 41.5 22Z" fill="#88E755"/>
<path d="M39 24H39.5C39.6326 24 39.7598 23.9473 39.8536 23.8536C39.9473 23.7598 40 23.6326 40 23.5C40 23.3674 39.9473 23.2402 39.8536 23.1464C39.7598 23.0527 39.6326 23 39.5 23H39C38.8674 23 38.7402 23.0527 38.6464 23.1464C38.5527 23.2402 38.5 23.3674 38.5 23.5C38.5 23.6326 38.5527 23.7598 38.6464 23.8536C38.7402 23.9473 38.8674 24 39 24Z" fill="#88E755"/>
<path d="M41.5 24H42C42.1326 24 42.2598 23.9473 42.3536 23.8536C42.4473 23.7598 42.5 23.6326 42.5 23.5C42.5 23.3674 42.4473 23.2402 42.3536 23.1464C42.2598 23.0527 42.1326 23 42 23H41.5C41.3674 23 41.2402 23.0527 41.1464 23.1464C41.0527 23.2402 41 23.3674 41 23.5C41 23.6326 41.0527 23.7598 41.1464 23.8536C41.2402 23.9473 41.3674 24 41.5 24Z" fill="#88E755"/>
<path d="M39 26H39.5C39.6326 26 39.7598 25.9473 39.8536 25.8536C39.9473 25.7598 40 25.6326 40 25.5C40 25.3674 39.9473 25.2402 39.8536 25.1464C39.7598 25.0527 39.6326 25 39.5 25H39C38.8674 25 38.7402 25.0527 38.6464 25.1464C38.5527 25.2402 38.5 25.3674 38.5 25.5C38.5 25.6326 38.5527 25.7598 38.6464 25.8536C38.7402 25.9473 38.8674 26 39 26Z" fill="#88E755"/>
<path d="M41.5 26H42C42.1326 26 42.2598 25.9473 42.3536 25.8536C42.4473 25.7598 42.5 25.6326 42.5 25.5C42.5 25.3674 42.4473 25.2402 42.3536 25.1464C42.2598 25.0527 42.1326 25 42 25H41.5C41.3674 25 41.2402 25.0527 41.1464 25.1464C41.0527 25.2402 41 25.3674 41 25.5C41 25.6326 41.0527 25.7598 41.1464 25.8536C41.2402 25.9473 41.3674 26 41.5 26Z" fill="#88E755"/>
<path d="M39 28H39.5C39.6326 28 39.7598 27.9473 39.8536 27.8536C39.9473 27.7598 40 27.6326 40 27.5C40 27.3674 39.9473 27.2402 39.8536 27.1464C39.7598 27.0527 39.6326 27 39.5 27H39C38.8674 27 38.7402 27.0527 38.6464 27.1464C38.5527 27.2402 38.5 27.3674 38.5 27.5C38.5 27.6326 38.5527 27.7598 38.6464 27.8536C38.7402 27.9473 38.8674 28 39 28Z" fill="#88E755"/>
<path d="M41.5 28H42C42.1326 28 42.2598 27.9473 42.3536 27.8536C42.4473 27.7598 42.5 27.6326 42.5 27.5C42.5 27.3674 42.4473 27.2402 42.3536 27.1464C42.2598 27.0527 42.1326 27 42 27H41.5C41.3674 27 41.2402 27.0527 41.1464 27.1464C41.0527 27.2402 41 27.3674 41 27.5C41 27.6326 41.0527 27.7598 41.1464 27.8536C41.2402 27.9473 41.3674 28 41.5 28Z" fill="#88E755"/>
<path d="M44.5 19.5C44.5 19.3674 44.4473 19.2402 44.3535 19.1465C44.2598 19.0527 44.1326 19 44 19H43.5V17.5C43.5 17.3674 43.4473 17.2402 43.3535 17.1465C43.2598 17.0527 43.1326 17 43 17H42.5V16.5C42.5 16.3674 42.4473 16.2402 42.3536 16.1464C42.2598 16.0527 42.1326 16 42 16C41.8674 16 41.7402 16.0527 41.6464 16.1464C41.5527 16.2402 41.5 16.3674 41.5 16.5V17H39.5V16.5C39.5 16.3674 39.4473 16.2402 39.3536 16.1464C39.2598 16.0527 39.1326 16 39 16C38.8674 16 38.7402 16.0527 38.6464 16.1464C38.5527 16.2402 38.5 16.3674 38.5 16.5V17H38C37.8674 17 37.7402 17.0527 37.6465 17.1465C37.5527 17.2402 37.5 17.3674 37.5 17.5V19H37C36.8674 19 36.7402 19.0527 36.6465 19.1465C36.5527 19.2402 36.5 19.3674 36.5 19.5V20.293L34.1465 22.6465C34.0527 22.7402 34 22.8674 34 23V29H33.5C33.3674 29 33.2402 29.0527 33.1464 29.1464C33.0527 29.2402 33 29.3674 33 29.5C33 29.6326 33.0527 29.7598 33.1464 29.8536C33.2402 29.9473 33.3674 30 33.5 30H47.5C47.6326 30 47.7598 29.9473 47.8536 29.8536C47.9473 29.7598 48 29.6326 48 29.5C48 29.3674 47.9473 29.2402 47.8536 29.1464C47.7598 29.0527 47.6326 29 47.5 29H47V23C47 22.8674 46.9473 22.7402 46.8535 22.6465L44.5 20.293V19.5ZM36.5 29H35V23.2072L36.5 21.7072V29ZM38.5 18H42.5V19H38.5V18ZM43.5 29H37.5V20H43.5V29ZM46 23.2072V29H44.5V21.7072L46 23.2072Z" fill="#88E755"/>
<path d="M30.5 40H31C31.1326 40 31.2598 39.9473 31.3536 39.8536C31.4473 39.7598 31.5 39.6326 31.5 39.5C31.5 39.3674 31.4473 39.2402 31.3536 39.1464C31.2598 39.0527 31.1326 39 31 39H30.5C30.3674 39 30.2402 39.0527 30.1464 39.1464C30.0527 39.2402 30 39.3674 30 39.5C30 39.6326 30.0527 39.7598 30.1464 39.8536C30.2402 39.9473 30.3674 40 30.5 40Z" fill="#88E755"/>
<path d="M33 40H33.5C33.6326 40 33.7598 39.9473 33.8536 39.8536C33.9473 39.7598 34 39.6326 34 39.5C34 39.3674 33.9473 39.2402 33.8536 39.1464C33.7598 39.0527 33.6326 39 33.5 39H33C32.8674 39 32.7402 39.0527 32.6464 39.1464C32.5527 39.2402 32.5 39.3674 32.5 39.5C32.5 39.6326 32.5527 39.7598 32.6464 39.8536C32.7402 39.9473 32.8674 40 33 40Z" fill="#88E755"/>
<path d="M30.5 42H31C31.1326 42 31.2598 41.9473 31.3536 41.8536C31.4473 41.7598 31.5 41.6326 31.5 41.5C31.5 41.3674 31.4473 41.2402 31.3536 41.1464C31.2598 41.0527 31.1326 41 31 41H30.5C30.3674 41 30.2402 41.0527 30.1464 41.1464C30.0527 41.2402 30 41.3674 30 41.5C30 41.6326 30.0527 41.7598 30.1464 41.8536C30.2402 41.9473 30.3674 42 30.5 42Z" fill="#88E755"/>
<path d="M33 42H33.5C33.6326 42 33.7598 41.9473 33.8536 41.8536C33.9473 41.7598 34 41.6326 34 41.5C34 41.3674 33.9473 41.2402 33.8536 41.1464C33.7598 41.0527 33.6326 41 33.5 41H33C32.8674 41 32.7402 41.0527 32.6464 41.1464C32.5527 41.2402 32.5 41.3674 32.5 41.5C32.5 41.6326 32.5527 41.7598 32.6464 41.8536C32.7402 41.9473 32.8674 42 33 42Z" fill="#88E755"/>
<path d="M30.5 44H31C31.1326 44 31.2598 43.9473 31.3536 43.8536C31.4473 43.7598 31.5 43.6326 31.5 43.5C31.5 43.3674 31.4473 43.2402 31.3536 43.1464C31.2598 43.0527 31.1326 43 31 43H30.5C30.3674 43 30.2402 43.0527 30.1464 43.1464C30.0527 43.2402 30 43.3674 30 43.5C30 43.6326 30.0527 43.7598 30.1464 43.8536C30.2402 43.9473 30.3674 44 30.5 44Z" fill="#88E755"/>
<path d="M33 44H33.5C33.6326 44 33.7598 43.9473 33.8536 43.8536C33.9473 43.7598 34 43.6326 34 43.5C34 43.3674 33.9473 43.2402 33.8536 43.1464C33.7598 43.0527 33.6326 43 33.5 43H33C32.8674 43 32.7402 43.0527 32.6464 43.1464C32.5527 43.2402 32.5 43.3674 32.5 43.5C32.5 43.6326 32.5527 43.7598 32.6464 43.8536C32.7402 43.9473 32.8674 44 33 44Z" fill="#88E755"/>
<path d="M30.5 46H31C31.1326 46 31.2598 45.9473 31.3536 45.8536C31.4473 45.7598 31.5 45.6326 31.5 45.5C31.5 45.3674 31.4473 45.2402 31.3536 45.1464C31.2598 45.0527 31.1326 45 31 45H30.5C30.3674 45 30.2402 45.0527 30.1464 45.1464C30.0527 45.2402 30 45.3674 30 45.5C30 45.6326 30.0527 45.7598 30.1464 45.8536C30.2402 45.9473 30.3674 46 30.5 46Z" fill="#88E755"/>
<path d="M33 46H33.5C33.6326 46 33.7598 45.9473 33.8536 45.8536C33.9473 45.7598 34 45.6326 34 45.5C34 45.3674 33.9473 45.2402 33.8536 45.1464C33.7598 45.0527 33.6326 45 33.5 45H33C32.8674 45 32.7402 45.0527 32.6464 45.1464C32.5527 45.2402 32.5 45.3674 32.5 45.5C32.5 45.6326 32.5527 45.7598 32.6464 45.8536C32.7402 45.9473 32.8674 46 33 46Z" fill="#88E755"/>
<path d="M39.5 47.5C39.5 47.3674 39.4473 47.2402 39.3535 47.1465C39.2598 47.0527 39.1326 47 39 47H38.5V41C38.5 40.8674 38.4473 40.7402 38.3535 40.6465L36 38.293V37.5C36 37.3674 35.9473 37.2402 35.8535 37.1465C35.7598 37.0527 35.6326 37 35.5 37H35V35.5C35 35.3674 34.9473 35.2402 34.8535 35.1465C34.7598 35.0527 34.6326 35 34.5 35H34V34.5C34 34.3674 33.9473 34.2402 33.8536 34.1464C33.7598 34.0527 33.6326 34 33.5 34C33.3674 34 33.2402 34.0527 33.1464 34.1464C33.0527 34.2402 33 34.3674 33 34.5V35H31V34.5C31 34.3674 30.9473 34.2402 30.8536 34.1464C30.7598 34.0527 30.6326 34 30.5 34C30.3674 34 30.2402 34.0527 30.1464 34.1464C30.0527 34.2402 30 34.3674 30 34.5V35H29.5C29.3674 35 29.2402 35.0527 29.1465 35.1465C29.0527 35.2402 29 35.3674 29 35.5V37H28.5C28.3674 37 28.2402 37.0527 28.1465 37.1465C28.0527 37.2402 28 37.3674 28 37.5V38.293L25.6465 40.6465C25.5527 40.7402 25.5 40.8674 25.5 41V47H25C24.8674 47 24.7402 47.0527 24.6464 47.1464C24.5527 47.2402 24.5 47.3674 24.5 47.5C24.5 47.6326 24.5527 47.7598 24.6464 47.8536C24.7402 47.9473 24.8674 48 25 48H39C39.1326 48 39.2598 47.9473 39.3535 47.8535C39.4473 47.7598 39.5 47.6326 39.5 47.5ZM28 47H26.5V41.207L28 39.707V47ZM30 36H34V37H30V36ZM35 47H29V38H35V47ZM37.5 47H36V39.707L37.5 41.207V47Z" fill="#88E755"/>
<path d="M19.25 31C19.1174 31 18.9902 31.0527 18.8965 31.1465C18.8027 31.2402 18.75 31.3674 18.75 31.5V43.25C18.75 43.3826 18.8027 43.5098 18.8965 43.6035C18.9902 43.6973 19.1174 43.75 19.25 43.75H24C24.1326 43.75 24.2598 43.6973 24.3536 43.6036C24.4473 43.5098 24.5 43.3826 24.5 43.25C24.5 43.1174 24.4473 42.9902 24.3536 42.8964C24.2598 42.8027 24.1326 42.75 24 42.75H19.75V31.5C19.75 31.3674 19.6973 31.2402 19.6035 31.1465C19.5098 31.0527 19.3826 31 19.25 31Z" fill="#88E755"/>
<path d="M44.25 31.5V42.75H40C39.8674 42.75 39.7402 42.8027 39.6464 42.8964C39.5527 42.9902 39.5 43.1174 39.5 43.25C39.5 43.3826 39.5527 43.5098 39.6464 43.6036C39.7402 43.6973 39.8674 43.75 40 43.75H44.75C44.8826 43.75 45.0098 43.6973 45.1035 43.6035C45.1973 43.5098 45.25 43.3826 45.25 43.25V31.5C45.25 31.3674 45.1973 31.2402 45.1036 31.1464C45.0098 31.0527 44.8826 31 44.75 31C44.6174 31 44.4902 31.0527 44.3964 31.1464C44.3027 31.2402 44.25 31.3674 44.25 31.5Z" fill="#88E755"/>
</g>
<defs>
<linearGradient id="paint0_linear_248_298306" x1="148.364" y1="-63.6364" x2="6.01465e-06" y2="64" gradientUnits="userSpaceOnUse">
<stop offset="0.224072" stop-color="#88E755"/>
<stop offset="0.687143" stop-color="#88E755" stop-opacity="0"/>
</linearGradient>
<clipPath id="clip0_248_298306">
<rect width="32" height="32" fill="white" transform="translate(16 16)"/>
</clipPath>
</defs>
</svg>
