<svg width="288" height="357" viewBox="0 0 288 357" fill="none" xmlns="http://www.w3.org/2000/svg">
<rect width="358.594" height="358.594" transform="translate(0.640625 0.941406)" fill="#161141"/>
<path fill-rule="evenodd" clip-rule="evenodd" d="M36.5687 61.9619C36.523 62.8121 36.5 63.6654 36.5 64.5219C36.5 65.3783 36.523 66.2316 36.5687 67.0817C36.523 67.9318 36.5 68.7852 36.5 69.6417C36.5 114.881 100.719 151.555 179.938 151.555C259.156 151.555 323.375 114.881 323.375 69.6417C323.375 68.7852 323.352 67.9319 323.306 67.0818C323.352 66.2317 323.375 65.3783 323.375 64.5219C323.375 63.6655 323.352 62.8121 323.306 61.962C323.352 61.1119 323.375 60.2585 323.375 59.4021C323.375 58.5459 323.352 57.6928 323.306 56.8429C323.352 55.9931 323.375 55.1399 323.375 54.2838C323.375 53.4271 323.352 52.5735 323.306 51.7232C323.352 50.8728 323.375 50.0193 323.375 49.1626C323.375 48.3064 323.352 47.4533 323.306 46.6034C323.352 45.7535 323.375 44.9004 323.375 44.0442C323.375 43.1878 323.352 42.3344 323.306 41.4843C323.323 41.1771 323.336 40.8694 323.347 40.5613C316.799 47.0962 308.911 53.1346 299.898 58.5539C294.213 63.8537 287.402 68.79 279.585 73.2543C254.262 87.7156 219.039 96.7741 179.938 96.7741C140.836 96.7741 105.613 87.7156 80.2901 73.2543C70.5384 67.6853 62.3528 61.382 55.9664 54.5546C80.8346 78.8882 127.042 95.2389 179.938 95.2389C229.355 95.2389 272.936 80.9675 298.731 59.2481C291.106 63.7397 282.699 67.7937 273.636 71.3381C248.88 83.9203 216.064 91.6529 179.938 91.6529C140.836 91.6529 105.613 82.5945 80.2901 68.1331C78.1159 66.8914 76.0195 65.6132 74.0035 64.3009C58.7072 56.5946 45.9512 47.2742 36.5471 36.8047C36.5158 37.5091 36.5 38.2157 36.5 38.9245C36.5 39.7809 36.523 40.6341 36.5687 41.4843C36.523 42.3344 36.5 43.1878 36.5 44.0442C36.5 44.9004 36.523 45.7534 36.5687 46.6033C36.523 47.4532 36.5 48.3064 36.5 49.1626C36.5 50.0193 36.523 50.8728 36.5688 51.7231C36.523 52.5735 36.5 53.4271 36.5 54.2838C36.5 55.14 36.523 55.993 36.5687 56.8429C36.523 57.6928 36.5 58.5459 36.5 59.4021C36.5 60.2586 36.523 61.1118 36.5687 61.9619ZM55.9974 59.706C80.8729 84.023 127.064 100.36 179.938 100.36C232.811 100.36 279.002 84.023 303.878 59.706C297.496 66.5207 289.321 72.8127 279.585 78.3726C254.262 92.834 219.039 101.892 179.938 101.892C140.836 101.892 105.613 92.834 80.2901 78.3726C70.5541 72.8127 62.3792 66.5207 55.9974 59.706ZM80.2901 83.4924C70.5462 77.9279 62.3659 71.6302 55.9818 64.8092C80.8537 89.1344 127.053 105.478 179.938 105.478C232.822 105.478 279.021 89.1346 303.893 64.8093C297.509 71.6303 289.329 77.9279 279.585 83.4924C254.262 97.9538 219.039 107.012 179.938 107.012C140.836 107.012 105.613 97.9538 80.2901 83.4924ZM55.9819 69.9289C62.3659 76.75 70.5462 83.0477 80.2901 88.6122C105.613 103.074 140.836 112.132 179.938 112.132C219.039 112.132 254.262 103.074 279.585 88.6122C289.329 83.0477 297.509 76.7501 303.893 69.9291C279.021 94.2544 232.822 110.598 179.938 110.598C127.053 110.598 80.8538 94.2542 55.9819 69.9289ZM80.2901 93.7319C70.5462 88.1674 62.3659 81.8697 55.9818 75.0486C80.8537 99.374 127.053 115.718 179.938 115.718C232.822 115.718 279.021 99.3741 303.893 75.0488C297.509 81.8699 289.329 88.1675 279.585 93.7319C254.262 108.193 219.039 117.252 179.938 117.252C140.836 117.252 105.613 108.193 80.2901 93.7319ZM55.9819 80.1685C62.366 86.9896 70.5463 93.2872 80.2901 98.8517C105.613 113.313 140.836 122.372 179.938 122.372C219.039 122.372 254.262 113.313 279.585 98.8517C289.329 93.2873 297.509 86.9897 303.893 80.1687C279.021 104.494 232.821 120.838 179.938 120.838C127.053 120.838 80.8538 104.494 55.9819 80.1685ZM80.2901 103.97C70.5542 98.4101 62.3793 92.1182 55.9976 85.3036C80.8732 109.62 127.065 125.957 179.938 125.957C232.811 125.957 279.002 109.62 303.877 85.3036C297.496 92.1182 289.321 98.4101 279.585 103.97C254.262 118.431 219.039 127.49 179.938 127.49C140.836 127.49 105.613 118.431 80.2901 103.97ZM55.9666 90.3917C62.3529 97.219 70.5385 103.522 80.2901 109.091C105.613 123.553 140.836 132.611 179.938 132.611C219.039 132.611 254.262 123.553 279.585 109.091C289.336 103.522 297.522 97.2191 303.908 90.3917C279.04 114.725 232.832 131.076 179.938 131.076C127.043 131.076 80.8348 114.725 55.9666 90.3917ZM80.2901 114.21C70.5542 108.65 62.3793 102.358 55.9976 95.5431C80.8732 119.86 127.065 136.197 179.938 136.197C232.811 136.197 279.002 119.86 303.878 95.543C297.496 102.358 289.321 108.65 279.585 114.21C254.262 128.671 219.039 137.729 179.938 137.729C140.836 137.729 105.613 128.671 80.2901 114.21ZM55.9821 100.646C80.854 124.972 127.054 141.315 179.938 141.315C232.822 141.315 279.021 124.972 303.893 100.646C297.509 107.467 289.329 113.765 279.585 119.329C254.262 133.791 219.039 142.849 179.938 142.849C140.836 142.849 105.613 133.791 80.2901 119.329C70.5464 113.765 62.3661 107.467 55.9821 100.646ZM279.585 124.449C289.329 118.885 297.509 112.587 303.893 105.766C279.021 130.091 232.822 146.435 179.938 146.435C127.053 146.435 80.8537 130.091 55.9818 105.766C62.3659 112.587 70.5462 118.885 80.2901 124.449C105.613 138.91 140.836 147.969 179.938 147.969C219.039 147.969 254.262 138.91 279.585 124.449Z" fill="url(#paint0_linear_248_335827)"/>
<path fill-rule="evenodd" clip-rule="evenodd" d="M323.306 298.523C323.352 297.673 323.375 296.819 323.375 295.963C323.375 295.106 323.352 294.253 323.306 293.403C323.352 292.553 323.375 291.699 323.375 290.843C323.375 245.603 259.156 208.93 179.938 208.93C100.719 208.93 36.5 245.603 36.5 290.843C36.5 291.699 36.523 292.553 36.5687 293.403C36.523 294.253 36.5 295.106 36.5 295.963C36.5 296.819 36.523 297.672 36.5687 298.523C36.523 299.373 36.5 300.226 36.5 301.082C36.5 301.939 36.523 302.792 36.5687 303.642C36.523 304.492 36.5 305.345 36.5 306.201C36.5 307.057 36.523 307.911 36.5687 308.761C36.523 309.612 36.5 310.465 36.5 311.322C36.5 312.178 36.523 313.031 36.5687 313.881C36.523 314.731 36.5 315.584 36.5 316.44C36.5 317.297 36.523 318.15 36.5687 319C36.5522 319.308 36.5386 319.615 36.5281 319.923C43.0763 313.388 50.9643 307.35 59.9774 301.931C65.6618 296.631 72.4728 291.695 80.2902 287.23C105.613 272.769 140.836 263.71 179.938 263.71C219.039 263.71 254.262 272.769 279.585 287.23C289.337 292.799 297.522 299.103 303.909 305.93C279.04 281.596 232.833 265.246 179.938 265.246C130.52 265.246 86.9394 279.517 61.1439 301.236C68.7689 296.745 77.1758 292.691 86.2387 289.146C110.995 276.564 143.811 268.832 179.938 268.832C219.039 268.832 254.262 277.89 279.585 292.351C281.759 293.593 283.856 294.871 285.872 296.184C301.168 303.89 313.924 313.21 323.328 323.68C323.359 322.975 323.375 322.269 323.375 321.56C323.375 320.704 323.352 319.85 323.306 319C323.352 318.15 323.375 317.297 323.375 316.44C323.375 315.584 323.352 314.731 323.306 313.881C323.352 313.031 323.375 312.178 323.375 311.322C323.375 310.465 323.352 309.612 323.306 308.761C323.352 307.911 323.375 307.058 323.375 306.201C323.375 305.345 323.352 304.492 323.306 303.642C323.352 302.792 323.375 301.939 323.375 301.082C323.375 300.226 323.352 299.373 323.306 298.523ZM303.878 300.779C279.002 276.462 232.811 260.125 179.938 260.125C127.064 260.125 80.873 276.462 55.9974 300.779C62.3792 293.964 70.5542 287.672 80.2902 282.112C105.613 267.651 140.836 258.592 179.938 258.592C219.039 258.592 254.262 267.651 279.585 282.112C289.321 287.672 297.496 293.964 303.878 300.779ZM279.585 276.992C289.329 282.557 297.509 288.854 303.893 295.675C279.021 271.35 232.822 255.006 179.938 255.006C127.053 255.006 80.8538 271.35 55.9819 295.675C62.366 288.854 70.5463 282.557 80.2902 276.992C105.613 262.531 140.836 253.472 179.938 253.472C219.039 253.472 254.262 262.531 279.585 276.992ZM303.893 290.556C297.509 283.735 289.329 277.437 279.585 271.872C254.262 257.411 219.039 248.353 179.938 248.353C140.836 248.353 105.613 257.411 80.2902 271.872C70.5463 277.437 62.366 283.734 55.982 290.556C80.8539 266.23 127.053 249.886 179.938 249.886C232.822 249.886 279.021 266.23 303.893 290.556ZM279.585 266.753C289.329 272.317 297.509 278.615 303.893 285.436C279.021 261.111 232.822 244.767 179.938 244.767C127.053 244.767 80.8539 261.11 55.982 285.436C62.366 278.615 70.5463 272.317 80.2902 266.753C105.613 252.291 140.836 243.233 179.938 243.233C219.039 243.233 254.262 252.291 279.585 266.753ZM303.893 280.316C297.509 273.495 289.329 267.197 279.585 261.633C254.262 247.172 219.039 238.113 179.938 238.113C140.836 238.113 105.613 247.172 80.2902 261.633C70.5464 267.197 62.3661 273.495 55.9821 280.316C80.854 255.991 127.054 239.647 179.938 239.647C232.822 239.647 279.021 255.991 303.893 280.316ZM279.585 256.515C289.321 262.074 297.496 268.366 303.877 275.181C279.002 250.864 232.81 234.527 179.938 234.527C127.064 234.527 80.8731 250.864 55.9975 275.181C62.3793 268.366 70.5542 262.074 80.2902 256.515C105.613 242.053 140.836 232.995 179.938 232.995C219.039 232.995 254.262 242.053 279.585 256.515ZM303.908 270.093C297.522 263.266 289.337 256.962 279.585 251.393C254.262 236.932 219.039 227.874 179.938 227.874C140.836 227.874 105.613 236.932 80.2902 251.393C70.5385 256.962 62.353 263.266 55.9667 270.093C80.8349 245.759 127.043 229.409 179.938 229.409C232.832 229.409 279.04 245.759 303.908 270.093ZM279.585 246.275C289.321 251.835 297.496 258.127 303.877 264.941C279.002 240.625 232.81 224.288 179.938 224.288C127.064 224.288 80.873 240.625 55.9974 264.942C62.3792 258.127 70.5542 251.835 80.2902 246.275C105.613 231.814 140.836 222.755 179.938 222.755C219.039 222.755 254.262 231.814 279.585 246.275ZM303.893 259.838C279.021 235.513 232.821 219.169 179.938 219.169C127.053 219.169 80.8538 235.513 55.9819 259.838C62.366 253.017 70.5463 246.72 80.2902 241.155C105.613 226.694 140.836 217.635 179.938 217.635C219.039 217.635 254.262 226.694 279.585 241.155C289.329 246.72 297.509 253.017 303.893 259.838ZM80.2902 236.035C70.5463 241.6 62.366 247.898 55.9819 254.719C80.8538 230.393 127.053 214.049 179.938 214.049C232.822 214.049 279.021 230.393 303.893 254.719C297.509 247.898 289.329 241.6 279.585 236.035C254.262 221.574 219.039 212.516 179.938 212.516C140.836 212.516 105.613 221.574 80.2902 236.035Z" fill="url(#paint1_linear_248_335827)"/>
<path fill-rule="evenodd" clip-rule="evenodd" d="M298.22 36.8734C297.37 36.8277 296.516 36.8047 295.66 36.8047C294.804 36.8047 293.95 36.8277 293.1 36.8734C292.25 36.8277 291.397 36.8047 290.54 36.8047C245.301 36.8047 208.627 101.024 208.627 180.242C208.627 259.461 245.301 323.68 290.54 323.68C291.397 323.68 292.25 323.657 293.1 323.611C293.95 323.657 294.804 323.68 295.66 323.68C296.516 323.68 297.37 323.657 298.22 323.611C299.07 323.657 299.923 323.68 300.78 323.68C301.636 323.68 302.489 323.657 303.339 323.611C304.189 323.657 305.042 323.68 305.898 323.68C306.755 323.68 307.608 323.657 308.459 323.611C309.309 323.657 310.163 323.68 311.019 323.68C311.875 323.68 312.729 323.657 313.578 323.611C314.428 323.657 315.281 323.68 316.138 323.68C316.994 323.68 317.847 323.657 318.698 323.611C319.005 323.627 319.312 323.641 319.621 323.652C313.086 317.103 307.047 309.215 301.628 300.202C296.328 294.518 291.392 287.707 286.928 279.89C272.466 254.566 263.408 219.343 263.408 180.242C263.408 141.141 272.466 105.918 286.928 80.5948C292.497 70.8431 298.8 62.6574 305.627 56.2711C281.294 81.1393 264.943 127.347 264.943 180.242C264.943 229.66 279.214 273.24 300.934 299.036C296.442 291.411 292.388 283.004 288.844 273.941C276.262 249.185 268.529 216.369 268.529 180.242C268.529 141.141 277.587 105.918 292.049 80.5948C293.29 78.4205 294.569 76.3241 295.881 74.3081C303.587 59.0119 312.908 46.2559 323.377 36.8518C322.673 36.8205 321.966 36.8047 321.257 36.8047C320.401 36.8047 319.548 36.8277 318.698 36.8734C317.847 36.8277 316.994 36.8047 316.138 36.8047C315.281 36.8047 314.428 36.8277 313.579 36.8734C312.729 36.8277 311.875 36.8047 311.019 36.8047C310.163 36.8047 309.309 36.8277 308.459 36.8734C307.608 36.8277 306.755 36.8047 305.898 36.8047C305.042 36.8047 304.189 36.8277 303.339 36.8734C302.489 36.8277 301.636 36.8047 300.78 36.8047C299.923 36.8047 299.07 36.8277 298.22 36.8734ZM300.476 56.3021C276.159 81.1776 259.822 127.369 259.822 180.242C259.822 233.115 276.159 279.307 300.476 304.182C293.661 297.8 287.369 289.626 281.809 279.89C267.348 254.566 258.289 219.343 258.289 180.242C258.289 141.141 267.348 105.918 281.809 80.5948C287.369 70.8588 293.661 62.6839 300.476 56.3021ZM276.689 80.5948C282.254 70.8509 288.552 62.6706 295.373 56.2865C271.047 81.1584 254.703 127.358 254.703 180.242C254.703 233.126 271.047 279.326 295.373 304.198C288.552 297.814 282.254 289.633 276.689 279.89C262.228 254.566 253.17 219.343 253.17 180.242C253.17 141.141 262.228 105.918 276.689 80.5948ZM290.253 56.2866C283.432 62.6706 277.134 70.8509 271.57 80.5948C257.108 105.918 248.05 141.141 248.05 180.242C248.05 219.343 257.108 254.566 271.57 279.89C277.134 289.633 283.432 297.814 290.253 304.198C265.928 279.326 249.584 233.126 249.584 180.242C249.584 127.358 265.928 81.1584 290.253 56.2866ZM266.45 80.5948C272.014 70.8509 278.312 62.6706 285.133 56.2865C260.808 81.1583 244.464 127.358 244.464 180.242C244.464 233.126 260.808 279.326 285.133 304.198C278.312 297.814 272.014 289.633 266.45 279.89C251.989 254.566 242.93 219.343 242.93 180.242C242.93 141.141 251.989 105.918 266.45 80.5948ZM280.013 56.2866C273.192 62.6706 266.895 70.851 261.33 80.5948C246.869 105.918 237.81 141.141 237.81 180.242C237.81 219.343 246.869 254.566 261.33 279.89C266.895 289.633 273.192 297.814 280.013 304.198C255.688 279.326 239.344 233.126 239.344 180.242C239.344 127.358 255.688 81.1585 280.013 56.2866ZM256.212 80.5948C261.772 70.8589 268.064 62.684 274.878 56.3022C250.561 81.1778 234.224 127.369 234.224 180.242C234.224 233.115 250.561 279.307 274.878 304.182C268.064 297.8 261.772 289.625 256.212 279.89C241.75 254.566 232.692 219.343 232.692 180.242C232.692 141.141 241.75 105.918 256.212 80.5948ZM269.79 56.2713C262.963 62.6576 256.66 70.8432 251.091 80.5948C236.629 105.918 227.571 141.141 227.571 180.242C227.571 219.343 236.629 254.566 251.091 279.89C256.66 289.641 262.963 297.827 269.79 304.213C245.457 279.345 229.106 233.137 229.106 180.242C229.106 127.347 245.457 81.1395 269.79 56.2713ZM245.972 80.5948C251.532 70.8589 257.824 62.684 264.639 56.3023C240.322 81.1778 223.985 127.369 223.985 180.242C223.985 233.115 240.322 279.307 264.639 304.182C257.824 297.8 251.532 289.626 245.972 279.89C231.511 254.566 222.452 219.343 222.452 180.242C222.452 141.141 231.511 105.918 245.972 80.5948ZM259.535 56.2868C235.21 81.1587 218.866 127.358 218.866 180.242C218.866 233.126 235.21 279.326 259.536 304.198C252.715 297.814 246.417 289.633 240.852 279.89C226.391 254.566 217.333 219.343 217.333 180.242C217.333 141.141 226.391 105.918 240.852 80.5948C246.417 70.8511 252.714 62.6708 259.535 56.2868ZM235.733 279.89C241.297 289.633 247.595 297.814 254.416 304.198C230.091 279.326 213.747 233.126 213.747 180.242C213.747 127.358 230.091 81.1584 254.416 56.2865C247.595 62.6706 241.297 70.8509 235.733 80.5948C221.271 105.918 212.213 141.141 212.213 180.242C212.213 219.343 221.271 254.566 235.733 279.89Z" fill="url(#paint2_linear_248_335827)"/>
<path fill-rule="evenodd" clip-rule="evenodd" d="M61.6572 36.8734C62.5074 36.8277 63.3607 36.8047 64.2172 36.8047C65.0737 36.8047 65.9269 36.8277 66.777 36.8734C67.6271 36.8277 68.4805 36.8047 69.337 36.8047C114.576 36.8047 151.25 101.024 151.25 180.242C151.25 259.461 114.576 323.68 69.337 323.68C68.4805 323.68 67.6272 323.657 66.7771 323.611C65.927 323.657 65.0736 323.68 64.2172 323.68C63.3608 323.68 62.5074 323.657 61.6573 323.611C60.8072 323.657 59.9539 323.68 59.0974 323.68C58.2412 323.68 57.3881 323.657 56.5382 323.611C55.6884 323.657 54.8353 323.68 53.9791 323.68C53.1224 323.68 52.2688 323.657 51.4185 323.611C50.5682 323.657 49.7146 323.68 48.8579 323.68C48.0017 323.68 47.1486 323.657 46.2987 323.611C45.4489 323.657 44.5957 323.68 43.7395 323.68C42.8831 323.68 42.0298 323.657 41.1797 323.611C40.8724 323.627 40.5647 323.641 40.2566 323.652C46.7915 317.103 52.83 309.215 58.2492 300.202C63.5491 294.518 68.4853 287.707 72.9496 279.89C87.4109 254.566 96.4694 219.343 96.4694 180.242C96.4694 141.141 87.4109 105.918 72.9496 80.5948C67.3806 70.8431 61.0773 62.6574 54.2499 56.2711C78.5835 81.1393 94.9342 127.347 94.9342 180.242C94.9342 229.66 80.6628 273.24 58.9435 299.036C63.435 291.411 67.489 283.004 71.0334 273.941C83.6156 249.185 91.3483 216.369 91.3483 180.242C91.3483 141.141 82.2898 105.918 67.8284 80.5948C66.5867 78.4205 65.3086 76.3241 63.9962 74.3081C56.2899 59.0119 46.9696 46.2559 36.5 36.8518C37.2044 36.8205 37.911 36.8047 38.6198 36.8047C39.4762 36.8047 40.3295 36.8277 41.1796 36.8734C42.0297 36.8277 42.8831 36.8047 43.7395 36.8047C44.5958 36.8047 45.4487 36.8277 46.2986 36.8734C47.1485 36.8277 48.0017 36.8047 48.8579 36.8047C49.7146 36.8047 50.5681 36.8277 51.4184 36.8734C52.2688 36.8277 53.1224 36.8047 53.9791 36.8047C54.8353 36.8047 55.6883 36.8277 56.5382 36.8734C57.3881 36.8277 58.2412 36.8047 59.0974 36.8047C59.9539 36.8047 60.8071 36.8277 61.6572 36.8734ZM59.4013 56.3021C83.7183 81.1776 100.055 127.369 100.055 180.242C100.055 233.115 83.7183 279.307 59.4013 304.182C66.216 297.8 72.508 289.626 78.0679 279.89C92.5293 254.566 101.588 219.343 101.588 180.242C101.588 141.141 92.5293 105.918 78.0679 80.5948C72.508 70.8588 66.216 62.6839 59.4013 56.3021ZM83.1877 80.5948C77.6232 70.8509 71.3256 62.6706 64.5045 56.2865C88.8298 81.1584 105.174 127.358 105.174 180.242C105.174 233.126 88.8299 279.326 64.5046 304.198C71.3256 297.814 77.6232 289.633 83.1877 279.89C97.6491 254.566 106.708 219.343 106.708 180.242C106.708 141.141 97.6491 105.918 83.1877 80.5948ZM69.6243 56.2866C76.4453 62.6706 82.743 70.8509 88.3075 80.5948C102.769 105.918 111.827 141.141 111.827 180.242C111.827 219.343 102.769 254.566 88.3075 279.89C82.743 289.633 76.4454 297.814 69.6244 304.198C93.9497 279.326 110.293 233.126 110.293 180.242C110.293 127.358 93.9495 81.1584 69.6243 56.2866ZM93.4272 80.5948C87.8627 70.8509 81.565 62.6706 74.7439 56.2865C99.0693 81.1583 115.413 127.358 115.413 180.242C115.413 233.126 99.0694 279.326 74.7441 304.198C81.5652 297.814 87.8628 289.633 93.4272 279.89C107.889 254.566 116.947 219.343 116.947 180.242C116.947 141.141 107.889 105.918 93.4272 80.5948ZM79.8638 56.2866C86.6849 62.6706 92.9825 70.851 98.547 80.5948C113.008 105.918 122.067 141.141 122.067 180.242C122.067 219.343 113.008 254.566 98.547 279.89C92.9826 289.633 86.685 297.814 79.864 304.198C104.189 279.326 120.533 233.126 120.533 180.242C120.533 127.358 104.189 81.1585 79.8638 56.2866ZM103.665 80.5948C98.1054 70.8589 91.8135 62.684 84.9989 56.3022C109.316 81.1778 125.653 127.369 125.653 180.242C125.653 233.115 109.316 279.307 84.9989 304.182C91.8135 297.8 98.1054 289.625 103.665 279.89C118.127 254.566 127.185 219.343 127.185 180.242C127.185 141.141 118.127 105.918 103.665 80.5948ZM90.087 56.2713C96.9143 62.6576 103.218 70.8432 108.787 80.5948C123.248 105.918 132.306 141.141 132.306 180.242C132.306 219.343 123.248 254.566 108.787 279.89C103.218 289.641 96.9144 297.827 90.0871 304.213C114.421 279.345 130.771 233.137 130.771 180.242C130.771 127.347 114.421 81.1395 90.087 56.2713ZM113.905 80.5948C108.345 70.8589 102.053 62.684 95.2384 56.3023C119.555 81.1778 135.892 127.369 135.892 180.242C135.892 233.115 119.555 279.307 95.2383 304.182C102.053 297.8 108.345 289.626 113.905 279.89C128.366 254.566 137.425 219.343 137.425 180.242C137.425 141.141 128.366 105.918 113.905 80.5948ZM100.342 56.2868C124.667 81.1587 141.011 127.358 141.011 180.242C141.011 233.126 124.667 279.326 100.342 304.198C107.163 297.814 113.46 289.633 119.025 279.89C133.486 254.566 142.545 219.343 142.545 180.242C142.545 141.141 133.486 105.918 119.025 80.5948C113.46 70.8511 107.163 62.6708 100.342 56.2868ZM124.144 279.89C118.58 289.633 112.282 297.814 105.461 304.198C129.787 279.326 146.13 233.126 146.13 180.242C146.13 127.358 129.787 81.1584 105.461 56.2865C112.282 62.6706 118.58 70.8509 124.144 80.5948C138.606 105.918 147.664 141.141 147.664 180.242C147.664 219.343 138.606 254.566 124.144 279.89Z" fill="url(#paint3_linear_248_335827)"/>
<defs>
<linearGradient id="paint0_linear_248_335827" x1="176.352" y1="160.52" x2="184.703" y2="66.2319" gradientUnits="userSpaceOnUse">
<stop stop-color="#88E755"/>
<stop offset="1" stop-color="#161141" stop-opacity="0"/>
</linearGradient>
<linearGradient id="paint1_linear_248_335827" x1="185.316" y1="204.627" x2="175.484" y2="315.637" gradientUnits="userSpaceOnUse">
<stop stop-color="#88E755"/>
<stop offset="1" stop-color="#161141"/>
</linearGradient>
<linearGradient id="paint2_linear_248_335827" x1="204.324" y1="174.863" x2="301.102" y2="183.435" gradientUnits="userSpaceOnUse">
<stop stop-color="#88E755"/>
<stop offset="1" stop-color="#161141"/>
</linearGradient>
<linearGradient id="paint3_linear_248_335827" x1="155.553" y1="174.863" x2="56.9959" y2="183.593" gradientUnits="userSpaceOnUse">
<stop stop-color="#88E755"/>
<stop offset="1" stop-color="#161141"/>
</linearGradient>
</defs>
</svg>
