<svg width="568" height="720" viewBox="0 0 568 720" fill="none" xmlns="http://www.w3.org/2000/svg">
<rect width="720" height="720" fill="#161141"/>
<path fill-rule="evenodd" clip-rule="evenodd" d="M72.138 122.512C72.0463 124.219 72 125.932 72 127.652C72 129.371 72.0463 131.085 72.138 132.791C72.0463 134.498 72 136.212 72 137.931C72 228.765 200.942 302.4 360 302.4C519.058 302.4 648 228.765 648 137.931C648 136.212 647.954 134.499 647.862 132.792C647.954 131.085 648 129.371 648 127.652C648 125.932 647.954 124.219 647.862 122.512C647.954 120.805 648 119.092 648 117.372C648 115.653 647.954 113.94 647.862 112.234C647.954 110.527 648 108.814 648 107.095C648 105.375 647.954 103.661 647.862 101.954C647.954 100.247 648 98.5328 648 96.8127C648 95.0936 647.954 93.3807 647.862 91.6743C647.954 89.9679 648 88.255 648 86.5359C648 84.8163 647.954 83.1029 647.862 81.396C647.895 80.7791 647.922 80.1613 647.944 79.5426C634.796 92.6636 618.958 104.788 600.861 115.669C589.448 126.31 575.772 136.221 560.076 145.185C509.231 174.221 438.509 192.409 360 192.409C281.491 192.409 210.769 174.221 159.924 145.185C140.344 134.003 123.908 121.347 111.086 107.639C161.017 156.497 253.795 189.327 360 189.327C459.223 189.327 546.726 160.672 598.519 117.063C583.209 126.081 566.329 134.221 548.132 141.338C498.426 166.601 432.536 182.127 360 182.127C281.491 182.127 210.769 163.939 159.924 134.903C155.558 132.409 151.349 129.843 147.301 127.208C116.589 111.735 90.9765 93.0212 72.0946 72C72.0317 73.4144 72 74.8332 72 76.2562C72 77.9758 72.0463 79.6889 72.138 81.3959C72.0463 83.1028 72 84.8162 72 86.5359C72 88.255 72.0462 89.9677 72.1379 91.6741C72.0462 93.3806 72 95.0936 72 96.8127C72 98.5328 72.0463 100.246 72.1381 101.954C72.0463 103.661 72 105.375 72 107.095C72 108.814 72.0462 110.527 72.1379 112.234C72.0462 113.94 72 115.653 72 117.372C72 119.092 72.0463 120.805 72.138 122.512ZM111.148 117.982C161.094 166.807 253.839 199.609 360 199.609C466.161 199.609 558.906 166.807 608.852 117.982C596.039 131.665 579.625 144.298 560.076 155.462C509.231 184.498 438.509 202.686 360 202.686C281.491 202.686 210.769 184.498 159.924 155.462C140.375 144.298 123.961 131.665 111.148 117.982ZM159.924 165.742C140.36 154.569 123.935 141.924 111.117 128.229C161.055 177.07 253.817 209.886 360 209.886C466.183 209.886 558.945 177.07 608.883 128.229C596.065 141.924 579.64 154.569 560.076 165.742C509.231 194.778 438.509 212.966 360 212.966C281.491 212.966 210.769 194.778 159.924 165.742ZM111.117 138.508C123.935 152.204 140.36 164.849 159.924 176.021C210.769 205.057 281.491 223.245 360 223.245C438.509 223.245 509.231 205.057 560.076 176.021C579.64 164.849 596.065 152.204 608.883 138.509C558.944 187.35 466.183 220.166 360 220.166C253.817 220.166 161.055 187.35 111.117 138.508ZM159.924 186.301C140.359 175.128 123.935 162.484 111.116 148.788C161.055 197.629 253.817 230.445 360 230.445C466.183 230.445 558.944 197.63 608.883 148.788C596.065 162.484 579.64 175.128 560.076 186.301C509.231 215.337 438.509 233.525 360 233.525C281.491 233.525 210.769 215.337 159.924 186.301ZM111.117 159.068C123.935 172.763 140.36 185.408 159.924 196.581C210.769 225.617 281.491 243.805 360 243.805C438.509 243.805 509.231 225.617 560.076 196.581C579.64 185.408 596.065 172.764 608.883 159.068C558.944 207.909 466.183 240.725 360 240.725C253.817 240.725 161.055 207.909 111.117 159.068ZM159.924 206.858C140.376 195.694 123.962 183.061 111.148 169.378C161.094 218.203 253.839 251.005 360 251.005C466.161 251.005 558.906 218.203 608.852 169.378C596.038 183.061 579.624 195.694 560.076 206.858C509.231 235.894 438.509 254.082 360 254.082C281.491 254.082 210.769 235.894 159.924 206.858ZM111.086 179.594C123.909 193.303 140.344 205.959 159.924 217.14C210.769 246.176 281.491 264.364 360 264.364C438.509 264.364 509.231 246.176 560.076 217.14C579.656 205.959 596.091 193.303 608.914 179.594C558.982 228.452 466.205 261.282 360 261.282C253.795 261.282 161.017 228.452 111.086 179.594ZM159.924 227.417C140.376 216.253 123.962 203.62 111.148 189.938C161.094 238.762 253.839 271.564 360 271.564C466.161 271.564 558.906 238.762 608.852 189.937C596.039 203.62 579.625 216.253 560.076 227.417C509.231 256.453 438.509 274.641 360 274.641C281.491 274.641 210.769 256.453 159.924 227.417ZM111.117 200.184C161.056 249.025 253.817 281.841 360 281.841C466.183 281.841 558.945 249.025 608.883 200.184C596.065 213.879 579.64 226.524 560.076 237.697C509.231 266.733 438.509 284.921 360 284.921C281.491 284.921 210.769 266.733 159.924 237.697C140.36 226.524 123.935 213.88 111.117 200.184ZM560.076 247.976C579.64 236.804 596.065 224.159 608.883 210.463C558.945 259.305 466.183 292.121 360 292.121C253.817 292.121 161.055 259.305 111.117 210.463C123.935 224.159 140.36 236.804 159.924 247.976C210.769 277.012 281.491 295.2 360 295.2C438.509 295.2 509.231 277.012 560.076 247.976Z" fill="url(#paint0_linear_248_335372)"/>
<path fill-rule="evenodd" clip-rule="evenodd" d="M647.862 597.488C647.954 595.781 648 594.068 648 592.348C648 590.629 647.954 588.915 647.862 587.209C647.954 585.502 648 583.788 648 582.069C648 491.235 519.058 417.6 360 417.6C200.942 417.6 72 491.235 72 582.069C72 583.788 72.0462 585.502 72.138 587.208C72.0462 588.915 72 590.629 72 592.348C72 594.068 72.0462 595.781 72.138 597.488C72.0462 599.195 72 600.908 72 602.628C72 604.347 72.0462 606.06 72.1379 607.766C72.0462 609.473 72 611.186 72 612.905C72 614.625 72.0462 616.339 72.138 618.046C72.0462 619.753 72 621.467 72 623.187C72 624.906 72.0462 626.619 72.1379 628.326C72.0462 630.032 72 631.745 72 633.464C72 635.184 72.0462 636.897 72.138 638.604C72.1048 639.221 72.0776 639.839 72.0564 640.457C85.2043 627.336 101.042 615.212 119.139 604.331C130.552 593.69 144.228 583.779 159.924 574.815C210.769 545.779 281.491 527.591 360 527.591C438.509 527.591 509.231 545.779 560.076 574.815C579.656 585.997 596.092 598.653 608.914 612.361C558.983 563.503 466.205 530.673 360 530.673C260.777 530.673 173.274 559.328 121.481 602.937C136.791 593.919 153.671 585.779 171.868 578.662C221.574 553.399 287.464 537.873 360 537.873C438.509 537.873 509.231 556.061 560.076 585.098C564.442 587.591 568.651 590.157 572.699 592.792C603.411 608.265 629.023 626.979 647.905 648C647.968 646.586 648 645.167 648 643.744C648 642.024 647.954 640.311 647.862 638.604C647.954 636.897 648 635.184 648 633.464C648 631.745 647.954 630.032 647.862 628.326C647.954 626.619 648 624.906 648 623.187C648 621.467 647.954 619.754 647.862 618.046C647.954 616.339 648 614.625 648 612.905C648 611.186 647.954 609.473 647.862 607.767C647.954 606.06 648 604.347 648 602.628C648 600.908 647.954 599.195 647.862 597.488ZM608.852 602.018C558.906 553.193 466.161 520.391 360 520.391C253.839 520.391 161.094 553.193 111.148 602.018C123.961 588.335 140.375 575.702 159.924 564.538C210.769 535.502 281.491 517.314 360 517.314C438.509 517.314 509.231 535.502 560.076 564.538C579.625 575.702 596.039 588.335 608.852 602.018ZM560.076 554.258C579.64 565.431 596.065 578.076 608.883 591.771C558.945 542.93 466.183 510.114 360 510.114C253.817 510.114 161.055 542.93 111.117 591.771C123.935 578.076 140.36 565.431 159.924 554.258C210.769 525.222 281.491 507.034 360 507.034C438.509 507.034 509.231 525.222 560.076 554.258ZM608.883 581.492C596.065 567.796 579.64 555.151 560.076 543.979C509.231 514.943 438.509 496.755 360 496.755C281.491 496.755 210.769 514.943 159.924 543.979C140.36 555.151 123.935 567.796 111.117 581.491C161.056 532.65 253.817 499.834 360 499.834C466.183 499.834 558.945 532.65 608.883 581.492ZM560.076 533.699C579.641 544.872 596.065 557.517 608.884 571.212C558.945 522.371 466.183 489.555 360 489.555C253.817 489.555 161.056 522.37 111.117 571.212C123.935 557.516 140.36 544.872 159.924 533.699C210.769 504.663 281.491 486.475 360 486.475C438.509 486.475 509.231 504.663 560.076 533.699ZM608.883 560.932C596.065 547.237 579.64 534.592 560.076 523.419C509.231 494.383 438.509 476.195 360 476.195C281.491 476.195 210.769 494.383 159.924 523.419C140.36 534.592 123.935 547.236 111.117 560.932C161.056 512.091 253.817 479.275 360 479.275C466.183 479.275 558.945 512.091 608.883 560.932ZM560.076 513.143C579.624 524.306 596.038 536.939 608.852 550.622C558.906 501.798 466.161 468.995 360 468.995C253.839 468.995 161.094 501.797 111.148 550.622C123.962 536.939 140.376 524.306 159.924 513.143C210.769 484.106 281.491 465.918 360 465.918C438.509 465.918 509.231 484.106 560.076 513.143ZM608.914 540.406C596.091 526.698 579.656 514.042 560.076 502.86C509.231 473.824 438.509 455.636 360 455.636C281.491 455.636 210.769 473.824 159.924 502.86C140.344 514.041 123.909 526.697 111.086 540.406C161.018 491.548 253.795 458.718 360 458.718C466.205 458.718 558.983 491.548 608.914 540.406ZM560.076 492.583C579.624 503.747 596.038 516.38 608.852 530.062C558.906 481.238 466.161 448.436 360 448.436C253.839 448.436 161.094 481.238 111.148 530.063C123.961 516.38 140.375 503.747 159.924 492.583C210.769 463.547 281.491 445.359 360 445.359C438.509 445.359 509.231 463.547 560.076 492.583ZM608.883 519.816C558.944 470.975 466.183 438.159 360 438.159C253.817 438.159 161.055 470.975 111.117 519.816C123.935 506.121 140.36 493.476 159.924 482.303C210.769 453.267 281.491 435.079 360 435.079C438.509 435.079 509.231 453.267 560.076 482.303C579.64 493.476 596.065 506.12 608.883 519.816ZM159.924 472.024C140.36 483.196 123.935 495.841 111.117 509.537C161.055 460.695 253.817 427.879 360 427.879C466.183 427.879 558.945 460.695 608.883 509.537C596.065 495.841 579.64 483.196 560.076 472.024C509.231 442.988 438.509 424.8 360 424.8C281.491 424.8 210.769 442.988 159.924 472.024Z" fill="url(#paint1_linear_248_335372)"/>
<path fill-rule="evenodd" clip-rule="evenodd" d="M597.488 72.138C595.781 72.0463 594.068 72 592.348 72C590.629 72 588.915 72.0463 587.209 72.138C585.502 72.0463 583.788 72 582.069 72C491.235 72 417.6 200.942 417.6 360C417.6 519.058 491.235 648 582.069 648C583.788 648 585.502 647.954 587.208 647.862C588.915 647.954 590.629 648 592.348 648C594.068 648 595.781 647.954 597.488 647.862C599.195 647.954 600.908 648 602.628 648C604.347 648 606.06 647.954 607.766 647.862C609.473 647.954 611.186 648 612.905 648C614.625 648 616.339 647.954 618.046 647.862C619.753 647.954 621.467 648 623.187 648C624.906 648 626.619 647.954 628.326 647.862C630.032 647.954 631.745 648 633.464 648C635.184 648 636.897 647.954 638.604 647.862C639.221 647.895 639.839 647.922 640.457 647.944C627.336 634.796 615.212 618.958 604.331 600.861C593.69 589.448 583.779 575.772 574.815 560.076C545.779 509.231 527.591 438.509 527.591 360C527.591 281.491 545.779 210.769 574.815 159.924C585.997 140.344 598.653 123.908 612.361 111.086C563.503 161.017 530.673 253.795 530.673 360C530.673 459.223 559.328 546.726 602.937 598.519C593.919 583.209 585.779 566.329 578.662 548.132C553.399 498.426 537.873 432.536 537.873 360C537.873 281.491 556.061 210.769 585.098 159.924C587.591 155.558 590.157 151.349 592.792 147.301C608.265 116.589 626.979 90.9765 648 72.0946C646.586 72.0317 645.167 72 643.744 72C642.024 72 640.311 72.0463 638.604 72.138C636.897 72.0463 635.184 72 633.464 72C631.745 72 630.032 72.0462 628.326 72.1379C626.619 72.0462 624.906 72 623.187 72C621.467 72 619.754 72.0463 618.046 72.138C616.339 72.0463 614.625 72 612.905 72C611.186 72 609.473 72.0462 607.767 72.1379C606.06 72.0462 604.347 72 602.628 72C600.908 72 599.195 72.0463 597.488 72.138ZM602.018 111.148C553.193 161.094 520.391 253.839 520.391 360C520.391 466.161 553.193 558.906 602.018 608.852C588.335 596.039 575.702 579.625 564.538 560.076C535.502 509.231 517.314 438.509 517.314 360C517.314 281.491 535.502 210.769 564.538 159.924C575.702 140.375 588.335 123.961 602.018 111.148ZM554.258 159.924C565.431 140.36 578.076 123.935 591.771 111.116C542.93 161.055 510.114 253.817 510.114 360C510.114 466.183 542.93 558.944 591.771 608.883C578.076 596.065 565.431 579.64 554.258 560.076C525.222 509.231 507.034 438.509 507.034 360C507.034 281.491 525.222 210.769 554.258 159.924ZM581.492 111.117C567.796 123.935 555.151 140.36 543.979 159.924C514.943 210.769 496.755 281.491 496.755 360C496.755 438.509 514.943 509.231 543.979 560.076C555.151 579.64 567.796 596.065 581.491 608.883C532.65 558.944 499.834 466.183 499.834 360C499.834 253.817 532.65 161.055 581.492 111.117ZM533.699 159.924C544.872 140.359 557.517 123.935 571.212 111.116C522.371 161.055 489.555 253.817 489.555 360C489.555 466.183 522.37 558.944 571.212 608.883C557.516 596.065 544.872 579.64 533.699 560.076C504.663 509.231 486.475 438.509 486.475 360C486.475 281.491 504.663 210.769 533.699 159.924ZM560.932 111.117C547.237 123.935 534.592 140.36 523.419 159.924C494.383 210.769 476.195 281.491 476.195 360C476.195 438.509 494.383 509.231 523.419 560.076C534.592 579.64 547.236 596.065 560.932 608.883C512.091 558.944 479.275 466.183 479.275 360C479.275 253.817 512.091 161.055 560.932 111.117ZM513.143 159.924C524.306 140.376 536.939 123.962 550.622 111.148C501.798 161.094 468.995 253.839 468.995 360C468.995 466.161 501.797 558.906 550.622 608.852C536.939 596.038 524.306 579.624 513.143 560.076C484.106 509.231 465.918 438.509 465.918 360C465.918 281.491 484.106 210.769 513.143 159.924ZM540.406 111.086C526.698 123.909 514.042 140.344 502.86 159.924C473.824 210.769 455.636 281.491 455.636 360C455.636 438.509 473.824 509.231 502.86 560.076C514.041 579.656 526.697 596.091 540.406 608.914C491.548 558.982 458.718 466.205 458.718 360C458.718 253.795 491.548 161.017 540.406 111.086ZM492.583 159.924C503.747 140.376 516.38 123.962 530.062 111.148C481.238 161.094 448.436 253.839 448.436 360C448.436 466.161 481.238 558.906 530.063 608.852C516.38 596.039 503.747 579.625 492.583 560.076C463.547 509.231 445.359 438.509 445.359 360C445.359 281.491 463.547 210.769 492.583 159.924ZM519.816 111.117C470.975 161.056 438.159 253.817 438.159 360C438.159 466.183 470.975 558.945 519.816 608.883C506.121 596.065 493.476 579.64 482.303 560.076C453.267 509.231 435.079 438.509 435.079 360C435.079 281.491 453.267 210.769 482.303 159.924C493.476 140.36 506.12 123.935 519.816 111.117ZM472.024 560.076C483.196 579.64 495.841 596.065 509.537 608.883C460.695 558.945 427.879 466.183 427.879 360C427.879 253.817 460.695 161.055 509.537 111.116C495.841 123.935 483.196 140.36 472.024 159.924C442.988 210.769 424.8 281.491 424.8 360C424.8 438.509 442.988 509.231 472.024 560.076Z" fill="url(#paint2_linear_248_335372)"/>
<path fill-rule="evenodd" clip-rule="evenodd" d="M122.512 72.138C124.219 72.0463 125.932 72 127.652 72C129.371 72 131.085 72.0463 132.791 72.138C134.498 72.0463 136.212 72 137.931 72C228.765 72 302.4 200.942 302.4 360C302.4 519.058 228.765 648 137.931 648C136.212 648 134.499 647.954 132.792 647.862C131.085 647.954 129.371 648 127.652 648C125.932 648 124.219 647.954 122.512 647.862C120.805 647.954 119.092 648 117.372 648C115.653 648 113.94 647.954 112.234 647.862C110.527 647.954 108.814 648 107.095 648C105.375 648 103.661 647.954 101.954 647.862C100.247 647.954 98.5328 648 96.8127 648C95.0936 648 93.3807 647.954 91.6743 647.862C89.9679 647.954 88.255 648 86.5359 648C84.8163 648 83.1029 647.954 81.396 647.862C80.7791 647.895 80.1613 647.922 79.5426 647.944C92.6636 634.796 104.788 618.958 115.669 600.861C126.31 589.448 136.221 575.772 145.185 560.076C174.221 509.231 192.409 438.509 192.409 360C192.409 281.491 174.221 210.769 145.185 159.924C134.003 140.344 121.347 123.908 107.639 111.086C156.497 161.017 189.327 253.795 189.327 360C189.327 459.223 160.672 546.726 117.063 598.519C126.081 583.209 134.221 566.329 141.338 548.132C166.601 498.426 182.127 432.536 182.127 360C182.127 281.491 163.939 210.769 134.903 159.924C132.409 155.558 129.843 151.349 127.208 147.301C111.735 116.589 93.0212 90.9765 72 72.0946C73.4144 72.0317 74.8332 72 76.2562 72C77.9758 72 79.6889 72.0463 81.3959 72.138C83.1028 72.0463 84.8162 72 86.5359 72C88.255 72 89.9677 72.0462 91.6741 72.1379C93.3806 72.0462 95.0936 72 96.8127 72C98.5328 72 100.246 72.0463 101.954 72.138C103.661 72.0463 105.375 72 107.095 72C108.814 72 110.527 72.0462 112.234 72.1379C113.94 72.0462 115.653 72 117.372 72C119.092 72 120.805 72.0463 122.512 72.138ZM117.982 111.148C166.807 161.094 199.609 253.839 199.609 360C199.609 466.161 166.807 558.906 117.982 608.852C131.665 596.039 144.298 579.625 155.462 560.076C184.498 509.231 202.686 438.509 202.686 360C202.686 281.491 184.498 210.769 155.462 159.924C144.298 140.375 131.665 123.961 117.982 111.148ZM165.742 159.924C154.569 140.36 141.924 123.935 128.229 111.116C177.07 161.055 209.886 253.817 209.886 360C209.886 466.183 177.07 558.944 128.229 608.883C141.924 596.065 154.569 579.64 165.742 560.076C194.778 509.231 212.966 438.509 212.966 360C212.966 281.491 194.778 210.769 165.742 159.924ZM138.508 111.117C152.204 123.935 164.849 140.36 176.021 159.924C205.057 210.769 223.245 281.491 223.245 360C223.245 438.509 205.057 509.231 176.021 560.076C164.849 579.64 152.204 596.065 138.509 608.883C187.35 558.944 220.166 466.183 220.166 360C220.166 253.817 187.35 161.055 138.508 111.117ZM186.301 159.924C175.128 140.359 162.484 123.935 148.788 111.116C197.629 161.055 230.445 253.817 230.445 360C230.445 466.183 197.63 558.944 148.788 608.883C162.484 596.065 175.128 579.64 186.301 560.076C215.337 509.231 233.525 438.509 233.525 360C233.525 281.491 215.337 210.769 186.301 159.924ZM159.068 111.117C172.763 123.935 185.408 140.36 196.581 159.924C225.617 210.769 243.805 281.491 243.805 360C243.805 438.509 225.617 509.231 196.581 560.076C185.408 579.64 172.764 596.065 159.068 608.883C207.909 558.944 240.725 466.183 240.725 360C240.725 253.817 207.909 161.055 159.068 111.117ZM206.858 159.924C195.694 140.376 183.061 123.962 169.378 111.148C218.203 161.094 251.005 253.839 251.005 360C251.005 466.161 218.203 558.906 169.378 608.852C183.061 596.038 195.694 579.624 206.858 560.076C235.894 509.231 254.082 438.509 254.082 360C254.082 281.491 235.894 210.769 206.858 159.924ZM179.594 111.086C193.303 123.909 205.959 140.344 217.14 159.924C246.176 210.769 264.364 281.491 264.364 360C264.364 438.509 246.176 509.231 217.14 560.076C205.959 579.656 193.303 596.091 179.594 608.914C228.452 558.982 261.282 466.205 261.282 360C261.282 253.795 228.452 161.017 179.594 111.086ZM227.417 159.924C216.253 140.376 203.62 123.962 189.938 111.148C238.762 161.094 271.564 253.839 271.564 360C271.564 466.161 238.762 558.906 189.937 608.852C203.62 596.039 216.253 579.625 227.417 560.076C256.453 509.231 274.641 438.509 274.641 360C274.641 281.491 256.453 210.769 227.417 159.924ZM200.184 111.117C249.025 161.056 281.841 253.817 281.841 360C281.841 466.183 249.025 558.945 200.184 608.883C213.879 596.065 226.524 579.64 237.697 560.076C266.733 509.231 284.921 438.509 284.921 360C284.921 281.491 266.733 210.769 237.697 159.924C226.524 140.36 213.88 123.935 200.184 111.117ZM247.976 560.076C236.804 579.64 224.159 596.065 210.463 608.883C259.305 558.945 292.121 466.183 292.121 360C292.121 253.817 259.305 161.055 210.463 111.116C224.159 123.935 236.804 140.36 247.976 159.924C277.012 210.769 295.2 281.491 295.2 360C295.2 438.509 277.012 509.231 247.976 560.076Z" fill="url(#paint3_linear_248_335372)"/>
<defs>
<linearGradient id="paint0_linear_248_335372" x1="352.8" y1="320.4" x2="369.569" y2="131.085" gradientUnits="userSpaceOnUse">
<stop stop-color="#88E755"/>
<stop offset="1" stop-color="#161141" stop-opacity="0"/>
</linearGradient>
<linearGradient id="paint1_linear_248_335372" x1="370.8" y1="408.96" x2="351.057" y2="631.851" gradientUnits="userSpaceOnUse">
<stop stop-color="#88E755"/>
<stop offset="1" stop-color="#161141"/>
</linearGradient>
<linearGradient id="paint2_linear_248_335372" x1="408.96" y1="349.2" x2="603.275" y2="366.412" gradientUnits="userSpaceOnUse">
<stop stop-color="#88E755"/>
<stop offset="1" stop-color="#161141"/>
</linearGradient>
<linearGradient id="paint3_linear_248_335372" x1="311.04" y1="349.2" x2="113.153" y2="366.728" gradientUnits="userSpaceOnUse">
<stop stop-color="#88E755"/>
<stop offset="1" stop-color="#161141"/>
</linearGradient>
</defs>
</svg>
