<svg width="66" height="66" viewBox="0 0 66 66" fill="none" xmlns="http://www.w3.org/2000/svg">
<path d="M24.7969 51.2001V54.2401C24.7969 54.3281 24.8689 54.4001 24.9569 54.4001H30.2369C30.3249 54.4001 30.3969 54.3281 30.3969 54.2401V51.2001C30.3969 50.3201 29.7649 49.6001 28.9969 49.6001H26.1969C25.4289 49.6001 24.7969 50.3201 24.7969 51.2001Z" fill="#39A300"/>
<path d="M27.6016 48.7998C28.7061 48.7998 29.6016 47.9044 29.6016 46.7998C29.6016 45.6952 28.7061 44.7998 27.6016 44.7998C26.497 44.7998 25.6016 45.6952 25.6016 46.7998C25.6016 47.9044 26.497 48.7998 27.6016 48.7998Z" fill="#39A300"/>
<path d="M48.9569 54.4001H54.2369C54.3249 54.4001 54.3969 54.3281 54.3969 54.2401V51.2001C54.3969 50.3201 53.7649 49.6001 52.9969 49.6001H50.1969C49.4289 49.6001 48.7969 50.3201 48.7969 51.2001V54.2401C48.7969 54.3281 48.8689 54.4001 48.9569 54.4001Z" fill="#39A300"/>
<path d="M51.6016 48.7998C52.7061 48.7998 53.6016 47.9044 53.6016 46.7998C53.6016 45.6952 52.7061 44.7998 51.6016 44.7998C50.497 44.7998 49.6016 45.6952 49.6016 46.7998C49.6016 47.9044 50.497 48.7998 51.6016 48.7998Z" fill="#39A300"/>
<path d="M36.7969 51.2001V54.2401C36.7969 54.3281 36.8689 54.4001 36.9569 54.4001H42.2369C42.3249 54.4001 42.3969 54.3281 42.3969 54.2401V51.2001C42.3969 50.3201 41.7649 49.6001 40.9969 49.6001H38.1969C37.4289 49.6001 36.7969 50.3201 36.7969 51.2001Z" fill="#39A300"/>
<path d="M39.6016 48.7998C40.7061 48.7998 41.6016 47.9044 41.6016 46.7998C41.6016 45.6952 40.7061 44.7998 39.6016 44.7998C38.497 44.7998 37.6016 45.6952 37.6016 46.7998C37.6016 47.9044 38.497 48.7998 39.6016 48.7998Z" fill="#39A300"/>
<path d="M12.7969 51.2001V54.2401C12.7969 54.3281 12.8689 54.4001 12.9569 54.4001H18.2369C18.3249 54.4001 18.3969 54.3281 18.3969 54.2401V51.2001C18.3969 50.3201 17.7649 49.6001 16.9969 49.6001H14.1969C13.4289 49.6001 12.7969 50.3201 12.7969 51.2001Z" fill="#39A300"/>
<path d="M15.6016 48.7998C16.7061 48.7998 17.6016 47.9044 17.6016 46.7998C17.6016 45.6952 16.7061 44.7998 15.6016 44.7998C14.497 44.7998 13.6016 45.6952 13.6016 46.7998C13.6016 47.9044 14.497 48.7998 15.6016 48.7998Z" fill="#39A300"/>
<path d="M57.5969 56H9.59687C9.15687 56 8.79688 56.36 8.79688 56.8C8.79688 57.24 9.15687 57.6 9.59687 57.6H57.5969C58.0369 57.6 58.3969 57.24 58.3969 56.8C58.3969 56.36 58.0369 56 57.5969 56Z" fill="#39A300"/>
<path d="M48.8062 42.4001C48.8062 41.9601 48.4463 41.6001 48.0063 41.6001H19.2063C18.7662 41.6001 18.4062 41.9601 18.4062 42.4001C18.4062 42.8401 18.7662 43.2001 19.2063 43.2001H48.0063C48.4463 43.2001 48.8062 42.8401 48.8062 42.4001Z" fill="#39A300"/>
<path d="M25.6016 24.8C25.6016 25.24 25.9616 25.6 26.4016 25.6H40.8016C41.2416 25.6 41.6016 25.24 41.6016 24.8C41.6016 24.36 41.2416 24 40.8016 24H26.4016C25.9616 24 25.6016 24.36 25.6016 24.8Z" fill="#39A300"/>
<path d="M30.2031 16.9838V21.4398C30.2031 21.5278 30.2751 21.5998 30.3631 21.5998H36.8431C36.9311 21.5998 37.0031 21.5278 37.0031 21.4398V16.9838C37.0031 15.7838 36.2351 14.7998 35.3071 14.7998H31.9071C30.9711 14.7998 30.2111 15.7838 30.2111 16.9838H30.2031Z" fill="#39A300"/>
<path d="M33.6063 14.0001C34.8213 14.0001 35.8063 13.0151 35.8063 11.8001C35.8063 10.5851 34.8213 9.6001 33.6063 9.6001C32.3912 9.6001 31.4062 10.5851 31.4062 11.8001C31.4062 13.0151 32.3912 14.0001 33.6063 14.0001Z" fill="#39A300"/>
<path d="M41.6016 35.1037V38.6397C41.6016 38.7277 41.6736 38.7997 41.7616 38.7997H47.0416C47.1296 38.7997 47.2016 38.7277 47.2016 38.6397V35.1037C47.2016 34.1117 46.5696 33.3037 45.8016 33.3037H43.0016C42.2336 33.3037 41.6016 34.1117 41.6016 35.1037Z" fill="#39A300"/>
<path d="M44.4062 32.6479C45.5108 32.6479 46.4062 31.7525 46.4062 30.6479C46.4062 29.5434 45.5108 28.6479 44.4062 28.6479C43.3017 28.6479 42.4062 29.5434 42.4062 30.6479C42.4062 31.7525 43.3017 32.6479 44.4062 32.6479Z" fill="#39A300"/>
<path d="M20 35.1037V38.6397C20 38.7277 20.072 38.7997 20.16 38.7997H25.44C25.528 38.7997 25.6 38.7277 25.6 38.6397V35.1037C25.6 34.1117 24.968 33.3037 24.2 33.3037H21.4C20.632 33.3037 20 34.1117 20 35.1037Z" fill="#39A300"/>
<path d="M22.7969 32.3999C23.9014 32.3999 24.7969 31.5045 24.7969 30.3999C24.7969 29.2953 23.9014 28.3999 22.7969 28.3999C21.6923 28.3999 20.7969 29.2953 20.7969 30.3999C20.7969 31.5045 21.6923 32.3999 22.7969 32.3999Z" fill="#39A300"/>
<path d="M30.7969 35.1037V38.6397C30.7969 38.7277 30.8689 38.7997 30.9569 38.7997H36.2369C36.3249 38.7997 36.3969 38.7277 36.3969 38.6397V35.1037C36.3969 34.1117 35.7649 33.3037 34.9969 33.3037H32.1969C31.4289 33.3037 30.7969 34.1117 30.7969 35.1037Z" fill="#39A300"/>
<path d="M33.6016 32.3999C34.7061 32.3999 35.6016 31.5045 35.6016 30.3999C35.6016 29.2953 34.7061 28.3999 33.6016 28.3999C32.497 28.3999 31.6016 29.2953 31.6016 30.3999C31.6016 31.5045 32.497 32.3999 33.6016 32.3999Z" fill="#39A300"/>
</svg>
