<svg width="66" height="66" viewBox="0 0 66 66" fill="none" xmlns="http://www.w3.org/2000/svg">
<path d="M9.90156 8.2501C9.90156 7.81249 9.72772 7.39281 9.41829 7.08337C9.10885 6.77394 8.68917 6.6001 8.25156 6.6001C7.81396 6.6001 7.39427 6.77394 7.08484 7.08337C6.7754 7.39281 6.60156 7.81249 6.60156 8.2501V57.7501C6.60156 58.1877 6.7754 58.6074 7.08484 58.9168C7.39427 59.2263 7.81396 59.4001 8.25156 59.4001H57.7516C58.1892 59.4001 58.6089 59.2263 58.9183 58.9168C59.2277 58.6074 59.4016 58.1877 59.4016 57.7501C59.4016 57.3125 59.2277 56.8928 58.9183 56.5834C58.6089 56.2739 58.1892 56.1001 57.7516 56.1001H9.90156V8.2501ZM24.7516 33.0001C26.9396 33.0001 29.038 32.1309 30.5852 30.5837C32.1324 29.0366 33.0016 26.9381 33.0016 24.7501C33.0016 22.5621 32.1324 20.4636 30.5852 18.9165C29.038 17.3693 26.9396 16.5001 24.7516 16.5001C22.5635 16.5001 20.4651 17.3693 18.9179 18.9165C17.3708 20.4636 16.5016 22.5621 16.5016 24.7501C16.5016 26.9381 17.3708 29.0366 18.9179 30.5837C20.4651 32.1309 22.5635 33.0001 24.7516 33.0001ZM56.1016 18.1501C56.1016 20.3381 55.2324 22.4366 53.6852 23.9837C52.138 25.5309 50.0396 26.4001 47.8516 26.4001C45.6635 26.4001 43.5651 25.5309 42.0179 23.9837C40.4708 22.4366 39.6016 20.3381 39.6016 18.1501C39.6016 15.9621 40.4708 13.8636 42.0179 12.3165C43.5651 10.7693 45.6635 9.9001 47.8516 9.9001C50.0396 9.9001 52.138 10.7693 53.6852 12.3165C55.2324 13.8636 56.1016 15.9621 56.1016 18.1501ZM41.2516 49.5001C43.4396 49.5001 45.538 48.6309 47.0852 47.0837C48.6324 45.5366 49.5016 43.4381 49.5016 41.2501C49.5016 39.0621 48.6324 36.9636 47.0852 35.4165C45.538 33.8693 43.4396 33.0001 41.2516 33.0001C39.0635 33.0001 36.9651 33.8693 35.4179 35.4165C33.8708 36.9636 33.0016 39.0621 33.0016 41.2501C33.0016 43.4381 33.8708 45.5366 35.4179 47.0837C36.9651 48.6309 39.0635 49.5001 41.2516 49.5001Z" fill="#39A300"/>
</svg>
