<svg width="72" height="72" viewBox="0 0 72 72" fill="none" xmlns="http://www.w3.org/2000/svg">
<path d="M9 60V54H45V60H9ZM48 39C43.85 39 40.313 37.537 37.389 34.611C34.465 31.685 33.002 28.148 33 24C32.998 19.852 34.461 16.315 37.389 13.389C40.317 10.463 43.854 9 48 9C52.146 9 55.684 10.463 58.614 13.389C61.544 16.315 63.006 19.852 63 24C62.994 28.148 61.531 31.686 58.611 34.614C55.691 37.542 52.154 39.004 48 39ZM9 36V30H27.9C28.25 31.1 28.65 32.15 29.1 33.15C29.55 34.15 30.1 35.1 30.75 36H9ZM9 48V42H37.2C38.35 42.7 39.575 43.288 40.875 43.764C42.175 44.24 43.55 44.577 45 44.775V48H9ZM46.5 27H49.5V15H46.5V27ZM48 33C48.4 33 48.75 32.85 49.05 32.55C49.35 32.25 49.5 31.9 49.5 31.5C49.5 31.1 49.35 30.75 49.05 30.45C48.75 30.15 48.4 30 48 30C47.6 30 47.25 30.15 46.95 30.45C46.65 30.75 46.5 31.1 46.5 31.5C46.5 31.9 46.65 32.25 46.95 32.55C47.25 32.85 47.6 33 48 33Z" fill="#39A300"/>
</svg>
