<svg width="26" height="24" viewBox="0 0 26 24" fill="none" xmlns="http://www.w3.org/2000/svg">
<path fill-rule="evenodd" clip-rule="evenodd" d="M1.625 0.625C1.14175 0.625 0.75 1.01675 0.75 1.5C0.75 1.98325 1.14175 2.375 1.625 2.375H2.5V14.625C2.5 16.558 4.067 18.125 6 18.125H7.411L6.0449 22.2233C5.89209 22.6818 6.13985 23.1773 6.5983 23.3301C7.05675 23.4829 7.55228 23.2351 7.7051 22.7767L8.089 21.625H17.911L18.2949 22.7767C18.4477 23.2351 18.9432 23.4829 19.4017 23.3301C19.8601 23.1773 20.1079 22.6818 19.9551 22.2233L18.589 18.125H20C21.933 18.125 23.5 16.558 23.5 14.625V2.375H24.375C24.8582 2.375 25.25 1.98325 25.25 1.5C25.25 1.01675 24.8582 0.625 24.375 0.625H1.625ZM8.67233 19.875L9.25566 18.125H16.7443L17.3277 19.875H8.67233ZM17.375 5.875C17.375 5.39175 16.9832 5 16.5 5C16.0168 5 15.625 5.39175 15.625 5.875V12.875C15.625 13.3583 16.0168 13.75 16.5 13.75C16.9832 13.75 17.375 13.3583 17.375 12.875V5.875ZM13.875 8.5C13.875 8.01675 13.4832 7.625 13 7.625C12.5168 7.625 12.125 8.01675 12.125 8.5V12.875C12.125 13.3583 12.5168 13.75 13 13.75C13.4832 13.75 13.875 13.3583 13.875 12.875V8.5ZM10.375 11.125C10.375 10.6418 9.98325 10.25 9.5 10.25C9.01675 10.25 8.625 10.6418 8.625 11.125V12.875C8.625 13.3583 9.01675 13.75 9.5 13.75C9.98325 13.75 10.375 13.3583 10.375 12.875V11.125Z" fill="#88E755"/>
</svg>
