<svg width="616" height="73" viewBox="0 0 616 73" fill="none" xmlns="http://www.w3.org/2000/svg">
<path d="M0.400391 71.5769V6.03568H43.9714V21.6363H17.3857V31.5137H38.1558V46.7451H17.3857V55.9762H45.91V71.5769H0.400391Z" fill="#161141"/>
<path d="M53.0382 71.5769V3.63558H69.5619V71.5769H53.0382Z" fill="#161141"/>
<path d="M107.907 26.3442H124.431V71.5769H108.738V67.3306H108.646C106 70.7768 102.122 72.5 97.0145 72.5C90.7989 72.5 85.7217 70.3153 81.7831 65.9459C77.906 61.5765 75.9675 55.9147 75.9675 48.9606C75.9675 42.068 77.8753 36.437 81.6908 32.0675C85.5063 27.6366 90.2758 25.4211 95.9991 25.4211C100.738 25.4211 104.676 27.2366 107.815 30.8675H107.907V26.3442ZM100.707 58.0994C102.922 58.0994 104.799 57.2686 106.338 55.607C107.877 53.8838 108.646 51.6684 108.646 48.9606C108.646 46.3143 107.877 44.1604 106.338 42.4987C104.799 40.7756 102.922 39.914 100.707 39.914C98.3684 39.914 96.4299 40.7756 94.8914 42.4987C93.4144 44.1604 92.6759 46.3143 92.6759 48.9606C92.6759 51.7299 93.4144 53.9454 94.8914 55.607C96.3683 57.2686 98.3069 58.0994 100.707 58.0994Z" fill="#161141"/>
<path d="M161.623 25.4211H161.715V43.0526C160.792 42.9911 159.622 42.9603 158.207 42.9603C155.13 42.9603 152.791 43.7603 151.191 45.3604C149.653 46.9605 148.884 49.1144 148.884 51.8222V71.5769H132.36V26.3442H148.884V32.6214H148.976C152.299 27.8212 156.515 25.4211 161.623 25.4211Z" fill="#161141"/>
<path d="M196.252 26.3442H212.776V71.5769H197.083V67.3306H196.991C194.345 70.7768 190.467 72.5 185.36 72.5C179.144 72.5 174.067 70.3153 170.128 65.9459C166.251 61.5765 164.313 55.9147 164.313 48.9606C164.313 42.068 166.22 36.437 170.036 32.0675C173.851 27.6366 178.621 25.4211 184.344 25.4211C189.083 25.4211 193.021 27.2366 196.16 30.8675H196.252V26.3442ZM189.052 58.0994C191.268 58.0994 193.145 57.2686 194.683 55.607C196.222 53.8838 196.991 51.6684 196.991 48.9606C196.991 46.3143 196.222 44.1604 194.683 42.4987C193.145 40.7756 191.268 39.914 189.052 39.914C186.713 39.914 184.775 40.7756 183.236 42.4987C181.759 44.1604 181.021 46.3143 181.021 48.9606C181.021 51.7299 181.759 53.9454 183.236 55.607C184.713 57.2686 186.652 58.0994 189.052 58.0994Z" fill="#161141"/>
<path d="M256.913 72.1308C247.743 72.1308 239.989 68.746 233.65 61.9765L238.82 55.8839C241.097 58.7148 243.866 60.8687 247.128 62.3457C250.39 63.8227 253.682 64.5612 257.005 64.5612C261.067 64.5612 264.298 63.6689 266.698 61.8842C269.16 60.0995 270.39 57.6378 270.39 54.4992C270.39 52.7761 270.083 51.2991 269.467 50.0683C268.913 48.8375 267.929 47.7605 266.513 46.8374C265.098 45.8527 263.713 45.0835 262.359 44.5296C261.067 43.9142 259.19 43.1449 256.728 42.2218C256.298 42.0372 255.959 41.9141 255.713 41.8526C253.313 40.991 251.344 40.2525 249.805 39.6371C248.328 38.9601 246.605 38.037 244.636 36.8677C242.728 35.6985 241.22 34.5292 240.112 33.3599C239.066 32.1291 238.143 30.6213 237.343 28.8366C236.543 26.9904 236.143 24.9596 236.143 22.7441C236.143 17.8823 238.081 13.7899 241.958 10.4666C245.836 7.14342 250.574 5.45105 256.174 5.38951C263.559 5.38951 270.483 7.94346 276.945 13.0514L272.052 19.3285C266.944 15.0207 261.652 12.8667 256.174 12.8667C252.974 12.8667 250.236 13.7283 247.959 15.4515C245.682 17.1131 244.543 19.4209 244.543 22.3748C244.543 23.6056 244.789 24.7442 245.282 25.7904C245.774 26.775 246.328 27.6058 246.943 28.2828C247.559 28.8982 248.636 29.6059 250.174 30.4059C251.713 31.206 252.913 31.8214 253.774 32.2522C254.697 32.6214 256.267 33.2368 258.482 34.0984C265.252 36.6831 269.714 38.714 271.867 40.191C276.483 43.3296 278.791 47.822 278.791 53.6684C278.791 59.4533 276.637 63.9766 272.329 67.2382C268.083 70.4999 262.944 72.1308 256.913 72.1308Z" fill="#161141"/>
<path d="M311.098 72.1308C304.206 72.1308 298.606 69.946 294.298 65.5766C289.99 61.2072 287.836 55.7301 287.836 49.1452C287.836 42.5603 289.99 37.0831 294.298 32.7137C298.606 28.2828 304.206 26.0673 311.098 26.0673C317.745 26.0673 323.253 28.2212 327.622 32.5291C331.992 36.837 334.176 42.3757 334.176 49.1452C334.176 55.9147 331.992 61.4534 327.622 65.7613C323.253 70.0076 317.745 72.1308 311.098 72.1308ZM311.098 65.2997C315.468 65.2997 319.13 63.7919 322.083 60.7764C325.099 57.6994 326.607 53.8223 326.607 49.1452C326.607 44.4065 325.13 40.5294 322.176 37.5139C319.222 34.4984 315.529 32.9907 311.098 32.9907C306.483 32.9907 302.698 34.56 299.744 37.6985C296.852 40.7756 295.405 44.5911 295.405 49.1452C295.405 53.6992 296.852 57.5455 299.744 60.6841C302.698 63.7612 306.483 65.2997 311.098 65.2997Z" fill="#161141"/>
<path d="M346.332 71.5769V3.63558H353.809V71.5769H346.332Z" fill="#161141"/>
<path d="M399.596 26.6212H407.073V71.5769H399.596V64.0996H399.503C395.749 69.4537 390.826 72.1308 384.733 72.1308C379.379 72.1308 375.225 70.5922 372.271 67.5152C369.317 64.3766 367.84 59.6687 367.84 53.3915V26.6212H375.318V51.2683C375.318 56.2532 376.21 59.8533 377.995 62.0688C379.841 64.2227 382.61 65.2997 386.303 65.2997C389.995 65.2997 393.134 63.7919 395.719 60.7764C398.303 57.6994 399.596 53.5761 399.596 48.4067V26.6212Z" fill="#161141"/>
<path d="M433.608 72.1308C425.792 72.1308 421.885 67.4844 421.885 58.1917V33.083H416.161V26.6212H421.885V11.2974L429.362 10.4666V26.6212H444.316V33.083H429.362V57.084C429.362 59.8533 429.762 61.8842 430.562 63.1765C431.423 64.4689 432.87 65.1151 434.9 65.1151C437.239 65.1151 439.762 64.3458 442.47 62.8073L444.501 69.3614C441.178 71.2076 437.547 72.1308 433.608 72.1308Z" fill="#161141"/>
<path d="M458.384 18.3131C456.846 18.3131 455.553 17.8208 454.507 16.8361C453.523 15.7899 453.03 14.5283 453.03 13.0514C453.03 11.5744 453.523 10.3436 454.507 9.3589C455.553 8.3127 456.846 7.7896 458.384 7.7896C459.861 7.7896 461.123 8.3127 462.169 9.3589C463.215 10.4051 463.738 11.6359 463.738 13.0514C463.738 14.5283 463.215 15.7899 462.169 16.8361C461.123 17.8208 459.861 18.3131 458.384 18.3131ZM454.6 71.5769V26.6212H462.077V71.5769H454.6Z" fill="#161141"/>
<path d="M497.524 72.1308C490.632 72.1308 485.032 69.946 480.724 65.5766C476.416 61.2072 474.262 55.7301 474.262 49.1452C474.262 42.5603 476.416 37.0831 480.724 32.7137C485.032 28.2828 490.632 26.0673 497.524 26.0673C504.171 26.0673 509.679 28.2212 514.048 32.5291C518.418 36.837 520.602 42.3757 520.602 49.1452C520.602 55.9147 518.418 61.4534 514.048 65.7613C509.679 70.0076 504.171 72.1308 497.524 72.1308ZM497.524 65.2997C501.894 65.2997 505.556 63.7919 508.51 60.7764C511.525 57.6994 513.033 53.8223 513.033 49.1452C513.033 44.4065 511.556 40.5294 508.602 37.5139C505.648 34.4984 501.955 32.9907 497.524 32.9907C492.909 32.9907 489.124 34.56 486.17 37.6985C483.278 40.7756 481.831 44.5911 481.831 49.1452C481.831 53.6992 483.278 57.5455 486.17 60.6841C489.124 63.7612 492.909 65.2997 497.524 65.2997Z" fill="#161141"/>
<path d="M556.02 26.0673C561.005 26.0673 564.944 27.6674 567.836 30.8675C570.729 34.0061 572.175 38.6832 572.175 44.8988V71.5769H564.698V47.022C564.698 37.6678 561.036 32.9907 553.713 32.9907C549.405 32.9907 545.958 34.4369 543.374 37.3293C540.851 40.1602 539.589 44.0988 539.589 49.1452V71.5769H532.112V26.6212H539.589V34.4676H539.681C543.62 28.8674 549.066 26.0673 556.02 26.0673Z" fill="#161141"/>
<path d="M599.414 72.1308C592.46 72.1308 586.583 69.9768 581.783 65.6689L585.66 60.0379C589.537 63.6073 594.122 65.392 599.414 65.392C601.999 65.392 604.06 64.8074 605.599 63.6381C607.137 62.4688 607.907 61.0534 607.907 59.3918C607.907 57.6686 607.137 56.3763 605.599 55.5147C604.122 54.5916 601.506 53.4838 597.752 52.1915C597.506 52.1299 597.322 52.0684 597.199 52.0068C592.829 50.4683 589.475 48.7144 587.137 46.7451C584.86 44.7758 583.721 41.9141 583.721 38.1601C583.721 34.7138 585.106 31.8521 587.875 29.5751C590.706 27.2366 594.275 26.0673 598.583 26.0673C604.307 26.0673 609.445 27.9135 613.999 31.606L610.122 37.5139C606.553 34.4369 602.583 32.8983 598.214 32.8983C596.429 32.8983 594.829 33.3907 593.414 34.3753C591.998 35.36 591.291 36.6216 591.291 38.1601C591.291 39.7602 591.968 41.0525 593.321 42.0372C594.737 43.0218 596.891 44.068 599.783 45.1758C600.276 45.3604 601.168 45.6989 602.46 46.1912C603.814 46.6835 604.707 47.022 605.137 47.2066C605.568 47.3913 606.307 47.7297 607.353 48.2221C608.399 48.6528 609.107 48.9913 609.476 49.2375C609.845 49.4221 610.399 49.7606 611.138 50.2529C611.938 50.7452 612.461 51.176 612.707 51.5453C613.015 51.9145 613.384 52.4068 613.815 53.0223C614.307 53.6377 614.646 54.2531 614.83 54.8685C615.015 55.4224 615.169 56.0993 615.292 56.8993C615.415 57.6378 615.476 58.4379 615.476 59.2994C615.476 62.9919 614.092 66.069 611.322 68.5306C608.553 70.9307 604.583 72.1308 599.414 72.1308Z" fill="#161141"/>
<path d="M448.789 3.63558C448.789 1.90385 450.193 0.5 451.924 0.5H464.467C466.198 0.5 467.602 1.90385 467.602 3.63558V16.1779C467.602 17.9096 466.198 19.3135 464.467 19.3135H451.924C450.193 19.3135 448.789 17.9096 448.789 16.1779V3.63558Z" fill="#39A300"/>
<path d="M555.974 26.0225C560.959 26.0225 564.897 27.6226 567.79 30.8227C570.682 33.9613 572.129 38.6384 572.129 44.8541V71.5321H564.651V46.9773C564.651 37.623 560.99 32.9459 553.666 32.9459C549.358 32.9459 545.912 34.3921 543.327 37.2845C540.804 40.1154 539.543 44.0541 539.543 49.1004V71.5321H532.065V26.5764H539.543V34.4229H539.635C543.573 28.8227 549.02 26.0225 555.974 26.0225Z" fill="#161141"/>
<path d="M564.618 60.589H572.143V71.5635H564.618V60.589Z" fill="#39A300"/>
<path d="M564.609 57.4733H572.135V60.6089H564.609V57.4733Z" fill="#EFEFEF"/>
</svg>
