<svg width="1200" height="480" viewBox="0 0 1200 480" fill="none" xmlns="http://www.w3.org/2000/svg">
<g opacity="0.1">
<rect x="-8.45577" y="-46.3444" width="172.578" height="172.578" stroke="#D9D9D9" stroke-width="1.31111"/>
<rect x="-8.45577" y="127.544" width="172.578" height="172.578" stroke="#D9D9D9" stroke-width="1.31111"/>
<rect x="-8.45577" y="301.433" width="172.578" height="172.578" stroke="#D9D9D9" stroke-width="1.31111"/>
<rect x="-8.45577" y="475.322" width="172.578" height="172.578" stroke="#D9D9D9" stroke-width="1.31111"/>
<rect x="165.433" y="-46.3444" width="172.578" height="172.578" stroke="#D9D9D9" stroke-width="1.31111"/>
<rect x="165.433" y="127.544" width="172.578" height="172.578" stroke="#D9D9D9" stroke-width="1.31111"/>
<rect x="165.433" y="301.433" width="172.578" height="172.578" stroke="#D9D9D9" stroke-width="1.31111"/>
<rect x="165.433" y="475.322" width="172.578" height="172.578" stroke="#D9D9D9" stroke-width="1.31111"/>
<rect x="339.323" y="-46.3444" width="172.578" height="172.578" stroke="#D9D9D9" stroke-width="1.31111"/>
<rect x="339.323" y="127.544" width="172.578" height="172.578" stroke="#D9D9D9" stroke-width="1.31111"/>
<rect x="339.323" y="301.433" width="172.578" height="172.578" stroke="#D9D9D9" stroke-width="1.31111"/>
<rect x="339.323" y="475.322" width="172.578" height="172.578" stroke="#D9D9D9" stroke-width="1.31111"/>
<rect x="513.211" y="-46.3444" width="172.578" height="172.578" stroke="#D9D9D9" stroke-width="1.31111"/>
<rect x="513.211" y="127.544" width="172.578" height="172.578" stroke="#D9D9D9" stroke-width="1.31111"/>
<rect x="513.211" y="301.433" width="172.578" height="172.578" stroke="#D9D9D9" stroke-width="1.31111"/>
<rect x="513.211" y="475.322" width="172.578" height="172.578" stroke="#D9D9D9" stroke-width="1.31111"/>
<rect x="687.1" y="-46.3444" width="172.578" height="172.578" stroke="#D9D9D9" stroke-width="1.31111"/>
<rect x="687.1" y="127.544" width="172.578" height="172.578" stroke="#D9D9D9" stroke-width="1.31111"/>
<rect x="687.1" y="301.433" width="172.578" height="172.578" stroke="#D9D9D9" stroke-width="1.31111"/>
<rect x="687.1" y="475.322" width="172.578" height="172.578" stroke="#D9D9D9" stroke-width="1.31111"/>
<rect x="860.989" y="-46.3444" width="172.578" height="172.578" stroke="#D9D9D9" stroke-width="1.31111"/>
<rect x="860.989" y="127.544" width="172.578" height="172.578" stroke="#D9D9D9" stroke-width="1.31111"/>
<rect x="860.989" y="301.433" width="172.578" height="172.578" stroke="#D9D9D9" stroke-width="1.31111"/>
<rect x="860.989" y="475.322" width="172.578" height="172.578" stroke="#D9D9D9" stroke-width="1.31111"/>
<rect x="1034.88" y="-46.3444" width="172.578" height="172.578" stroke="#D9D9D9" stroke-width="1.31111"/>
<rect x="1034.88" y="127.544" width="172.578" height="172.578" stroke="#D9D9D9" stroke-width="1.31111"/>
<rect x="1034.88" y="301.433" width="172.578" height="172.578" stroke="#D9D9D9" stroke-width="1.31111"/>
<rect x="1034.88" y="475.322" width="172.578" height="172.578" stroke="#D9D9D9" stroke-width="1.31111"/>
</g>
</svg>
