<svg width="32" height="32" viewBox="0 0 32 32" fill="none" xmlns="http://www.w3.org/2000/svg">
<path d="M16.0005 2.66602C10.6752 2.66602 6.34277 6.99842 6.34277 12.3236C6.34277 18.9324 14.9854 28.6344 15.3534 29.0441C15.699 29.4291 16.3025 29.4284 16.6475 29.0441C17.0154 28.6344 25.6581 18.9324 25.6581 12.3236C25.6579 6.99842 21.3257 2.66602 16.0005 2.66602ZM16.0005 17.1827C13.3211 17.1827 11.1415 15.0029 11.1415 12.3236C11.1415 9.64435 13.3212 7.46466 16.0005 7.46466C18.6797 7.46466 20.8594 9.6444 20.8594 12.3237C20.8594 15.0029 18.6797 17.1827 16.0005 17.1827Z" fill="#39A300"/>
</svg>
