<svg width="41" height="24" viewBox="0 0 41 24" fill="none" xmlns="http://www.w3.org/2000/svg">
<g clip-path="url(#clip0_248_323905)">
<path d="M11.6465 8.70955C11.6465 9.19962 11.6995 9.59697 11.7922 9.88836C11.8981 10.1798 12.0306 10.4976 12.216 10.842C12.2822 10.948 12.3087 11.0539 12.3087 11.1466C12.3087 11.2791 12.2293 11.4115 12.0571 11.544L11.2226 12.1003C11.1034 12.1798 10.9842 12.2195 10.8783 12.2195C10.7458 12.2195 10.6134 12.1533 10.4809 12.0341C10.2955 11.8354 10.1365 11.6235 10.0041 11.4115C9.87164 11.1864 9.73919 10.9347 9.59349 10.6301C8.56038 11.8486 7.26237 12.4579 5.69945 12.4579C4.58687 12.4579 3.69945 12.14 3.05044 11.5043C2.40144 10.8685 2.07031 10.0208 2.07031 8.96121C2.07031 7.83538 2.46766 6.92147 3.27561 6.23273C4.08356 5.54399 5.1564 5.19962 6.52064 5.19962C6.97097 5.19962 7.43455 5.23936 7.92462 5.30558C8.41468 5.37181 8.91799 5.47777 9.4478 5.59697V4.63008C9.4478 3.62346 9.23588 2.92147 8.82528 2.51088C8.40144 2.10028 7.68621 1.90161 6.66634 1.90161C6.20276 1.90161 5.72594 1.95459 5.23588 2.07379C4.74581 2.193 4.26899 2.33869 3.80541 2.52412C3.59349 2.61684 3.43455 2.66982 3.34184 2.69631C3.24912 2.7228 3.1829 2.73604 3.12992 2.73604C2.94448 2.73604 2.85177 2.60359 2.85177 2.32545V1.67644C2.85177 1.46452 2.87826 1.30558 2.94448 1.21286C3.01071 1.12015 3.12991 1.02743 3.31535 0.934719C3.77892 0.696308 4.33521 0.497633 4.98422 0.338693C5.63323 0.166507 6.32197 0.0870369 7.05044 0.0870369C8.6266 0.0870369 9.77892 0.444653 10.5206 1.15988C11.2491 1.87512 11.62 2.96121 11.62 4.41816V8.70955H11.6465ZM6.26899 10.7228C6.70607 10.7228 7.1564 10.6433 7.63323 10.4844C8.11005 10.3254 8.53389 10.0341 8.8915 9.63671C9.10343 9.38505 9.26237 9.1069 9.34184 8.78902C9.42131 8.47114 9.47429 8.08704 9.47429 7.63671V7.08041C9.09018 6.9877 8.67958 6.90823 8.25574 6.85525C7.8319 6.80227 7.42131 6.77578 7.01071 6.77578C6.12329 6.77578 5.47429 6.94796 5.0372 7.30558C4.60011 7.6632 4.38819 8.16651 4.38819 8.82876C4.38819 9.45128 4.54713 9.91485 4.87826 10.2327C5.19614 10.5639 5.65972 10.7228 6.26899 10.7228ZM16.9047 12.1533C16.6663 12.1533 16.5074 12.1135 16.4014 12.0208C16.2955 11.9413 16.2028 11.7559 16.1233 11.5043L13.0107 1.26584C12.9312 1.00094 12.8915 0.828759 12.8915 0.736044C12.8915 0.524123 12.9975 0.404918 13.2094 0.404918H14.5074C14.7591 0.404918 14.9312 0.444653 15.024 0.537368C15.1299 0.616838 15.2094 0.802269 15.2889 1.05392L17.514 9.82214L19.5802 1.05392C19.6465 0.789024 19.7259 0.616838 19.8319 0.537368C19.9379 0.457898 20.1233 0.404918 20.3617 0.404918H21.4213C21.673 0.404918 21.8451 0.444653 21.9511 0.537368C22.0571 0.616838 22.1498 0.802269 22.2028 1.05392L24.2955 9.9281L26.5869 1.05392C26.6663 0.789024 26.7591 0.616838 26.8518 0.537368C26.9577 0.457898 27.1299 0.404918 27.3683 0.404918H28.6001C28.812 0.404918 28.9312 0.510878 28.9312 0.736044C28.9312 0.802269 28.918 0.868494 28.9048 0.947964C28.8915 1.02743 28.865 1.13339 28.812 1.27909L25.62 11.5175C25.5405 11.7824 25.4478 11.9546 25.3418 12.0341C25.2359 12.1135 25.0637 12.1665 24.8385 12.1665H23.6995C23.4478 12.1665 23.2756 12.1268 23.1697 12.0341C23.0637 11.9413 22.971 11.7692 22.918 11.5043L20.865 2.96121L18.8253 11.491C18.7591 11.7559 18.6796 11.9281 18.5736 12.0208C18.4677 12.1135 18.2822 12.1533 18.0438 12.1533H16.9047ZM33.9246 12.5109C33.2359 12.5109 32.5471 12.4314 31.8849 12.2725C31.2226 12.1135 30.7061 11.9413 30.3617 11.7427C30.1498 11.6235 30.0041 11.491 29.9511 11.3718C29.8981 11.2526 29.8716 11.1201 29.8716 11.0009V10.3254C29.8716 10.0473 29.9776 9.91485 30.1763 9.91485C30.2557 9.91485 30.3352 9.9281 30.4147 9.95459C30.4942 9.98108 30.6134 10.0341 30.7458 10.087C31.1961 10.2857 31.6862 10.4447 32.2028 10.5506C32.7326 10.6566 33.2491 10.7096 33.7789 10.7096C34.6134 10.7096 35.2624 10.5639 35.7127 10.2725C36.163 9.98108 36.4014 9.55724 36.4014 9.01419C36.4014 8.64333 36.2822 8.33869 36.0438 8.08704C35.8054 7.83538 35.3551 7.61022 34.7061 7.3983L32.7855 6.80227C31.8187 6.49763 31.1034 6.0473 30.6663 5.45128C30.2293 4.86849 30.0041 4.21949 30.0041 3.53075C30.0041 2.97445 30.1233 2.48439 30.3617 2.06055C30.6001 1.63671 30.918 1.26584 31.3153 0.974454C31.7127 0.669818 32.163 0.444653 32.6928 0.285712C33.2226 0.126772 33.7789 0.0605469 34.3617 0.0605469C34.6531 0.0605469 34.9577 0.0737919 35.2491 0.113527C35.5538 0.153262 35.8319 0.206242 36.11 0.259222C36.375 0.325448 36.6266 0.391673 36.865 0.471143C37.1034 0.550613 37.2889 0.630083 37.4213 0.709553C37.6067 0.815514 37.7392 0.921474 37.8187 1.04068C37.8981 1.14664 37.9379 1.29234 37.9379 1.47777V2.10028C37.9379 2.37843 37.8319 2.52412 37.6332 2.52412C37.5273 2.52412 37.3551 2.47114 37.1299 2.36518C36.375 2.02081 35.5273 1.84863 34.5869 1.84863C33.8319 1.84863 33.2359 1.96783 32.8253 2.21949C32.4147 2.47114 32.2028 2.85525 32.2028 3.3983C32.2028 3.76916 32.3352 4.08704 32.6001 4.33869C32.865 4.59035 33.3551 4.842 34.0571 5.06717L35.9379 5.6632C36.8915 5.96783 37.5802 6.39167 37.9908 6.93472C38.4014 7.47777 38.6001 8.10028 38.6001 8.78902C38.6001 9.35856 38.4809 9.87512 38.2557 10.3254C38.0173 10.7758 37.6995 11.1731 37.2889 11.491C36.8783 11.8221 36.3882 12.0605 35.8187 12.2327C35.2226 12.4182 34.6001 12.5109 33.9246 12.5109Z" fill="#252F3E"/>
<path d="M36.4261 18.947C32.0685 22.1656 25.7374 23.8742 20.2937 23.8742C12.6645 23.8742 5.79035 21.053 0.598301 16.3642C0.187705 15.9934 0.558566 15.4901 1.04863 15.7814C6.66453 19.0397 13.5917 21.0132 20.7572 21.0132C25.5917 21.0132 30.9029 20.0066 35.7904 17.9404C36.5188 17.6093 37.1413 18.4172 36.4261 18.947ZM38.2407 16.8808C37.6844 16.1656 34.5586 16.5364 33.1413 16.7086C32.7175 16.7616 32.6513 16.3907 33.0354 16.1126C35.5255 14.3642 39.6182 14.8675 40.095 15.4503C40.5718 16.0464 39.9625 20.1391 37.6314 22.0993C37.2738 22.404 36.9294 22.245 37.0884 21.8477C37.6182 20.5364 38.797 17.5828 38.2407 16.8808Z" fill="#FF9900"/>
</g>
<defs>
<clipPath id="clip0_248_323905">
<rect width="40" height="23.9062" fill="white" transform="translate(0.332031 0.046875)"/>
</clipPath>
</defs>
</svg>
