<svg width="35" height="32" viewBox="0 0 35 32" fill="none" xmlns="http://www.w3.org/2000/svg">
<path d="M12.0272 0.000384702H22.0441L11.6456 30.81C11.4265 31.4592 10.8177 31.8964 10.1326 31.8964H2.33698C1.82335 31.8964 1.34115 31.6492 1.04156 31.232C0.741969 30.8148 0.661679 30.2788 0.825865 29.7921L10.5138 1.08678C10.7329 0.437339 11.3419 0 12.0272 0V0.000384702Z" fill="url(#paint0_linear_1280_55732)"/>
<path d="M26.5813 20.666H10.6969C10.3947 20.6657 10.1231 20.8503 10.0122 21.1315C9.90135 21.4126 9.97382 21.733 10.1949 21.939L20.4018 31.4658C20.699 31.743 21.0903 31.897 21.4967 31.897H30.491L26.5813 20.666Z" fill="#0078D4"/>
<path d="M12.0291 1.16707e-05C11.3356 -0.00263809 10.7209 0.446154 10.5122 1.10758L0.839659 29.7656C0.664368 30.2542 0.73819 30.7976 1.03748 31.2217C1.33678 31.6458 1.82398 31.8975 2.34308 31.8961H10.3399C10.9462 31.7877 11.4474 31.3615 11.6517 30.7804L13.5806 25.0957L20.4706 31.5222C20.7594 31.761 21.1216 31.893 21.4963 31.8961H30.4571L26.527 20.6651L15.0702 20.6678L22.0822 1.16707e-05H12.0291Z" fill="url(#paint1_linear_1280_55732)"/>
<path d="M24.8232 1.08486C24.6045 0.436462 23.9964 0 23.3121 0H12.1484C12.8327 0 13.4407 0.436536 13.6595 1.08486L23.3479 29.7914C23.5122 30.2781 23.432 30.8142 23.1324 31.2316C22.8328 31.6489 22.3505 31.8964 21.8368 31.8964H33.0008C33.5145 31.8964 33.9967 31.6488 34.2962 31.2314C34.5957 30.8141 34.6759 30.2781 34.5116 29.7914L24.8232 1.08486Z" fill="url(#paint2_linear_1280_55732)"/>
<defs>
<linearGradient id="paint0_linear_1280_55732" x1="13.3043" y1="2.364" x2="3.494" y2="31.3462" gradientUnits="userSpaceOnUse">
<stop stop-color="#114A8B"/>
<stop offset="1" stop-color="#0669BC"/>
</linearGradient>
<linearGradient id="paint1_linear_1280_55732" x1="18.4892" y1="16.6857" x2="16.3686" y2="17.4028" gradientUnits="userSpaceOnUse">
<stop stop-opacity="0.3"/>
<stop offset="0.071" stop-opacity="0.2"/>
<stop offset="0.321" stop-opacity="0.1"/>
<stop offset="0.623" stop-opacity="0.05"/>
<stop offset="1" stop-opacity="0"/>
</linearGradient>
<linearGradient id="paint2_linear_1280_55732" x1="20.5164" y1="1.46726" x2="31.2238" y2="29.9936" gradientUnits="userSpaceOnUse">
<stop stop-color="#3CCBF4"/>
<stop offset="1" stop-color="#2892DF"/>
</linearGradient>
</defs>
</svg>
