<svg width="40" height="58" viewBox="0 0 40 58" fill="none" xmlns="http://www.w3.org/2000/svg">
<g clip-path="url(#clip0_248_326983)">
<path d="M19.9764 57.0601L3.6979 52.5411L0.0703125 11.8535H39.9312L36.2998 52.5347L19.9764 57.0601Z" fill="#264DE4"/>
<path d="M33.1901 49.9456L36.2934 15.1816H20V53.6024L33.1901 49.9456Z" fill="#2965F1"/>
<path d="M8.38672 30.2715L8.83397 35.2616H20.001V30.2715H8.38672Z" fill="#EBEBEB"/>
<path d="M7.48828 20.1719L7.94191 25.1621H20.0012V20.1719H7.48828Z" fill="#EBEBEB"/>
<path d="M20.0027 43.2306L19.9808 43.2364L14.4232 41.7357L14.0679 37.7559H9.05859L9.75771 45.5911L19.9797 48.4288L20.0027 48.4225V43.2306Z" fill="#EBEBEB"/>
<path d="M9.45312 0.796875H15.4971V3.32435H11.9806V5.85182H15.4971V8.37929H9.45312V0.796875Z" fill="black"/>
<path d="M16.7031 0.796875H22.7471V2.99468H19.2306V3.43424H22.7471V8.48918H16.7031V6.18149H20.2196V5.74193H16.7031V0.796875Z" fill="black"/>
<path d="M23.957 0.796875H30.001V2.99468H26.4845V3.43424H30.001V8.48918H23.957V6.18149H27.4735V5.74193H23.957V0.796875Z" fill="black"/>
<path d="M31.5839 30.2721L32.4848 20.1719H19.9844V25.1621H27.016L26.562 30.2721H19.9844V35.2622H26.1292L25.55 41.7341L19.9844 43.2363V48.4279L30.2145 45.5926L30.2895 44.7496L31.4622 31.6121L31.5839 30.2721Z" fill="white"/>
</g>
<defs>
<clipPath id="clip0_248_326983">
<rect width="40" height="56.4062" fill="white" transform="translate(0 0.796875)"/>
</clipPath>
</defs>
</svg>
