<svg width="34" height="32" viewBox="0 0 34 32" fill="none" xmlns="http://www.w3.org/2000/svg">
<g clip-path="url(#clip0_248_323834)">
<path d="M28.3201 16.7863C28.3201 16.73 28.3047 16.6898 28.2729 16.6635C28.2377 16.6352 28.1769 16.6201 28.0922 16.6201H27.9704V16.9548H28.1174C28.2531 16.9548 28.3201 16.8985 28.3201 16.7863ZM28.51 17.4841H28.3426L28.2359 17.2487C28.1817 17.1307 28.1238 17.0717 28.0605 17.0717H27.9704V17.4841H27.8326V16.5026H28.1088C28.2316 16.5026 28.3239 16.5292 28.3872 16.5847C28.4408 16.6324 28.4676 16.6936 28.4676 16.7697C28.4676 16.8373 28.4458 16.8942 28.4016 16.9413C28.3587 16.9891 28.297 17.0213 28.2182 17.0379V17.0422C28.2729 17.055 28.3276 17.1151 28.3807 17.2234L28.51 17.4847V17.4841ZM28.8157 17.003C28.8157 16.8099 28.7498 16.6469 28.6183 16.5176C28.4864 16.3884 28.3255 16.3235 28.1356 16.3235C27.9398 16.3235 27.7768 16.3884 27.6475 16.5187C27.5183 16.6496 27.4539 16.8115 27.4539 17.003C27.4539 17.1988 27.521 17.3624 27.654 17.4927C27.7854 17.623 27.9463 17.6874 28.1356 17.6874C28.3239 17.6874 28.4848 17.6225 28.6173 17.4905C28.7498 17.3607 28.8157 17.1977 28.8157 17.003ZM28.9085 16.9988C28.9085 17.2155 28.8339 17.3973 28.6843 17.5437C28.5347 17.6912 28.3512 17.7647 28.1318 17.7647C27.9109 17.7647 27.7275 17.6923 27.5816 17.5501C27.4357 17.4059 27.3633 17.2246 27.3633 17.0047C27.3633 16.7896 27.4373 16.6089 27.5853 16.4603C27.7334 16.3123 27.9179 16.2383 28.1383 16.2383C28.3544 16.2383 28.5357 16.3091 28.6827 16.4501C28.8334 16.5949 28.9085 16.7773 28.9085 16.9988Z" fill="black"/>
<path d="M7.92832 19.7359H7.4526V17.0134C7.4526 16.7983 7.46676 16.5366 7.49208 16.2276H7.48135C7.43681 16.4084 7.39605 16.5392 7.36014 16.6203L5.97744 19.7359H5.74574L4.36033 16.6428C4.32129 16.5564 4.28044 16.4175 4.23912 16.2276H4.22882C4.24341 16.3901 4.25157 16.6535 4.25157 17.0187V19.7359H3.79297V15.6816H4.42049L5.6643 18.5087C5.75814 18.7216 5.81877 18.8836 5.84825 18.9941H5.86798C5.94895 18.7726 6.01331 18.6063 6.06214 18.4969L7.33272 15.6816H7.92806V19.7359H7.92832Z" fill="black"/>
<path d="M9.38998 19.7357H8.92769V16.8405H9.38998V19.7357ZM9.46992 15.8026C9.46992 15.8879 9.43988 15.9592 9.38032 16.0177C9.32188 16.0762 9.2495 16.1057 9.16471 16.1057C9.08212 16.1057 9.01024 16.0774 8.95128 16.0209C8.89229 15.9641 8.86328 15.8917 8.86328 15.8026C8.86328 15.719 8.89246 15.6476 8.95128 15.5897C9.01024 15.5318 9.08212 15.5039 9.16471 15.5039C9.24945 15.5039 9.32188 15.5318 9.38032 15.5897C9.43988 15.6476 9.46992 15.719 9.46992 15.8026Z" fill="black"/>
<path d="M12.2838 19.6014C12.0618 19.7377 11.7968 19.8052 11.4906 19.8052C11.0755 19.8052 10.7413 19.6674 10.486 19.3923C10.2382 19.1252 10.1133 18.7803 10.1133 18.3577C10.1133 17.8835 10.249 17.4995 10.5225 17.2077C10.7944 16.9154 11.1602 16.7695 11.6204 16.7695C11.8719 16.7695 12.0951 16.8189 12.2903 16.9165V17.3923C12.0742 17.2404 11.8457 17.1654 11.6005 17.1654C11.3056 17.1654 11.0658 17.2683 10.8797 17.4738C10.6861 17.684 10.5879 17.9651 10.5879 18.3158C10.5879 18.6527 10.6775 18.9192 10.8556 19.1161C11.0342 19.3118 11.2718 19.41 11.5716 19.41C11.8247 19.41 12.0618 19.3268 12.2838 19.1611V19.6014Z" fill="black"/>
<path d="M14.4942 17.3113C14.4126 17.2485 14.2952 17.2179 14.1402 17.2179C13.9519 17.2179 13.7937 17.3022 13.6655 17.4722C13.5202 17.662 13.4478 17.9249 13.4478 18.2606V19.7366H12.9844V16.8414H13.4478V17.4384H13.4589C13.5271 17.2271 13.6322 17.0645 13.7727 16.9493C13.9041 16.8441 14.0527 16.791 14.2163 16.791C14.3396 16.791 14.4314 16.8043 14.4941 16.8305V17.3111L14.4942 17.3113Z" fill="black"/>
<path d="M17.0736 18.2935C17.0736 17.9229 16.9899 17.6397 16.8226 17.4455C16.6601 17.2589 16.4332 17.1656 16.1409 17.1656C15.8529 17.1656 15.6217 17.26 15.449 17.4488C15.2661 17.6504 15.1749 17.9352 15.1749 18.3048C15.1749 18.6513 15.2618 18.9232 15.4372 19.1173C15.6115 19.3125 15.8464 19.4102 16.1409 19.4102C16.4456 19.4102 16.6788 19.311 16.8387 19.1136C16.9953 18.9205 17.0736 18.6475 17.0736 18.2935ZM17.5488 18.2772C17.5488 18.7384 17.4185 19.1091 17.1589 19.3869C16.8982 19.6658 16.5475 19.8053 16.1066 19.8053C15.6721 19.8053 15.3262 19.6658 15.0725 19.3869C14.8242 19.1182 14.6992 18.7631 14.6992 18.3217C14.6992 17.8181 14.8402 17.4298 15.1234 17.1541C15.3852 16.8983 15.7354 16.7695 16.1742 16.7695C16.6059 16.7695 16.9433 16.9041 17.1862 17.1707C17.4271 17.4389 17.5488 17.8079 17.5488 18.2772Z" fill="black"/>
<path d="M19.8488 18.961C19.8488 19.1981 19.7604 19.3944 19.5828 19.551C19.3892 19.7205 19.1232 19.8052 18.7885 19.8052C18.5144 19.8052 18.2741 19.7479 18.0703 19.631V19.1327C18.2972 19.3172 18.5477 19.41 18.8228 19.41C19.1897 19.41 19.3736 19.2748 19.3736 19.0056C19.3736 18.8924 19.3333 18.7985 19.2519 18.7261C19.1704 18.6521 19.0121 18.5636 18.7767 18.4601C18.5343 18.3539 18.3616 18.245 18.2597 18.1319C18.1374 17.9978 18.0757 17.8235 18.0757 17.6089C18.0757 17.3686 18.1717 17.1686 18.3616 17.0093C18.5519 16.8495 18.7965 16.7695 19.0969 16.7695C19.327 16.7695 19.533 16.8146 19.7158 16.9052V17.3719C19.5249 17.234 19.3066 17.1654 19.0588 17.1654C18.9054 17.1654 18.7821 17.2035 18.6903 17.278C18.5976 17.3541 18.5509 17.4512 18.5509 17.5698C18.5509 17.698 18.5899 17.7977 18.6673 17.869C18.7359 17.935 18.8818 18.0155 19.1017 18.1093C19.349 18.2129 19.5276 18.3201 19.6364 18.4301C19.7775 18.569 19.8488 18.746 19.8488 18.961Z" fill="black"/>
<path d="M22.6791 18.2935C22.6791 17.9229 22.5954 17.6397 22.4275 17.4455C22.2656 17.2589 22.0382 17.1656 21.7464 17.1656C21.4584 17.1656 21.2272 17.26 21.0534 17.4488C20.8711 17.6504 20.7804 17.9352 20.7804 18.3048C20.7804 18.6513 20.8673 18.9232 21.0411 19.1173C21.2176 19.3125 21.4525 19.4102 21.7464 19.4102C22.0515 19.4102 22.2843 19.311 22.4442 19.1136C22.6008 18.9205 22.6791 18.6475 22.6791 18.2935ZM23.1553 18.2772C23.1553 18.7384 23.024 19.1091 22.7638 19.3869C22.5042 19.6658 22.1535 19.8053 21.7126 19.8053C21.2776 19.8053 20.9317 19.6658 20.678 19.3869C20.4296 19.1182 20.3047 18.7631 20.3047 18.3217C20.3047 17.8181 20.4468 17.4298 20.7284 17.1541C20.9901 16.8983 21.3409 16.7695 21.7802 16.7695C22.2119 16.7695 22.5488 16.9041 22.7912 17.1707C23.0325 17.4389 23.1553 17.8079 23.1553 18.2772Z" fill="black"/>
<path d="M25.1988 15.8574C25.1076 15.807 25.0063 15.7813 24.8909 15.7813C24.5664 15.7813 24.4055 15.9856 24.4055 16.3949V16.8411H25.084V17.2337H24.4055V19.7363H23.9416V17.2337H23.4492V16.8411H23.9416V16.3718C23.9416 16.0532 24.0392 15.8033 24.2377 15.623C24.4077 15.4664 24.6157 15.3887 24.863 15.3887C25.0063 15.3887 25.1178 15.4058 25.1988 15.4391V15.8574Z" fill="black"/>
<path d="M27.0259 19.7071C26.9165 19.7699 26.7706 19.801 26.5904 19.801C26.0852 19.801 25.8326 19.5162 25.8326 18.9466V17.2341H25.3359V16.8409H25.8326V16.1346C25.9806 16.0879 26.1345 16.0369 26.2971 15.9844V16.8409H27.0259V17.2341H26.2971V18.8678C26.2971 19.0619 26.3288 19.2008 26.3952 19.2813C26.4623 19.3644 26.5717 19.4052 26.7261 19.4052C26.8414 19.4052 26.9412 19.3743 27.0259 19.3119V19.7071Z" fill="black"/>
<path d="M1.97724 31.035C1.97724 31.2619 1.89627 31.4582 1.73266 31.624C1.56961 31.7891 1.37168 31.8723 1.13946 31.8723C0.912568 31.8723 0.719484 31.7891 0.561284 31.624C0.403041 31.4582 0.324219 31.2619 0.324219 31.035C0.324219 30.8018 0.403041 30.6049 0.561284 30.4418C0.719484 30.2782 0.912568 30.1973 1.13946 30.1973C1.37168 30.1973 1.56961 30.2794 1.73266 30.4451C1.89627 30.6108 1.97724 30.8076 1.97724 31.035Z" fill="black"/>
<path d="M12.3513 31.7021H10.8399L5.3536 23.2294C5.2254 23.0256 5.11491 22.8041 5.02107 22.5622H4.97597C5.01502 22.7891 5.03502 23.2761 5.03502 24.0222V31.7021H3.78906V21.0723H5.40617L10.7283 29.4114C10.9402 29.7423 11.085 29.9793 11.1585 30.122H11.1881C11.1387 29.8163 11.113 29.295 11.113 28.5591V21.0723H12.3514V31.7021H12.3513Z" fill="black"/>
<path d="M20.3408 31.7021H14.707V21.0723H20.0962V22.1986H15.9519V25.7347H19.7922V26.8616H15.9519V30.5752H20.3408V31.7021Z" fill="black"/>
<path d="M28.887 22.1991H25.825V31.7026H24.5796V22.1991H21.5117V21.0723H28.887V22.1991Z" fill="black"/>
<path d="M11.9297 2.71183C13.1316 6.38738 13.587 12.9442 17.1017 12.9442C17.3693 12.9442 17.6396 12.9181 17.911 12.8664C14.716 12.1215 14.3373 5.63594 12.3877 2.27734C12.2349 2.41627 12.0831 2.56108 11.9297 2.71183Z" fill="url(#paint0_linear_248_323834)"/>
<path d="M12.3828 2.27939C14.3324 5.63798 14.7111 12.1235 17.9061 12.8685C18.1571 12.8224 18.4087 12.7526 18.6607 12.6647C15.7929 11.2594 15.0002 4.96166 12.7861 1.92969C12.6521 2.04129 12.5174 2.15821 12.3828 2.27939Z" fill="url(#paint1_linear_248_323834)"/>
<path d="M15.1945 0.28125C14.9274 0.28125 14.6566 0.307418 14.3846 0.359043C13.6734 0.493126 12.951 0.799359 12.2227 1.26276C12.4216 1.45906 12.6109 1.68377 12.789 1.9289C13.5297 1.31425 14.2656 0.859983 14.9988 0.586963C15.2739 0.485062 15.548 0.408384 15.8231 0.35797C15.6247 0.307503 15.4155 0.28125 15.1945 0.28125Z" fill="#14559A"/>
<path d="M20.8995 11.3691C21.1929 11.1358 21.4868 10.8778 21.7813 10.5962C20.56 6.9378 20.1229 0.287109 16.5835 0.287109C16.3304 0.287109 16.0751 0.310707 15.8203 0.357901C19.0443 1.15976 19.4573 8.17409 20.8995 11.3691Z" fill="url(#paint2_linear_248_323834)"/>
<path d="M15.8239 0.357917C15.6255 0.307503 15.4163 0.28125 15.1953 0.28125L16.5871 0.28635C16.334 0.28635 16.0787 0.309947 15.8239 0.357705" fill="#3092C4"/>
<path d="M20.8411 12.1461C20.7027 12.0141 20.5713 11.8693 20.442 11.7148C19.8467 12.1364 19.2535 12.4561 18.6641 12.6642C18.8737 12.7666 19.0936 12.8428 19.327 12.89C19.5077 12.9269 19.6949 12.9458 19.8917 12.9458C20.5531 12.9458 21.076 12.8675 21.5211 12.654C21.2761 12.5215 21.0513 12.3499 20.8411 12.1461Z" fill="#1969BC"/>
<path d="M14.9961 0.58754C17.8838 2.09788 18.1348 8.93737 20.4389 11.7146C20.5934 11.6057 20.7463 11.4904 20.8991 11.3686C19.4569 8.17361 19.0444 1.15872 15.821 0.357422C15.5459 0.408909 15.2712 0.485119 14.9961 0.58754Z" fill="url(#paint3_linear_248_323834)"/>
<path d="M12.7891 1.92927C15.0031 4.96125 15.7958 11.259 18.6637 12.6642C19.2531 12.4561 19.8463 12.1365 20.4416 11.7149C18.1375 8.93772 17.8865 2.09823 14.9988 0.587891C14.2656 0.860348 13.5298 1.31461 12.7891 1.92927Z" fill="url(#paint4_linear_248_323834)"/>
<path d="M10.5129 2.6235C10.1659 3.4082 9.81136 4.43956 9.38281 5.7858C10.2351 4.5849 11.0846 3.55031 11.9294 2.71202C11.813 2.35426 11.688 2.02442 11.5534 1.73047C11.208 1.9949 10.8599 2.2926 10.5129 2.6235Z" fill="url(#paint5_linear_248_323834)"/>
<path d="M11.8581 1.50391C11.7562 1.57684 11.6538 1.65142 11.5508 1.73024C11.6854 2.02416 11.8098 2.35403 11.9262 2.71175C12.0796 2.56158 12.2319 2.41624 12.3842 2.27731C12.2207 1.99626 12.0469 1.73667 11.8581 1.50391Z" fill="#2B74B1"/>
<path d="M12.223 1.26172C12.1018 1.33844 11.9811 1.4194 11.8594 1.50414C12.0482 1.73692 12.2219 1.99651 12.3861 2.27811C12.5207 2.15634 12.6553 2.0389 12.7894 1.92786C12.6113 1.68277 12.422 1.45802 12.223 1.26172Z" fill="#125A9E"/>
<path d="M31.92 0.00147682C30.2868 6.29977 26.8757 11.3586 24.0159 12.634H24.0105C23.9584 12.6576 23.9069 12.6791 23.856 12.7C23.849 12.7042 23.8426 12.7047 23.8372 12.7073C23.8222 12.7133 23.8082 12.718 23.7932 12.724C23.7862 12.7283 23.7798 12.7297 23.7734 12.7322C23.7493 12.7408 23.7257 12.7481 23.7021 12.7575C23.6919 12.7618 23.6822 12.7644 23.6725 12.7678C23.6618 12.7721 23.6495 12.776 23.6371 12.7794C23.6264 12.7837 23.6152 12.7868 23.6028 12.7914C23.5926 12.7957 23.5819 12.7975 23.5723 12.8017C23.5513 12.8078 23.5321 12.8129 23.5111 12.8202C23.5025 12.8202 23.4945 12.8249 23.4854 12.8271C23.4725 12.8313 23.458 12.8344 23.4441 12.8382C23.4344 12.8425 23.4264 12.8439 23.4162 12.846C23.4017 12.8502 23.3856 12.8542 23.3711 12.8576C23.3518 12.8618 23.3346 12.8658 23.3164 12.8696C23.4457 12.9173 23.5803 12.9415 23.7256 12.9415C26.4374 12.9415 29.1717 8.08166 33.6958 0H31.9194L31.92 0.00147682Z" fill="url(#paint6_linear_248_323834)"/>
<path d="M8.79155 0.535628C8.79325 0.535628 8.79537 0.531378 8.79643 0.531378C8.79856 0.531378 8.80185 0.531378 8.80291 0.527128H8.80631C8.82133 0.522029 8.83528 0.515973 8.85029 0.510395C8.85411 0.510395 8.85613 0.510395 8.8589 0.506145C8.86272 0.506145 8.86644 0.501895 8.87018 0.501364C8.88628 0.496264 8.90236 0.490208 8.91738 0.48463H8.91993C8.95589 0.47391 8.98912 0.460608 9.02398 0.448166C9.02887 0.448166 9.03365 0.443916 9.03951 0.443916C9.05402 0.439242 9.06904 0.434036 9.08403 0.430614C9.09104 0.426365 9.09798 0.426365 9.10441 0.424133C9.11994 0.419459 9.13501 0.414252 9.14947 0.410831C9.15595 0.410831 9.16182 0.406582 9.16663 0.406157C9.21651 0.39243 9.26585 0.379553 9.31573 0.367536C9.32274 0.367536 9.32861 0.363286 9.33611 0.362861C9.35057 0.358611 9.36401 0.35638 9.37955 0.354255C9.38603 0.350005 9.3935 0.350005 9.40102 0.347774C9.41548 0.343524 9.42941 0.343099 9.44499 0.339593H9.45519C9.48523 0.333537 9.5158 0.328437 9.54584 0.32286H9.56407C9.57853 0.31861 9.59141 0.318185 9.60591 0.315529C9.61388 0.315529 9.622 0.311279 9.62951 0.311279C9.6429 0.311279 9.65633 0.307029 9.66971 0.305223C9.67672 0.305223 9.68365 0.305223 9.69173 0.300973C9.72335 0.296723 9.75608 0.295023 9.78934 0.292367C9.69548 0.283336 9.59893 0.277344 9.50078 0.277344C6.44683 0.277344 2.2392 5.94382 0.34375 13.2821H0.709002C1.31561 12.2003 1.86054 11.177 2.3588 10.2163C3.68626 5.01864 6.38998 1.47391 8.79174 0.534789" fill="url(#paint7_linear_248_323834)"/>
<path d="M10.5078 2.62587C10.8548 2.29497 11.2029 1.99728 11.5483 1.73289C11.4695 1.56018 11.388 1.40035 11.3005 1.25391C11.0211 1.59287 10.7658 2.04019 10.5078 2.62587Z" fill="#0D82CA"/>
<path d="M10.7613 0.578419C10.9608 0.745757 11.1394 0.975865 11.303 1.25155C11.3545 1.18826 11.4065 1.12978 11.4607 1.07508C11.2338 0.863233 10.9887 0.689457 10.7227 0.558594C10.7334 0.564544 10.7441 0.569325 10.7553 0.574042C10.7553 0.574042 10.7595 0.578292 10.7613 0.578292" fill="#0D82CA"/>
<path d="M2.35938 10.2168C5.14408 4.8506 6.46349 1.45445 8.79231 0.535156C6.39109 1.47487 3.68683 5.01956 2.35938 10.2168Z" fill="url(#paint8_linear_248_323834)"/>
<path d="M11.4624 1.07617C11.4082 1.13144 11.3567 1.18937 11.3047 1.25266C11.3921 1.39905 11.4736 1.55837 11.553 1.73159C11.656 1.65277 11.7584 1.5782 11.8603 1.50526C11.7343 1.34971 11.6013 1.20545 11.4624 1.07617Z" fill="#127BCA"/>
<path d="M3.62158 13.2602C3.60442 13.2644 3.58725 13.2644 3.57116 13.2662H3.56151C3.547 13.2662 3.53198 13.2705 3.5186 13.2705H3.51161C3.47677 13.2747 3.44242 13.2747 3.40916 13.2774H3.39844C6.21694 13.1985 7.50524 11.7874 8.14456 9.74069C8.63049 8.18906 9.02954 6.88197 9.37924 5.78516C8.19874 7.44676 7.01287 9.42746 5.82058 11.6463C5.24561 12.7158 4.37137 13.1626 3.62156 13.2581" fill="url(#paint9_linear_248_323834)"/>
<path d="M3.62109 13.2583C4.37091 13.1628 5.24515 12.7165 5.82011 11.6465C7.0124 9.42821 8.1988 7.44695 9.37823 5.78535C9.8073 4.43856 10.1613 3.40775 10.5088 2.62305C8.15805 4.86069 5.79812 8.58134 3.62109 13.2572" fill="url(#paint10_linear_248_323834)"/>
<path d="M2.36074 10.2188C1.86249 11.1794 1.31757 12.2027 0.710938 13.2845H1.77346C1.91398 12.2102 2.1135 11.1858 2.36074 10.2193" fill="#05A1E6"/>
<path d="M9.69097 0.304085C9.68236 0.304085 9.67594 0.308335 9.66844 0.308335C9.65556 0.312585 9.64214 0.312585 9.62875 0.313966C9.62078 0.313966 9.61321 0.313966 9.60515 0.318216C9.59065 0.322466 9.57726 0.322891 9.56331 0.325547C9.55683 0.325547 9.55044 0.325547 9.54508 0.329797C9.51448 0.334897 9.48447 0.340528 9.45443 0.34567H9.44423C9.4287 0.34992 9.41472 0.352151 9.40026 0.354276C9.39271 0.358526 9.38523 0.358526 9.37824 0.360226C9.36378 0.364476 9.34928 0.366282 9.33534 0.368832C9.3278 0.373082 9.32195 0.373082 9.31495 0.373507C9.26508 0.385523 9.21573 0.3984 9.16584 0.412127C9.16053 0.412127 9.15512 0.416377 9.14869 0.417227C9.13367 0.421477 9.11917 0.425833 9.10364 0.430529C9.09716 0.434779 9.08969 0.434779 9.08325 0.436479C9.06824 0.440729 9.05321 0.445085 9.03873 0.449781C9.03289 0.449781 9.02801 0.454031 9.02265 0.454031C8.98832 0.466897 8.95453 0.479774 8.91913 0.490505C8.90412 0.49518 8.88802 0.501225 8.87194 0.506803C8.86545 0.511053 8.85958 0.512009 8.85211 0.514984C8.83709 0.519659 8.82207 0.525715 8.80813 0.531293C8.80281 0.535543 8.7974 0.535968 8.79366 0.538199C6.46485 1.45749 5.14544 4.85364 2.36074 10.2198C2.11348 11.1863 1.91342 12.2107 1.77344 13.285H1.92254C2.3425 13.285 2.46103 13.2808 2.94428 13.2808H2.96895H3.04082H3.06549H3.07249H3.09716H3.1111H3.12076H3.14007H3.20014H3.26021H3.31063H3.32401H3.41251C3.44576 13.2765 3.48009 13.2765 3.51495 13.2738H3.52139C3.53589 13.2738 3.55035 13.2696 3.5643 13.2696H3.57447C3.59 13.2696 3.60772 13.2653 3.62488 13.2635C5.80191 8.58768 8.16183 4.86703 10.5126 2.62939C10.7711 2.04371 11.0259 1.59639 11.3048 1.25797C11.1418 0.982297 10.9632 0.751668 10.7636 0.584288C10.7636 0.584288 10.7582 0.584288 10.7578 0.580038C10.7465 0.575364 10.7358 0.569733 10.7246 0.564165C10.7133 0.558109 10.7036 0.553434 10.6919 0.547432C10.6817 0.543182 10.6699 0.537551 10.6597 0.531983C10.6457 0.527734 10.6345 0.521677 10.6221 0.5161C10.6119 0.51185 10.6028 0.507494 10.5926 0.503233C10.5717 0.495052 10.5508 0.486499 10.5309 0.47749C10.5218 0.47324 10.5133 0.471009 10.5046 0.467609C10.4902 0.462403 10.4735 0.455592 10.4585 0.449154C10.451 0.444904 10.4424 0.444054 10.4338 0.440973C10.4119 0.433642 10.3904 0.42596 10.37 0.419086H10.3647C10.34 0.410905 10.3159 0.404934 10.2907 0.39806C10.2848 0.39381 10.2799 0.39381 10.2741 0.39296C10.2521 0.386904 10.2327 0.380944 10.2118 0.375366C10.2065 0.375366 10.2016 0.371116 10.1974 0.371116C10.147 0.357814 10.0949 0.347094 10.0424 0.337224C10.037 0.337224 10.0317 0.332974 10.0263 0.332974C10.0038 0.328724 9.98178 0.324793 9.95926 0.322243C9.95384 0.317993 9.95065 0.317993 9.94587 0.317993C9.91905 0.313743 9.89277 0.310662 9.86648 0.307687H9.85255C9.83109 0.303437 9.81127 0.303012 9.7914 0.300781C9.75759 0.305031 9.72543 0.306837 9.69378 0.309812" fill="url(#paint11_linear_248_323834)"/>
<path d="M25.5426 3.48715C25.0068 5.20346 24.5729 6.61942 24.1953 7.78436C25.6654 5.76127 27.1136 3.21628 28.4925 0.279297C26.884 0.784486 26.0259 1.94089 25.5426 3.48715Z" fill="url(#paint12_linear_248_323834)"/>
<path d="M24.2398 12.5272C24.1647 12.5654 24.0896 12.6018 24.0156 12.6345C26.8754 11.3591 30.2866 6.30024 31.9198 0.00195312H31.5888C27.8366 6.70465 26.6298 11.1917 24.2398 12.5272Z" fill="url(#paint13_linear_248_323834)"/>
<path d="M22.3701 11.9633C22.9923 11.2038 23.4991 9.91286 24.191 7.78516C23.3929 8.88145 22.5895 9.82383 21.7855 10.5924C21.7855 10.5966 21.7855 10.5966 21.7812 10.5993C21.9567 11.1249 22.1492 11.5888 22.3686 11.9632" fill="#079AE1"/>
<path d="M22.3713 11.9648C22.1594 12.2234 21.9352 12.4202 21.6858 12.5661C21.6311 12.5979 21.5759 12.6278 21.5195 12.6551C21.7829 12.7973 22.0703 12.8922 22.3921 12.9303C22.4393 12.9349 22.486 12.9393 22.5348 12.9427H22.5434C22.5653 12.9427 22.5885 12.9427 22.6121 12.947H22.6215H22.6918H22.7675H22.7911H22.8447C22.8533 12.947 22.8623 12.947 22.8709 12.9427C22.8876 12.9427 22.9052 12.9427 22.9224 12.9385H22.9284H22.9477C22.9653 12.9385 22.9846 12.9342 23.0035 12.9324H23.0078C23.0134 12.9324 23.0193 12.9282 23.0249 12.9282C23.0447 12.9239 23.0653 12.9221 23.0845 12.9191H23.1021C23.1239 12.9149 23.1466 12.9122 23.1691 12.908H23.1733H23.1798C23.2249 12.8994 23.2689 12.8908 23.3133 12.8797C22.9443 12.7445 22.6354 12.4259 22.3694 11.9722" fill="#1969BC"/>
<path d="M17.1016 12.9457C17.3692 12.9457 17.6395 12.9195 17.9109 12.8674C18.1619 12.8218 18.4135 12.752 18.6655 12.6641C18.8753 12.7665 19.0952 12.8427 19.3279 12.8899C19.5087 12.9268 19.6964 12.9457 19.8933 12.9457H17.1016Z" fill="#1E5CB3"/>
<path d="M19.8886 12.9461C20.5494 12.9461 21.0729 12.8678 21.5175 12.6543C21.7808 12.7964 22.0683 12.8914 22.3901 12.9295C22.4373 12.9341 22.484 12.9385 22.5328 12.9419H22.5414C22.5633 12.9419 22.5865 12.9419 22.6101 12.9462H22.6199H22.6902H19.8867L19.8886 12.9461Z" fill="#1E5CB3"/>
<path d="M22.6953 12.946H22.7715H22.7951H22.8482C22.8572 12.946 22.8658 12.946 22.8744 12.9418C22.8911 12.9418 22.9087 12.9418 22.9264 12.9375H22.932H22.9518C22.9694 12.9375 22.9887 12.9333 23.007 12.9316H23.0117C23.0174 12.9316 23.0229 12.9273 23.0285 12.9273C23.0482 12.9231 23.0688 12.9214 23.088 12.9183C23.0945 12.9183 23.0996 12.9183 23.1064 12.914C23.1283 12.9098 23.151 12.9076 23.1735 12.9033H23.1777H23.1842C23.2293 12.8947 23.2733 12.8862 23.3178 12.875C23.447 12.9227 23.5816 12.9469 23.727 12.9469L22.6961 12.9511L22.6953 12.946Z" fill="#1D60B5"/>
<path d="M21.7839 10.6V10.5957C21.4894 10.8773 21.1955 11.1353 20.9021 11.3686C20.7487 11.4903 20.5959 11.6056 20.4414 11.7145C20.5706 11.869 20.7021 12.0138 20.8404 12.1457C21.0507 12.3495 21.2754 12.5212 21.5205 12.6536C21.5763 12.6262 21.6321 12.5962 21.6862 12.5646C21.9362 12.4187 22.1604 12.2219 22.3722 11.9634C22.1529 11.589 21.9603 11.1251 21.7849 10.5994" fill="#175FAB"/>
<path d="M30.5376 0.00195312H29.1463H29.008H28.8771H28.872C28.7819 0.00620297 28.6945 0.00928411 28.6081 0.0148302C28.5674 0.102281 28.5255 0.189722 28.4853 0.277683C27.1063 3.21467 25.6582 5.75965 24.1881 7.78275C23.4967 9.91041 22.9894 11.2014 22.3672 11.9609C22.6332 12.4146 22.9427 12.7337 23.3106 12.8689C23.3214 12.8646 23.3299 12.8646 23.3396 12.8624H23.3455C23.352 12.8624 23.3589 12.8582 23.3659 12.8582C23.3809 12.8539 23.397 12.8513 23.412 12.8466C23.4217 12.8423 23.4297 12.8419 23.4394 12.8388C23.4534 12.8346 23.4678 12.8315 23.4807 12.8281C23.4893 12.8238 23.4979 12.8225 23.5064 12.8208C23.5279 12.8139 23.5472 12.8088 23.5676 12.8023C23.5773 12.7981 23.5875 12.7946 23.5982 12.792C23.61 12.7878 23.6218 12.7847 23.6325 12.7796C23.6449 12.7753 23.6572 12.7731 23.6679 12.7684C23.6776 12.7642 23.6877 12.7615 23.6969 12.7577C23.721 12.7491 23.7446 12.7418 23.7687 12.7324C23.7752 12.7324 23.7816 12.7264 23.7886 12.725C23.8031 12.719 23.8181 12.7143 23.8326 12.7079C23.8379 12.7036 23.8444 12.7032 23.8513 12.701C23.9018 12.6799 23.9538 12.6585 24.0058 12.635H24.0112C24.0852 12.6024 24.1603 12.5658 24.2349 12.5277C26.6254 11.1922 27.8322 6.70517 31.5844 0.00247373H30.5364L30.5376 0.00195312Z" fill="url(#paint14_linear_248_323834)"/>
<path d="M9.78906 0.296337C9.79501 0.296337 9.80035 0.296337 9.80622 0.300587C9.82068 0.300587 9.83518 0.300587 9.84967 0.305261H9.86417C9.89043 0.309511 9.91673 0.311742 9.94354 0.315567C9.94843 0.315567 9.95268 0.315567 9.95693 0.319817C9.9789 0.324067 10.0014 0.327573 10.024 0.330973C10.0289 0.330973 10.0353 0.335223 10.0406 0.335223C10.0921 0.345529 10.1447 0.356249 10.1951 0.369551C10.1999 0.369551 10.2048 0.373801 10.209 0.373801C10.2305 0.378901 10.2498 0.385382 10.2713 0.391385C10.2777 0.391385 10.2825 0.395634 10.2884 0.396591C10.3136 0.403072 10.3372 0.409468 10.3619 0.417617C10.363 0.417617 10.3644 0.417617 10.3673 0.421867C10.3882 0.428241 10.4097 0.436454 10.4317 0.443743C10.4403 0.447992 10.4483 0.449799 10.4563 0.451924C10.4714 0.458405 10.488 0.46479 10.5025 0.470803C10.5111 0.470803 10.5196 0.476753 10.5287 0.479834C10.5486 0.488865 10.5695 0.496993 10.5899 0.505578C10.6006 0.509828 10.6097 0.514609 10.6199 0.518444C10.6317 0.5245 10.644 0.530036 10.6569 0.534328C10.6676 0.539428 10.6794 0.545048 10.6896 0.549766C10.7009 0.555822 10.7116 0.560496 10.7223 0.566499C10.9884 0.697373 11.2335 0.871702 11.4603 1.08303C11.544 0.995064 11.6314 0.916198 11.7221 0.845406C11.226 0.493561 10.6639 0.292969 10.0154 0.292969C9.94034 0.292969 9.86525 0.297219 9.78909 0.30285" fill="#7DCBEC"/>
<path d="M11.4609 1.07746C11.5999 1.2067 11.7329 1.351 11.8589 1.50655C11.9807 1.42181 12.1013 1.34027 12.2226 1.26412C12.0638 1.10535 11.8965 0.962685 11.7221 0.839844C11.6315 0.910126 11.5446 0.989502 11.4609 1.07746Z" fill="#5EC5ED"/>
<path d="M9.78855 0.297062C9.86472 0.290626 9.9398 0.287944 10.0149 0.287944C10.6633 0.287944 11.2254 0.488537 11.7215 0.839844C12.245 0.426857 12.8779 0.28258 13.757 0.28258H9.5C9.59815 0.28258 9.69416 0.28848 9.78855 0.297062Z" fill="url(#paint15_linear_248_323834)"/>
<path d="M13.7581 0.280206C12.879 0.280206 12.2461 0.424483 11.7227 0.837469C11.8964 0.960292 12.0638 1.10296 12.2225 1.26172C12.9514 0.798316 13.6733 0.491526 14.3851 0.35744C14.6565 0.306487 14.9273 0.280206 15.1944 0.280206H13.7581Z" fill="url(#paint16_linear_248_323834)"/>
<path d="M24.194 7.78657C24.5722 6.62055 25.005 5.20516 25.5419 3.48829C26.0257 1.94147 26.8822 0.785111 28.4907 0.280431C28.5332 0.194053 28.5733 0.105019 28.6146 0.0175781C25.9924 0.174748 24.7669 1.50861 24.1501 3.48401C23.0715 6.9327 22.4182 9.16819 21.7891 10.5927C22.5925 9.82468 23.396 8.88179 24.194 7.78657Z" fill="url(#paint17_linear_248_323834)"/>
<path d="M28.0369 12.0279H27.7397V12.9515H27.6185V12.0279H27.3203V11.918H28.0369V12.0279Z" fill="black"/>
<path d="M29.2561 12.9515H29.1354V12.2574C29.1354 12.2027 29.1397 12.1357 29.1453 12.0569C29.1328 12.1041 29.1225 12.1368 29.1131 12.1577L28.7613 12.9515H28.7023L28.3493 12.1636C28.339 12.1417 28.3288 12.1062 28.3176 12.0569H28.3133C28.3176 12.0985 28.319 12.1658 28.319 12.2591V12.9515H28.2031V11.918H28.363L28.6799 12.6393C28.7039 12.6935 28.719 12.7354 28.7266 12.7632H28.7313C28.7523 12.7064 28.7695 12.664 28.7812 12.6361L29.1046 11.918H29.2569V12.9515H29.2561Z" fill="black"/>
</g>
<defs>
<linearGradient id="paint0_linear_248_323834" x1="14.9202" y1="0.195589" x2="14.9202" y2="16.1043" gradientUnits="userSpaceOnUse">
<stop stop-color="#0994DC"/>
<stop offset="0.350006" stop-color="#66CEF5"/>
<stop offset="0.846161" stop-color="#127BCA"/>
<stop offset="1" stop-color="#127BCA"/>
</linearGradient>
<linearGradient id="paint1_linear_248_323834" x1="15.5218" y1="-0.205147" x2="15.5218" y2="16.109" gradientUnits="userSpaceOnUse">
<stop stop-color="#0E76BC"/>
<stop offset="0.360001" stop-color="#36AEE8"/>
<stop offset="0.846161" stop-color="#00ADEF"/>
<stop offset="1" stop-color="#00ADEF"/>
</linearGradient>
<linearGradient id="paint2_linear_248_323834" x1="18.8007" y1="12.5794" x2="18.8007" y2="-0.401519" gradientUnits="userSpaceOnUse">
<stop stop-color="#1C63B7"/>
<stop offset="0.5" stop-color="#33BDF2"/>
<stop offset="1" stop-color="#33BDF2" stop-opacity="0.419608"/>
</linearGradient>
<linearGradient id="paint3_linear_248_323834" x1="17.9477" y1="-1.85893" x2="17.9477" y2="15.0794" gradientUnits="userSpaceOnUse">
<stop stop-color="#166AB8"/>
<stop offset="0.399994" stop-color="#36AEE8"/>
<stop offset="0.846161" stop-color="#0798DD"/>
<stop offset="1" stop-color="#0798DD"/>
</linearGradient>
<linearGradient id="paint4_linear_248_323834" x1="16.6152" y1="-1.76955" x2="16.6152" y2="16.2421" gradientUnits="userSpaceOnUse">
<stop stop-color="#124379"/>
<stop offset="0.389999" stop-color="#1487CB"/>
<stop offset="0.780228" stop-color="#165197"/>
<stop offset="1" stop-color="#165197"/>
</linearGradient>
<linearGradient id="paint5_linear_248_323834" x1="9.38282" y1="3.75816" x2="11.9294" y2="3.75816" gradientUnits="userSpaceOnUse">
<stop stop-color="#33BDF2" stop-opacity="0.698039"/>
<stop offset="1" stop-color="#1DACD8"/>
</linearGradient>
<linearGradient id="paint6_linear_248_323834" x1="28.5071" y1="12.2538" x2="28.5071" y2="-0.391425" gradientUnits="userSpaceOnUse">
<stop stop-color="#136AB4"/>
<stop offset="0.6" stop-color="#59CAF5" stop-opacity="0.54902"/>
<stop offset="1" stop-color="#59CAF5" stop-opacity="0.235294"/>
</linearGradient>
<linearGradient id="paint7_linear_248_323834" x1="0.343678" y1="6.77969" x2="9.78926" y2="6.77969" gradientUnits="userSpaceOnUse">
<stop stop-color="#05A1E6" stop-opacity="0.247059"/>
<stop offset="1" stop-color="#05A1E6"/>
</linearGradient>
<linearGradient id="paint8_linear_248_323834" x1="5.57573" y1="12.5707" x2="5.57573" y2="-0.376984" gradientUnits="userSpaceOnUse">
<stop stop-color="#318ED5"/>
<stop offset="1" stop-color="#38A7E4"/>
</linearGradient>
<linearGradient id="paint9_linear_248_323834" x1="6.38875" y1="12.6181" x2="6.38875" y2="0.0322076" gradientUnits="userSpaceOnUse">
<stop stop-color="#05A1E6"/>
<stop offset="1" stop-color="#05A1E6" stop-opacity="0.54902"/>
</linearGradient>
<linearGradient id="paint10_linear_248_323834" x1="7.06498" y1="13.2594" x2="7.06498" y2="2.62413" gradientUnits="userSpaceOnUse">
<stop stop-color="#1959A6"/>
<stop offset="0.5" stop-color="#05A1E6"/>
<stop offset="0.917587" stop-color="#7EC5EA"/>
<stop offset="1" stop-color="#7EC5EA"/>
</linearGradient>
<linearGradient id="paint11_linear_248_323834" x1="7.4736" y1="12.5797" x2="3.86852" y2="1.56234" gradientUnits="userSpaceOnUse">
<stop stop-color="#165096"/>
<stop offset="1" stop-color="#0D82CA"/>
</linearGradient>
<linearGradient id="paint12_linear_248_323834" x1="26.3437" y1="6.05805" x2="26.3437" y2="0.0317095" gradientUnits="userSpaceOnUse">
<stop stop-color="#05A1E6"/>
<stop offset="0.873627" stop-color="#0495D6"/>
<stop offset="1" stop-color="#0495D6"/>
</linearGradient>
<linearGradient id="paint13_linear_248_323834" x1="29.1741" y1="-0.523742" x2="23.5576" y2="11.9466" gradientUnits="userSpaceOnUse">
<stop stop-color="#38A7E4" stop-opacity="0.329412"/>
<stop offset="0.961533" stop-color="#0E88D3"/>
<stop offset="1" stop-color="#0E88D3"/>
</linearGradient>
<linearGradient id="paint14_linear_248_323834" x1="26.9774" y1="-0.0361042" x2="26.9774" y2="13.111" gradientUnits="userSpaceOnUse">
<stop stop-color="#168CD4"/>
<stop offset="0.5" stop-color="#1C87CC"/>
<stop offset="1" stop-color="#154B8D"/>
</linearGradient>
<linearGradient id="paint15_linear_248_323834" x1="10.2098" y1="-0.305694" x2="10.2668" y2="1.07315" gradientUnits="userSpaceOnUse">
<stop stop-color="#97D6EE"/>
<stop offset="0.703293" stop-color="#55C1EA"/>
<stop offset="1" stop-color="#55C1EA"/>
</linearGradient>
<linearGradient id="paint16_linear_248_323834" x1="11.9619" y1="1.19988" x2="12.2194" y2="-0.260693" gradientUnits="userSpaceOnUse">
<stop stop-color="#7ACCEC"/>
<stop offset="1" stop-color="#3FB7ED"/>
</linearGradient>
<linearGradient id="paint17_linear_248_323834" x1="25.2016" y1="0.690456" x2="25.2016" y2="13.5497" gradientUnits="userSpaceOnUse">
<stop stop-color="#1DA7E7"/>
<stop offset="1" stop-color="#37ABE7" stop-opacity="0"/>
</linearGradient>
<clipPath id="clip0_248_323834">
<rect width="33.5738" height="32" fill="white" transform="translate(0.214844)"/>
</clipPath>
</defs>
</svg>
