<svg width="36" height="40" viewBox="0 0 36 40" fill="none" xmlns="http://www.w3.org/2000/svg">
<g clip-path="url(#clip0_248_323924)">
<path fill-rule="evenodd" clip-rule="evenodd" d="M21.4138 4.57826L29.6285 9.32117C29.8598 9.07616 30.13 8.85982 30.4365 8.68179C32.1402 7.70241 34.3132 8.28392 35.3028 9.98763C36.2822 11.6913 35.7007 13.8643 33.997 14.8539C33.6928 15.0288 33.3733 15.1539 33.0482 15.2317V24.7213C33.3698 24.7993 33.6858 24.9236 33.9868 25.0966C35.7007 26.0862 36.2822 28.2592 35.2926 29.9629C34.3132 31.6666 32.13 32.2481 30.4263 31.2687C30.0871 31.0737 29.7924 30.831 29.5456 30.5539L21.381 35.2679C21.4977 35.6206 21.5609 35.9978 21.5609 36.3901C21.5609 38.3488 19.9694 39.9505 18.0004 39.9505C16.0315 39.9505 14.44 38.359 14.44 36.3901C14.44 36.0401 14.4903 35.702 14.584 35.3827L6.37147 30.641C6.14263 30.8812 5.87618 31.0935 5.57456 31.2687C3.86065 32.2481 1.68765 31.6666 0.708272 29.9629C-0.271107 28.2592 0.310399 26.0862 2.01411 25.0966C2.31534 24.9234 2.63124 24.7991 2.95268 24.7211V15.2317C2.62753 15.1539 2.30808 15.0288 2.00391 14.8539C0.300197 13.8745 -0.281309 11.6913 0.69807 9.98763C1.67745 8.28392 3.86065 7.70241 5.56436 8.68179C5.8692 8.85885 6.13812 9.07381 6.36859 9.31718L14.5855 4.57298C14.4908 4.25215 14.44 3.91233 14.44 3.56045C14.44 1.59149 16.0315 0 18.0004 0C19.9694 0 21.5609 1.59149 21.5609 3.56045C21.5609 3.91426 21.5095 4.25587 21.4138 4.57826ZM20.5579 6.03957L28.7922 10.7938C28.5376 11.6877 28.6311 12.679 29.1307 13.5481C29.6319 14.42 30.4485 14.998 31.3547 15.2233V24.7247C31.3085 24.736 31.2625 24.7483 31.2169 24.7614L20.4623 6.13453C20.4947 6.10348 20.5266 6.07182 20.5579 6.03957ZM15.5408 6.13668L4.78645 24.7633C4.73996 24.7498 4.69319 24.7372 4.64619 24.7256V15.2233C5.55241 14.998 6.36896 14.42 6.8702 13.5481C7.3708 12.6772 7.46359 11.6838 7.20718 10.7885L15.4391 6.0356C15.4724 6.06997 15.5063 6.10367 15.5408 6.13668ZM18.9953 6.98052L29.7472 25.6029C29.5066 25.8323 29.2945 26.0997 29.1205 26.4024C28.9474 26.7034 28.8231 27.0194 28.7451 27.341H7.25593C7.17793 27.0196 7.05356 26.7037 6.8804 26.4024C6.70567 26.1016 6.49404 25.8358 6.25461 25.6073L17.0086 6.98139C17.3233 7.07223 17.6561 7.1209 18.0004 7.1209C18.3458 7.1209 18.6796 7.07192 18.9953 6.98052ZM20.6335 33.9914L28.8143 29.268C28.7898 29.191 28.7679 29.1131 28.7486 29.0345H7.25137C7.23997 29.0807 7.22766 29.1266 7.21443 29.1723L15.4354 33.9188C16.0827 33.247 16.9921 32.8296 18.0004 32.8296C19.0447 32.8296 19.9827 33.2772 20.6335 33.9914Z" fill="#E535AB"/>
</g>
<defs>
<clipPath id="clip0_248_323924">
<rect width="35.5556" height="40" fill="white" transform="translate(0.222656)"/>
</clipPath>
</defs>
</svg>
