<svg width="41" height="58" viewBox="0 0 41 58" fill="none" xmlns="http://www.w3.org/2000/svg">
<g clip-path="url(#clip0_248_327347)">
<path d="M40.4312 11.8545L36.7998 52.5357L20.4764 57.0611L4.1979 52.5421L0.570312 11.8545H40.4312Z" fill="#E44D26"/>
<path d="M20.5 53.6014L33.6901 49.9446L36.7934 15.1807H20.5V53.6014Z" fill="#F16529"/>
<path d="M13.4419 25.1611H20.5012V20.1709H7.98828L8.10773 21.5097L9.33422 35.2612H20.5012V30.2711H13.898L13.4419 25.1611Z" fill="#EBEBEB"/>
<path d="M14.5679 37.7568H9.55859L10.2577 45.5921L20.4797 48.4298L20.5027 48.4234V43.2316L20.4808 43.2374L14.9232 41.7367L14.5679 37.7568Z" fill="#EBEBEB"/>
<path d="M4.27734 0.796875H6.81328V3.30237H9.13306V0.796875H11.6691V8.38413H9.13317V5.84347H6.81339V8.38413H4.27745V0.796875H4.27734Z" fill="black"/>
<path d="M15.006 3.31292H12.7734V0.796875H19.7756V3.31292H17.5421V8.38413H15.0061V3.31292H15.006Z" fill="black"/>
<path d="M20.8867 0.796875H23.531L25.1576 3.46281L26.7825 0.796875H29.4278V8.38413H26.9023V4.62347L25.1576 7.32116H25.114L23.368 4.62347V8.38413H20.8867V0.796875Z" fill="black"/>
<path d="M30.6914 0.796875H33.2281V5.87622H36.7944V8.38413H30.6914V0.796875Z" fill="black"/>
<path d="M20.4844 35.2616H26.6292L26.05 41.7335L20.4844 43.2357V48.4273L30.7145 45.592L30.7895 44.749L31.9622 31.6115L32.0839 30.2715H20.4844V35.2616Z" fill="white"/>
<path d="M20.4844 25.1489V25.1611H32.538L32.6381 24.0395L32.8655 21.5097L32.9848 20.1709H20.4844V25.1489Z" fill="white"/>
</g>
<defs>
<clipPath id="clip0_248_327347">
<rect width="40" height="56.4062" fill="white" transform="translate(0.5 0.796875)"/>
</clipPath>
</defs>
</svg>
