<svg width="24" height="32" viewBox="0 0 24 32" fill="none" xmlns="http://www.w3.org/2000/svg">
<g clip-path="url(#clip0_248_323849)">
<path d="M7.79331 24.7383C7.79331 24.7383 6.57264 25.4481 8.66201 25.6883C11.1932 25.9771 12.4869 25.9357 15.2763 25.4078C15.2763 25.4078 16.0097 25.8676 17.0339 26.2659C10.7807 28.9459 2.88181 26.1106 7.79331 24.7383Z" fill="#5382A1"/>
<path d="M7.03169 21.2402C7.03169 21.2402 5.66259 22.2537 7.75351 22.4699C10.4574 22.7489 12.5928 22.7717 16.2877 22.0602C16.2877 22.0602 16.7988 22.5783 17.6024 22.8617C10.042 25.0724 1.62109 23.036 7.03169 21.2402Z" fill="#5382A1"/>
<path d="M13.4718 15.3078C15.0126 17.0817 13.067 18.678 13.067 18.678C13.067 18.678 16.9793 16.6584 15.1825 14.1293C13.5044 11.7708 12.2176 10.599 19.1842 6.55859C19.1842 6.55859 8.2489 9.28972 13.4718 15.3078Z" fill="#E76F00"/>
<path d="M21.742 27.3249C21.742 27.3249 22.6453 28.0691 20.7472 28.645C17.1378 29.7384 5.72454 30.0686 2.55398 28.6885C1.41424 28.1927 3.55157 27.5046 4.22389 27.3602C4.92505 27.2082 5.32574 27.2365 5.32574 27.2365C4.05824 26.3436 -2.86686 28.9898 1.80813 29.7476C14.5575 31.8152 25.049 28.8165 21.742 27.3249Z" fill="#5382A1"/>
<path d="M8.38241 17.6165C8.38241 17.6165 2.5769 18.9954 6.32653 19.4962C7.90975 19.7081 11.0658 19.6602 14.0057 19.4139C16.4082 19.2112 18.8207 18.7803 18.8207 18.7803C18.8207 18.7803 17.9736 19.1431 17.3606 19.5616C11.4652 21.1121 0.076421 20.3908 3.35511 18.8048C6.12791 17.4645 8.38241 17.6165 8.38241 17.6165Z" fill="#5382A1"/>
<path d="M18.7962 23.4385C24.7892 20.3243 22.0183 17.3316 20.0842 17.7348C19.6102 17.8335 19.3988 17.919 19.3988 17.919C19.3988 17.919 19.5748 17.6433 19.9109 17.524C23.7371 16.1788 26.6797 21.4913 18.6758 23.5954C18.6758 23.5955 18.7685 23.5126 18.7962 23.4385Z" fill="#5382A1"/>
<path d="M15.1807 0.0351562C15.1807 0.0351562 18.4997 3.35526 12.0328 8.46065C6.847 12.556 10.8503 14.8911 12.0306 17.5591C9.00361 14.8279 6.78217 12.4237 8.27248 10.1861C10.4599 6.90146 16.5198 5.30894 15.1807 0.0351562Z" fill="#E76F00"/>
<path d="M8.9691 31.8774C14.7216 32.2456 23.5552 31.6731 23.7644 28.9512C23.7644 28.9512 23.3622 29.983 19.0103 30.8025C14.1004 31.7265 8.04478 31.6186 4.45312 31.0264C4.45321 31.0263 5.18838 31.6349 8.9691 31.8774Z" fill="#5382A1"/>
</g>
<defs>
<clipPath id="clip0_248_323849">
<rect width="23.6763" height="32" fill="white" transform="translate(0.160156)"/>
</clipPath>
</defs>
</svg>
