<svg width="32" height="32" viewBox="0 0 32 32" fill="none" xmlns="http://www.w3.org/2000/svg">
<path d="M0 0H32V32H0V0Z" fill="#F7DF1E"/>
<path d="M8.41411 26.7418L10.863 25.2598C11.3354 26.0975 11.7652 26.8062 12.796 26.8062C13.7842 26.8062 14.4072 26.4197 14.4072 24.9162V14.6914H17.4143V24.9587C17.4143 28.0733 15.5886 29.4911 12.9249 29.4911C10.5193 29.4911 9.12289 28.2451 8.41406 26.7416" fill="black"/>
<path d="M19.0469 26.4197L21.4954 25.002C22.14 26.0546 22.9777 26.8278 24.4598 26.8278C25.7058 26.8278 26.5004 26.2049 26.5004 25.3456C26.5004 24.3146 25.6842 23.9494 24.3094 23.3481L23.5578 23.0257C21.3882 22.1022 19.9489 20.9423 19.9489 18.4935C19.9489 16.238 21.6673 14.5195 24.3525 14.5195C26.2642 14.5195 27.639 15.1855 28.627 16.9254L26.2856 18.429C25.77 17.5054 25.2117 17.1403 24.3525 17.1403C23.4718 17.1403 22.9133 17.6988 22.9133 18.429C22.9133 19.3312 23.4718 19.6964 24.7605 20.2549L25.5122 20.5771C28.0684 21.6727 29.5077 22.7895 29.5077 25.3027C29.5077 28.0094 27.3811 29.4914 24.5243 29.4914C21.7319 29.4914 19.9275 28.1597 19.0469 26.4197" fill="black"/>
</svg>
