<svg width="40" height="32" viewBox="0 0 40 32" fill="none" xmlns="http://www.w3.org/2000/svg">
<path d="M33.0563 14.6132C33.0563 12.869 30.8721 11.2161 27.5231 10.191C28.296 6.77769 27.9525 4.06207 26.439 3.19263C26.0901 2.98869 25.6823 2.89208 25.2368 2.89208V4.0889C25.4837 4.0889 25.6823 4.1372 25.8486 4.22843C26.5785 4.64704 26.8952 6.241 26.6483 8.29114C26.5893 8.79563 26.4927 9.32694 26.3746 9.86899C25.3227 9.61138 24.1742 9.41282 22.9667 9.28401C22.2422 8.29114 21.4908 7.3895 20.734 6.60058C22.4836 4.97443 24.1259 4.08352 25.2422 4.08352V2.88672C23.7663 2.88672 21.8343 3.93863 19.8808 5.76335C17.9272 3.94935 15.9951 2.90819 14.5193 2.90819V4.10499C15.6302 4.10499 17.2778 4.99053 19.0274 6.60595C18.276 7.39488 17.5246 8.29114 16.8108 9.28401C15.5979 9.41282 14.4494 9.61138 13.3976 9.87435C13.2741 9.33768 13.1829 8.81708 13.1184 8.31797C12.8663 6.26784 13.1775 4.67388 13.9021 4.2499C14.063 4.1533 14.2723 4.11037 14.5193 4.11037V2.91355C14.0684 2.91355 13.6605 3.01016 13.3064 3.2141C11.7982 4.08352 11.4602 6.79378 12.2383 10.1964C8.90014 11.2268 6.72656 12.8744 6.72656 14.6132C6.72656 16.3576 8.91086 18.0106 12.2598 19.0355C11.4869 22.4489 11.8304 25.1645 13.3439 26.0339C13.6928 26.2378 14.1006 26.3344 14.5514 26.3344C16.0273 26.3344 17.9594 25.2826 19.9129 23.4578C21.8664 25.2719 23.7985 26.3131 25.2744 26.3131C25.7252 26.3131 26.1331 26.2165 26.4873 26.0125C27.9954 25.143 28.3335 22.4327 27.5553 19.0303C30.8827 18.0052 33.0563 16.3522 33.0563 14.6132ZM26.0687 11.0336C25.8701 11.726 25.6233 12.4397 25.3441 13.1535C25.1242 12.7242 24.8934 12.2948 24.6411 11.8654C24.3943 11.4361 24.1312 11.0175 23.8683 10.6096C24.6303 10.7223 25.3656 10.8619 26.0687 11.0336ZM23.6106 16.7493C23.192 17.4739 22.7628 18.1608 22.3173 18.7995C21.5176 18.8692 20.7073 18.9068 19.8914 18.9068C19.081 18.9068 18.2706 18.8692 17.4764 18.8048C17.0309 18.1661 16.5961 17.4846 16.1776 16.7654C15.7696 16.0623 15.3994 15.3485 15.0612 14.6294C15.394 13.9102 15.7696 13.191 16.1723 12.488C16.5909 11.7635 17.0201 11.0765 17.4656 10.4379C18.2653 10.3681 19.0756 10.3305 19.8914 10.3305C20.7019 10.3305 21.5123 10.3681 22.3065 10.4325C22.752 11.0712 23.1867 11.7527 23.6053 12.4719C24.0132 13.1749 24.3835 13.8888 24.7217 14.608C24.3835 15.3271 24.0132 16.0463 23.6106 16.7493ZM25.3441 16.0517C25.6259 16.7511 25.8731 17.4639 26.0848 18.1876C25.3817 18.3593 24.6411 18.5043 23.8737 18.617C24.1366 18.2038 24.3995 17.7798 24.6465 17.345C24.8934 16.9157 25.1242 16.4809 25.3441 16.0517ZM19.9021 21.7781C19.403 21.2628 18.9039 20.6885 18.4102 20.0606C18.8932 20.0821 19.3869 20.0982 19.886 20.0982C20.3906 20.0982 20.8897 20.0875 21.3781 20.0606C20.9174 20.6593 20.4247 21.2326 19.9021 21.7781ZM15.9092 18.617C15.1472 18.5043 14.4119 18.3647 13.7089 18.193C13.9074 17.5006 14.1543 16.7868 14.4334 16.073C14.6535 16.5024 14.8842 16.9318 15.1364 17.3611C15.3886 17.7905 15.6463 18.209 15.9092 18.617ZM19.8754 7.44855C20.3745 7.96376 20.8736 8.53802 21.3673 9.16594C20.8843 9.14447 20.3906 9.12837 19.8914 9.12837C19.3869 9.12837 18.8878 9.1391 18.3995 9.16594C18.8602 8.56729 19.3528 7.994 19.8754 7.44855ZM15.9038 10.6096C15.6409 11.0229 15.3779 11.4468 15.1311 11.8815C14.8842 12.3109 14.6535 12.7403 14.4334 13.1695C14.1516 12.4701 13.9045 11.7573 13.6928 11.0336C14.3958 10.8672 15.1364 10.7223 15.9038 10.6096ZM11.0469 17.3289C9.14702 16.5185 7.918 15.4559 7.918 14.6132C7.918 13.7707 9.14702 12.7027 11.0469 11.8977C11.5084 11.6991 12.0129 11.522 12.5335 11.3556C12.8394 12.4075 13.2419 13.5023 13.741 14.624C13.2473 15.7404 12.8501 16.8298 12.5496 17.8764C12.0183 17.7099 11.5138 17.5275 11.0469 17.3289ZM13.9342 24.9981C13.2044 24.5796 12.8877 22.9856 13.1346 20.9354C13.1937 20.431 13.2902 19.8996 13.4083 19.3575C14.4602 19.6152 15.6087 19.8138 16.8162 19.9426C17.5407 20.9354 18.2921 21.837 19.0489 22.6259C17.2993 24.2522 15.657 25.143 14.5406 25.143C14.2992 25.1377 14.0953 25.0893 13.9342 24.9981ZM26.6645 20.9086C26.9166 22.9587 26.6054 24.5527 25.8808 24.9767C25.7199 25.0733 25.5106 25.1162 25.2636 25.1162C24.1527 25.1162 22.5051 24.2307 20.7555 22.6153C21.5069 21.8263 22.2582 20.9301 22.9721 19.9372C24.185 19.8084 25.3335 19.6098 26.3853 19.3468C26.5088 19.8889 26.6054 20.4095 26.6645 20.9086ZM28.7306 17.3289C28.2691 17.5275 27.7646 17.7047 27.244 17.871C26.9381 16.8191 26.5356 15.7243 26.0365 14.6026C26.5303 13.4862 26.9274 12.3968 27.2279 11.3502C27.7593 11.5166 28.2637 11.6991 28.736 11.8977C30.6359 12.708 31.8649 13.7707 31.8649 14.6132C31.8595 15.4559 30.6305 16.5239 28.7306 17.3289Z" fill="#61DAFB"/>
<path d="M19.8867 17.0655C21.2413 17.0655 22.3394 15.9674 22.3394 14.6128C22.3394 13.2582 21.2413 12.1602 19.8867 12.1602C18.5322 12.1602 17.4341 13.2582 17.4341 14.6128C17.4341 15.9674 18.5322 17.0655 19.8867 17.0655ZM7.92278 30.5569H7.11314V31.9513H6.65625V28.5044H7.79731C8.18555 28.5044 8.48384 28.5929 8.69216 28.7696C8.90207 28.9463 9.00703 29.2036 9.00703 29.5413C9.00703 29.756 8.94863 29.9429 8.83184 30.1024C8.71663 30.2618 8.55565 30.381 8.3489 30.4598L9.15854 31.9228V31.9513H8.67086L7.92278 30.5569ZM7.11314 30.1852H7.81152C8.03721 30.1852 8.21633 30.1268 8.3489 30.01C8.48305 29.8933 8.55012 29.737 8.55012 29.5413C8.55012 29.3283 8.4862 29.1649 8.35837 29.0513C8.23211 28.9376 8.04904 28.88 7.80914 28.8785H7.11314V30.1852ZM10.6405 31.9987C10.2933 31.9987 10.0108 31.885 9.79298 31.6577C9.57518 31.4289 9.46629 31.1235 9.46629 30.7416V30.6611C9.46629 30.407 9.51442 30.1806 9.61069 29.9817C9.70855 29.7812 9.84428 29.6249 10.0179 29.513C10.1931 29.3993 10.3825 29.3424 10.586 29.3424C10.9191 29.3424 11.1779 29.4521 11.3625 29.6715C11.5472 29.8909 11.6395 30.2049 11.6395 30.6137V30.796H9.90424C9.91056 31.0486 9.98395 31.253 10.1244 31.4092C10.2665 31.5638 10.4464 31.6412 10.6642 31.6412C10.8189 31.6412 10.9498 31.6096 11.0571 31.5465C11.1645 31.4834 11.2583 31.3997 11.3389 31.2956L11.6064 31.5039C11.3917 31.8337 11.0698 31.9987 10.6405 31.9987ZM10.586 29.7023C10.4093 29.7023 10.2609 29.767 10.141 29.8964C10.021 30.0243 9.94686 30.2042 9.91845 30.4362H11.2016V30.4031C11.189 30.1806 11.129 30.0085 11.0217 29.8869C10.9143 29.7639 10.7691 29.7023 10.586 29.7023ZM13.7299 31.9513C13.7046 31.9008 13.6841 31.8109 13.6683 31.6814C13.4647 31.8928 13.2217 31.9987 12.9392 31.9987C12.6867 31.9987 12.4792 31.9276 12.3166 31.7856C12.1556 31.6419 12.0751 31.4605 12.0751 31.2411C12.0751 30.9744 12.1762 30.7676 12.3781 30.6209C12.5817 30.4724 12.8674 30.3983 13.2351 30.3983H13.6613V30.1971C13.6613 30.044 13.6154 29.9224 13.524 29.8325C13.4324 29.741 13.2974 29.6953 13.1191 29.6953C12.9628 29.6953 12.8319 29.7346 12.7262 29.8136C12.6204 29.8924 12.5675 29.988 12.5675 30.1H12.1272C12.1272 29.9722 12.1722 29.8491 12.2621 29.7307C12.3537 29.6108 12.4768 29.5161 12.6315 29.4466C12.7877 29.3772 12.9589 29.3424 13.1451 29.3424C13.4403 29.3424 13.6715 29.4166 13.8388 29.565C14.006 29.7118 14.0928 29.9146 14.0992 30.1734V31.3523C14.0992 31.5875 14.1292 31.7745 14.1892 31.9134V31.9513H13.7299ZM13.0031 31.6175C13.1404 31.6175 13.2706 31.582 13.3938 31.511C13.5168 31.4399 13.6059 31.3476 13.6613 31.234V30.7085H13.3179C12.7814 30.7085 12.513 30.8655 12.513 31.1795C12.513 31.3168 12.5589 31.4242 12.6503 31.5015C12.7419 31.5788 12.8595 31.6175 13.0031 31.6175ZM15.8131 31.6412C15.9694 31.6412 16.1059 31.5938 16.2227 31.4991C16.3395 31.4044 16.4042 31.2861 16.4168 31.144H16.8312C16.8232 31.2908 16.7727 31.4304 16.6796 31.5631C16.5865 31.6957 16.4618 31.8014 16.3055 31.8802C16.1508 31.9592 15.9868 31.9987 15.8131 31.9987C15.4644 31.9987 15.1866 31.8826 14.9798 31.6507C14.7747 31.417 14.6721 31.0983 14.6721 30.6942V30.6209C14.6721 30.3715 14.7178 30.1497 14.8094 29.9557C14.9009 29.7615 15.0319 29.6108 15.2024 29.5035C15.3744 29.3961 15.5772 29.3424 15.8107 29.3424C16.098 29.3424 16.3364 29.4285 16.5257 29.6006C16.7167 29.7725 16.8184 29.9959 16.8312 30.2705H16.4168C16.4042 30.1047 16.341 29.969 16.2274 29.8633C16.1154 29.756 15.9765 29.7023 15.8107 29.7023C15.5882 29.7023 15.4154 29.7827 15.2923 29.9438C15.1708 30.1032 15.11 30.3344 15.11 30.6374V30.7202C15.11 31.0153 15.1708 31.2426 15.2923 31.402C15.4139 31.5615 15.5875 31.6412 15.8131 31.6412ZM17.9177 28.7696V29.3898H18.3959V29.7284H17.9177V31.3168C17.9177 31.4194 17.9391 31.4967 17.9817 31.5488C18.0243 31.5993 18.0969 31.6246 18.1995 31.6246C18.2499 31.6246 18.3194 31.6151 18.4077 31.5962V31.9513C18.2925 31.9828 18.1805 31.9987 18.0716 31.9987C17.8759 31.9987 17.7283 31.9394 17.6289 31.8211C17.5295 31.7027 17.4798 31.5346 17.4798 31.3168V29.7284H17.0133V29.3898H17.4798V28.7696H17.9177ZM22.83 31.9513H22.373L20.6378 29.2951V31.9513H20.1809V28.5044H20.6378L22.3778 31.1724V28.5044H22.83V31.9513ZM25.15 31.9513C25.1247 31.9008 25.1042 31.8109 25.0884 31.6814C24.8848 31.8928 24.6418 31.9987 24.3593 31.9987C24.1068 31.9987 23.8992 31.9276 23.7367 31.7856C23.5757 31.6419 23.4952 31.4605 23.4952 31.2411C23.4952 30.9744 23.5961 30.7676 23.7982 30.6209C24.0018 30.4724 24.2875 30.3983 24.6552 30.3983H25.0814V30.1971C25.0814 30.044 25.0355 29.9224 24.9439 29.8325C24.8525 29.741 24.7175 29.6953 24.5392 29.6953C24.3829 29.6953 24.252 29.7346 24.1462 29.8136C24.0405 29.8924 23.9876 29.988 23.9876 30.1H23.5473C23.5473 29.9722 23.5923 29.8491 23.6822 29.7307C23.7737 29.6108 23.8969 29.5161 24.0516 29.4466C24.2078 29.3772 24.3789 29.3424 24.5652 29.3424C24.8603 29.3424 25.0916 29.4166 25.2588 29.565C25.4261 29.7118 25.5129 29.9146 25.5193 30.1734V31.3523C25.5193 31.5875 25.5493 31.7745 25.6093 31.9134V31.9513H25.15ZM24.4232 31.6175C24.5605 31.6175 24.6907 31.582 24.8139 31.511C24.9369 31.4399 25.026 31.3476 25.0814 31.234V30.7085H24.738C24.2015 30.7085 23.9331 30.8655 23.9331 31.1795C23.9331 31.3168 23.979 31.4242 24.0704 31.5015C24.162 31.5788 24.2796 31.6175 24.4232 31.6175ZM26.8 28.7696V29.3898H27.2782V29.7284H26.8V31.3168C26.8 31.4194 26.8213 31.4967 26.864 31.5488C26.9066 31.5993 26.9792 31.6246 27.0818 31.6246C27.1322 31.6246 27.2017 31.6151 27.2901 31.5962V31.9513C27.1748 31.9828 27.0628 31.9987 26.9538 31.9987C26.7582 31.9987 26.6106 31.9394 26.5111 31.8211C26.4118 31.7027 26.3621 31.5346 26.3621 31.3168V29.7284H25.8957V29.3898H26.3621V28.7696H26.8ZM28.2678 31.9513H27.8298V29.3898H28.2678V31.9513ZM27.7943 28.7103C27.7943 28.6394 27.8156 28.5794 27.8582 28.5305C27.9024 28.4815 27.9671 28.4571 28.0523 28.4571C28.1376 28.4571 28.2023 28.4815 28.2464 28.5305C28.2906 28.5794 28.3127 28.6394 28.3127 28.7103C28.3127 28.7814 28.2906 28.8406 28.2464 28.888C28.2023 28.9352 28.1376 28.959 28.0523 28.959C27.9671 28.959 27.9024 28.9352 27.8582 28.888C27.8156 28.8406 27.7943 28.7814 27.7943 28.7103ZM29.816 31.3571L30.4504 29.3898H30.8979L29.9794 31.9513H29.6455L28.7176 29.3898H29.165L29.816 31.3571ZM32.349 31.9987C32.0019 31.9987 31.7194 31.885 31.5015 31.6577C31.2837 31.4289 31.1749 31.1235 31.1749 30.7416V30.6611C31.1749 30.407 31.223 30.1806 31.3192 29.9817C31.4171 29.7812 31.5528 29.6249 31.7264 29.513C31.9016 29.3993 32.091 29.3424 32.2946 29.3424C32.6276 29.3424 32.8864 29.4521 33.0711 29.6715C33.2557 29.8909 33.3481 30.2049 33.3481 30.6137V30.796H31.6128C31.6191 31.0486 31.6925 31.253 31.833 31.4092C31.975 31.5638 32.155 31.6412 32.3727 31.6412C32.5274 31.6412 32.6584 31.6096 32.7657 31.5465C32.873 31.4834 32.967 31.3997 33.0475 31.2956L33.315 31.5039C33.1003 31.8337 32.7783 31.9987 32.349 31.9987ZM32.2946 29.7023C32.1179 29.7023 31.9694 29.767 31.8496 29.8964C31.7296 30.0243 31.6554 30.2042 31.6271 30.4362H32.9101V30.4031C32.8975 30.1806 32.8375 30.0085 32.7302 29.8869C32.6229 29.7639 32.4777 29.7023 32.2946 29.7023Z" fill="#61DAFB"/>
</svg>
