<svg width="40" height="40" viewBox="0 0 40 40" fill="none" xmlns="http://www.w3.org/2000/svg">
<g clip-path="url(#clip0_248_323829)">
<path d="M8.88906 0C9.12344 0 30.6547 0 31.0453 0C32.1234 0 33.1703 0.171875 34.1859 0.53125C35.6547 1.0625 36.9828 2 37.9828 3.21875C38.9984 4.4375 39.6703 5.9375 39.9047 7.5C39.9984 8.07812 40.0141 8.65625 40.0141 9.23438C40.0141 9.76562 40.0141 28.4844 40.0141 29.3281C40.0141 29.8281 40.0141 30.3437 40.0141 30.8438C40.0141 31.5312 39.9828 32.2344 39.8422 32.9062C39.5297 34.4531 38.7953 35.9062 37.7328 37.0781C36.6859 38.25 35.3109 39.125 33.8266 39.5938C32.9203 39.875 31.9828 40 31.0297 40C30.6078 40 8.82656 40 8.49844 39.9844C6.90469 39.9062 5.32656 39.3906 3.99844 38.5C2.70156 37.625 1.63906 36.4062 0.951564 35C0.357814 33.7969 0.0609395 32.4531 0.0609395 31.1094C0.0609395 30.7969 0.0609395 9.20312 0.0609395 8.89062C0.0296895 7.5625 0.310939 6.25 0.889064 5.0625C1.56094 3.65625 2.60781 2.42188 3.90469 1.54688C5.23281 0.640625 6.79531 0.109375 8.38906 0.03125C8.54531 0 8.71719 0 8.88906 0Z" fill="url(#paint0_linear_248_323829)"/>
<path d="M33.75 32.7188C33.6094 32.5 33.4531 32.2812 33.2812 32.0781C32.8906 31.6094 32.4375 31.2031 31.9375 30.8594C31.3125 30.4375 30.5781 30.1719 29.8281 30.1406C29.2969 30.1094 28.7656 30.2031 28.2656 30.3906C27.7656 30.5625 27.2812 30.8125 26.8125 31.0625C26.2656 31.3438 25.7187 31.625 25.1406 31.8594C24.4531 32.1406 23.7344 32.3594 23 32.5156C22.0781 32.6875 21.1406 32.75 20.2187 32.7344C18.5469 32.7031 16.875 32.4531 15.2812 31.9844C13.875 31.5625 12.5312 30.9844 11.2656 30.25C10.1562 29.6094 9.125 28.875 8.15625 28.0469C7.35937 27.3594 6.625 26.625 5.9375 25.8438C5.46875 25.2969 5.01562 24.7187 4.59375 24.125C4.42187 23.8906 4.26562 23.6406 4.125 23.3906L0 18.9375V8.85938C0 3.96875 3.95312 0 8.84375 0H16.7344L22.5781 5.9375C35.7656 14.9062 31.5 24.7969 31.5 24.7969C31.5 24.7969 35.25 29.0156 33.75 32.7188Z" fill="url(#paint1_linear_248_323829)"/>
<path d="M22.6094 5.9375C35.7969 14.9062 31.5313 24.7969 31.5313 24.7969C31.5313 24.7969 35.2813 29.0312 33.7656 32.7344C33.7656 32.7344 32.2188 30.1406 29.625 30.1406C27.125 30.1406 25.6562 32.7344 20.625 32.7344C9.42188 32.7344 4.125 23.375 4.125 23.375C14.2188 30.0156 21.1094 25.3125 21.1094 25.3125C16.5625 22.6719 6.89062 10.0469 6.89062 10.0469C15.3125 17.2188 18.9531 19.1094 18.9531 19.1094C16.7812 17.3125 10.6875 8.53125 10.6875 8.53125C15.5625 13.4688 25.25 20.3594 25.25 20.3594C28 12.7344 22.6094 5.9375 22.6094 5.9375Z" fill="white"/>
</g>
<defs>
<linearGradient id="paint0_linear_248_323829" x1="23.7938" y1="-1.42731" x2="16.2364" y2="41.4323" gradientUnits="userSpaceOnUse">
<stop stop-color="#FAAE42"/>
<stop offset="1" stop-color="#EF3E31"/>
</linearGradient>
<linearGradient id="paint1_linear_248_323829" x1="20.4081" y1="0.646297" x2="14.877" y2="32.0145" gradientUnits="userSpaceOnUse">
<stop stop-color="#E39F3A"/>
<stop offset="1" stop-color="#D33929"/>
</linearGradient>
<clipPath id="clip0_248_323829">
<rect width="40" height="40" fill="white"/>
</clipPath>
</defs>
</svg>
