<svg width="37" height="32" viewBox="0 0 37 32" fill="none" xmlns="http://www.w3.org/2000/svg">
<g clip-path="url(#clip0_248_323872)">
<path d="M11.0703 0C10.0999 0.00205779 9.15004 0.552886 8.66154 1.39319L1.06379 14.5913C0.582902 15.4339 0.582902 16.5352 1.06379 17.3777L8.66154 30.5759C9.15009 31.4162 10.0999 31.9672 11.0703 31.9691H26.2658C27.2362 31.967 28.186 31.4162 28.6746 30.5759L36.2723 17.3777C36.7532 16.5352 36.7531 15.4339 36.2723 14.5913L28.6746 1.39319C28.186 0.552886 27.2362 0.00190346 26.2658 0H11.0703ZM11.2082 7.72107C11.2291 7.71901 11.251 7.71901 11.2719 7.72107H13.8929C14.0089 7.72347 14.1215 7.79052 14.1794 7.89123L18.6256 15.8144C18.648 15.8535 18.6624 15.8972 18.6679 15.942C18.6733 15.8972 18.6878 15.8535 18.7101 15.8144L23.1457 7.89123C23.2055 7.78747 23.3233 7.72005 23.4428 7.72107H26.0638C26.2959 7.72313 26.4697 8.01545 26.3609 8.22092L22.0209 15.9845L26.3609 23.7375C26.48 23.9442 26.3019 24.25 26.0638 24.248H23.4428C23.3212 24.247 23.2027 24.1749 23.1457 24.0672L18.7101 16.1441C18.6878 16.1049 18.6733 16.0612 18.6679 16.0164C18.6624 16.0612 18.648 16.1049 18.6256 16.1441L14.1794 24.0672C14.1241 24.1718 14.011 24.2432 13.8929 24.248H11.2719C11.0338 24.25 10.8558 23.9442 10.9748 23.7375L15.3149 15.9845L10.9748 8.22092C10.8708 8.03345 10.9977 7.76108 11.2082 7.72107Z" fill="#3498DB"/>
</g>
<defs>
<clipPath id="clip0_248_323872">
<rect width="35.9298" height="32" fill="white" transform="translate(0.703125)"/>
</clipPath>
</defs>
</svg>
