<svg width="36" height="40" viewBox="0 0 36 40" fill="none" xmlns="http://www.w3.org/2000/svg">
<g clip-path="url(#clip0_248_323063)">
<path d="M35.7764 11.8987C35.7761 11.226 35.6324 10.6317 35.3418 10.1217C35.0564 9.62006 34.6288 9.19978 34.0554 8.86728C29.322 6.13534 24.5839 3.41173 19.8521 0.677006C18.5764 -0.0600775 17.3395 -0.033272 16.0732 0.714506C14.1892 1.82673 4.75641 7.23617 1.94557 8.86576C0.788073 9.53659 0.22474 10.5631 0.224462 11.8974C0.222656 17.3916 0.224462 22.8855 0.222656 28.3798C0.222934 29.0376 0.360573 29.6203 0.638351 30.1228C0.923906 30.6395 1.35738 31.0714 1.94405 31.4114C4.75502 33.041 14.189 38.4501 16.0727 39.5626C17.3395 40.3108 18.5764 40.3374 19.8525 39.6001C24.5845 36.8652 29.3228 34.1417 34.057 31.4098C34.6436 31.0699 35.0771 30.6377 35.3627 30.1214C35.64 29.6189 35.7779 29.0362 35.7782 28.3783C35.7782 28.3783 35.7782 17.393 35.7764 11.8987Z" fill="#A9B9CB"/>
<path d="M19.82 0.712778C18.5464 -0.0224999 17.3115 0.00430572 16.0474 0.750139C14.1664 1.85944 4.74905 7.25486 1.9428 8.88028C0.787101 9.5493 0.22474 10.5732 0.224462 11.904C0.222656 17.3839 0.224462 22.8636 0.222656 28.3436C0.222934 28.9997 0.360295 29.581 0.637656 30.0821C0.922795 30.5975 1.35557 31.0283 1.94127 31.3674C2.58418 31.7397 3.57446 32.3101 4.74113 32.9812L30.7261 6.99625C27.0903 4.90264 23.4535 2.81069 19.82 0.712778Z" fill="#7F8B99"/>
<path d="M21.6754 17.6349L27.2086 17.6739C27.2086 15.3685 24.875 9.72266 18.1846 9.72266C13.922 9.72266 8.19141 12.4327 8.19141 20.224C8.19141 28.0153 13.809 30.556 18.1846 30.556C25.2703 30.556 26.9638 25.6529 26.9638 22.8821L21.685 22.5803C21.685 22.5803 21.8263 25.7852 18.1564 25.7852C14.7689 25.7852 14.2036 21.6354 14.2036 20.224C14.2036 18.0786 14.9665 14.6346 18.1564 14.6346C21.3464 14.6346 21.6754 17.6349 21.6754 17.6349Z" fill="white"/>
</g>
<defs>
<clipPath id="clip0_248_323063">
<rect width="35.5556" height="40" fill="white" transform="translate(0.222656)"/>
</clipPath>
</defs>
</svg>
