<svg width="36" height="40" viewBox="0 0 36 40" fill="none" xmlns="http://www.w3.org/2000/svg">
<g clip-path="url(#clip0_248_323065)">
<path d="M35.7184 11.7295C35.7181 11.0587 35.5746 10.4659 35.2845 9.95714C34.9995 9.45686 34.5727 9.03755 34.0002 8.70603C29.2745 5.98116 24.5442 3.26464 19.82 0.536997C18.5464 -0.198281 17.3115 -0.171476 16.0474 0.574358C14.1664 1.68366 4.74905 7.07908 1.9428 8.7045C0.787101 9.37352 0.22474 10.3974 0.224462 11.7282C0.222656 17.2081 0.224462 22.6878 0.222656 28.1678C0.222656 28.8239 0.360295 29.4052 0.637656 29.9063C0.922795 30.4217 1.35557 30.8526 1.94127 31.1916C4.74766 32.817 14.1663 38.212 16.0468 39.3216C17.3115 40.0678 18.5464 40.0945 19.8204 39.3589C24.5447 36.6312 29.2753 33.9148 34.0017 31.1899C34.5874 30.851 35.0202 30.4199 35.3053 29.9049C35.5822 29.4038 35.7202 28.8226 35.7202 28.1663C35.7202 28.1663 35.7202 17.2095 35.7184 11.7295Z" fill="#A179DC"/>
<path d="M18.0248 19.8945L0.636719 29.9062C0.921858 30.4216 1.35464 30.8524 1.94033 31.1915C4.74672 32.8169 14.1653 38.2119 16.0459 39.3215C17.3106 40.0677 18.5455 40.0944 19.8195 39.3588C24.5438 36.6311 29.2744 33.9147 34.0007 31.1898C34.5864 30.8509 35.0192 30.4198 35.3044 29.9048L18.0248 19.8945Z" fill="#280068"/>
<path d="M35.72 11.7294C35.7197 11.0586 35.5762 10.4658 35.2861 9.95703L18.0273 19.8945L35.3069 29.9048C35.5839 29.4037 35.7215 28.8224 35.7218 28.1662C35.7218 28.1662 35.7218 17.2094 35.72 11.7294Z" fill="#390091"/>
<path d="M28.264 16.1523V18.0237H30.1354V16.1523H31.0711V18.0237H32.9424V18.9594H31.0711V20.8307H32.9424V21.7664H31.0711V23.6377H30.1354V21.7664H28.264V23.6377H27.3284V21.7664H25.457V20.8307H27.3284V18.9594H25.457V18.0237H27.3284V16.1523H28.264ZM30.1354 18.9594H28.264V20.8307H30.1354V18.9594Z" fill="white"/>
<path d="M18.0656 6.75391C22.9467 6.75391 27.2083 9.40478 29.4909 13.345L29.4686 13.3071L23.7257 16.6138C22.5943 14.698 20.52 13.4052 18.1406 13.3786L18.0656 13.3781C14.4371 13.3781 11.4953 16.3197 11.4953 19.9483C11.4953 21.1349 11.8117 22.2472 12.3619 23.2079C13.4944 25.185 15.6234 26.5186 18.0656 26.5186C20.5229 26.5186 22.6641 25.1681 23.7908 23.1698L23.7635 23.2178L29.4977 26.5397C27.2401 30.4466 23.0369 33.0893 18.2126 33.142L18.0656 33.1428C13.1691 33.1428 8.89544 30.4756 6.6186 26.5145C5.50707 24.5808 4.87109 22.3389 4.87109 19.9483C4.87109 12.6613 10.7784 6.75391 18.0656 6.75391Z" fill="white"/>
</g>
<defs>
<clipPath id="clip0_248_323065">
<rect width="35.5556" height="40" fill="white" transform="translate(0.222656)"/>
</clipPath>
</defs>
</svg>
