<svg width="40" height="40" viewBox="0 0 40 40" fill="none" xmlns="http://www.w3.org/2000/svg">
<g clip-path="url(#clip0_248_323022)">
<path d="M35.625 0H4.375C1.95875 0 0 1.95875 0 4.375V35.625C0 38.0412 1.95875 40 4.375 40H35.625C38.0412 40 40 38.0412 40 35.625V4.375C40 1.95875 38.0412 0 35.625 0Z" fill="#092E20"/>
<path d="M29.1224 14.7178V25.0657C29.1224 28.6312 28.8615 30.3413 28.079 31.8196C27.3542 33.2402 26.3975 34.1386 24.4266 35.1242L20.2815 33.1531C22.2526 32.2256 23.209 31.4142 23.8177 30.1673C24.4556 28.892 24.6586 27.4137 24.6586 23.5296V14.7178H29.1224ZM22.0211 7.82422V28.4864C19.7311 28.9212 18.0499 29.0951 16.2238 29.0951C10.7742 29.0951 7.93359 26.6315 7.93359 21.9065C7.93359 17.3556 10.9483 14.3992 15.615 14.3992C16.3396 14.3992 16.8903 14.4569 17.5571 14.6308V7.82422H22.0211ZM16.0499 17.9932C13.789 17.9932 12.4845 19.3846 12.4845 21.8193C12.4845 24.1964 13.731 25.5007 16.021 25.5007C16.5135 25.5007 16.9195 25.4717 17.5571 25.3849V18.2249C17.0354 18.0512 16.6006 17.9932 16.0499 17.9932ZM29.1224 7.84797V12.4279H24.6586V7.84797H29.1224Z" fill="#FFFFFD"/>
</g>
<defs>
<clipPath id="clip0_248_323022">
<rect width="40" height="40" fill="white"/>
</clipPath>
</defs>
</svg>
