<svg width="64" height="24" viewBox="0 0 64 24" fill="none" xmlns="http://www.w3.org/2000/svg">
<path d="M36.5666 1.66188L36.7072 1.75569C38.3587 2.84631 39.5428 4.34202 40.3218 6.14933C40.5087 6.42977 40.3841 6.58558 40.0102 6.67906L39.3772 6.84097C37.9464 7.2096 36.8109 7.51958 35.3989 7.88821L34.5936 8.09805C34.3035 8.1698 34.2235 8.13963 33.9151 7.78842L33.8715 7.73852C33.4316 7.23995 33.1021 6.90699 32.5193 6.60976L32.407 6.55442C30.4439 5.58844 28.5431 5.86888 26.7669 7.02183C24.648 8.39289 23.5574 10.4183 23.5886 12.9423C23.6197 15.4352 25.3335 17.4918 27.7952 17.8345C29.9142 18.115 31.6903 17.3671 33.0925 15.7779C33.373 15.4352 33.6223 15.0613 33.9339 14.625H27.9199C27.2655 14.625 27.1097 14.2199 27.3278 13.6902L27.4359 13.4359C27.8363 12.5041 28.4575 11.1648 28.8609 10.3991L28.9489 10.2343C29.0566 10.0475 29.2754 9.79512 29.696 9.79512L39.724 9.79504C40.1744 8.3682 40.9051 7.01996 41.8798 5.74424C44.1545 2.75283 46.8967 1.1948 50.6048 0.540426C53.7831 -0.0204642 56.7746 0.291142 59.4855 2.12962C61.9472 3.81229 63.4741 6.08701 63.8792 9.07842C64.4089 13.2851 63.1936 16.7128 60.2957 19.6419C58.2391 21.7296 55.7151 23.0384 52.8172 23.6304C51.9758 23.7862 51.1345 23.8174 50.3243 23.9109C47.4887 23.8485 44.9024 23.0384 42.7211 21.1687C41.187 19.8426 40.1302 18.2127 39.6051 16.3153C39.2408 17.0512 38.805 17.7561 38.2963 18.4266C36.0528 21.3868 33.1237 23.2253 29.4156 23.7239C26.3618 24.129 23.5262 23.5369 21.0334 21.6673C18.7275 19.9223 17.4188 17.6164 17.076 14.7496C16.6709 11.3531 17.668 8.29941 19.7246 5.6196C21.937 2.72167 24.8661 0.883192 28.4496 0.22882C31.3245 -0.2911 34.0792 0.0294611 36.5666 1.66188ZM51.39 6.12714L51.2903 6.14933C48.3924 6.8037 46.5227 8.64218 45.8372 11.5713C45.2763 14.0018 46.4604 16.4635 48.704 17.4606C50.4178 18.2085 52.1316 18.115 53.7831 17.2737C56.2448 15.9961 57.5847 14.0018 57.7405 11.322C57.7094 10.9169 57.7094 10.6053 57.6471 10.2937C57.0925 7.24345 54.314 5.50318 51.39 6.12714ZM14.552 11.8206C14.6766 11.8206 14.739 11.914 14.739 12.0387L14.6766 12.7865C14.6766 12.9112 14.552 13.0047 14.4585 13.0047L7.6655 12.9735C7.54086 12.9735 7.5097 12.88 7.57202 12.7865L8.00827 12.0075C8.07059 11.914 8.19523 11.8206 8.31987 11.8206H14.552ZM15.2375 8.95378C15.3622 8.95378 15.4245 9.04726 15.3933 9.14074L15.144 9.8886C15.1129 10.0132 14.9882 10.0756 14.8636 10.0756L0.124642 10.1067C0 10.1067 -0.0311606 10.0444 0.0311606 9.95092L0.685533 9.10958C0.747854 9.0161 0.903657 8.95378 1.0283 8.95378H15.2375ZM16.8579 6.08701C16.9825 6.08701 17.0137 6.18049 16.9514 6.27397L16.4216 7.08415C16.3593 7.17763 16.2035 7.27111 16.11 7.27111L4.82989 7.23995C4.70525 7.23995 4.67409 7.17763 4.73641 7.08415L5.39078 6.24281C5.4531 6.14933 5.6089 6.08701 5.73355 6.08701H16.8579Z" fill="#00ACD7"/>
</svg>
