<svg width="30" height="40" viewBox="0 0 30 40" fill="none" xmlns="http://www.w3.org/2000/svg">
<g clip-path="url(#clip0_248_322999)">
<path d="M9.74749 30.9219C9.74749 30.9219 8.22166 31.8092 10.8334 32.1095C13.9974 32.4704 15.6145 32.4186 19.1012 31.7587C19.1012 31.7587 20.018 32.3335 21.2982 32.8314C13.4818 36.1814 3.60812 32.6373 9.74749 30.9219Z" fill="#5382A1"/>
<path d="M8.78961 26.5508C8.78961 26.5508 7.07824 27.8176 9.69189 28.0879C13.0718 28.4366 15.741 28.4651 20.3597 27.5758C20.3597 27.5758 20.9985 28.2234 22.003 28.5776C12.5525 31.341 2.02637 28.7955 8.78961 26.5508Z" fill="#5382A1"/>
<path d="M16.8407 19.1338C18.7667 21.3512 16.3347 23.3465 16.3347 23.3465C16.3347 23.3465 21.225 20.822 18.9791 17.6607C16.8815 14.7126 15.2729 13.2477 23.9812 8.19727C23.9812 8.19727 10.3121 11.6112 16.8407 19.1338Z" fill="#E76F00"/>
<path d="M27.1805 34.1561C27.1805 34.1561 28.3096 35.0864 25.9369 35.8062C21.4252 37.173 7.1586 37.5857 3.1954 35.8607C1.77073 35.2409 4.44239 34.3808 5.28279 34.2003C6.15924 34.0102 6.66011 34.0457 6.66011 34.0457C5.07573 32.9295 -3.58065 36.2372 2.26309 37.1845C18.1998 39.769 31.3142 36.0207 27.1805 34.1561Z" fill="#5382A1"/>
<path d="M10.48 22.0202C10.48 22.0202 3.22307 23.7438 7.91012 24.3697C9.88914 24.6347 13.8343 24.5747 17.509 24.2668C20.5123 24.0135 23.5279 23.4749 23.5279 23.4749C23.5279 23.4749 22.4689 23.9284 21.7027 24.4515C14.3335 26.3896 0.0974798 25.488 4.19585 23.5055C7.66184 21.8301 10.48 22.0202 10.48 22.0202Z" fill="#5382A1"/>
<path d="M23.4982 29.2971C30.9894 25.4044 27.5258 21.6635 25.1082 22.1675C24.5157 22.2909 24.2514 22.3977 24.2514 22.3977C24.2514 22.3977 24.4714 22.0531 24.8916 21.904C29.6743 20.2225 33.3525 26.8632 23.3477 29.4933C23.3477 29.4934 23.4636 29.3898 23.4982 29.2971Z" fill="#5382A1"/>
<path d="M18.9798 0.0429688C18.9798 0.0429688 23.1285 4.1931 15.0449 10.5748C8.56265 15.6941 13.5667 18.6129 15.0422 21.9479C11.2584 18.5339 8.48161 15.5287 10.3445 12.7316C13.0788 8.62584 20.6537 6.6352 18.9798 0.0429688Z" fill="#E76F00"/>
<path d="M11.2153 39.8453C18.4059 40.3056 29.4479 39.5899 29.7094 36.1875C29.7094 36.1875 29.2067 37.4773 23.7667 38.5016C17.6294 39.6566 10.0599 39.5218 5.57031 38.7816C5.57042 38.7815 6.48938 39.5422 11.2153 39.8453Z" fill="#5382A1"/>
</g>
<defs>
<clipPath id="clip0_248_322999">
<rect width="29.5954" height="40" fill="white" transform="translate(0.203125)"/>
</clipPath>
</defs>
</svg>
