<svg width="42" height="40" viewBox="0 0 42 40" fill="none" xmlns="http://www.w3.org/2000/svg">
<g clip-path="url(#clip0_248_323005)">
<path d="M35.1414 20.9839C35.1414 20.9135 35.1221 20.8632 35.0824 20.8303C35.0384 20.7949 34.9623 20.7761 34.8565 20.7761H34.7042V21.1944H34.8879C35.0576 21.1944 35.1414 21.124 35.1414 20.9839ZM35.3787 21.8562H35.1695L35.0361 21.5618C34.9684 21.4143 34.896 21.3406 34.8169 21.3406H34.7042V21.8562H34.5319V20.6292H34.8772C35.0308 20.6292 35.146 20.6625 35.2252 20.7318C35.2922 20.7915 35.3258 20.8679 35.3258 20.9631C35.3258 21.0476 35.2984 21.1187 35.2433 21.1776C35.1896 21.2373 35.1125 21.2776 35.014 21.2984V21.3037C35.0824 21.3198 35.1507 21.3949 35.2171 21.5303L35.3787 21.8568V21.8562ZM35.7608 21.2548C35.7608 21.0134 35.6784 20.8096 35.5141 20.648C35.3492 20.4864 35.1481 20.4053 34.9107 20.4053C34.666 20.4053 34.4622 20.4864 34.3006 20.6494C34.139 20.813 34.0586 21.0154 34.0586 21.2548C34.0586 21.4995 34.1424 21.7039 34.3087 21.8669C34.473 22.0298 34.6741 22.1102 34.9107 22.1102C35.146 22.1102 35.3472 22.0291 35.5128 21.8642C35.6784 21.7019 35.7608 21.4981 35.7608 21.2548ZM35.8768 21.2494C35.8768 21.5204 35.7836 21.7476 35.5966 21.9306C35.4095 22.115 35.1802 22.2068 34.906 22.2068C34.6298 22.2068 34.4006 22.1163 34.2182 21.9386C34.0358 21.7583 33.9453 21.5317 33.9453 21.2568C33.9453 20.988 34.0378 20.7621 34.2229 20.5764C34.4079 20.3913 34.6385 20.2988 34.9141 20.2988C35.1843 20.2988 35.4109 20.3873 35.5946 20.5636C35.7829 20.7446 35.8768 20.9726 35.8768 21.2494Z" fill="black"/>
<path d="M9.65356 24.6713H9.05892V21.2682C9.05892 20.9994 9.07662 20.6722 9.10827 20.286H9.09485C9.03918 20.5119 8.98822 20.6755 8.94333 20.7768L7.21496 24.6713H6.92533L5.19358 20.8049C5.14477 20.697 5.09371 20.5233 5.04206 20.286H5.02919C5.04743 20.4891 5.05762 20.8183 5.05762 21.2749V24.6713H4.48438V19.6035H5.26878L6.82354 23.1373C6.94084 23.4035 7.01662 23.606 7.05347 23.7441H7.07814C7.17935 23.4672 7.2598 23.2594 7.32084 23.1226L8.90907 19.6035H9.65324V24.6713H9.65356Z" fill="black"/>
<path d="M11.4826 24.6706H10.9047V21.0516H11.4826V24.6706ZM11.5825 19.7543C11.5825 19.8609 11.545 19.95 11.4705 20.0231C11.3975 20.0962 11.307 20.1331 11.201 20.1331C11.0978 20.1331 11.0079 20.0977 10.9342 20.0272C10.8605 19.9561 10.8242 19.8656 10.8242 19.7543C10.8242 19.6497 10.8607 19.5605 10.9342 19.4881C11.0079 19.4157 11.0978 19.3809 11.201 19.3809C11.3069 19.3809 11.3975 19.4157 11.4705 19.4881C11.545 19.5605 11.5825 19.6497 11.5825 19.7543Z" fill="black"/>
<path d="M15.096 24.5028C14.8185 24.6731 14.4873 24.7575 14.1044 24.7575C13.5856 24.7575 13.1679 24.5853 12.8487 24.2413C12.539 23.9074 12.3828 23.4764 12.3828 22.9481C12.3828 22.3554 12.5524 21.8754 12.8943 21.5107C13.2343 21.1452 13.6915 20.9629 14.2667 20.9629C14.5811 20.9629 14.86 21.0246 15.1041 21.1466V21.7413C14.8339 21.5515 14.5483 21.4577 14.2419 21.4577C13.8732 21.4577 13.5735 21.5864 13.3408 21.8432C13.0988 22.106 12.9761 22.4573 12.9761 22.8958C12.9761 23.3168 13.0881 23.65 13.3107 23.8961C13.5339 24.1407 13.8309 24.2635 14.2057 24.2635C14.5221 24.2635 14.8185 24.1595 15.096 23.9524V24.5028Z" fill="black"/>
<path d="M17.8599 21.6386C17.758 21.5602 17.6112 21.5219 17.4174 21.5219C17.1821 21.5219 16.9843 21.6272 16.8241 21.8397C16.6424 22.0771 16.5519 22.4056 16.5519 22.8253V24.6703H15.9727V21.0513H16.5519V21.7975H16.5659C16.651 21.5334 16.7824 21.3302 16.9581 21.1861C17.1223 21.0547 17.308 20.9883 17.5125 20.9883C17.6667 20.9883 17.7814 21.0049 17.8598 21.0376V21.6383L17.8599 21.6386Z" fill="black"/>
<path d="M21.0852 22.8678C21.0852 22.4046 20.9806 22.0506 20.7714 21.8079C20.5683 21.5746 20.2847 21.4579 19.9193 21.4579C19.5593 21.4579 19.2703 21.5759 19.0544 21.8119C18.8258 22.064 18.7118 22.42 18.7118 22.8819C18.7118 23.315 18.8204 23.6549 19.0397 23.8976C19.2576 24.1417 19.5512 24.2637 19.9193 24.2637C20.3001 24.2637 20.5917 24.1397 20.7915 23.893C20.9873 23.6516 21.0852 23.3103 21.0852 22.8678ZM21.6792 22.8475C21.6792 23.424 21.5163 23.8873 21.1918 24.2346C20.866 24.5832 20.4275 24.7576 19.8764 24.7576C19.3333 24.7576 18.9009 24.5832 18.5838 24.2346C18.2734 23.8987 18.1172 23.4549 18.1172 22.9031C18.1172 22.2736 18.2935 21.7882 18.6475 21.4436C18.9746 21.1238 19.4124 20.9629 19.9609 20.9629C20.5005 20.9629 20.9223 21.1311 21.2259 21.4644C21.527 21.7996 21.6792 22.2609 21.6792 22.8475Z" fill="black"/>
<path d="M24.5552 23.7023C24.5552 23.9986 24.4446 24.244 24.2227 24.4398C23.9807 24.6516 23.6481 24.7575 23.2298 24.7575C22.8872 24.7575 22.5868 24.6858 22.332 24.5397V23.9168C22.6157 24.1474 22.9287 24.2635 23.2727 24.2635C23.7313 24.2635 23.9612 24.0945 23.9612 23.7579C23.9612 23.6165 23.9108 23.4992 23.809 23.4086C23.7071 23.3161 23.5093 23.2055 23.215 23.0761C22.912 22.9433 22.6961 22.8073 22.5687 22.6658C22.4159 22.4982 22.3387 22.2803 22.3387 22.0121C22.3387 21.7118 22.4588 21.4617 22.6961 21.2626C22.9341 21.0628 23.2398 20.9629 23.6152 20.9629C23.9029 20.9629 24.1603 21.0192 24.3889 21.1325V21.7158C24.1502 21.5435 23.8774 21.4577 23.5677 21.4577C23.3759 21.4577 23.2217 21.5054 23.1071 21.5985C22.9911 21.6937 22.9327 21.815 22.9327 21.9632C22.9327 22.1234 22.9815 22.2481 23.0783 22.3373C23.1641 22.4198 23.3464 22.5203 23.6213 22.6376C23.9303 22.767 24.1536 22.9011 24.2897 23.0385C24.466 23.2122 24.5552 23.4335 24.5552 23.7023Z" fill="black"/>
<path d="M28.093 22.8678C28.093 22.4046 27.9884 22.0506 27.7786 21.8079C27.5761 21.5746 27.2918 21.4579 26.9271 21.4579C26.5671 21.4579 26.2781 21.5759 26.0609 21.8119C25.833 22.064 25.7196 22.42 25.7196 22.8819C25.7196 23.315 25.8283 23.6549 26.0455 23.8976C26.2661 24.1417 26.5597 24.2637 26.9271 24.2637C27.3086 24.2637 27.5995 24.1397 27.7993 23.893C27.9951 23.6516 28.093 23.3103 28.093 22.8678ZM28.6883 22.8475C28.6883 23.424 28.5241 23.8873 28.1989 24.2346C27.8744 24.5832 27.436 24.7576 26.8849 24.7576C26.3412 24.7576 25.9087 24.5832 25.5916 24.2346C25.2812 23.8987 25.125 23.4549 25.125 22.9031C25.125 22.2736 25.3026 21.7882 25.6547 21.4436C25.9818 21.1238 26.4203 20.9629 26.9693 20.9629C27.5091 20.9629 27.9301 21.1311 28.2331 21.4644C28.5348 21.7996 28.6883 22.2609 28.6883 22.8475Z" fill="black"/>
<path d="M31.2416 19.8223C31.1277 19.7593 31.001 19.7271 30.8568 19.7271C30.4512 19.7271 30.25 19.9825 30.25 20.4941V21.0519H31.0982V21.5426H30.25V24.6709H29.6701V21.5426H29.0547V21.0519H29.6701V20.4653C29.6701 20.067 29.7922 19.7546 30.0402 19.5293C30.2528 19.3335 30.5128 19.2363 30.8219 19.2363C31.001 19.2363 31.1404 19.2578 31.2416 19.2994V19.8223Z" fill="black"/>
<path d="M33.5266 24.6339C33.3898 24.7124 33.2074 24.7513 32.9822 24.7513C32.3506 24.7513 32.0349 24.3952 32.0349 23.6832V21.5426H31.4141V21.0511H32.0349V20.1682C32.2199 20.1098 32.4123 20.0462 32.6155 19.9805V21.0511H33.5266V21.5426H32.6155V23.5847C32.6155 23.8274 32.6552 24.001 32.7381 24.1016C32.822 24.2055 32.9587 24.2565 33.1518 24.2565C33.2959 24.2565 33.4206 24.2179 33.5266 24.1398V24.6339Z" fill="black"/>
<path d="M2.21471 38.7953C2.21471 39.0788 2.1135 39.3242 1.90899 39.5314C1.70518 39.7379 1.45777 39.8418 1.16749 39.8418C0.883874 39.8418 0.642519 39.7379 0.444769 39.5314C0.246965 39.3242 0.148438 39.0788 0.148438 38.7953C0.148438 38.5037 0.246965 38.2576 0.444769 38.0538C0.642519 37.8493 0.883874 37.748 1.16749 37.748C1.45777 37.748 1.70518 37.8507 1.90899 38.0578C2.1135 38.265 2.21471 38.511 2.21471 38.7953Z" fill="black"/>
<path d="M15.1832 39.6291H13.294L6.43615 29.0383C6.27589 28.7835 6.13778 28.5066 6.02048 28.2043H5.96411C6.01292 28.4878 6.03791 29.0966 6.03791 30.0292V39.6291H4.48047V26.3418H6.50185L13.1545 36.7657C13.4194 37.1793 13.6003 37.4756 13.6922 37.654H13.7292C13.6675 37.2718 13.6354 36.6202 13.6354 35.7003V26.3418H15.1834V39.6291H15.1832Z" fill="black"/>
<path d="M25.1672 39.6291H18.125V26.3418H24.8615V27.7497H19.6811V32.1698H24.4814V33.5784H19.6811V38.2205H25.1672V39.6291Z" fill="black"/>
<path d="M35.8519 27.7503H32.0244V39.6298H30.4677V27.7503H26.6328V26.3418H35.8519V27.7503Z" fill="black"/>
<path d="M14.6562 3.39076C16.1587 7.9852 16.7279 16.1813 21.1212 16.1813C21.4558 16.1813 21.7937 16.1485 22.1329 16.084C18.1391 15.1528 17.6658 7.0459 15.2288 2.84766C15.0377 3.02132 14.848 3.20233 14.6562 3.39076Z" fill="url(#paint0_linear_248_323005)"/>
<path d="M15.2266 2.84923C17.6636 7.04748 18.1369 15.1544 22.1307 16.0856C22.4444 16.0279 22.7589 15.9408 23.074 15.8308C19.4892 14.0743 18.4983 6.20208 15.7307 2.41211C15.5631 2.55161 15.3948 2.69777 15.2266 2.84923Z" fill="url(#paint1_linear_248_323005)"/>
<path d="M18.7383 0.351562C18.4044 0.351562 18.0658 0.384273 17.7259 0.448804C16.8369 0.616408 15.9339 0.999199 15.0234 1.57845C15.2721 1.82383 15.5088 2.10472 15.7314 2.41113C16.6573 1.64281 17.5771 1.07498 18.4936 0.733703C18.8375 0.606327 19.1801 0.51048 19.524 0.447463C19.276 0.384379 19.0145 0.351562 18.7383 0.351562Z" fill="#14559A"/>
<path d="M25.8724 14.2118C26.2392 13.9202 26.6066 13.5977 26.9746 13.2458C25.4481 8.67274 24.9017 0.359375 20.4775 0.359375C20.161 0.359375 19.8419 0.388872 19.5234 0.447865C23.5534 1.45019 24.0696 10.2181 25.8724 14.2118Z" fill="url(#paint2_linear_248_323005)"/>
<path d="M19.524 0.447396C19.276 0.384379 19.0145 0.351562 18.7383 0.351562L20.4781 0.357937C20.1616 0.357937 19.8425 0.387434 19.524 0.447131" fill="#3092C4"/>
<path d="M25.7955 15.1816C25.6225 15.0167 25.4583 14.8357 25.2967 14.6426C24.5525 15.1695 23.811 15.5691 23.0742 15.8292C23.3363 15.9573 23.6112 16.0525 23.9029 16.1115C24.1288 16.1576 24.3628 16.1812 24.6088 16.1812C25.4355 16.1812 26.0891 16.0834 26.6456 15.8165C26.3392 15.6509 26.0583 15.4364 25.7955 15.1816Z" fill="#1969BC"/>
<path d="M18.4922 0.734914C22.1018 2.62284 22.4156 11.1722 25.2957 14.6437C25.4888 14.5076 25.6799 14.3635 25.871 14.2112C24.0682 10.2175 23.5526 1.44889 19.5233 0.447266C19.1794 0.511624 18.8361 0.606887 18.4922 0.734914Z" fill="url(#paint3_linear_248_323005)"/>
<path d="M15.7305 2.4111C18.498 6.20107 19.4889 14.0733 23.0737 15.8298C23.8105 15.5697 24.552 15.1701 25.2962 14.6432C22.416 11.1717 22.1023 2.6223 18.4926 0.734375C17.5762 1.07495 16.6563 1.64278 15.7305 2.4111Z" fill="url(#paint4_linear_248_323005)"/>
<path d="M12.8853 3.28035C12.4515 4.26123 12.0083 5.55043 11.4727 7.23322C12.538 5.7321 13.5999 4.43886 14.6559 3.39101C14.5104 2.9438 14.3542 2.5315 14.1859 2.16406C13.7541 2.49461 13.319 2.86672 12.8853 3.28035Z" fill="url(#paint5_linear_248_323005)"/>
<path d="M14.5677 1.88086C14.4403 1.97203 14.3123 2.06525 14.1836 2.16378C14.3518 2.53118 14.5074 2.94352 14.6529 3.39067C14.8446 3.20295 15.035 3.02128 15.2254 2.84762C15.0209 2.4963 14.8037 2.17181 14.5677 1.88086Z" fill="#2B74B1"/>
<path d="M15.0249 1.57812C14.8733 1.67403 14.7225 1.77522 14.5703 1.88115C14.8063 2.17212 15.0235 2.49661 15.2287 2.84862C15.397 2.69641 15.5652 2.5496 15.7328 2.4108C15.5103 2.10444 15.2736 1.8235 15.0249 1.57812Z" fill="#125A9E"/>
<path d="M39.6452 0.00184603C37.6037 7.87471 33.3397 14.1982 29.765 15.7925H29.7582C29.6932 15.822 29.6288 15.8488 29.5651 15.8749C29.5564 15.8803 29.5484 15.8809 29.5416 15.8841C29.5228 15.8917 29.5054 15.8975 29.4866 15.905C29.4779 15.9103 29.4699 15.9121 29.4619 15.9153C29.4317 15.926 29.4022 15.9351 29.3727 15.9469C29.36 15.9522 29.3479 15.9555 29.3358 15.9598C29.3224 15.9651 29.3069 15.97 29.2915 15.9743C29.2781 15.9796 29.2641 15.9834 29.2486 15.9893C29.2359 15.9946 29.2225 15.9969 29.2105 16.0022C29.1843 16.0097 29.1602 16.0161 29.134 16.0252C29.1233 16.0252 29.1133 16.0311 29.1018 16.0339C29.0857 16.0392 29.0676 16.043 29.0502 16.0478C29.0381 16.0531 29.0281 16.0548 29.0153 16.0575C28.9972 16.0628 28.9771 16.0677 28.959 16.072C28.9349 16.0773 28.9134 16.0822 28.8906 16.087C29.0522 16.1467 29.2205 16.1768 29.4022 16.1768C32.7919 16.1768 36.2097 10.1021 41.8648 0H39.6443L39.6452 0.00184603Z" fill="url(#paint6_linear_248_323005)"/>
<path d="M10.7355 0.670512C10.7376 0.670512 10.7403 0.665199 10.7416 0.665199C10.7443 0.665199 10.7484 0.665199 10.7497 0.659887H10.754C10.7728 0.653512 10.7902 0.645942 10.809 0.63897C10.8137 0.63897 10.8163 0.63897 10.8197 0.633657C10.8245 0.633657 10.8291 0.628345 10.8338 0.627681C10.8539 0.621306 10.874 0.613736 10.8928 0.606764H10.896C10.941 0.593364 10.9825 0.576736 11.0261 0.561184C11.0322 0.561184 11.0382 0.555872 11.0455 0.555872C11.0636 0.550029 11.0824 0.543521 11.1011 0.539245C11.1099 0.533932 11.1186 0.533932 11.1266 0.531143C11.146 0.5253 11.1649 0.518792 11.1829 0.514516C11.191 0.514516 11.1984 0.509203 11.2044 0.508672C11.2667 0.491513 11.3284 0.475417 11.3908 0.460397C11.3995 0.460397 11.4069 0.455084 11.4162 0.454553C11.4343 0.449241 11.4511 0.446452 11.4705 0.443796C11.4786 0.438483 11.488 0.438483 11.4974 0.435694C11.5154 0.430382 11.5329 0.429851 11.5523 0.425468H11.5651C11.6026 0.417898 11.6408 0.411523 11.6784 0.404551H11.7012C11.7193 0.399239 11.7354 0.398707 11.7535 0.395387C11.7634 0.395387 11.7736 0.390075 11.783 0.390075C11.7997 0.390075 11.8165 0.384763 11.8332 0.382505C11.842 0.382505 11.8507 0.382505 11.8608 0.377193C11.9003 0.37188 11.9412 0.369755 11.9828 0.366435C11.8654 0.355147 11.7448 0.347656 11.6221 0.347656C7.80463 0.347656 2.54509 7.43075 0.175781 16.6036H0.632346C1.3906 15.2514 2.07176 13.9722 2.6946 12.7714C4.35392 6.27428 7.73356 1.84336 10.7358 0.669462" fill="url(#paint7_linear_248_323005)"/>
<path d="M12.8828 3.28136C13.3166 2.86774 13.7517 2.49562 14.1834 2.16513C14.0849 1.94925 13.983 1.74946 13.8737 1.56641C13.5244 1.99012 13.2053 2.54926 12.8828 3.28136Z" fill="#0D82CA"/>
<path d="M13.1967 0.724001C13.4461 0.933173 13.6693 1.22081 13.8738 1.56542C13.9382 1.4863 14.0033 1.41321 14.071 1.34482C13.7874 1.08002 13.481 0.862798 13.1484 0.699219C13.1619 0.706656 13.1753 0.712632 13.1892 0.718529C13.1892 0.718529 13.1945 0.723841 13.1968 0.723841" fill="#0D82CA"/>
<path d="M2.69531 12.7719C6.1762 6.06422 7.82546 1.81904 10.7365 0.669922C7.73495 1.84457 4.35463 6.27543 2.69531 12.7719Z" fill="url(#paint8_linear_248_323005)"/>
<path d="M14.0721 1.3457C14.0044 1.41479 13.9401 1.4872 13.875 1.56631C13.9843 1.74931 14.0862 1.94845 14.1854 2.16498C14.3142 2.06645 14.4422 1.97323 14.5696 1.88206C14.412 1.68763 14.2458 1.5073 14.0721 1.3457Z" fill="#127BCA"/>
<path d="M4.27502 16.5743C4.25357 16.5796 4.23211 16.5796 4.212 16.5818H4.19993C4.1818 16.5818 4.16303 16.5871 4.14629 16.5871H4.13756C4.094 16.5925 4.05107 16.5925 4.0095 16.5958H3.99609C7.51922 16.4972 9.12959 14.7333 9.92875 12.1749C10.5362 10.2353 11.035 8.60148 11.4721 7.23047C9.99647 9.30747 8.51413 11.7834 7.02377 14.5569C6.30506 15.8938 5.21226 16.4522 4.27499 16.5716" fill="url(#paint9_linear_248_323005)"/>
<path d="M4.27344 16.5733C5.2107 16.4539 6.30351 15.8961 7.02221 14.5587C8.51258 11.7857 9.99557 9.30918 11.4699 7.23217C12.0062 5.54869 12.4487 4.26017 12.8831 3.2793C9.94463 6.07635 6.99472 10.7272 4.27344 16.572" fill="url(#paint10_linear_248_323005)"/>
<path d="M2.69506 12.7734C2.07226 13.9742 1.3911 15.2534 0.632812 16.6056H1.96097C2.13662 15.2627 2.38602 13.9822 2.69506 12.7741" fill="#05A1E6"/>
<path d="M11.8618 0.381083C11.851 0.381083 11.843 0.386396 11.8336 0.386396C11.8175 0.391708 11.8007 0.391708 11.784 0.393435C11.774 0.393435 11.7646 0.393435 11.7545 0.398747C11.7364 0.404059 11.7196 0.40459 11.7022 0.407911C11.6941 0.407911 11.6861 0.407911 11.6794 0.413223C11.6411 0.419598 11.6036 0.426636 11.5661 0.433064H11.5533C11.5339 0.438377 11.5164 0.441166 11.4984 0.443822C11.4889 0.449134 11.4796 0.449134 11.4708 0.451259C11.4528 0.456571 11.4346 0.458829 11.4172 0.462016C11.4078 0.467329 11.4005 0.467329 11.3917 0.46786C11.3294 0.48288 11.2677 0.498977 11.2054 0.516136C11.1987 0.516136 11.192 0.521448 11.1839 0.52251C11.1651 0.527823 11.147 0.533268 11.1276 0.539138C11.1195 0.54445 11.1102 0.54445 11.1021 0.546575C11.0833 0.551887 11.0646 0.557332 11.0465 0.563203C11.0392 0.563203 11.0331 0.568515 11.0264 0.568515C10.9834 0.584598 10.9412 0.600694 10.897 0.614108C10.8782 0.619951 10.8581 0.627508 10.838 0.63448C10.8299 0.639793 10.8225 0.640988 10.8132 0.644707C10.7944 0.65055 10.7756 0.65812 10.7582 0.665093C10.7516 0.670405 10.7448 0.670936 10.7401 0.673725C7.82911 1.82284 6.17985 6.06803 2.69897 12.7757C2.3899 13.9839 2.13983 15.2644 1.96484 16.6072H2.15122C2.67617 16.6072 2.82434 16.6019 3.4284 16.6019H3.45924H3.54907H3.57991H3.58865H3.61949H3.63692H3.649H3.67313H3.74822H3.82331H3.88633H3.90306H4.01368C4.05525 16.5966 4.09816 16.5966 4.14174 16.5933H4.14979C4.16791 16.5933 4.18599 16.588 4.20342 16.588H4.21613C4.23554 16.588 4.2577 16.5827 4.27915 16.5804C7.00044 10.7356 9.95033 6.08476 12.8888 3.28771C13.212 2.55561 13.5304 1.99646 13.8791 1.57344C13.6753 1.22885 13.452 0.940562 13.2026 0.731337C13.2026 0.731337 13.1958 0.731337 13.1953 0.726025C13.1812 0.720181 13.1679 0.713142 13.1537 0.706183C13.1396 0.698613 13.1276 0.69277 13.1129 0.685266C13.1001 0.679954 13.0854 0.672915 13.0726 0.665956C13.0552 0.660643 13.0411 0.653073 13.0257 0.646101C13.013 0.640789 13.0016 0.635344 12.9888 0.630018C12.9626 0.619792 12.9365 0.609101 12.9117 0.597839C12.9003 0.592526 12.8896 0.589737 12.8788 0.585488C12.8608 0.57898 12.8399 0.570467 12.8212 0.562419C12.8118 0.557107 12.8011 0.556044 12.7903 0.552193C12.7629 0.543029 12.736 0.533427 12.7106 0.524834H12.7039C12.6731 0.514608 12.6429 0.507144 12.6114 0.498552C12.6041 0.493239 12.598 0.493239 12.5906 0.492177C12.5631 0.484607 12.539 0.477156 12.5129 0.470184C12.5062 0.470184 12.5001 0.464872 12.4948 0.464872C12.4318 0.448244 12.3667 0.434844 12.301 0.422506C12.2943 0.422506 12.2876 0.417194 12.2809 0.417194C12.2528 0.411881 12.2253 0.406968 12.1971 0.40378C12.1903 0.398468 12.1864 0.398468 12.1804 0.398468C12.1469 0.393156 12.114 0.389304 12.0812 0.385586H12.0637C12.0369 0.380273 12.0121 0.379742 11.9873 0.376953C11.945 0.382265 11.9048 0.384523 11.8653 0.388242" fill="url(#paint11_linear_248_323005)"/>
<path d="M31.6724 4.35943C31.0026 6.50482 30.4603 8.27476 29.9883 9.73094C31.8259 7.20207 33.6361 4.02084 35.3598 0.349609C33.3492 0.981096 32.2765 2.4266 31.6724 4.35943Z" fill="url(#paint12_linear_248_323005)"/>
<path d="M30.0459 15.6585C29.952 15.7063 29.8582 15.7517 29.7656 15.7926C33.3404 14.1983 37.6043 7.87482 39.6458 0.00195312H39.2321C34.5418 8.38032 33.0333 13.9892 30.0459 15.6585Z" fill="url(#paint13_linear_248_323005)"/>
<path d="M27.7087 14.9551C28.4864 14.0058 29.12 12.3921 29.9849 9.73242C28.9872 11.1028 27.983 12.2808 26.978 13.2415C26.978 13.2468 26.978 13.2468 26.9727 13.2501C27.1919 13.9071 27.4326 14.487 27.7068 14.955" fill="#079AE1"/>
<path d="M27.7092 14.9551C27.4443 15.2782 27.1641 15.5243 26.8524 15.7067C26.784 15.7464 26.715 15.7837 26.6445 15.818C26.9737 15.9956 27.333 16.1143 27.7353 16.1619C27.7942 16.1677 27.8526 16.1732 27.9136 16.1774H27.9244C27.9518 16.1774 27.9807 16.1774 28.0102 16.1827H28.022H28.1099H28.2045H28.234H28.301C28.3118 16.1827 28.323 16.1827 28.3337 16.1774C28.3546 16.1774 28.3766 16.1774 28.3981 16.1721H28.4056H28.4298C28.4518 16.1721 28.4759 16.1668 28.4995 16.1645H28.5048C28.5118 16.1645 28.5193 16.1592 28.5263 16.1592C28.5509 16.1539 28.5767 16.1516 28.6007 16.1479H28.6227C28.65 16.1426 28.6783 16.1393 28.7065 16.134H28.7118H28.7199C28.7762 16.1232 28.8312 16.1125 28.8868 16.0986C28.4255 15.9296 28.0394 15.5314 27.7068 14.9642" fill="#1969BC"/>
<path d="M21.1211 16.1821C21.4557 16.1821 21.7936 16.1494 22.1328 16.0842C22.4466 16.0272 22.761 15.94 23.0761 15.8301C23.3382 15.9582 23.6131 16.0534 23.9041 16.1124C24.13 16.1585 24.3646 16.1821 24.6107 16.1821H21.1211Z" fill="#1E5CB3"/>
<path d="M24.6078 16.1831C25.4338 16.1831 26.0881 16.0852 26.644 15.8184C26.9731 15.996 27.3325 16.1147 27.7347 16.1623C27.7937 16.1682 27.8521 16.1736 27.9131 16.1779H27.9238C27.9512 16.1779 27.9801 16.1779 28.0096 16.1832H28.022H28.1098H24.6055L24.6078 16.1831Z" fill="#1E5CB3"/>
<path d="M28.1133 16.1825H28.2085H28.238H28.3044C28.3157 16.1825 28.3264 16.1825 28.3371 16.1772C28.358 16.1772 28.38 16.1772 28.4022 16.1719H28.4092H28.4339C28.4559 16.1719 28.48 16.1666 28.503 16.1645H28.5088C28.5158 16.1645 28.5227 16.1592 28.5297 16.1592C28.5544 16.1538 28.5801 16.1517 28.6041 16.1479C28.6122 16.1479 28.6186 16.1479 28.6272 16.1426C28.6545 16.1372 28.6828 16.1345 28.711 16.1292H28.7163H28.7244C28.7807 16.1184 28.8357 16.1077 28.8913 16.0938C29.0529 16.1534 29.2212 16.1836 29.4028 16.1836L28.1143 16.1889L28.1133 16.1825Z" fill="#1D60B5"/>
<path d="M26.9749 13.2495V13.2441C26.6069 13.5961 26.2395 13.9186 25.8727 14.2102C25.681 14.3624 25.49 14.5065 25.2969 14.6427C25.4584 14.8357 25.6227 15.0168 25.7957 15.1817C26.0585 15.4364 26.3394 15.651 26.6458 15.8166C26.7155 15.7822 26.7852 15.7448 26.8529 15.7053C27.1653 15.5229 27.4456 15.2769 27.7104 14.9537C27.4362 14.4858 27.1955 13.9058 26.9763 13.2488" fill="#175FAB"/>
<path d="M37.9201 0.00195312H36.181H36.008H35.8444H35.838C35.7254 0.00726543 35.6162 0.0111169 35.5082 0.0180494C35.4572 0.127363 35.4049 0.236664 35.3546 0.346616C33.631 4.01784 31.8208 7.19908 29.9832 9.72795C29.119 12.3875 28.4847 14.0013 27.707 14.9506C28.0396 15.5178 28.4264 15.9167 28.8863 16.0856C28.8997 16.0803 28.9105 16.0803 28.9225 16.0775H28.93C28.9381 16.0775 28.9467 16.0722 28.9555 16.0722C28.9742 16.0669 28.9943 16.0636 29.0131 16.0577C29.0252 16.0524 29.0352 16.0519 29.0473 16.048C29.0648 16.0427 29.0828 16.0389 29.0989 16.0346C29.1097 16.0293 29.1204 16.0276 29.1311 16.0255C29.1579 16.0168 29.182 16.0105 29.2075 16.0024C29.2196 15.9971 29.2324 15.9927 29.2458 15.9895C29.2605 15.9842 29.2753 15.9804 29.2887 15.974C29.3041 15.9687 29.3195 15.9659 29.3329 15.96C29.345 15.9547 29.3577 15.9514 29.3691 15.9466C29.3993 15.9359 29.4288 15.9268 29.459 15.915C29.4671 15.915 29.4751 15.9075 29.4838 15.9058C29.5019 15.8982 29.5207 15.8924 29.5388 15.8843C29.5454 15.879 29.5535 15.8785 29.5622 15.8757C29.6252 15.8494 29.6903 15.8226 29.7553 15.7933H29.7621C29.8546 15.7525 29.9485 15.7068 30.0416 15.6592C33.0298 13.9898 34.5383 8.38097 39.2286 0.00260388H37.9186L37.9201 0.00195312Z" fill="url(#paint14_linear_248_323005)"/>
<path d="M11.9844 0.369444C11.9918 0.369444 11.9985 0.369444 12.0058 0.374757C12.0239 0.374757 12.042 0.374757 12.0601 0.3806H12.0783C12.1111 0.385913 12.144 0.388701 12.1775 0.393483C12.1836 0.393483 12.1889 0.393483 12.1942 0.398795C12.2217 0.404107 12.2499 0.40849 12.278 0.41274C12.2841 0.41274 12.2921 0.418052 12.2988 0.418052C12.3632 0.430934 12.4289 0.444335 12.4919 0.460962C12.4979 0.460962 12.504 0.466274 12.5094 0.466274C12.5362 0.472649 12.5603 0.48075 12.5871 0.488254C12.5952 0.488254 12.6012 0.493566 12.6086 0.494762C12.6401 0.502863 12.6696 0.510858 12.7004 0.521044C12.7017 0.521044 12.7036 0.521044 12.7072 0.526357C12.7333 0.534325 12.7601 0.544591 12.7876 0.553702C12.7984 0.559014 12.8084 0.561272 12.8185 0.563928C12.8373 0.572029 12.8581 0.580011 12.8761 0.587528C12.8869 0.587528 12.8976 0.594965 12.909 0.598816C12.9337 0.610105 12.9599 0.620265 12.9854 0.630996C12.9988 0.636308 13.0102 0.642284 13.0229 0.647079C13.0377 0.654649 13.0531 0.661568 13.0692 0.666934C13.0826 0.673308 13.0973 0.680334 13.11 0.68623C13.1241 0.693801 13.1375 0.699644 13.151 0.707148C13.4835 0.87074 13.7899 1.08865 14.0735 1.35281C14.1781 1.24285 14.2873 1.14427 14.4007 1.05578C13.7805 0.615975 13.0779 0.365234 12.2673 0.365234C12.1735 0.365234 12.0796 0.370547 11.9844 0.377586" fill="#7DCBEC"/>
<path d="M14.0703 1.34585C14.244 1.5074 14.4102 1.68778 14.5678 1.88221C14.72 1.77628 14.8708 1.67437 15.0223 1.57917C14.8239 1.38071 14.6147 1.20238 14.3968 1.04883C14.2835 1.13668 14.1749 1.2359 14.0703 1.34585Z" fill="#5EC5ED"/>
<path d="M11.9818 0.370351C12.077 0.362305 12.1708 0.358953 12.2647 0.358953C13.0753 0.358953 13.7779 0.609695 14.398 1.04883C15.0524 0.532595 15.8435 0.352249 16.9423 0.352249H11.6211C11.7438 0.352249 11.8638 0.359624 11.9818 0.370351Z" fill="url(#paint15_linear_248_323005)"/>
<path d="M16.9427 0.351234C15.8439 0.351234 15.0528 0.53158 14.3984 1.04781C14.6157 1.20134 14.8248 1.37968 15.0233 1.57812C15.9344 0.998871 16.8368 0.615384 17.7265 0.447776C18.0657 0.384085 18.4043 0.351234 18.7381 0.351234H16.9427Z" fill="url(#paint16_linear_248_323005)"/>
<path d="M29.9867 9.73272C30.4593 8.2752 31.0004 6.50596 31.6715 4.35987C32.2762 2.42635 33.3469 0.9809 35.3575 0.35005C35.4106 0.242078 35.4608 0.130785 35.5124 0.0214844C32.2346 0.217947 30.7027 1.88528 29.9317 4.35452C28.5835 8.66539 27.7669 11.4598 26.9805 13.2404C27.9848 12.2804 28.9891 11.1017 29.9867 9.73272Z" fill="url(#paint17_linear_248_323005)"/>
<path d="M34.7941 15.0339H34.4227V16.1884H34.2712V15.0339H33.8984V14.8965H34.7941V15.0339Z" fill="black"/>
<path d="M36.3162 16.1884H36.1653V15.3208C36.1653 15.2524 36.1707 15.1687 36.1777 15.0701C36.1621 15.1291 36.1493 15.17 36.1375 15.1961L35.6977 16.1884H35.6239L35.1828 15.2035C35.1699 15.1762 35.157 15.1318 35.1431 15.0701H35.1378C35.1431 15.1221 35.1448 15.2062 35.1448 15.3229V16.1884H35V14.8965H35.1998L35.596 15.7982C35.626 15.8659 35.6448 15.9182 35.6543 15.9531H35.6602C35.6865 15.882 35.7079 15.829 35.7226 15.7942L36.1268 14.8965H36.3172V16.1884H36.3162Z" fill="black"/>
</g>
<defs>
<linearGradient id="paint0_linear_248_323005" x1="18.3944" y1="0.245463" x2="18.3944" y2="20.1314" gradientUnits="userSpaceOnUse">
<stop stop-color="#0994DC"/>
<stop offset="0.350006" stop-color="#66CEF5"/>
<stop offset="0.846161" stop-color="#127BCA"/>
<stop offset="1" stop-color="#127BCA"/>
</linearGradient>
<linearGradient id="paint1_linear_248_323005" x1="19.1503" y1="-0.256434" x2="19.1503" y2="20.1363" gradientUnits="userSpaceOnUse">
<stop stop-color="#0E76BC"/>
<stop offset="0.360001" stop-color="#36AEE8"/>
<stop offset="0.846161" stop-color="#00ADEF"/>
<stop offset="1" stop-color="#00ADEF"/>
</linearGradient>
<linearGradient id="paint2_linear_248_323005" x1="23.249" y1="15.7248" x2="23.249" y2="-0.501411" gradientUnits="userSpaceOnUse">
<stop stop-color="#1C63B7"/>
<stop offset="0.5" stop-color="#33BDF2"/>
<stop offset="1" stop-color="#33BDF2" stop-opacity="0.419608"/>
</linearGradient>
<linearGradient id="paint3_linear_248_323005" x1="22.1816" y1="-2.32317" x2="22.1816" y2="18.8497" gradientUnits="userSpaceOnUse">
<stop stop-color="#166AB8"/>
<stop offset="0.399994" stop-color="#36AEE8"/>
<stop offset="0.846161" stop-color="#0798DD"/>
<stop offset="1" stop-color="#0798DD"/>
</linearGradient>
<linearGradient id="paint4_linear_248_323005" x1="20.5132" y1="-2.21243" x2="20.5132" y2="20.3021" gradientUnits="userSpaceOnUse">
<stop stop-color="#124379"/>
<stop offset="0.389999" stop-color="#1487CB"/>
<stop offset="0.780228" stop-color="#165197"/>
<stop offset="1" stop-color="#165197"/>
</linearGradient>
<linearGradient id="paint5_linear_248_323005" x1="11.4727" y1="4.69867" x2="14.6559" y2="4.69867" gradientUnits="userSpaceOnUse">
<stop stop-color="#33BDF2" stop-opacity="0.698039"/>
<stop offset="1" stop-color="#1DACD8"/>
</linearGradient>
<linearGradient id="paint6_linear_248_323005" x1="35.379" y1="15.3173" x2="35.379" y2="-0.489281" gradientUnits="userSpaceOnUse">
<stop stop-color="#136AB4"/>
<stop offset="0.6" stop-color="#59CAF5" stop-opacity="0.54902"/>
<stop offset="1" stop-color="#59CAF5" stop-opacity="0.235294"/>
</linearGradient>
<linearGradient id="paint7_linear_248_323005" x1="0.175691" y1="8.47558" x2="11.9827" y2="8.47558" gradientUnits="userSpaceOnUse">
<stop stop-color="#05A1E6" stop-opacity="0.247059"/>
<stop offset="1" stop-color="#05A1E6"/>
</linearGradient>
<linearGradient id="paint8_linear_248_323005" x1="6.71576" y1="15.7144" x2="6.71576" y2="-0.470253" gradientUnits="userSpaceOnUse">
<stop stop-color="#318ED5"/>
<stop offset="1" stop-color="#38A7E4"/>
</linearGradient>
<linearGradient id="paint9_linear_248_323005" x1="7.73399" y1="15.7716" x2="7.73399" y2="0.0392828" gradientUnits="userSpaceOnUse">
<stop stop-color="#05A1E6"/>
<stop offset="1" stop-color="#05A1E6" stop-opacity="0.54902"/>
</linearGradient>
<linearGradient id="paint10_linear_248_323005" x1="8.57829" y1="16.5747" x2="8.57829" y2="3.28065" gradientUnits="userSpaceOnUse">
<stop stop-color="#1959A6"/>
<stop offset="0.5" stop-color="#05A1E6"/>
<stop offset="0.917587" stop-color="#7EC5EA"/>
<stop offset="1" stop-color="#7EC5EA"/>
</linearGradient>
<linearGradient id="paint11_linear_248_323005" x1="9.09004" y1="15.7256" x2="4.5837" y2="1.95391" gradientUnits="userSpaceOnUse">
<stop stop-color="#165096"/>
<stop offset="1" stop-color="#0D82CA"/>
</linearGradient>
<linearGradient id="paint12_linear_248_323005" x1="32.6738" y1="7.57306" x2="32.6738" y2="0.0401251" gradientUnits="userSpaceOnUse">
<stop stop-color="#05A1E6"/>
<stop offset="0.873627" stop-color="#0495D6"/>
<stop offset="1" stop-color="#0495D6"/>
</linearGradient>
<linearGradient id="paint13_linear_248_323005" x1="36.2137" y1="-0.655166" x2="29.193" y2="14.9328" gradientUnits="userSpaceOnUse">
<stop stop-color="#38A7E4" stop-opacity="0.329412"/>
<stop offset="0.961533" stop-color="#0E88D3"/>
<stop offset="1" stop-color="#0E88D3"/>
</linearGradient>
<linearGradient id="paint14_linear_248_323005" x1="33.4697" y1="-0.0456186" x2="33.4697" y2="16.3883" gradientUnits="userSpaceOnUse">
<stop stop-color="#168CD4"/>
<stop offset="0.5" stop-color="#1C87CC"/>
<stop offset="1" stop-color="#154B8D"/>
</linearGradient>
<linearGradient id="paint15_linear_248_323005" x1="12.5083" y1="-0.383094" x2="12.5796" y2="1.34046" gradientUnits="userSpaceOnUse">
<stop stop-color="#97D6EE"/>
<stop offset="0.703293" stop-color="#55C1EA"/>
<stop offset="1" stop-color="#55C1EA"/>
</linearGradient>
<linearGradient id="paint16_linear_248_323005" x1="14.6975" y1="1.50083" x2="15.0193" y2="-0.32489" gradientUnits="userSpaceOnUse">
<stop stop-color="#7ACCEC"/>
<stop offset="1" stop-color="#3FB7ED"/>
</linearGradient>
<linearGradient id="paint17_linear_248_323005" x1="31.2462" y1="0.862582" x2="31.2462" y2="16.9366" gradientUnits="userSpaceOnUse">
<stop stop-color="#1DA7E7"/>
<stop offset="1" stop-color="#37ABE7" stop-opacity="0"/>
</linearGradient>
<clipPath id="clip0_248_323005">
<rect width="41.9672" height="40" fill="white" transform="translate(0.015625)"/>
</clipPath>
</defs>
</svg>
