<svg width="36" height="40" viewBox="0 0 36 40" fill="none" xmlns="http://www.w3.org/2000/svg">
<path d="M18.0014 39.9258C17.4512 39.9258 16.9377 39.7791 16.4609 39.5223L11.5825 36.6246C10.8489 36.2211 11.2157 36.0744 11.4358 36.0011C12.4261 35.6709 12.6095 35.5976 13.6365 35.0107C13.7466 34.9374 13.8933 34.974 14.0033 35.0474L17.7447 37.2848C17.8914 37.3582 18.0748 37.3582 18.1848 37.2848L32.82 28.8119C32.9667 28.7385 33.0401 28.5918 33.0401 28.4084V11.4991C33.0401 11.3157 32.9667 11.1689 32.82 11.0956L18.1848 2.65927C18.0381 2.58591 17.8547 2.58591 17.7447 2.65927L3.10949 11.0956C2.96277 11.1689 2.88941 11.3523 2.88941 11.4991V28.4084C2.88941 28.5551 2.96277 28.7385 3.10949 28.8119L7.10757 31.1227C9.27167 32.2231 10.6288 30.9393 10.6288 29.6555V12.9663C10.6288 12.7462 10.8122 12.5261 11.069 12.5261H12.9396C13.1597 12.5261 13.3798 12.7095 13.3798 12.9663V29.6555C13.3798 32.5532 11.8026 34.2404 9.05159 34.2404C8.20796 34.2404 7.54772 34.2404 5.67706 33.3234L1.8257 31.1227C0.87203 30.5725 0.285156 29.5454 0.285156 28.4451V11.5357C0.285156 10.4354 0.87203 9.40833 1.8257 8.85813L16.4609 0.385136C17.3779 -0.128379 18.625 -0.128379 19.542 0.385136L34.1771 8.85813C35.1308 9.40833 35.7177 10.4354 35.7177 11.5357V28.4451C35.7177 29.5454 35.1308 30.5725 34.1771 31.1227L19.542 39.5957C19.0651 39.8157 18.5149 39.9258 18.0014 39.9258ZM22.513 28.2983C16.0941 28.2983 14.7736 25.364 14.7736 22.8698C14.7736 22.6497 14.957 22.4296 15.2138 22.4296H17.1211C17.3412 22.4296 17.5246 22.5763 17.5246 22.7964C17.818 24.7404 18.6617 25.6941 22.5497 25.6941C25.6308 25.6941 26.9512 24.9972 26.9512 23.3466C26.9512 22.3929 26.5845 21.696 21.7794 21.2192C17.7813 20.8157 15.2871 19.9354 15.2871 16.7443C15.2871 13.7732 17.7813 12.0126 21.9628 12.0126C26.6578 12.0126 28.9686 13.6265 29.2621 17.1477C29.2621 17.2578 29.2254 17.3678 29.152 17.4778C29.0787 17.5512 28.9686 17.6246 28.8586 17.6246H26.9512C26.7679 17.6246 26.5845 17.4778 26.5478 17.2944C26.1076 15.2771 24.9706 14.6168 21.9628 14.6168C18.5883 14.6168 18.1848 15.7906 18.1848 16.6709C18.1848 17.7346 18.6617 18.0647 23.2099 18.6516C27.7215 19.2385 29.8489 20.0821 29.8489 23.2365C29.8123 26.4644 27.1713 28.2983 22.513 28.2983Z" fill="#539E43"/>
</svg>
