<svg width="62" height="32" viewBox="0 0 62 32" fill="none" xmlns="http://www.w3.org/2000/svg">
<g clip-path="url(#clip0_248_323013)">
<path d="M31.0009 31.9052C47.7576 31.9052 61.3416 24.763 61.3416 15.9526C61.3416 7.14222 47.7576 0 31.0009 0C14.2442 0 0.660156 7.14222 0.660156 15.9526C0.660156 24.763 14.2442 31.9052 31.0009 31.9052Z" fill="url(#paint0_radial_248_323013)"/>
<path d="M30.9993 30.7204C47.1015 30.7204 60.1549 24.1088 60.1549 15.953C60.1549 7.79714 47.1015 1.18555 30.9993 1.18555C14.8971 1.18555 1.84375 7.79714 1.84375 15.953C1.84375 24.1088 14.8971 30.7204 30.9993 30.7204Z" fill="#6181B6"/>
<path d="M36.903 20.7408L38.3489 13.2978C38.6808 11.6148 38.3964 10.3585 37.543 9.57632C36.7134 8.8178 35.2912 8.43854 33.2052 8.43854H30.6926L31.4038 4.74076C31.4275 4.59854 31.4038 4.45632 31.3089 4.3378C31.2141 4.21928 31.0956 4.17188 30.9534 4.17188H27.4926C27.2556 4.17188 27.066 4.3378 27.0186 4.55113L25.4778 12.4445C25.3356 11.5437 25.0038 10.7852 24.4349 10.1689C23.4156 9.00743 21.8275 8.41484 19.6704 8.41484H13.0097C12.7726 8.41484 12.583 8.58076 12.5356 8.7941L9.43042 24.8178C9.40672 24.96 9.43042 25.1022 9.52524 25.2208C9.62005 25.3393 9.73857 25.3867 9.8808 25.3867H13.3652C13.6023 25.3867 13.7919 25.2208 13.8393 25.0074L14.5978 21.1437H17.1815C18.5326 21.1437 19.6941 21.0015 20.5712 20.7171C21.4956 20.4089 22.3252 19.9111 23.0601 19.2237C23.6526 18.6785 24.1504 18.0622 24.5297 17.3985L23.9134 20.5985C23.8897 20.7408 23.9134 20.883 24.0082 21.0015C24.103 21.12 24.2215 21.1674 24.3638 21.1674H27.8245C28.0615 21.1674 28.2512 21.0015 28.2986 20.7882L30.0052 12.0178H32.3756C33.3949 12.0178 33.6793 12.2074 33.7741 12.3022C33.8452 12.3734 33.9875 12.6578 33.8215 13.5348L32.4467 20.6222C32.423 20.7645 32.4467 20.9067 32.5415 21.0252C32.6363 21.1437 32.7549 21.1911 32.8971 21.1911H36.4526C36.666 21.12 36.8556 20.9541 36.903 20.7408ZM20.8793 14.5778C20.666 15.6919 20.263 16.4978 19.6704 16.9482C19.0778 17.3985 18.106 17.6356 16.826 17.6356H15.2852L16.3993 11.8993H18.3904C19.8601 11.8993 20.4526 12.2074 20.6897 12.4682C20.9978 12.8474 21.0689 13.5822 20.8793 14.5778Z" fill="white"/>
<path d="M51.6932 10.1681C50.674 9.00666 49.0858 8.41406 46.9288 8.41406H40.2206C39.9836 8.41406 39.794 8.57999 39.7465 8.79332L36.6414 24.7933C36.6177 24.9355 36.6414 25.0778 36.7362 25.1963C36.831 25.3148 36.9495 25.3622 37.0917 25.3622H40.5762C40.8132 25.3622 41.0028 25.1963 41.0502 24.983L41.8088 21.1192H44.3925C45.7436 21.1192 46.9051 20.977 47.7821 20.6926C48.7065 20.3844 49.5362 19.8867 50.271 19.1992C50.8873 18.6304 51.4088 17.9904 51.788 17.303C52.1673 16.6155 52.4517 15.857 52.6177 15.0274C53.0206 12.9652 52.7125 11.3533 51.6932 10.1681ZM48.0665 14.577C47.8532 15.6911 47.4502 16.497 46.8577 16.9474C46.2651 17.3978 45.2932 17.6348 44.0132 17.6348H42.4725L43.5865 11.8985H45.5777C47.0473 11.8985 47.6399 12.2067 47.8769 12.4674C48.2088 12.8467 48.2799 13.5815 48.0665 14.577Z" fill="white"/>
<path d="M18.3922 11.425C19.7196 11.425 20.5966 11.662 21.047 12.1598C21.4974 12.6576 21.5922 13.4872 21.3551 14.6724C21.1181 15.905 20.644 16.8057 19.9566 17.3272C19.2692 17.8487 18.2262 18.1094 16.8277 18.1094H14.7181L16.0218 11.425H18.3922ZM9.90625 24.8887H13.3907L14.2203 20.6457H17.207C18.5344 20.6457 19.6011 20.5035 20.4544 20.219C21.3077 19.9346 22.0663 19.4842 22.7774 18.8205C23.37 18.2753 23.844 17.6827 24.1996 17.0427C24.5551 16.4027 24.8159 15.6916 24.9581 14.9094C25.3374 13.0131 25.0529 11.5435 24.1285 10.4768C23.204 9.41015 21.7344 8.88867 19.7196 8.88867H13.0114L9.90625 24.8887Z" fill="#000004"/>
<path d="M27.5192 4.64648H30.98L30.1504 8.88945H33.2318C35.1755 8.88945 36.503 9.2213 37.2378 9.90871C37.9726 10.5961 38.1859 11.6865 37.9015 13.2035L36.4555 20.6465H32.9474L34.3222 13.5591C34.4881 12.7532 34.417 12.208 34.1563 11.9235C33.8955 11.6391 33.303 11.4732 32.4259 11.4732H29.6526L27.8748 20.6465H24.4141L27.5192 4.64648Z" fill="#000004"/>
<path d="M45.5797 11.425C46.9071 11.425 47.7841 11.662 48.2345 12.1598C48.6849 12.6576 48.7797 13.4872 48.5426 14.6724C48.3056 15.905 47.8315 16.8057 47.1441 17.3272C46.4567 17.8487 45.4138 18.1094 44.0152 18.1094H41.9056L43.2093 11.425H45.5797ZM37.0938 24.8887H40.5782L41.4078 20.6457H44.3945C45.7219 20.6457 46.7886 20.5035 47.6419 20.219C48.4952 19.9346 49.2538 19.4842 49.9649 18.8205C50.5575 18.2753 51.0315 17.6827 51.3871 17.0427C51.7426 16.4027 52.0034 15.6916 52.1456 14.9094C52.5249 13.0131 52.2404 11.5435 51.316 10.4768C50.3915 9.41015 48.9219 8.88867 46.9071 8.88867H40.1989L37.0938 24.8887Z" fill="#000004"/>
</g>
<defs>
<radialGradient id="paint0_radial_248_323013" cx="0" cy="0" r="1" gradientUnits="userSpaceOnUse" gradientTransform="translate(18.8769 5.61012) scale(39.8448)">
<stop stop-color="white"/>
<stop offset="0.5" stop-color="#4C6B97"/>
<stop offset="1" stop-color="#231F20"/>
</radialGradient>
<clipPath id="clip0_248_323013">
<rect width="60.6815" height="32" fill="white" transform="translate(0.660156)"/>
</clipPath>
</defs>
</svg>
