<svg width="42" height="40" viewBox="0 0 42 40" fill="none" xmlns="http://www.w3.org/2000/svg">
<g clip-path="url(#clip0_248_323020)">
<path d="M20.831 0.0117188C10.6612 0.0117195 11.2963 4.42195 11.2963 4.42195L11.3076 8.99089H21.0124V10.3627H7.45295C7.45295 10.3627 0.945313 9.62469 0.945313 19.8861C0.945312 30.1475 6.62532 29.7836 6.62532 29.7836H10.0152V25.0219C10.0152 25.0219 9.83246 19.3419 15.6045 19.3419H25.2299C25.2299 19.3419 30.6378 19.4293 30.6378 14.1154V5.32893C30.6378 5.32893 31.4589 0.0117188 20.831 0.0117188ZM15.4798 3.08414C16.4453 3.08414 17.2257 3.86454 17.2257 4.83009C17.2257 5.79564 16.4453 6.57604 15.4798 6.57604C14.5142 6.57604 13.7338 5.79564 13.7338 4.83009C13.7338 3.86454 14.5142 3.08414 15.4798 3.08414Z" fill="url(#paint0_linear_248_323020)"/>
<path d="M21.1184 39.8633C31.2882 39.8633 30.6531 35.4531 30.6531 35.4531L30.6418 30.8841H20.937V29.5123H34.4964C34.4964 29.5123 41.0041 30.2503 41.0041 19.9889C41.0041 9.72755 35.3241 10.0914 35.3241 10.0914H31.9342V14.8531C31.9342 14.8531 32.1169 20.5331 26.3449 20.5331H16.7195C16.7195 20.5331 11.3116 20.4457 11.3116 25.7596V34.5461C11.3116 34.5461 10.4905 39.8633 21.1184 39.8633ZM26.4696 36.7909C25.5041 36.7909 24.7237 36.0105 24.7237 35.0449C24.7237 34.0794 25.5041 33.299 26.4696 33.299C27.4352 33.299 28.2156 34.0794 28.2156 35.0449C28.2156 36.0105 27.4352 36.7909 26.4696 36.7909Z" fill="url(#paint1_linear_248_323020)"/>
</g>
<defs>
<linearGradient id="paint0_linear_248_323020" x1="4.79518" y1="3.59626" x2="24.6476" y2="23.2506" gradientUnits="userSpaceOnUse">
<stop stop-color="#387EB8"/>
<stop offset="1" stop-color="#366994"/>
</linearGradient>
<linearGradient id="paint1_linear_248_323020" x1="16.9791" y1="16.217" x2="38.2985" y2="36.3708" gradientUnits="userSpaceOnUse">
<stop stop-color="#FFE052"/>
<stop offset="1" stop-color="#FFC331"/>
</linearGradient>
<clipPath id="clip0_248_323020">
<rect width="40.1569" height="40" fill="white" transform="translate(0.921875)"/>
</clipPath>
</defs>
</svg>
