<svg width="30" height="48" viewBox="0 0 30 48" fill="none" xmlns="http://www.w3.org/2000/svg">
<g clip-path="url(#clip0_248_323046)">
<path d="M0.230469 29.5392V33.2315C0.230469 33.8539 13.6586 34.8963 22.4073 36.9238C26.6338 35.9441 29.7689 34.7351 29.7689 33.2315V29.5392C29.7689 28.0364 26.6338 26.8266 22.4073 25.8469C13.6586 27.8748 0.230469 28.9173 0.230469 29.5392Z" fill="url(#paint0_linear_248_323046)"/>
<path d="M0.230469 14.7697V18.462C0.230469 19.0843 13.6586 20.1268 22.4073 22.1543C26.6338 21.1746 29.7689 19.9656 29.7689 18.462V14.7697C29.7689 13.2669 26.6338 12.0571 22.4073 11.0774C13.6586 13.1053 0.230469 14.1477 0.230469 14.7697Z" fill="url(#paint1_linear_248_323046)"/>
<path d="M0.230469 22.1535V33.2305C0.230469 32.3074 29.7689 30.4612 29.7689 25.8459V14.7689C29.7689 19.3843 0.230469 21.2305 0.230469 22.1535Z" fill="url(#paint2_linear_248_323046)"/>
<path d="M0.230469 7.38401V18.4609C0.230469 17.5379 29.7689 15.6917 29.7689 11.0763V-0.000600815C29.7689 4.61478 0.230469 6.46094 0.230469 7.38401Z" fill="url(#paint3_linear_248_323046)"/>
<path d="M0.230469 36.9231V48C0.230469 47.0769 29.7689 45.2308 29.7689 40.6154V29.5385C29.7689 34.1538 0.230469 36 0.230469 36.9231Z" fill="url(#paint4_linear_248_323046)"/>
</g>
<defs>
<linearGradient id="paint0_linear_248_323046" x1="0.230469" y1="31.3854" x2="29.7689" y2="31.3854" gradientUnits="userSpaceOnUse">
<stop stop-color="#4F4F4F"/>
<stop offset="1"/>
</linearGradient>
<linearGradient id="paint1_linear_248_323046" x1="0.230469" y1="16.6158" x2="29.7689" y2="16.6158" gradientUnits="userSpaceOnUse">
<stop stop-color="#4F4F4F"/>
<stop offset="1"/>
</linearGradient>
<linearGradient id="paint2_linear_248_323046" x1="0.230469" y1="23.9997" x2="29.7689" y2="23.9997" gradientUnits="userSpaceOnUse">
<stop stop-color="#C40000"/>
<stop offset="1" stop-color="#FF0000"/>
</linearGradient>
<linearGradient id="paint3_linear_248_323046" x1="0.230469" y1="9.23017" x2="29.7689" y2="9.23017" gradientUnits="userSpaceOnUse">
<stop stop-color="#C40000"/>
<stop offset="1" stop-color="#FF0000"/>
</linearGradient>
<linearGradient id="paint4_linear_248_323046" x1="0.230469" y1="38.7692" x2="29.7689" y2="38.7692" gradientUnits="userSpaceOnUse">
<stop stop-color="#C40000"/>
<stop offset="1" stop-color="#FF0000"/>
</linearGradient>
<clipPath id="clip0_248_323046">
<rect width="29.5385" height="48" fill="white" transform="translate(0.230469)"/>
</clipPath>
</defs>
</svg>
