<svg width="66" height="66" viewBox="0 0 66 66" fill="none" xmlns="http://www.w3.org/2000/svg">
<g clip-path="url(#clip0_248_295439)">
<path d="M4.52101 61.4295H63.7395C64.9902 61.4295 66 62.4525 66 63.7164C66.0018 64.3186 65.7649 64.897 65.3413 65.3249C64.9176 65.7529 64.3417 65.9956 63.7395 66H2.26051C1.65833 65.9956 1.0824 65.7529 0.658754 65.3249C0.235108 64.897 -0.00175153 64.3186 9.75277e-06 63.7164V2.2836C9.75277e-06 1.023 1.00981 0 2.26051 0C3.50791 0 4.51771 1.023 4.51771 2.2836L4.52101 61.4295ZM9.35881 57.42L18.4437 39.039L27.5319 43.6326L38.8905 29.8419L47.9787 36.7389L61.611 16.0545V57.42H9.35881Z" fill="#39A300"/>
</g>
<defs>
<clipPath id="clip0_248_295439">
<rect width="66" height="66" fill="white"/>
</clipPath>
</defs>
</svg>
