<svg width="66" height="66" viewBox="0 0 66 66" fill="none" xmlns="http://www.w3.org/2000/svg">
<path d="M50.5312 6.1875C47.685 6.1875 45.375 8.4975 45.375 11.3438V54.6562C45.375 57.5025 47.685 59.8125 50.5312 59.8125H52.5938C55.44 59.8125 57.75 57.5025 57.75 54.6562V11.3438C57.75 8.49475 55.44 6.1875 52.5938 6.1875H50.5312ZM26.8125 23.7188C26.8125 20.8698 29.1225 18.5625 31.9688 18.5625H34.0312C36.8803 18.5625 39.1875 20.8725 39.1875 23.7188V54.6562C39.1875 57.5025 36.8775 59.8125 34.0312 59.8125H31.9688C30.6012 59.8125 29.2897 59.2693 28.3227 58.3023C27.3557 57.3353 26.8125 56.0238 26.8125 54.6562V23.7188ZM8.25 36.0938C8.25 33.2447 10.56 30.9375 13.4062 30.9375H15.4688C18.3177 30.9375 20.625 33.2475 20.625 36.0938V54.6562C20.625 57.5025 18.315 59.8125 15.4688 59.8125H13.4062C12.0387 59.8125 10.7272 59.2693 9.76023 58.3023C8.79325 57.3353 8.25 56.0238 8.25 54.6562V36.0938Z" fill="#39A300"/>
</svg>
