<svg width="62" height="62" viewBox="0 0 62 62" fill="none" xmlns="http://www.w3.org/2000/svg">
<path d="M38.4789 60.315C50.7082 57.2075 59.9619 46.6448 61.1224 33.75H47.4247C46.9132 43.5043 43.6957 52.5793 38.4789 60.315ZM61.1224 28.25C59.9619 15.3525 50.6999 4.78704 38.4679 1.67954C43.6874 9.41804 46.9104 18.493 47.4247 28.25H61.1224ZM23.5272 1.67954C11.2897 4.78704 2.03319 15.3525 0.867188 28.25H14.5677C15.0819 18.493 18.3049 9.41804 23.5272 1.67954ZM0.869937 33.75C1.44108 39.9735 3.92408 45.8678 7.97821 50.624C12.0323 55.3803 17.459 58.7654 23.5134 60.315C18.2967 52.5793 15.0792 43.5043 14.5677 33.75H0.869937ZM30.9962 61.1455C24.6519 53.4868 20.6782 44.0378 20.0787 33.75H41.9164C41.3114 44.035 37.3404 53.4868 30.9989 61.1455M30.9962 0.868286C37.3404 8.52429 41.3087 17.9705 41.9137 28.25H20.0787C20.6837 17.9705 24.6547 8.52429 30.9962 0.868286Z" fill="#39A300"/>
</svg>
