<svg width="56" height="56" viewBox="0 0 56 56" fill="none" xmlns="http://www.w3.org/2000/svg">
<path fill-rule="evenodd" clip-rule="evenodd" d="M28.0039 44.8988V55.5C45.7194 55.5 59.5354 38.1008 53.7329 19.233C51.2166 11.0023 44.7376 4.45178 36.6306 1.86403C18.0544 -4.02922 0.921875 10.004 0.921875 28H11.3939C11.3939 16.7113 22.4159 7.98003 34.1144 12.281C36.2703 13.0864 38.2248 14.3519 39.8419 15.9894C41.459 17.6269 42.6999 19.5972 43.4781 21.763C47.7406 33.632 39.1331 44.8163 28.0341 44.8355V34.2673H17.5649V44.9015L28.0039 44.8988ZM17.5649 53.0388H9.55137V44.8988L17.5649 44.9015V53.0388ZM2.82487 44.8988H9.55137V38.065H2.82762L2.82487 44.8988Z" fill="#39A300"/>
</svg>
