<svg width="29" height="20" viewBox="0 0 29 20" fill="none" xmlns="http://www.w3.org/2000/svg">
<path d="M10.7834 17.8952H21.4502C22.7825 17.8952 23.2577 17.5194 23.2577 16.7845C23.2577 14.63 20.5168 11.6571 16.1125 11.6571C11.7168 11.6571 8.97588 14.63 8.97588 16.7845C8.97588 17.5194 9.45106 17.8952 10.7834 17.8952ZM16.121 10.1623C17.9455 10.1623 19.5154 8.55892 19.5154 6.47123C19.5154 4.40857 17.9371 2.88037 16.121 2.88037C14.305 2.88037 12.7266 4.44198 12.7266 6.48793C12.7266 8.55892 14.2965 10.1623 16.121 10.1623ZM1.61853 17.8952H8.06789C7.18532 16.6342 8.26305 14.0956 10.0875 12.7093C9.14555 12.0914 7.93204 11.632 6.3452 11.632C2.51804 11.632 0.125 14.4129 0.125 16.7261C0.125 17.4777 0.549298 17.8952 1.61853 17.8952ZM6.35369 10.3544C7.93204 10.3544 9.30681 8.95142 9.30681 7.1393C9.30681 5.34387 7.92357 4.01608 6.35369 4.01608C4.77531 4.01608 3.38361 5.37727 3.39209 7.156C3.39209 8.95142 4.76682 10.3544 6.35369 10.3544ZM22.4006 9.9118C22.6892 10.1038 23.088 10.0454 23.3171 9.71968C23.9705 8.87624 24.3609 7.63203 24.3609 6.35432C24.3609 5.07664 23.9705 3.84072 23.3171 2.98894C23.088 2.66325 22.6892 2.60479 22.4006 2.79686C22.0612 3.03069 22.0018 3.44823 22.2733 3.79062C22.7655 4.45868 23.0455 5.38562 23.0455 6.35432C23.0455 7.32302 22.757 8.24159 22.2733 8.918C22.0103 9.26874 22.0612 9.66958 22.4006 9.9118ZM25.5489 12.0914C25.8629 12.3001 26.2532 12.225 26.4824 11.9077C27.5686 10.4379 28.205 8.41697 28.205 6.35432C28.205 4.29166 27.5771 2.25406 26.4824 0.801014C26.2532 0.483682 25.8629 0.408524 25.5489 0.617295C25.235 0.826066 25.1841 1.21856 25.4301 1.56094C26.3551 2.84697 26.8897 4.57559 26.8897 6.35432C26.8897 8.13307 26.3381 9.85329 25.4301 11.1477C25.1925 11.4901 25.235 11.8826 25.5489 12.0914Z" fill="#88E755"/>
</svg>
