<svg width="27" height="22" viewBox="0 0 27 22" fill="none" xmlns="http://www.w3.org/2000/svg">
<path d="M4.6281 16.8667L4.93498 18.0942C5.32369 19.69 6.17272 20.5084 7.86054 20.5084H18.8774C20.5755 20.5084 21.4143 19.7105 21.8132 18.0942L22.1201 16.8667H4.6281ZM4.29054 15.4653H22.4678L24.3909 7.58884L23.5521 7.10807L18.8365 10.5451C18.4887 10.7906 18.2534 10.6985 18.059 10.4224L13.6196 3.71198L13.1286 3.69152L8.64818 10.453C8.47429 10.719 8.26971 10.8008 7.92191 10.5553L3.29831 7.17968L2.3163 7.43541L4.29054 15.4653ZM2.69478 9.63465C4.04504 9.63465 5.12933 8.54017 5.12933 7.17968C5.12933 5.84988 4.04504 4.74512 2.69478 4.74512C1.34453 4.74512 0.25 5.83965 0.25 7.17968C0.25 8.54017 1.35475 9.63465 2.69478 9.63465ZM13.3741 5.37933C14.7141 5.37933 15.8086 4.28481 15.8086 2.93455C15.8086 1.60475 14.7141 0.5 13.3741 0.5C12.0136 0.5 10.9293 1.59453 10.9293 2.93455C10.9293 4.28481 12.0238 5.37933 13.3741 5.37933ZM24.0431 9.63465C25.3832 9.63465 26.4879 8.54017 26.4879 7.17968C26.4879 5.83965 25.3934 4.74512 24.0431 4.74512C22.7032 4.74512 21.6086 5.84988 21.6086 7.17968C21.6086 8.54017 22.7032 9.63465 24.0431 9.63465Z" fill="#88E755"/>
</svg>
