<svg width="21" height="26" viewBox="0 0 21 26" fill="none" xmlns="http://www.w3.org/2000/svg">
<path d="M10.728 25.4951C10.9281 25.4951 11.2407 25.42 11.5533 25.2575C18.6678 21.5314 20.9561 19.6683 20.9561 15.1795V5.75171C20.9561 4.46383 20.4058 4.0512 19.3556 3.61357C17.8927 3.01339 13.2163 1.3129 11.7658 0.812748C11.4282 0.700214 11.0781 0.637695 10.728 0.637695C10.3779 0.637695 10.0278 0.712718 9.70272 0.812748C8.23979 1.28789 3.5634 3.0259 2.10047 3.61357C1.06267 4.0387 0.5 4.46383 0.5 5.75171V15.1795C0.5 19.6683 2.91321 21.3188 9.90278 25.2575C10.2279 25.4326 10.528 25.4951 10.728 25.4951ZM5.08885 13.4789C5.08885 13.3289 5.16387 13.1414 5.30142 12.9789L12.366 4.11372C12.9037 3.43852 13.804 3.88866 13.4789 4.7264L11.1532 10.9783H15.5169C15.8545 10.9783 16.1046 11.2158 16.1046 11.5535C16.1046 11.7035 16.0296 11.8911 15.8921 12.0536L8.82746 20.9187C8.2898 21.5939 7.40204 21.1437 7.71463 20.3185L10.0528 14.0542H5.67653C5.35144 14.0542 5.08885 13.8165 5.08885 13.4789Z" fill="#88E755"/>
</svg>
