<svg width="61" height="61" viewBox="0 0 61 61" fill="none" xmlns="http://www.w3.org/2000/svg">
<g clip-path="url(#clip0_248_299286)">
<path d="M9.38615 47.8909H0.2592C0.116122 47.8909 0 47.7748 0 47.6318C0 47.6318 0.116122 13.2589 0.2592 13.2589C0.402278 13.2589 0.5184 13.375 0.5184 13.5181V47.3726H9.38615C9.52923 47.3726 9.64535 47.4887 9.64535 47.6318C9.64535 47.7748 9.52936 47.8909 9.38615 47.8909Z" fill="#39A300"/>
<path d="M35.6015 48.2807C35.9596 48.2807 36.2499 47.9904 36.2499 47.6323C36.2499 47.2742 35.9596 46.9839 35.6015 46.9839C35.2434 46.9839 34.9531 47.2742 34.9531 47.6323C34.9531 47.9904 35.2434 48.2807 35.6015 48.2807Z" fill="#39A300"/>
<path d="M3.60643 11.4928C4.32104 11.4928 4.90035 10.9134 4.90035 10.1988C4.90035 9.48422 4.32104 8.90491 3.60643 8.90491C2.89181 8.90491 2.3125 9.48422 2.3125 10.1988C2.3125 10.9134 2.89181 11.4928 3.60643 11.4928Z" fill="#39A300"/>
<path d="M8.26268 11.4928C8.97729 11.4928 9.5566 10.9134 9.5566 10.1988C9.5566 9.48422 8.97729 8.90491 8.26268 8.90491C7.54806 8.90491 6.96875 9.48422 6.96875 10.1988C6.96875 10.9134 7.54806 11.4928 8.26268 11.4928Z" fill="#39A300"/>
<path d="M12.9267 11.4928C13.6414 11.4928 14.2207 10.9134 14.2207 10.1988C14.2207 9.48422 13.6414 8.90491 12.9267 8.90491C12.2121 8.90491 11.6328 9.48422 11.6328 10.1988C11.6328 10.9134 12.2121 11.4928 12.9267 11.4928Z" fill="#39A300"/>
<path d="M4.47812 20.1112C4.42096 20.1112 4.36329 20.0923 4.31534 20.0535L2.40776 18.511C2.28075 18.4134 2.28075 18.2054 2.40776 18.108L4.31534 16.5656C4.42667 16.4755 4.58996 16.4929 4.6799 16.6042C4.76985 16.7156 4.75261 16.8787 4.64128 16.9688L2.98305 18.3096L4.64128 19.6506C4.83257 19.7942 4.71256 20.12 4.47812 20.1112Z" fill="#39A300"/>
<path d="M8.58753 20.1113C8.35308 20.1201 8.23307 19.7942 8.42436 19.6506L10.0826 18.3096L8.42436 16.9687C8.31303 16.8788 8.2958 16.7155 8.38574 16.6042C8.47555 16.493 8.63885 16.4755 8.7503 16.5656L10.6579 18.1079C10.7849 18.2055 10.7849 18.4134 10.6579 18.511L8.7503 20.0535C8.70235 20.0924 8.64481 20.1113 8.58753 20.1113Z" fill="#39A300"/>
<path d="M6.12711 20.1217C5.96446 20.1234 5.83694 19.9667 5.87348 19.8077L6.54494 16.7027C6.57514 16.5628 6.71329 16.4736 6.853 16.5042C6.99297 16.5344 7.08187 16.6724 7.05155 16.8122L6.38009 19.9172C6.35391 20.0386 6.24647 20.1217 6.12711 20.1217Z" fill="#39A300"/>
<path d="M13.9831 24.622H11.3373C11.1942 24.622 11.0781 24.5059 11.0781 24.3628C11.0781 24.2198 11.1942 24.1036 11.3373 24.1036H13.9831C14.1262 24.1036 14.2423 24.2198 14.2423 24.3628C14.2423 24.5059 14.1263 24.622 13.9831 24.622Z" fill="#39A300"/>
<path d="M8.79756 24.622H3.0717C2.92862 24.622 2.8125 24.5059 2.8125 24.3628C2.8125 24.2198 2.92862 24.1036 3.0717 24.1036H8.79756C8.94064 24.1036 9.05676 24.2198 9.05676 24.3628C9.05676 24.5059 8.94077 24.622 8.79756 24.622Z" fill="#39A300"/>
<path d="M8.83522 28.542H5.6967C5.55362 28.542 5.4375 28.4258 5.4375 28.2828C5.4375 28.1397 5.55362 28.0236 5.6967 28.0236H8.83522C8.9783 28.0236 9.09442 28.1397 9.09442 28.2828C9.09442 28.4258 8.9783 28.542 8.83522 28.542Z" fill="#39A300"/>
<path d="M11.4227 32.4238H5.6967C5.55362 32.4238 5.4375 32.3077 5.4375 32.1646C5.4375 32.0215 5.55362 31.9054 5.6967 31.9054H11.4227C11.5658 31.9054 11.6819 32.0215 11.6819 32.1646C11.6819 32.3077 11.5658 32.4238 11.4227 32.4238Z" fill="#39A300"/>
<path d="M8.79756 36.25H3.0717C2.92862 36.25 2.8125 36.1338 2.8125 35.9908C2.8125 35.8477 2.92862 35.7316 3.0717 35.7316H8.79756C8.94064 35.7316 9.05676 35.8477 9.05676 35.9908C9.05676 36.1338 8.94077 36.25 8.79756 36.25Z" fill="#39A300"/>
<path d="M8.83522 40.1689H5.6967C5.55362 40.1689 5.4375 40.0528 5.4375 39.9097C5.4375 39.7666 5.55362 39.6505 5.6967 39.6505H8.83522C8.9783 39.6505 9.09442 39.7666 9.09442 39.9097C9.09442 40.0528 8.9783 40.1689 8.83522 40.1689Z" fill="#39A300"/>
<path d="M20.7217 52.6954C19.6518 52.6954 18.7812 53.5659 18.7812 54.6359C18.7812 55.7059 19.6518 56.5764 20.7217 56.5764C21.7917 56.5764 22.6623 55.7059 22.6623 54.6359C22.6623 53.5659 21.7917 52.6954 20.7217 52.6954Z" fill="#39A300"/>
<path d="M60.8467 6.56366L52.9886 6.56405C52.7871 6.23811 52.5709 5.91955 52.3362 5.61201C53.9626 5.43329 54.5921 4.64506 54.8155 4.21985C55.3952 3.18953 54.7438 1.83728 53.5562 1.87201L53.8382 1.59C53.9294 1.49877 53.9516 1.35167 53.876 1.24695C53.7799 1.11346 53.5926 1.10245 53.4813 1.21378L53.1623 1.53272C53.2525 0.386539 52.076 -0.330409 51.0493 0.219484C50.6942 0.398851 49.7555 1.04996 49.5364 2.9569C47.5408 1.59013 45.1712 0.841694 42.8128 0.841694C38.5574 0.841694 34.7388 3.16762 32.636 6.56496L0.2592 6.56651C0.116122 6.56651 0 6.68264 0 6.82571V47.6322C0 47.7753 0.116122 47.8914 0.2592 47.8914H9.08068C8.45148 51.4773 8.48569 55.4624 11.0676 57.2233L11.212 59.7384C11.2591 60.5605 11.9411 61.2044 12.7646 61.2044H28.576C29.3995 61.2044 30.0815 60.5605 30.1286 59.7384L30.273 57.2248C33.9342 54.7294 32.4722 47.7601 31.2637 43.8011C30.9309 42.711 30.3062 41.7624 29.4845 41.0356C30.2892 39.8072 30.7818 37.9309 29.0046 35.6513L27.525 32.7802C26.683 31.4018 27.1854 29.705 26.6946 28.2539C25.9575 25.5504 23.3123 24.2327 20.8615 24.5381V13.8167L28.6534 13.8163C28.7965 13.8163 28.9126 13.7002 28.9126 13.5571C28.9126 13.4141 28.7965 13.2979 28.6534 13.2979L0.5184 13.2987V7.08491L32.3333 7.08349C31.4389 8.70802 30.9271 10.5493 30.9271 12.4829C30.9271 15.7609 32.5181 18.974 35.2923 21.2983C36.4834 22.2962 37.207 23.7375 37.3028 25.2815C36.3398 25.4579 35.6073 26.3015 35.6073 27.3146C35.6073 28.0929 36.0407 28.77 36.6778 29.1225C36.0206 29.4861 35.5808 30.1965 35.6085 31.0054C35.647 32.1286 36.6068 33.0017 37.7304 33.0017H38.1699C38.5259 34.3774 39.5204 35.4882 40.81 36.061C41.4235 36.3334 42.1035 36.4844 42.8127 36.4844C45.0132 36.4844 46.9319 35.032 47.4571 33.0017H47.8951C49.0187 33.0017 49.9786 32.1286 50.017 31.0056C50.0448 30.1966 49.605 29.4863 48.9478 29.1226C49.585 28.7701 50.0182 28.0929 50.0182 27.3147C50.0182 26.3015 49.2856 25.4579 48.3225 25.2817C48.4184 23.7377 49.142 22.2966 50.3331 21.2987C52.7298 19.2908 54.2425 16.6192 54.6101 13.8156L60.717 13.8153V47.3733H38.4486C38.3195 47.3733 38.1997 47.4615 38.179 47.5889C38.1526 47.7513 38.2772 47.8917 38.4347 47.8917H60.9764C61.1195 47.8917 61.2356 47.7757 61.2356 47.6325V6.95246C61.2355 6.73862 61.0605 6.56366 60.8467 6.56366ZM9.74851 54.6398C10.111 54.4169 10.491 54.2107 10.8838 54.0241L11.0283 56.54C10.443 56.042 10.0297 55.3905 9.74851 54.6398ZM20.7172 57.0946C19.3613 57.0946 18.2583 55.9915 18.2583 54.6357C18.2583 53.2798 19.3613 52.1768 20.7172 52.1768C22.0731 52.1768 23.1761 53.2798 23.1761 54.6357C23.1761 55.9915 22.0731 57.0946 20.7172 57.0946ZM30.3124 56.5399L30.4569 54.0241C30.8497 54.2108 31.2297 54.4169 31.5922 54.6398C31.3216 55.3813 30.8956 56.0438 30.3124 56.5399ZM30.7678 43.9526C31.6228 46.7527 32.6177 51.1033 31.7569 54.1377C31.3518 53.8938 30.9277 53.6696 30.4887 53.4693L30.6912 49.9412C30.7608 49.0741 30.0081 48.2771 29.1386 48.2968H27.6688C27.3895 47.2263 27.2816 46.2222 27.2804 46.2115C27.2654 46.0692 27.1375 45.9649 26.9956 45.9809C26.8531 45.9958 26.7498 46.1233 26.7649 46.2657C26.7694 46.3087 26.8698 47.2422 27.134 48.2968H14.2068C14.4711 47.2403 14.5714 46.3067 14.5757 46.2657C14.5906 46.1234 14.4873 45.9959 14.345 45.981C14.2031 45.9653 14.0752 46.0694 14.0602 46.2117C14.0591 46.2218 13.9513 47.2268 13.672 48.2969H12.2021C11.3326 48.2772 10.5799 49.0744 10.6495 49.9413L10.8521 53.4697C10.4131 53.6696 9.9884 53.8925 9.58327 54.1361C8.72325 51.1011 9.71857 46.7507 10.5737 43.9503C11.1564 42.0144 12.8076 40.5309 14.769 40.1425L18.0363 39.4828C17.9217 40.9648 19.1922 42.332 20.6845 42.2895C22.1934 42.2853 23.3861 40.9857 23.3007 39.4865L26.5692 40.1442C28.5347 40.5387 30.1823 42.0077 30.7678 43.9526ZM18.5547 39.6575V38.6706C19.1745 39.0314 19.8963 39.2385 20.6704 39.2385C21.4434 39.2385 22.1641 39.032 22.7832 38.6723L22.782 39.6601C22.7806 40.8169 21.8381 41.7639 20.6813 41.7712C19.5372 41.8013 18.5323 40.7988 18.5547 39.6575ZM24.3402 31.5162V32.7355C24.3327 32.9625 24.6358 33.0836 24.787 32.9143C25.0281 32.6613 25.1346 32.6698 25.1432 32.6751C25.542 33.0199 25.4757 33.6774 25.2979 34.1355C25.1274 34.5749 24.8328 34.9026 24.6097 34.9026C24.6077 34.9026 24.6056 34.9026 24.6037 34.9026C24.4585 34.8958 24.3413 35.0115 24.3375 35.1545C24.3036 37.0921 22.6462 38.7467 20.6704 38.7203C18.6947 38.7468 17.0372 37.0918 17.0034 35.1545C16.9995 35.0138 16.8843 34.9025 16.7444 34.9025C16.7399 34.9025 16.7355 34.9026 16.731 34.9026C16.5081 34.9026 16.2135 34.5749 16.0429 34.1357C15.865 33.6774 15.7989 33.0199 16.2052 32.6696C16.2254 32.6647 16.3413 32.6913 16.5537 32.9143C16.7047 33.0836 17.0082 32.9625 17.0005 32.7355V31.05C17.0005 29.5971 18.1828 28.4149 19.6357 28.4149H20.6704C20.8306 29.1391 21.5281 31.1822 24.3402 31.5162ZM20.3431 13.8171V24.5954C19.561 24.7055 18.9784 24.892 18.7994 24.9536C17.5447 24.7495 15.0783 25.9624 14.5042 28.0239H11.369C11.226 28.0239 11.1098 28.14 11.1098 28.2831C11.1098 28.4261 11.226 28.5423 11.369 28.5423H14.3358C14.1261 29.2825 14.0116 30.1273 13.9967 31.0765C13.9593 33.4493 13.3356 34.7186 12.6855 35.7309H11.3448C11.2017 35.7309 11.0856 35.847 11.0856 35.9901C11.0856 36.1332 11.2017 36.2493 11.3448 36.2493H12.3409C11.4934 37.5011 10.7606 38.587 11.6058 41.2703C10.9731 41.8979 10.478 42.6662 10.1688 43.5317H5.69929C5.55621 43.5317 5.44009 43.6478 5.44009 43.7909C5.44009 43.9339 5.55621 44.0501 5.69929 44.0501H10.0027C9.7108 45.0285 9.4109 46.1693 9.17672 47.3731H0.5184V13.8178L20.3431 13.8171ZM52.8392 2.58896C53.9295 1.94524 54.8966 2.93577 54.3564 3.97879C54.1998 4.27739 53.6153 5.06704 51.8343 5.12549C51.8274 5.1251 51.8208 5.12342 51.814 5.12355C51.3804 5.13638 50.9042 5.10385 50.3972 5.03114L52.8392 2.58896ZM50.0133 3.63665C50.054 1.94018 50.6444 1.00486 51.2832 0.682286C52.3444 0.182548 52.9975 1.20133 52.4515 2.24371L50.0507 4.64442C50.0208 4.31057 50.0043 3.96842 50.0133 3.63665ZM49.4999 30.9331C49.4999 31.7878 48.8046 32.4831 47.9499 32.4831H37.6758C36.8209 32.4831 36.1256 31.7878 36.1256 30.9331C36.1256 30.0784 36.8209 29.3831 37.6758 29.3831H47.9499C48.8046 29.383 49.4999 30.0784 49.4999 30.9331ZM50.0005 20.9011C48.701 21.9897 47.9095 23.5617 47.8041 25.246H37.8216C37.7162 23.5616 36.9247 21.9897 35.6252 20.9009C32.9691 18.6754 31.4456 15.6072 31.4456 12.4829C31.4456 6.45376 36.6513 1.36022 42.813 1.36022C45.1669 1.36022 47.534 2.14093 49.4945 3.56109C49.481 4.01741 49.5054 4.53322 49.5796 5.11564L48.6035 6.09179C47.0803 4.68382 45.0458 3.82146 42.813 3.82146C38.1041 3.82146 34.2732 7.65243 34.2732 12.3612C34.2732 17.0701 38.1042 20.9009 42.813 20.9009C47.5217 20.9009 51.3527 17.0699 51.3527 12.3612C51.3527 10.0713 50.445 7.99069 48.9727 6.45558L49.9437 5.48461C50.5861 5.59931 51.1479 5.64908 51.6373 5.64908C51.6602 5.64908 51.6821 5.6483 51.7048 5.64817C53.3021 7.61057 54.1803 10.0324 54.1803 12.4829C54.1802 15.6073 52.6567 18.6757 50.0005 20.9011ZM42.6296 12.432C42.7308 12.5332 42.8949 12.5332 42.9961 12.432L44.3968 11.0312C44.6996 11.3913 44.8828 11.855 44.8828 12.3611C44.8828 13.5023 43.9542 14.4309 42.8128 14.4309C41.6715 14.4309 40.743 13.5023 40.743 12.3611C40.743 11.2198 41.6715 10.2912 42.8128 10.2912C43.2614 10.2912 43.676 10.4362 44.0154 10.6796L42.6296 12.0654C42.5282 12.1667 42.5282 12.3309 42.6296 12.432ZM44.3852 10.3099C43.9487 9.9746 43.4045 9.77282 42.8128 9.77282C41.3857 9.77282 40.2246 10.9339 40.2246 12.3611C40.2246 13.7882 41.3857 14.9493 42.8128 14.9493C44.2401 14.9493 45.4012 13.7882 45.4012 12.3611C45.4012 11.712 45.1594 11.1196 44.7632 10.6649L46.7778 8.65022C47.6883 9.62235 48.2472 10.9273 48.2472 12.3611C48.2472 15.3575 45.8095 17.7954 42.8128 17.7954C39.8162 17.7954 37.3785 15.3575 37.3785 12.3611C37.3785 9.36458 39.8162 6.92667 42.8128 6.92667C44.1895 6.92667 45.4474 7.44222 46.406 8.28903L44.3852 10.3099ZM60.7171 13.2966L54.6649 13.2969C54.6865 13.0263 54.6986 12.7548 54.6986 12.4829C54.6986 10.6072 54.2069 8.74885 53.2916 7.08245L60.7171 7.08206V13.2966Z" fill="#39A300"/>
</g>
<defs>
<clipPath id="clip0_248_299286">
<rect width="61" height="61" fill="white"/>
</clipPath>
</defs>
</svg>
