<svg width="66" height="66" viewBox="0 0 66 66" fill="none" xmlns="http://www.w3.org/2000/svg">
<path fill-rule="evenodd" clip-rule="evenodd" d="M57.8924 20.1201V55.3331C57.8924 56.8487 56.6556 58.0905 55.135 58.0905H15.5578C14.0422 58.0905 12.8003 56.8537 12.8003 55.3331V55.0087H50.4413C52.8489 55.0087 54.8156 53.042 54.8156 50.6343V17.3627H55.14C56.6556 17.3627 57.8924 18.6046 57.8924 20.1201ZM50.4463 53.3917H10.859C9.34342 53.3917 8.10156 52.1549 8.10156 50.6394V22.4619H53.1987V50.6394C53.1987 52.1549 51.9568 53.3917 50.4463 53.3917ZM44.3181 35.58C44.3181 34.5206 43.4564 33.6589 42.3971 33.6589H40.6128C40.476 33.2686 40.3189 32.8884 40.1414 32.5184L41.4036 31.2563C42.1487 30.5112 42.1487 29.2845 41.4036 28.5394L39.2291 26.3649C38.4789 25.6198 37.2573 25.6198 36.5071 26.3649L35.245 27.6321C34.88 27.4547 34.4999 27.2976 34.1096 27.1607V25.3714C34.1096 24.312 33.2479 23.4503 32.1885 23.4503H29.1117C28.0574 23.4503 27.1907 24.312 27.1907 25.3714V27.1607C26.8004 27.2976 26.4202 27.4547 26.0502 27.6321L24.7881 26.3649C24.0379 25.6198 22.8163 25.6198 22.0712 26.3649L19.8967 28.5394C19.1515 29.2845 19.1515 30.5112 19.8967 31.2563L21.1639 32.5184C20.9814 32.8884 20.8293 33.2635 20.6925 33.6589H18.9032C17.8438 33.6589 16.9821 34.5206 16.9821 35.58V38.6517C16.9821 39.711 17.8438 40.5727 18.9032 40.5727H20.6925C20.8293 40.963 20.9865 41.3432 21.1639 41.7081L19.8967 42.9753C19.1515 43.7205 19.1515 44.942 19.8967 45.6922L22.0712 47.8667C22.8163 48.6169 24.0379 48.6169 24.7881 47.8667L26.0502 46.6046C26.4202 46.782 26.7953 46.9392 27.1907 47.076V48.8602C27.1907 49.9196 28.0524 50.7813 29.1117 50.7813H32.1885C33.2479 50.7813 34.1096 49.9196 34.1096 48.8602V47.076C34.4999 46.9392 34.88 46.782 35.245 46.6046L36.5071 47.8667C37.2573 48.6169 38.4789 48.6169 39.2291 47.8667L41.4036 45.6922C42.1487 44.942 42.1487 43.7205 41.4036 42.9753L40.1414 41.7081C40.3189 41.3432 40.476 40.963 40.6128 40.5727H42.3971C43.4564 40.5727 44.3181 39.711 44.3181 38.6517V35.58ZM37.379 37.1158C37.379 40.8312 34.363 43.8421 30.6527 43.8421C26.9372 43.8421 23.9264 40.8262 23.9264 37.1158C23.9264 33.4004 26.9372 30.3895 30.6527 30.3895C34.3681 30.3895 37.379 33.4004 37.379 37.1158ZM34.6317 36.1933C34.5911 36.0666 34.4745 35.9804 34.3427 35.9804L31.9604 35.9855C31.8286 35.9855 31.712 35.9044 31.6715 35.7726L30.9365 33.5068C30.896 33.3801 30.7844 33.2939 30.6527 33.2939C30.5209 33.2939 30.4043 33.375 30.3637 33.5068L29.6338 35.7726C29.5933 35.8993 29.4767 35.9855 29.3449 35.9855L26.9626 35.9804C26.8257 35.9804 26.7142 36.0615 26.6736 36.1933C26.6331 36.32 26.6736 36.4569 26.7801 36.5329L28.7113 37.9268C28.8177 38.0029 28.8634 38.1397 28.8177 38.2664L28.0777 40.5322C28.0372 40.6589 28.0828 40.7958 28.1892 40.8718C28.2957 40.9478 28.4376 40.9478 28.544 40.8718L30.4651 39.4677C30.5716 39.3917 30.7135 39.3917 30.825 39.4677L32.7461 40.8718C32.8525 40.9478 32.9944 40.9478 33.106 40.8718C33.2124 40.7958 33.258 40.6589 33.2124 40.5322L32.4724 38.2664C32.4318 38.1397 32.4774 38.0029 32.5839 37.9268L34.51 36.5329C34.6266 36.4569 34.6722 36.32 34.6317 36.1933ZM53.1987 15.4214C53.1987 13.9058 51.9568 12.6639 50.4413 12.6639H47.9626V15.6444C47.9626 17.5148 46.4369 19.0405 44.5665 19.0405C42.6961 19.0405 41.1704 17.5148 41.1704 15.6444V12.6639H38.6918V15.6444C38.6918 17.5148 37.1661 19.0405 35.2957 19.0405C33.4253 19.0405 31.8996 17.5148 31.8996 15.6444V12.6639H29.4209V15.6444C29.4209 17.5148 27.8952 19.0405 26.0248 19.0405C24.1545 19.0405 22.6287 17.5148 22.6287 15.6444V12.6639H20.1501V15.6444C20.1501 17.5148 18.6244 19.0405 16.754 19.0405C14.8836 19.0405 13.3579 17.5148 13.3579 15.6444V12.6639H10.859C9.34342 12.6639 8.10156 13.9007 8.10156 15.4214V20.8399H53.1987V15.4214ZM16.7337 17.4235C17.712 17.4235 18.5129 16.6227 18.5129 15.6444V9.68854C18.5129 8.71026 17.712 7.90939 16.7337 7.90939C15.7555 7.90939 14.9546 8.71026 14.9546 9.68854V15.6444C14.9596 16.6227 15.7605 17.4235 16.7337 17.4235ZM26.0147 17.4235C26.993 17.4235 27.7939 16.6227 27.7939 15.6444V9.68854C27.7939 8.71026 26.993 7.90939 26.0147 7.90939C25.0364 7.90939 24.2356 8.71026 24.2356 9.68854V15.6444C24.2356 16.6227 25.0364 17.4235 26.0147 17.4235ZM35.2906 17.4235C36.2689 17.4235 37.0698 16.6227 37.0698 15.6444V9.68854C37.0698 8.71026 36.2689 7.90939 35.2906 7.90939C34.3123 7.90939 33.5115 8.71026 33.5115 9.68854V15.6444C33.5115 16.6227 34.3123 17.4235 35.2906 17.4235ZM44.5665 17.4235C45.5448 17.4235 46.3457 16.6227 46.3457 15.6444V9.68854C46.3457 8.71026 45.5448 7.90939 44.5665 7.90939C43.5882 7.90939 42.7874 8.71026 42.7874 9.68854V15.6444C42.7874 16.6227 43.5882 17.4235 44.5665 17.4235Z" fill="#39A300"/>
</svg>
