<svg width="66" height="66" viewBox="0 0 66 66" fill="none" xmlns="http://www.w3.org/2000/svg">
<path d="M9.06831 21.2895L7.3125 22.3715L7.71825 23.0299L9.47405 21.9479L9.06831 21.2895Z" fill="#39A300"/>
<path d="M12.0194 22.1554L10.2656 23.2411L10.6728 23.8987L12.4265 22.813L12.0194 22.1554Z" fill="#39A300"/>
<path d="M21.8641 45.6844C23.0316 45.6844 23.9781 44.7379 23.9781 43.5703C23.9781 42.4027 23.0316 41.4562 21.8641 41.4562C20.6965 41.4562 19.75 42.4027 19.75 43.5703C19.75 44.7379 20.6965 45.6844 21.8641 45.6844Z" fill="#39A300"/>
<path d="M27.9438 46.6641L29.3875 48.3656V32.7938H14.3828V54.2953H27.7891L24.0766 49.8609C23.6641 49.3453 23.4578 48.675 23.5094 48.0047C23.5609 47.3344 23.8703 46.7156 24.3859 46.3031C25.4688 45.4266 27.0672 45.5813 27.9438 46.6641ZM28.4594 43.5703C28.4594 43.7766 28.3047 43.9828 28.0469 43.9828H26.0875C25.8812 43.9828 25.675 43.8281 25.675 43.5703C25.675 43.3125 25.8297 43.1578 26.0875 43.1578H28.0469C28.3047 43.1578 28.4594 43.3641 28.4594 43.5703ZM24.5922 40.2703L25.9844 38.8781C26.1391 38.7235 26.3969 38.7235 26.5516 38.8781C26.7063 39.0328 26.7063 39.2906 26.5516 39.4453L25.1594 40.8375C25.1078 40.8891 25.0047 40.9406 24.9016 40.9406C24.7984 40.9406 24.6953 40.8891 24.6438 40.8375C24.4375 40.6828 24.4375 40.425 24.5922 40.2703ZM21.4984 37.3828C21.4984 37.1766 21.6531 36.9703 21.9109 36.9703C22.1688 36.9703 22.3234 37.125 22.3234 37.3828V39.3422C22.3234 39.5485 22.1688 39.7547 21.9109 39.7547C21.6531 39.7547 21.4984 39.6 21.4984 39.3422V37.3828ZM17.2188 38.8781C17.3734 38.7235 17.6313 38.7235 17.7859 38.8781L19.1781 40.2703C19.3328 40.425 19.3328 40.6828 19.1781 40.8375C19.1266 40.8891 19.0234 40.9406 18.9203 40.9406C18.8172 40.9406 18.7141 40.8891 18.6625 40.8375L17.2703 39.4453C17.0641 39.2906 17.0641 39.0328 17.2188 38.8781ZM15.2594 43.5703C15.2594 43.3641 15.4141 43.1578 15.6719 43.1578H17.6313C17.8375 43.1578 18.0438 43.3125 18.0438 43.5703C18.0438 43.8281 17.8891 43.9828 17.6313 43.9828H15.6719C15.4656 43.9313 15.2594 43.7766 15.2594 43.5703ZM19.1266 46.8703L17.7344 48.2625C17.6828 48.3141 17.5797 48.3656 17.4766 48.3656C17.3734 48.3656 17.2703 48.3141 17.2188 48.2625C17.0641 48.1078 17.0641 47.85 17.2188 47.6953L18.6109 46.3031C18.7656 46.1485 19.0234 46.1485 19.1781 46.3031C19.3328 46.4578 19.2812 46.7156 19.1266 46.8703ZM22.2719 49.7578C22.2719 49.9641 22.1172 50.1703 21.8594 50.1703C21.6016 50.1703 21.4469 50.0156 21.4469 49.7578V47.7984C21.4469 47.5922 21.6016 47.386 21.8594 47.386C22.1172 47.386 22.2719 47.5406 22.2719 47.7984V49.7578ZM21.8594 46.4578C20.2609 46.4578 18.9719 45.1688 18.9719 43.5703C18.9719 41.9719 20.2609 40.6828 21.8594 40.6828C23.4578 40.6828 24.7469 41.9719 24.7469 43.5703C24.7469 45.1688 23.4578 46.4578 21.8594 46.4578Z" fill="#39A300"/>
<path d="M26.4469 57.8531C26.9625 57.4406 27.5812 57.2859 28.2 57.3891L30.2625 57.2344L28.4578 55.1203H14.0203C13.8141 55.1203 13.6078 54.9656 13.6078 54.7078V32.4328C13.6078 32.2266 13.7625 32.0203 14.0203 32.0203H29.7984C30.0047 32.0203 30.2109 32.175 30.2109 32.4328V49.2937L32.1703 51.6141L32.6859 51.3562V28.2047C32.6859 27.5859 32.1703 27.0703 31.5516 27.0703H12.2672C11.6484 27.0703 11.1328 27.5859 11.1328 28.2047V58.7297C11.1328 59.5031 11.5969 60.0703 12.2672 60.0703H25.5188V60.0187C25.5188 59.9672 25.5188 59.9156 25.5188 59.8641C25.5188 59.7094 25.5188 59.6063 25.5188 59.4516C25.5703 58.8328 25.9312 58.2656 26.4469 57.8531ZM19.4344 29.1844H24.2297C24.4359 29.1844 24.6422 29.3391 24.6422 29.5969C24.6422 29.8547 24.4875 30.0094 24.2297 30.0094H19.4344C19.2281 30.0094 19.0219 29.8547 19.0219 29.5969C19.0219 29.3391 19.2281 29.1844 19.4344 29.1844ZM21.9094 59.2453C21.0844 59.2453 20.4141 58.575 20.4141 57.75C20.4141 56.925 21.0844 56.2547 21.9094 56.2547C22.7344 56.2547 23.4047 56.925 23.4047 57.75C23.4047 58.575 22.7344 59.2453 21.9094 59.2453Z" fill="#39A300"/>
<path d="M36.1941 50.4797L32.6363 52.1813L32.1723 52.3875L31.9145 52.5422L29.491 49.6547L27.377 47.1282C26.7582 46.4063 25.6238 46.3032 24.902 46.9219C24.541 47.2313 24.3348 47.6438 24.2832 48.1078C24.2316 48.5719 24.3863 49.036 24.6957 49.3969L31.8113 57.9047L28.1504 58.1625H28.0988C27.9957 58.1625 27.8926 58.1625 27.7895 58.1625C27.7379 58.1625 27.7379 58.1625 27.6863 58.1625C27.6348 58.1625 27.5832 58.1625 27.4801 58.2141C27.4285 58.2141 27.4285 58.2141 27.377 58.2657C27.3254 58.2657 27.2738 58.3172 27.1707 58.3172C27.1191 58.3172 27.1191 58.3172 27.0676 58.3688C26.9645 58.4203 26.9129 58.4719 26.8098 58.5235C26.4488 58.7813 26.2426 59.1938 26.191 59.6063C26.191 59.7094 26.191 59.8641 26.191 59.9672C26.191 60.0703 26.2426 60.225 26.2941 60.3282C26.5004 60.8438 26.9645 61.2047 27.5316 61.3078L35.8332 63.1641L42.7941 57.286L39.5457 51.6141C39.0301 50.3766 37.4832 49.861 36.1941 50.4797Z" fill="#39A300"/>
<path d="M48.6203 17.4797H48.3109L48.2594 17.1703C48.1562 16.3453 47.4859 15.7266 46.6609 15.7266C46.3 15.7266 45.9391 15.8297 45.6812 16.0875L45.1656 16.5L45.0625 15.8297C44.9078 14.6438 43.8766 13.7156 42.6391 13.7156C41.2984 13.7156 40.2156 14.7984 40.2156 16.1391C40.2156 16.4484 40.2672 16.7578 40.3703 17.0156L40.525 17.4797L40.0609 17.5313C39.0812 17.6859 38.3594 18.5625 38.3594 19.5422C38.3594 20.6766 39.2875 21.5531 40.3703 21.5531H45.9906H48.4656C49.6 21.5531 50.4766 20.625 50.4766 19.5422C50.4766 18.4078 49.6516 17.5313 48.6203 17.4797Z" fill="#39A300"/>
<path d="M56.9781 8.04374H56.6687L56.6172 7.73436C56.5656 7.01249 55.9469 6.4453 55.1734 6.4453C54.8641 6.4453 54.5547 6.54843 54.2969 6.75468L53.7812 7.16718L53.6781 6.49686C53.5234 5.41405 52.5953 4.58905 51.5125 4.58905C50.275 4.58905 49.2953 5.56874 49.2953 6.80624C49.2953 7.06405 49.3469 7.37343 49.45 7.63124L49.6047 8.0953L49.1406 8.14686C48.2641 8.30155 47.5938 9.07499 47.5938 9.95155C47.5938 10.9828 48.4187 11.8078 49.45 11.8078H54.6062H56.875C57.9062 11.8078 58.7312 10.9828 58.7312 9.95155C58.6797 8.9203 57.9062 8.0953 56.9781 8.04374Z" fill="#39A300"/>
<path d="M16.3448 21.8109L43.9307 8.97188C45.5807 8.19844 46.612 6.23907 46.1995 4.64063C45.9932 3.91876 45.5807 3.40313 44.962 3.09376C44.2917 2.78438 43.4151 2.78438 42.5901 3.19688L30.8339 8.61094L20.1089 5.72344C19.7479 5.62032 19.5417 5.87813 19.387 6.03282C19.1292 6.39376 19.026 7.01251 19.3354 7.47657L22.7385 12.4266L13.3026 16.8094L12.9932 16.7063L9.02292 15.5203C8.81667 15.4688 8.55885 15.6234 8.50729 15.7781C8.45573 15.8297 8.50729 15.8813 8.50729 15.8813L10.5182 18.0984L8.66198 18.975L16.3448 21.8109ZM40.5276 6.03282C40.7339 5.92969 40.9401 6.03282 41.0432 6.23907L41.8682 8.04376C41.9714 8.25001 41.8682 8.45626 41.662 8.55938C41.6104 8.55938 41.5589 8.61094 41.5073 8.61094C41.3526 8.61094 41.1979 8.50782 41.1464 8.40469L40.3214 6.60001C40.2182 6.39376 40.3214 6.13594 40.5276 6.03282ZM37.5885 7.42501C37.7948 7.32188 38.001 7.42501 38.1042 7.63126L38.9292 9.43594C39.0323 9.64219 38.9292 9.84844 38.7229 9.95157C38.6714 9.95157 38.6198 10.0031 38.5682 10.0031C38.4135 10.0031 38.2589 9.90001 38.2073 9.79688L37.3823 7.99219C37.3307 7.73438 37.4339 7.52813 37.5885 7.42501ZM34.701 8.76563C34.9073 8.66251 35.1135 8.76563 35.2167 8.97188L36.0417 10.7766C36.1448 10.9828 36.0417 11.1891 35.8354 11.2922C35.7839 11.2922 35.7323 11.3438 35.6807 11.3438C35.526 11.3438 35.3714 11.2406 35.3198 11.1375L34.4948 9.28126C34.4432 9.07501 34.4948 8.86876 34.701 8.76563ZM31.762 10.1063C31.9682 10.0031 32.1745 10.1063 32.2776 10.3125L33.1026 12.1172C33.2057 12.3234 33.1026 12.5297 32.8964 12.6328C32.8448 12.6328 32.7932 12.6844 32.7417 12.6844C32.587 12.6844 32.4323 12.5813 32.3807 12.4781L31.5557 10.6734C31.5042 10.4672 31.6073 10.2094 31.762 10.1063Z" fill="#39A300"/>
</svg>
