<svg width="66" height="66" viewBox="0 0 66 66" fill="none" xmlns="http://www.w3.org/2000/svg">
<path d="M10.2656 42.3048C7.92188 42.1806 6.04688 40.2517 6.04688 37.8751V13.5001C6.04688 11.0438 8.04373 9.04698 10.5 9.04698H49.875C52.2492 9.04698 54.1805 10.922 54.3047 13.2657H16.1249C12.8929 13.2657 10.2655 15.893 10.2655 19.1251L10.2656 42.3048ZM11.6719 23.5782V29.6718H36.3469C38.4937 28.7624 40.8469 28.2655 43.3123 28.2655C45.7777 28.2655 48.131 28.7624 50.2777 29.6718H59.9527V23.5782H11.6719ZM59.9533 22.1719V19.1251C59.9533 16.6688 57.9564 14.6719 55.5001 14.6719H16.1251C13.6689 14.6719 11.672 16.6688 11.672 19.1251V22.1719H59.9533ZM11.6719 43.5001C11.6719 45.9564 13.6687 47.9533 16.125 47.9533H25.3404C25.2935 47.4189 25.2654 46.8658 25.2654 46.3126C25.2654 39.919 28.6123 34.2844 33.6558 31.078H11.6712L11.6719 43.5001ZM52.9687 31.0783C56.0624 33.047 58.5187 35.9252 59.9533 39.3469V31.0783H52.9687ZM59.9533 46.3129C59.9533 55.4887 52.4887 62.9533 43.3129 62.9533C34.1371 62.9533 26.6725 55.4887 26.6725 46.3129C26.6725 37.1371 34.1371 29.6725 43.3129 29.6725C52.4887 29.6725 59.9533 37.1371 59.9533 46.3129ZM49.6687 50.3559C49.3616 50.1168 48.9187 50.1731 48.682 50.4801C47.3835 52.1512 45.4265 53.1098 43.3125 53.1098C40.0383 53.1098 37.2705 50.7637 36.6513 47.6325L39.5692 49.4043C39.9044 49.6059 40.3356 49.5004 40.5349 49.1676C40.7364 48.8348 40.631 48.4036 40.3005 48.202L36.9911 46.1933C36.6185 45.966 36.1802 45.898 35.749 46.0012C35.3224 46.1066 34.9638 46.3691 34.7365 46.7441L32.7278 50.0535C32.5263 50.3863 32.6317 50.8175 32.9622 51.0191C33.0771 51.0871 33.2013 51.1223 33.3255 51.1223C33.5646 51.1223 33.7942 51.0027 33.9278 50.7848L35.3763 48.3988C36.3044 51.9308 39.5318 54.5182 43.3101 54.5182C45.8601 54.5182 48.2226 53.3627 49.7907 51.3447C50.0298 51.0377 49.9735 50.5971 49.6665 50.358L49.6687 50.3559ZM53.6624 41.6067C53.3296 41.4051 52.8984 41.5106 52.6968 41.8434L51.2483 44.2294C50.3202 40.6974 47.0928 38.11 43.3145 38.11C40.7645 38.11 38.402 39.2655 36.8339 41.2834C36.5948 41.5905 36.6511 42.0311 36.9581 42.2701C37.2651 42.5092 37.7081 42.453 37.9448 42.1459C39.2433 40.4748 41.2003 39.5162 43.3143 39.5162C46.5885 39.5162 49.3563 41.8624 49.9755 44.9936L47.0576 43.2217C46.7247 43.0202 46.2912 43.1256 46.0919 43.4584C45.8904 43.7913 45.9958 44.2225 46.3263 44.4241L49.6357 46.4327C49.8958 46.5897 50.1888 46.6718 50.4841 46.6718C50.613 46.6718 50.7466 46.6554 50.8779 46.6249C51.3044 46.5194 51.663 46.2569 51.8904 45.8819L53.899 42.5726C54.1005 42.2397 53.9951 41.8085 53.6646 41.6069L53.6624 41.6067Z" fill="#39A300"/>
</svg>
