<svg width="66" height="73" viewBox="0 0 66 73" fill="none" xmlns="http://www.w3.org/2000/svg">
<path d="M33.0033 58.014C25.2153 58.014 18.2193 54.45 13.6653 48.84H8.78125C13.8633 56.76 22.8393 62.04 33.0033 62.04C43.1673 62.04 52.1433 56.76 57.2913 48.84H52.4072C47.7873 54.45 40.7913 58.014 33.0033 58.014Z" fill="#39A300"/>
<path d="M17.0289 13.728C21.3849 10.164 26.9289 7.98596 33.0009 7.98596C39.0729 7.98596 44.6169 10.164 48.9729 13.728C50.2929 13.134 51.8109 12.804 53.3289 12.804C53.4609 12.804 53.6589 12.804 53.7909 12.804C48.5109 7.39196 41.1849 3.95996 33.0009 3.95996C24.8169 3.95996 17.4909 7.32596 12.2109 12.738C12.3429 12.738 12.5409 12.738 12.6729 12.738C14.2569 12.738 15.7089 13.134 17.0289 13.728Z" fill="#39A300"/>
<path d="M12.6703 29.9639C16.3003 29.9639 19.2703 26.9939 19.2703 23.3639C19.2703 19.7339 16.3003 16.7639 12.6703 16.7639C9.04031 16.7639 6.07031 19.7339 6.07031 23.3639C6.07031 26.9939 9.04031 29.9639 12.6703 29.9639Z" fill="#39A300"/>
<path d="M18.4819 44.2199C18.4819 40.7219 19.8019 37.4879 21.9139 35.0459C20.9899 33.6599 19.7359 32.4719 18.2839 31.6799C16.6999 32.8019 14.7199 33.3959 12.6079 33.3959C10.4959 33.3959 8.58194 32.7359 6.93194 31.6799C3.76394 33.4619 1.58594 36.8939 1.58594 40.7879V42.1739C1.58594 43.6259 2.77394 44.8139 4.22594 44.8139H18.4819V44.2199Z" fill="#39A300"/>
<path d="M46.7266 23.3639C46.7266 26.9939 49.6966 29.9639 53.3266 29.9639C56.9566 29.9639 59.9266 26.9939 59.9266 23.3639C59.9266 19.7339 56.9566 16.7639 53.3266 16.7639C49.6966 16.7639 46.7266 19.7339 46.7266 23.3639Z" fill="#39A300"/>
<path d="M59.0054 31.746C57.3554 32.868 55.4414 33.462 53.3294 33.462C51.2174 33.462 49.3034 32.802 47.6534 31.746C46.2014 32.538 44.9474 33.726 44.0234 35.112C46.2014 37.488 47.5214 40.722 47.5214 44.22V44.88H61.7114C63.1634 44.88 64.3514 43.692 64.3514 42.24V40.854C64.3514 36.894 62.1734 33.528 59.0054 31.746Z" fill="#39A300"/>
<path d="M32.9984 33.3959C36.6284 33.3959 39.5984 30.4259 39.5984 26.7959C39.5984 23.1659 36.6284 20.1959 32.9984 20.1959C29.3684 20.1959 26.3984 23.1659 26.3984 26.7959C26.3984 30.4259 29.3684 33.3959 32.9984 33.3959Z" fill="#39A300"/>
<path d="M21.9766 44.2199V45.6059C21.9766 47.0579 23.1646 48.2459 24.6166 48.2459H41.3146C42.7666 48.2459 43.9546 47.0579 43.9546 45.6059V44.2199C43.9546 40.3259 41.7766 36.8939 38.6086 35.1119C36.9586 36.2339 35.0446 36.8279 32.9326 36.8279C30.8206 36.8279 28.9066 36.1679 27.2566 35.1119C24.1546 36.8939 21.9766 40.3259 21.9766 44.2199Z" fill="#39A300"/>
</svg>
