<svg width="66" height="82" viewBox="0 0 66 82" fill="none" xmlns="http://www.w3.org/2000/svg">
<path d="M43.9966 45.1164H23.3062C23.7578 39.8037 28.2249 35.6188 33.6529 35.6188C39.0807 35.6188 43.5452 39.804 43.9966 45.1164ZM33.6529 33.8434C36.6358 33.8434 39.0606 31.4157 39.0606 28.4328C39.0606 25.4499 36.6358 23.0251 33.6529 23.0251C30.67 23.0251 28.2423 25.4499 28.2423 28.4328C28.2423 31.4157 30.67 33.8434 33.6529 33.8434ZM31.9501 13.4439L31.0526 16.1909L33.3911 14.4852C33.6414 14.2982 33.9376 14.2062 34.2339 14.2062C34.5301 14.2062 34.8293 14.3011 35.0824 14.4881L37.4152 16.1909L36.5148 13.441C36.3164 12.837 36.5321 12.1898 37.0499 11.8245L39.3827 10.1331L36.4861 10.1389C35.8619 10.1389 35.3125 9.74194 35.1198 9.14936L34.231 6.39087L33.3422 9.14649C33.161 9.73615 32.6116 10.1389 31.9759 10.1389L29.0793 10.1331L31.4265 11.8302C31.9327 12.184 32.1456 12.8341 31.9471 13.4382L31.9501 13.4439ZM49.1191 23.1919L48.2188 25.9418L50.5573 24.2332C51.0635 23.865 51.7424 23.865 52.2486 24.2303L54.5872 25.936L53.6897 23.1833C53.4941 22.5993 53.7012 21.9521 54.2017 21.5811L56.5546 19.8811L53.6609 19.8869C53.0252 19.8869 52.4758 19.4842 52.2917 18.883L51.4058 16.1388L50.517 18.8945C50.3214 19.4899 49.7749 19.8869 49.1507 19.8869L46.2541 19.8811L48.5956 21.5753C49.1076 21.9464 49.3175 22.5936 49.1191 23.189L49.1191 23.1919ZM31.7858 67.6962V75.0052C31.7858 75.1807 31.688 75.382 31.55 75.4942C31.4867 75.5431 31.4349 75.5661 31.3889 75.5575L15.8965 73.0579C15.8218 73.0464 15.1631 72.9285 15.1631 72.5028V67.6934C15.1631 67.3943 15.4162 67.1527 15.7268 67.1527H31.2192C31.5241 67.1527 31.783 67.4 31.783 67.6934L31.7858 67.6962ZM30.7762 71.3579C30.7762 70.8258 30.3246 70.3943 29.7695 70.3943H26.9909C26.4328 70.3943 25.9841 70.8258 25.9841 71.3579C25.9841 71.8901 26.4357 72.3215 26.9909 72.3215H29.7695C30.3275 72.3215 30.7762 71.8901 30.7762 71.3579ZM50.8708 67.6761V72.4884C50.8737 72.8278 50.4307 72.9918 50.1719 73.0349L35.3643 75.5316C35.3212 75.5403 35.2694 75.5173 35.209 75.4684C35.0767 75.3562 34.9846 75.1548 34.9846 74.9794V67.6761C34.9846 67.3827 35.232 67.1353 35.5254 67.1353H50.3329C50.6292 67.1353 50.8737 67.377 50.8737 67.6761L50.8708 67.6761ZM40.533 71.335C40.533 70.8028 40.1016 70.3714 39.5694 70.3714H36.9116C36.3795 70.3714 35.948 70.8028 35.948 71.335C35.948 71.8671 36.3795 72.2986 36.9116 72.2986H39.5694C40.1016 72.2986 40.533 71.8671 40.533 71.335ZM55.5166 29.8136C54.3545 29.8136 53.4081 30.7571 53.4081 31.9163V45.9706C53.4081 47.5439 53.2844 48.1595 52.5049 48.9448L51.5298 49.9256L45.2506 56.2451C45.0608 56.435 44.8134 56.5299 44.566 56.5299C44.3187 56.5299 44.0742 56.435 43.8872 56.2509C43.5104 55.8769 43.5075 55.2643 43.8814 54.8874L50.1377 48.5909L50.1463 48.5823C50.8165 47.9063 50.8251 46.8651 50.1664 46.2063C49.4905 45.5304 48.3916 45.5304 47.7157 46.2063L39.3624 54.5626C39.348 54.577 39.3337 54.5885 39.3193 54.6029C38.8792 54.9912 38.5714 55.67 38.5714 56.2511V65.2111H47.2693V64.1008C47.2693 62.864 47.7094 62.2887 48.3825 61.5552C48.3911 61.5437 48.4026 61.5351 48.4113 61.5265L56.741 53.1967C57.3048 52.6329 57.6154 51.8793 57.6154 51.0768V31.9196C57.6154 30.7604 56.6691 29.8169 55.507 29.8169L55.5166 29.8136ZM13.6131 23.195L12.7156 25.942L15.0541 24.2363C15.3044 24.0522 15.5978 23.9601 15.894 23.9601C16.1874 23.9601 16.4837 24.0522 16.7397 24.2334L19.0811 25.942L18.1807 23.1892C17.9851 22.5996 18.1951 21.9495 18.7071 21.5813L21.0485 19.8871L18.1548 19.8928C17.5306 19.8928 16.9812 19.4959 16.7885 18.9033L15.8997 16.1448L15.0109 18.9004C14.8297 19.4901 14.2803 19.8928 13.6446 19.8928L10.748 19.8871L13.0923 21.5813C13.6015 21.9581 13.8087 22.6053 13.6131 23.195ZM17.758 61.572C18.4627 62.3055 18.9229 62.8808 18.9229 64.1205V65.2308H28.0236V56.2648C28.0236 55.6838 27.7015 55.005 27.2441 54.6166C27.2297 54.6051 27.2153 54.5908 27.201 54.5764L18.4625 46.215C17.7549 45.539 16.6044 45.539 15.8996 46.215C15.2121 46.8737 15.2237 47.9178 15.9226 48.5938L15.9313 48.6024L22.4751 54.9018C22.8663 55.2786 22.8663 55.8913 22.4693 56.2652C22.2737 56.4522 22.0149 56.5471 21.7589 56.5471C21.5 56.5471 21.2411 56.4522 21.0426 56.2624L14.4729 49.94L13.4546 48.962C12.6377 48.1739 12.5083 47.5584 12.5083 45.9849V31.9248C12.5083 30.7656 11.5187 29.8221 10.3049 29.8221C9.08822 29.8221 8.10156 30.7655 8.10156 31.9248V51.0901C8.10156 51.8926 8.4266 52.6463 9.01627 53.2129L17.7319 61.5456C17.7434 61.5542 17.752 61.5658 17.7606 61.5744L17.758 61.572Z" fill="#39A300"/>
</svg>
