<svg width="66" height="66" viewBox="0 0 66 66" fill="none" xmlns="http://www.w3.org/2000/svg">
<path d="M24.0522 38.2285C24.1862 38.0016 24.3409 37.785 24.4853 37.5685C22.4125 37.2797 20.1128 37.1044 18.1534 36.991L11.6875 51.4388L29.5487 62.6382C30.4356 63.1641 31.5803 62.9063 32.1578 62.04C32.3744 61.7203 32.4878 61.3491 32.4878 60.9572C32.4878 60.6994 32.4363 60.4622 32.3434 60.2457L23.2891 54.811L23.815 53.9344L34.705 60.4519C35.5816 60.9882 36.7366 60.7303 37.3244 59.8744C37.5306 59.5547 37.6441 59.1835 37.6441 58.7916C37.6441 58.1728 37.3656 57.616 36.8809 57.2447L35.6744 56.3166L28.8681 52.2328L29.4044 51.3563L40.2841 57.8738C41.1606 58.41 42.3156 58.1522 42.9034 57.2963C43.12 56.9766 43.2231 56.6053 43.2231 56.2135C43.2231 55.6978 43.0272 55.2132 42.6662 54.8728L34.0244 49.6857L34.5606 48.7988L45.4403 55.3266C46.3272 55.8628 47.4822 55.605 48.0597 54.7388C48.6269 53.8932 48.4309 52.7382 47.6266 52.1194L36.0663 43.23C34.1688 41.7657 31.5597 41.5078 29.4147 42.5907L27.0634 43.7663C26.0013 44.3128 24.5575 44.0963 23.6706 43.2094C22.7013 42.2503 22.5259 40.7757 23.2272 39.6207L24.0522 38.2285Z" fill="#39A300"/>
<path d="M37.8898 34.6191C35.5488 33.5982 32.9295 33.4744 30.506 34.2891C28.1754 35.0626 26.1954 36.6507 24.9373 38.7544L24.1123 40.1466C23.6585 40.8994 23.772 41.8585 24.3907 42.4876C24.9682 43.0651 25.8963 43.1991 26.5873 42.8382L28.9592 41.6626C31.4548 40.4147 34.4867 40.7035 36.6935 42.4154L48.2538 51.2944C48.5632 51.5316 48.8107 51.8307 48.9963 52.1504C50.4298 51.6038 52.0076 50.9644 53.7607 50.2013L48.9551 39.466L37.8898 34.6191Z" fill="#39A300"/>
<path d="M25.0689 17.3456L28.4617 20.656C28.5854 20.7694 28.637 20.9447 28.6061 21.1097L27.8017 25.7813C27.7295 26.2041 28.1729 26.5238 28.5545 26.3278L32.7517 24.121C32.9064 24.0385 33.0817 24.0385 33.2364 24.121L37.4336 26.3278C37.8151 26.5238 38.2586 26.2041 38.1864 25.7813L37.382 21.1097C37.3511 20.9447 37.4129 20.7694 37.5264 20.656L40.9192 17.3456C41.2286 17.0466 41.0533 16.531 40.6304 16.4691L35.9383 15.7885C35.7733 15.7678 35.6289 15.6544 35.5464 15.51L33.4529 11.2613C33.2673 10.8797 32.7208 10.8797 32.5248 11.2613L30.4314 15.51C30.3592 15.6647 30.2148 15.7678 30.0395 15.7885L25.3473 16.4691C24.9245 16.531 24.7595 17.0466 25.0586 17.3456H25.0689Z" fill="#39A300"/>
<path d="M34.0312 4.125C34.0312 3.55546 33.5695 3.09375 33 3.09375C32.4305 3.09375 31.9688 3.55546 31.9688 4.125V7.21875C31.9688 7.78829 32.4305 8.25 33 8.25C33.5695 8.25 34.0312 7.78829 34.0312 7.21875V4.125Z" fill="#39A300"/>
<path d="M23.2986 12.21C23.6492 12.6535 24.2989 12.7257 24.7526 12.375C25.1961 12.0244 25.2683 11.3747 24.9176 10.921L22.9067 8.40472C22.5561 7.96128 21.9064 7.88909 21.4526 8.23972C20.9989 8.59034 20.937 9.24003 21.2876 9.69378L23.2986 12.21Z" fill="#39A300"/>
<path d="M42.7036 12.21L44.7145 9.69373C45.0651 9.2503 45.0033 8.60061 44.5495 8.23967C44.0958 7.87873 43.4564 7.96123 43.0954 8.40467L41.0845 10.9209C40.7339 11.3644 40.7958 12.014 41.2495 12.375C41.6929 12.7256 42.3426 12.6534 42.7036 12.21Z" fill="#39A300"/>
<path d="M64.101 32.0822L63.7814 32.0307C58.8004 31.2675 53.6957 31.6388 48.9107 33.1032L48.4879 33.2372C47.9207 33.4125 47.632 33.99 47.8589 34.4953L57.3979 55.8113C57.5526 56.1619 57.9342 56.3991 58.3467 56.3991H63.9257C64.4929 56.3991 64.957 55.9763 64.957 55.4503V33.0207C64.957 32.5566 64.596 32.1647 64.0907 32.0822H64.101Z" fill="#39A300"/>
<path d="M2.065 56.3991H7.64406C8.06687 56.3991 8.43813 56.1722 8.59281 55.8113L18.1319 34.4953C18.3587 33.99 18.07 33.4125 17.5028 33.2372L17.08 33.1032C12.295 31.6388 7.19031 31.2675 2.20938 32.0307L1.88969 32.0822C1.39469 32.1544 1.02344 32.5566 1.02344 33.0207V55.4503C1.02344 55.9763 1.4875 56.3991 2.05469 56.3991H2.065Z" fill="#39A300"/>
</svg>
