<svg width="66" height="66" viewBox="0 0 66 66" fill="none" xmlns="http://www.w3.org/2000/svg">
<path fill-rule="evenodd" clip-rule="evenodd" d="M40.0051 47.1186C42.3184 40.5726 46.1857 37.4364 46.1857 31.8348C46.1857 30.302 45.9232 28.8301 45.4428 27.4613C45.4287 27.4238 45.4381 27.3863 45.4638 27.3559C47.0201 25.5629 48.6607 23.8918 50.4092 22.4152C50.449 22.3824 50.4584 22.3262 50.4326 22.2793C50.4068 22.2348 50.3529 22.216 50.3037 22.2324C41.2731 25.4246 35.2125 34.8204 32.6157 37.5228C32.5946 37.5439 32.5688 37.5556 32.5407 37.5556C32.5102 37.5556 32.4844 37.5463 32.4634 37.5252L25.7416 30.8994C25.7087 30.8666 25.6994 30.8173 25.7205 30.7751L26.8759 28.5064C26.8923 28.476 26.9181 28.4549 26.9533 28.4502C26.9884 28.4455 27.0189 28.4549 27.0447 28.4783L32.7611 34.0213C32.7822 34.0424 32.8079 34.0518 32.8361 34.0518C32.8665 34.0518 32.89 34.04 32.9111 34.0189C34.6782 32.1791 38.0532 27.2383 42.8741 23.2633C42.8975 23.2446 42.9092 23.2188 42.9116 23.1883C42.9139 23.1579 42.9045 23.1321 42.8858 23.1087C40.4694 20.3688 36.9326 18.6415 32.993 18.6415C25.7084 18.6415 19.805 24.5454 19.805 31.8295C19.805 37.431 23.6745 40.5691 25.988 47.1199C26.0067 47.1714 26.0606 47.2019 26.1122 47.1878C26.2903 47.1457 26.4755 47.1246 26.6606 47.1246H39.3542C39.5324 47.1246 39.7058 47.1433 39.8746 47.1808C39.9355 47.1972 39.9871 47.1667 40.0058 47.1175L40.0051 47.1186ZM38.8403 48.4686H26.6669C25.4646 48.4686 24.8177 50.3881 25.7482 51.4826C25.9896 51.7662 26.3154 51.9444 26.6669 51.9444H39.3605C40.5722 51.9444 41.205 50.0178 40.2792 48.9303C39.8316 48.403 39.4168 48.4686 38.8403 48.4686ZM36.8036 53.1749H26.6666C25.4549 53.1749 24.8221 55.1014 25.7479 56.1889C25.9893 56.4725 26.3151 56.6506 26.6666 56.6506H39.3602C40.5719 56.6506 41.2047 54.7241 40.2789 53.6366C40.0375 53.353 39.7117 53.1749 39.3602 53.1749H36.8036ZM32.1981 11.6387C32.1981 11.1957 32.5567 10.8395 32.9973 10.8395C33.4403 10.8395 33.7965 11.1981 33.7965 11.6387V14.6035C33.7965 15.0465 33.4379 15.4027 32.9973 15.4027C32.5543 15.4027 32.1981 15.0441 32.1981 14.6035V11.6387ZM53.0385 33.4217C53.4815 33.4217 53.8377 33.7803 53.8377 34.2209C53.8377 34.6638 53.4791 35.0201 53.0385 35.0201H49.8417C49.3987 35.0201 49.0425 34.6615 49.0425 34.2209C49.0425 33.7779 49.4011 33.4217 49.8417 33.4217H53.0385ZM16.1523 33.4217C16.5953 33.4217 16.9515 33.7803 16.9515 34.2209C16.9515 34.6638 16.5929 35.0201 16.1523 35.0201H12.9555C12.5125 35.0201 12.1562 34.6615 12.1562 34.2209C12.1562 33.7779 12.5148 33.4217 12.9555 33.4217H16.1523ZM20.807 45.2813C21.1187 44.9696 21.6273 44.9696 21.939 45.2813C22.2507 45.593 22.2507 46.1016 21.939 46.4133L19.4945 48.8578C19.1828 49.1695 18.6742 49.1695 18.3625 48.8578C18.0508 48.5461 18.0508 48.0375 18.3625 47.7258L20.807 45.2813ZM47.6312 47.7235C47.9429 48.0352 47.9429 48.5438 47.6312 48.8555C47.3195 49.1672 46.8132 49.1672 46.4992 48.8555L44.0547 46.411C43.7429 46.0992 43.7429 45.5906 44.0547 45.2789C44.3664 44.9672 44.875 44.9672 45.1867 45.2789L47.6312 47.7235ZM20.2916 20.3839C20.6033 20.6956 20.6033 21.2042 20.2916 21.5159C19.9799 21.8276 19.4736 21.8276 19.1596 21.5159L17.0104 19.3667C16.6987 19.055 16.6987 18.5464 17.0104 18.2347C17.3221 17.923 17.8307 17.9229 18.1424 18.2347L20.2916 20.3839ZM37.4738 58.1371C36.7613 59.9113 35.0246 61.1629 32.9973 61.1629C30.9699 61.1629 29.2332 59.9113 28.5207 58.1371C28.5066 58.1042 28.5113 58.0667 28.5324 58.0386C28.5535 58.0082 28.584 57.9917 28.6215 57.9917L37.3755 57.9894C37.413 57.9894 37.4435 58.0058 37.4646 58.0363C37.4833 58.0667 37.4879 58.1019 37.4738 58.1371Z" fill="#39A300"/>
</svg>
