<svg width="17" height="21" viewBox="0 0 17 21" fill="none" xmlns="http://www.w3.org/2000/svg">
<path d="M8.39379 20.1548C11.4635 20.1548 13.9402 17.678 13.9402 14.617C13.9402 11.5473 11.4635 9.07055 8.39379 9.07055C5.33275 9.07055 2.85602 11.5473 2.85602 14.617C2.85602 17.678 5.33275 20.1548 8.39379 20.1548ZM6.81529 17.4687C6.4839 17.7129 6.13507 17.46 6.26588 17.0763L6.89378 15.2013L5.28914 14.0589C4.98391 13.8321 5.07984 13.4048 5.49844 13.4048L7.46936 13.4222L8.07111 11.5386C8.19316 11.1549 8.61176 11.1549 8.73388 11.5386L9.33563 13.4222L11.3065 13.4048C11.7251 13.4048 11.8123 13.8408 11.5159 14.0502L9.91118 15.2013L10.5391 17.0763C10.6699 17.46 10.3211 17.7129 9.98969 17.4687L8.4025 16.3088L6.81529 17.4687ZM3.08276 10.4659C3.93741 9.38445 5.11473 8.56473 6.46646 8.16354L2.5159 1.06477L0.222313 4.56184C0.0653377 4.78858 0.0566168 5.04149 0.196151 5.26823L3.08276 10.4659ZM6.4403 5.18974H10.356L13.0158 0.480469H3.78043L6.4403 5.18974ZM10.3298 8.16354C11.6903 8.56473 12.8589 9.38445 13.7135 10.4659L16.6088 5.26823C16.7396 5.04149 16.7309 4.78858 16.574 4.56184L14.2803 1.06477L10.3298 8.16354Z" fill="white"/>
</svg>
