<svg width="209" height="172" viewBox="0 0 209 172" fill="none" xmlns="http://www.w3.org/2000/svg">
<path d="M24.5 24C26.5767 24 28.6068 23.3842 30.3335 22.2304C32.0602 21.0767 33.406 19.4368 34.2007 17.5182C34.9955 15.5996 35.2034 13.4884 34.7982 11.4516C34.3931 9.41476 33.3931 7.54384 31.9246 6.07538C30.4562 4.60693 28.5853 3.6069 26.5485 3.20176C24.5116 2.79661 22.4004 3.00455 20.4818 3.79927C18.5632 4.59399 16.9233 5.9398 15.7696 7.66652C14.6158 9.39323 14 11.4233 14 13.5C14 16.2848 15.1062 18.9555 17.0754 20.9246C19.0445 22.8938 21.7152 24 24.5 24ZM24.5 27C17.9919 27 5 31.02 5 39V45H44V39C44 31.02 31.0081 27 24.5 27Z" fill="#F2F2F2"/>
<path d="M104.5 24C106.577 24 108.607 23.3842 110.333 22.2304C112.06 21.0767 113.406 19.4368 114.201 17.5182C114.995 15.5996 115.203 13.4884 114.798 11.4516C114.393 9.41476 113.393 7.54384 111.925 6.07538C110.456 4.60693 108.585 3.6069 106.548 3.20176C104.512 2.79661 102.4 3.00455 100.482 3.79927C98.5632 4.59399 96.9233 5.9398 95.7696 7.66652C94.6158 9.39323 94 11.4233 94 13.5C94 16.2848 95.1062 18.9555 97.0754 20.9246C99.0445 22.8938 101.715 24 104.5 24ZM104.5 27C97.9919 27 85 31.02 85 39V45H124V39C124 31.02 111.008 27 104.5 27Z" fill="#F2F2F2"/>
<path d="M184.5 24C186.577 24 188.607 23.3842 190.333 22.2304C192.06 21.0767 193.406 19.4368 194.201 17.5182C194.995 15.5996 195.203 13.4884 194.798 11.4516C194.393 9.41476 193.393 7.54384 191.925 6.07538C190.456 4.60693 188.585 3.6069 186.548 3.20176C184.512 2.79661 182.4 3.00455 180.482 3.79927C178.563 4.59399 176.923 5.9398 175.77 7.66652C174.616 9.39323 174 11.4233 174 13.5C174 16.2848 175.106 18.9555 177.075 20.9246C179.045 22.8938 181.715 24 184.5 24ZM184.5 27C177.992 27 165 31.02 165 39V45H204V39C204 31.02 191.008 27 184.5 27Z" fill="#F2F2F2"/>
<path d="M60.5 86C62.5767 86 64.6068 85.3842 66.3335 84.2304C68.0602 83.0767 69.406 81.4368 70.2007 79.5182C70.9955 77.5996 71.2034 75.4884 70.7982 73.4516C70.3931 71.4148 69.3931 69.5438 67.9246 68.0754C66.4562 66.6069 64.5853 65.6069 62.5485 65.2018C60.5116 64.7966 58.4004 65.0045 56.4818 65.7993C54.5632 66.594 52.9233 67.9398 51.7696 69.6665C50.6158 71.3932 50 73.4233 50 75.5C50 78.2848 51.1062 80.9555 53.0754 82.9246C55.0445 84.8938 57.7152 86 60.5 86ZM60.5 89C53.9919 89 41 93.02 41 101V107H80V101C80 93.02 67.0081 89 60.5 89Z" fill="#F2F2F2"/>
<path d="M148.5 86C150.577 86 152.607 85.3842 154.333 84.2304C156.06 83.0767 157.406 81.4368 158.201 79.5182C158.995 77.5996 159.203 75.4884 158.798 73.4516C158.393 71.4148 157.393 69.5438 155.925 68.0754C154.456 66.6069 152.585 65.6069 150.548 65.2018C148.512 64.7966 146.4 65.0045 144.482 65.7993C142.563 66.594 140.923 67.9398 139.77 69.6665C138.616 71.3932 138 73.4233 138 75.5C138 78.2848 139.106 80.9555 141.075 82.9246C143.045 84.8938 145.715 86 148.5 86ZM148.5 89C141.992 89 129 93.02 129 101V107H168V101C168 93.02 155.008 89 148.5 89Z" fill="#F2F2F2"/>
<path d="M104.5 148C106.577 148 108.607 147.384 110.333 146.23C112.06 145.077 113.406 143.437 114.201 141.518C114.995 139.6 115.203 137.488 114.798 135.452C114.393 133.415 113.393 131.544 111.925 130.075C110.456 128.607 108.585 127.607 106.548 127.202C104.512 126.797 102.4 127.005 100.482 127.799C98.5632 128.594 96.9233 129.94 95.7696 131.667C94.6158 133.393 94 135.423 94 137.5C94 140.285 95.1062 142.955 97.0754 144.925C99.0445 146.894 101.715 148 104.5 148ZM104.5 151C97.9919 151 85 155.02 85 163V169H124V163C124 155.02 111.008 151 104.5 151Z" fill="#F2F2F2"/>
</svg>
