<svg width="22" height="20" viewBox="0 0 22 20" fill="none" xmlns="http://www.w3.org/2000/svg">
<g clip-path="url(#clip0_248_326851)">
<path d="M2.97935 15.4204L3.79297 16.8066L10.9548 13.2106L18.1166 16.8066L18.9303 15.4204L11.7684 11.8245V3.34682H10.1513V11.8245L2.97935 15.4204ZM0.438058 16.8568C0.438058 17.2687 0.608817 17.5701 0.970424 17.7709L2.97935 18.9461C3.24051 19.1068 3.42132 19.137 3.77288 18.9361L5.73159 17.8011C6.09319 17.6001 6.1635 17.4294 6.15346 17.0979L6.1635 14.7676C6.1635 14.3658 5.9827 14.0745 5.64118 13.8736L3.62221 12.6984C3.36105 12.5578 3.14007 12.5075 2.79855 12.6984L0.80971 13.8535C0.468192 14.0444 0.417969 14.2453 0.417969 14.5265L0.438058 16.8568ZM15.6959 17.108C15.6858 17.4394 15.7561 17.6102 16.1177 17.8111L18.0765 18.9461C18.428 19.147 18.6089 19.117 18.8699 18.9562L20.8789 17.781C21.2405 17.5801 21.4113 17.2787 21.4113 16.8669L21.4313 14.5366C21.4313 14.2553 21.3811 14.0544 21.0396 13.8635L19.0508 12.7084C18.7092 12.5176 18.4883 12.5678 18.2271 12.7084L16.2082 13.8837C15.8666 14.0846 15.6858 14.3758 15.6858 14.7776L15.6959 17.108ZM8.39342 5.06445L10.4225 6.22963C10.7639 6.42048 11.0954 6.42048 11.437 6.22963L13.466 5.06445C13.7472 4.90374 13.8677 4.75307 13.8677 4.34124V2.07115C13.8677 1.66936 13.7472 1.52874 13.4861 1.37807L11.457 0.222935C11.0954 0.0220425 10.7539 0.0220425 10.4023 0.222935L8.37333 1.37807C8.12221 1.51869 7.98159 1.66936 7.98159 2.07115V4.34124C7.98159 4.75307 8.13225 4.91379 8.39342 5.06445Z" fill="#39A300"/>
</g>
<defs>
<clipPath id="clip0_248_326851">
<rect width="21.0134" height="19.0547" fill="white" transform="translate(0.417969 0.0722656)"/>
</clipPath>
</defs>
</svg>
