<svg width="1440" height="296" viewBox="0 0 1440 296" fill="none" xmlns="http://www.w3.org/2000/svg">
<g clip-path="url(#clip0_367_85430)">
<rect width="957.449" height="957.449" transform="translate(-80 0.976562)" fill="#3873E4"/>
<path d="M877.449 0.974609H-80V958.423H877.449V0.974609Z" fill="#161141"/>
<path d="M-3.7684 117.986V109.601C18.7194 109.601 37.0146 127.896 37.0146 150.384H28.6293C28.6293 132.52 14.0958 117.986 -3.7684 117.986Z" fill="#88E755"/>
<path d="M28.6291 77.2023H37.0144C37.0144 95.0665 51.5479 109.6 69.4121 109.6V117.985C46.9243 117.985 28.6291 99.6902 28.6291 77.2023Z" fill="#F5F7F8"/>
<path d="M-3.77051 151.462L68.3323 223.565H69.4103V222.487L-2.69254 150.384H-3.77051V151.462Z" fill="#88E755"/>
<path d="M69.4106 185.896L33.8981 150.384H31.7422L69.4106 188.052V185.896Z" fill="#88E755"/>
<path d="M57.2124 264.348L69.4092 264.348L69.4092 255.962L57.2124 255.962L57.2124 264.348Z" fill="#88E755"/>
<path d="M30.7432 269.508L38.3617 273.012C39.8469 269.781 42.4442 267.184 45.6736 265.699L42.1703 258.081C37.123 260.402 33.0644 264.46 30.7432 269.508Z" fill="#88E755"/>
<path d="M28.6264 296.746L37.0117 296.746L37.0117 284.549L28.6264 284.549L28.6264 296.746Z" fill="#88E755"/>
<path d="M69.4081 117.986V109.601H142.589V117.986H110.191V150.384H101.806V117.986H69.4081Z" fill="#3873E4"/>
<path d="M101.811 223.565H110.196V150.384H101.811V182.782H69.4131V191.167H101.811V223.565Z" fill="#3873E4"/>
<path d="M81.6099 259.392H69.4131V260.917H81.6099V259.392Z" fill="#F5F7F8"/>
<path d="M106.765 284.547H105.24V296.744H106.765V284.547Z" fill="#88E755"/>
<path d="M105.24 252.024H106.765V268.286H105.24V260.917H93.8057V259.392H105.24V252.024Z" fill="#88E755"/>
<path d="M106.765 223.562H105.24V235.759H106.765V223.562Z" fill="#F5F7F8"/>
<path d="M215.771 149.306L143.669 77.203H142.591V78.281L214.694 150.384H215.771V149.306Z" fill="#3873E4"/>
<path d="M142.59 114.871L178.103 150.384H180.259L142.59 112.715V114.871Z" fill="#3873E4"/>
<path d="M142.593 191.167V182.781C165.081 182.781 183.376 201.077 183.376 223.564H174.991C174.991 205.7 160.457 191.167 142.593 191.167Z" fill="#3873E4"/>
<path d="M174.99 150.382H183.376C183.376 168.246 197.909 182.78 215.773 182.78V191.165C193.286 191.165 174.99 172.87 174.99 150.382Z" fill="#88E755"/>
<path d="M174.989 223.563H183.374V296.744H174.989V264.346H142.591V255.961H174.989V223.563Z" fill="#88E755"/>
<path d="M248.169 77.203H256.555V150.384H248.169V117.986H215.771V109.601H248.169V77.203Z" fill="#88E755"/>
<path d="M288.952 182.782V191.167C266.464 191.167 248.169 172.872 248.169 150.384H256.554C256.554 168.248 271.088 182.782 288.952 182.782Z" fill="#3873E4"/>
<path d="M256.555 223.565H248.169C248.169 205.701 233.636 191.168 215.771 191.168V182.782C238.259 182.782 256.555 201.077 256.555 223.565Z" fill="#3873E4"/>
<path d="M288.952 255.964V264.349C266.464 264.349 248.169 246.054 248.169 223.566H256.554C256.554 241.431 271.088 255.964 288.952 255.964Z" fill="#3873E4"/>
<path d="M256.555 296.748H248.169C248.169 278.884 233.636 264.35 215.771 264.35V255.965C238.259 255.965 256.555 274.26 256.555 296.748Z" fill="#88E755"/>
<path d="M288.953 117.986V109.601L362.134 109.601V117.986H329.736V150.384H321.351V117.986L288.953 117.986Z" fill="#88E755"/>
<path d="M288.952 191.167V182.781C311.44 182.781 329.735 201.077 329.735 223.564H321.35C321.35 205.7 306.816 191.167 288.952 191.167Z" fill="#88E755"/>
<path d="M321.35 150.382H329.735C329.735 168.246 344.269 182.78 362.133 182.78V191.165C339.645 191.165 321.35 172.87 321.35 150.382Z" fill="#F5F7F8"/>
<path d="M329.735 296.745H321.35V223.564H329.735V255.962H362.133V264.348H329.735V296.745Z" fill="#3873E4"/>
<path d="M435.316 78.2791L363.214 150.382H362.136V149.304L434.238 77.2012H435.316V78.2791Z" fill="#F5F7F8"/>
<path d="M362.135 112.714L397.648 77.2012H399.804L362.135 114.87V112.714Z" fill="#88E755"/>
<path d="M402.919 223.565H394.533C394.533 201.077 412.829 182.782 435.316 182.782V191.168C417.452 191.168 402.919 205.701 402.919 223.565Z" fill="#3873E4"/>
<path d="M362.135 191.167V182.782C379.999 182.782 394.533 168.248 394.533 150.384H402.918C402.918 172.872 384.623 191.167 362.135 191.167Z" fill="#3873E4"/>
<path d="M402.917 223.562H394.531V235.759H402.917V223.562Z" fill="#88E755"/>
<path d="M389.37 262.229L385.867 254.611C389.098 253.126 391.695 250.528 393.18 247.299L400.798 250.802C398.477 255.85 394.418 259.908 389.37 262.229Z" fill="#88E755"/>
<path d="M374.33 255.96H362.133V264.346H374.33V255.96Z" fill="#3873E4"/>
<path d="M447.511 109.601L435.314 109.601L435.314 117.986L447.511 117.986L447.511 109.601Z" fill="#3873E4"/>
<path d="M473.98 123.147L466.362 126.65C464.877 123.42 462.279 120.823 459.05 119.338L462.553 111.719C467.601 114.04 471.659 118.099 473.98 123.147Z" fill="#88E755"/>
<path d="M476.097 138.188L467.712 138.188L467.712 150.385L476.097 150.385L476.097 138.188Z" fill="#F5F7F8"/>
<path d="M467.71 223.563H476.096V211.366H467.71V223.563Z" fill="#88E755"/>
<path d="M481.256 184.896L484.76 192.514C481.529 193.999 478.932 196.597 477.447 199.826L469.829 196.323C472.15 191.275 476.209 187.217 481.256 184.896Z" fill="#F5F7F8"/>
<path d="M496.297 191.165H508.494V182.779H496.297V191.165Z" fill="#88E755"/>
<path d="M508.496 264.348V255.963C486.008 255.963 467.713 274.258 467.713 296.746H476.098C476.098 278.882 490.632 264.348 508.496 264.348Z" fill="#3873E4"/>
<path d="M476.098 223.565H467.713C467.713 241.429 453.18 255.962 435.315 255.962V264.348C457.803 264.348 476.098 246.052 476.098 223.565Z" fill="#88E755"/>
<path d="M540.892 77.1994H549.277C549.277 99.6872 530.982 117.982 508.494 117.982V109.597C526.358 109.597 540.892 95.0636 540.892 77.1994Z" fill="#F5F7F8"/>
<path d="M581.676 109.598V117.983C563.811 117.983 549.278 132.517 549.278 150.381H540.893C540.893 127.893 559.188 109.598 581.676 109.598Z" fill="#3873E4"/>
<path d="M520.695 182.78L508.498 182.78L508.498 191.165L520.695 191.165L520.695 182.78Z" fill="#88E755"/>
<path d="M547.164 196.327L539.545 199.83C538.06 196.599 535.463 194.003 532.234 192.518L535.737 184.899C540.784 187.22 544.843 191.279 547.164 196.327Z" fill="#3873E4"/>
<path d="M549.281 211.368L540.896 211.368L540.896 223.564L549.281 223.564L549.281 211.368Z" fill="#F5F7F8"/>
<path d="M580.6 296.746L508.497 224.643V223.565H509.575L581.678 295.668V296.746H580.6Z" fill="#F5F7F8"/>
<path d="M546.165 223.563L581.678 259.076V261.231L544.009 223.563H546.165Z" fill="#3873E4"/>
<path d="M654.857 109.601L642.66 109.601L642.66 117.986L654.857 117.986L654.857 109.601Z" fill="#88E755"/>
<path d="M616.19 104.44L623.809 100.937C625.294 104.167 627.891 106.764 631.121 108.249L627.618 115.868C622.57 113.546 618.512 109.488 616.19 104.44Z" fill="#88E755"/>
<path d="M622.459 77.2036L614.073 77.2036L614.073 89.4004L622.459 89.4004L622.459 77.2036Z" fill="#F5F7F8"/>
<path d="M619.027 150.384L617.502 150.384L617.502 162.581L619.027 162.581L619.027 150.384Z" fill="#88E755"/>
<path d="M593.872 186.213L581.675 186.213L581.675 187.737L593.872 187.737L593.872 186.213Z" fill="#F5F7F8"/>
<path d="M626.397 186.213V187.737H610.135V186.213H617.504V174.778H619.029V186.213H626.397Z" fill="#3873E4"/>
<path d="M654.856 186.213L642.659 186.213L642.659 187.737L654.856 187.737L654.856 186.213Z" fill="#3873E4"/>
<path d="M653.78 296.746L581.678 224.643V223.565H582.756L654.858 295.668V296.746H653.78Z" fill="#88E755"/>
<path d="M619.346 223.563L654.858 259.076V261.231L617.19 223.563H619.346Z" fill="#F5F7F8"/>
<path d="M695.641 150.383H687.256C687.256 127.895 705.551 109.6 728.039 109.6V117.985C710.175 117.985 695.641 132.518 695.641 150.383Z" fill="#3873E4"/>
<path d="M654.858 117.984V109.599C672.722 109.599 687.255 95.0654 687.255 77.2012H695.641C695.641 99.689 677.345 117.984 654.858 117.984Z" fill="#88E755"/>
<path d="M695.641 211.369H687.256V223.566H695.641V211.369Z" fill="#3873E4"/>
<path d="M682.095 184.898L678.592 192.517C681.823 194.002 684.419 196.599 685.904 199.829L693.523 196.326C691.202 191.278 687.143 187.22 682.095 184.898Z" fill="#3873E4"/>
<path d="M667.054 182.782H654.857V191.168H667.054V182.782Z" fill="#88E755"/>
<path d="M695.641 284.55H687.256V296.747H695.641V284.55Z" fill="#88E755"/>
<path d="M682.095 258.079L678.592 265.698C681.823 267.183 684.419 269.78 685.904 273.01L693.523 269.506C691.202 264.459 687.143 260.4 682.095 258.079Z" fill="#88E755"/>
<path d="M667.054 255.963H654.857V264.348H667.054V255.963Z" fill="#3873E4"/>
<path d="M728.041 117.986L740.237 117.986L740.237 109.601L728.04 109.601L728.041 117.986Z" fill="#3873E4"/>
<path d="M766.707 104.44L759.088 100.937C757.603 104.167 755.006 106.764 751.777 108.249L755.28 115.868C760.327 113.546 764.386 109.488 766.707 104.44Z" fill="#F5F7F8"/>
<path d="M760.438 89.3994L768.823 89.3994L768.823 77.2026L760.438 77.2026L760.438 89.3994Z" fill="#3873E4"/>
<path d="M801.22 182.781L789.023 182.781L789.023 191.166L801.22 191.166L801.22 182.781Z" fill="#88E755"/>
<path d="M762.554 177.62L770.172 174.117C771.657 177.348 774.255 179.945 777.484 181.43L773.981 189.048C768.934 186.727 764.875 182.668 762.554 177.62Z" fill="#F5F7F8"/>
<path d="M768.823 150.383L760.438 150.383L760.438 162.58L768.823 162.58L768.823 150.383Z" fill="#88E755"/>
<path d="M801.22 255.963L789.023 255.963L789.023 264.349L801.22 264.349L801.22 255.963Z" fill="#F5F7F8"/>
<path d="M762.554 250.803L770.172 247.3C771.657 250.531 774.255 253.127 777.484 254.612L773.981 262.231C768.934 259.91 764.875 255.851 762.554 250.803Z" fill="#88E755"/>
<path d="M768.823 223.566L760.438 223.566L760.438 235.763L768.823 235.763L768.823 223.566Z" fill="#88E755"/>
</g>
<g clip-path="url(#clip1_367_85430)">
<rect width="841.198" height="957.449" transform="translate(745.778 0.976562)" fill="#3873E4"/>
<path d="M1626.99 0.974609H669.544V958.423H1626.99V0.974609Z" fill="#161141"/>
<path d="M745.775 117.987V109.602C768.262 109.602 786.558 127.897 786.558 150.385H778.172C778.172 132.521 763.639 117.987 745.775 117.987Z" fill="#88E755"/>
<path d="M778.172 77.2033H786.557C786.557 95.0675 801.091 109.601 818.955 109.601V117.986C796.467 117.986 778.172 99.6911 778.172 77.2033Z" fill="#F5F7F8"/>
<path d="M745.773 151.462L817.876 223.565H818.954V222.487L746.851 150.384H745.773V151.462Z" fill="#88E755"/>
<path d="M818.955 185.896L783.442 150.384H781.286L818.955 188.052V185.896Z" fill="#88E755"/>
<path d="M806.758 264.349L818.955 264.349L818.955 255.963L806.758 255.963L806.758 264.349Z" fill="#88E755"/>
<path d="M780.289 269.51L787.908 273.014C789.393 269.783 791.99 267.186 795.219 265.701L791.716 258.083C786.669 260.404 782.61 264.462 780.289 269.51Z" fill="#88E755"/>
<path d="M778.172 296.747L786.558 296.747L786.558 284.55L778.172 284.55L778.172 296.747Z" fill="#88E755"/>
<path d="M818.957 117.987V109.602H892.138V117.987H859.74V150.385H851.355V117.987H818.957Z" fill="#3873E4"/>
<path d="M851.353 223.566H859.738V150.385H851.353V182.783H818.955V191.168H851.353V223.566Z" fill="#3873E4"/>
<path d="M831.151 259.394H818.954V260.919H831.151V259.394Z" fill="#F5F7F8"/>
<path d="M856.306 284.549H854.781V296.746H856.306V284.549Z" fill="#88E755"/>
<path d="M854.781 252.026H856.306V268.288H854.781V260.919H843.347V259.394H854.781V252.026Z" fill="#88E755"/>
<path d="M856.306 223.564H854.781V235.761H856.306V223.564Z" fill="#F5F7F8"/>
<path d="M965.318 149.303L893.216 77.2001H892.138V78.278L964.24 150.381H965.318V149.303Z" fill="#3873E4"/>
<path d="M892.137 114.868L927.65 150.381H929.806L892.137 112.712V114.868Z" fill="#3873E4"/>
<path d="M892.137 191.169V182.783C914.625 182.783 932.92 201.079 932.92 223.566H924.535C924.535 205.702 910.001 191.169 892.137 191.169Z" fill="#3873E4"/>
<path d="M924.534 150.385H932.92C932.92 168.249 947.453 182.783 965.317 182.783V191.168C942.83 191.168 924.534 172.873 924.534 150.385Z" fill="#88E755"/>
<path d="M924.534 223.565H932.92V296.746H924.534V264.348H892.137V255.963H924.534V223.565Z" fill="#88E755"/>
<path d="M997.716 77.2001H1006.1V150.381H997.716V117.983H965.318V109.598H997.716V77.2001Z" fill="#88E755"/>
<path d="M1038.5 182.782V191.167C1016.01 191.167 997.716 172.872 997.716 150.384H1006.1C1006.1 168.248 1020.63 182.782 1038.5 182.782Z" fill="#3873E4"/>
<path d="M1006.1 223.565H997.715C997.715 205.701 983.182 191.168 965.317 191.168V182.782C987.805 182.782 1006.1 201.077 1006.1 223.565Z" fill="#3873E4"/>
<path d="M1038.5 255.963V264.348C1016.01 264.348 997.717 246.053 997.717 223.565H1006.1C1006.1 241.43 1020.64 255.963 1038.5 255.963Z" fill="#3873E4"/>
<path d="M1006.1 296.747H997.716C997.716 278.883 983.183 264.349 965.318 264.349V255.964C987.806 255.964 1006.1 274.259 1006.1 296.747Z" fill="#88E755"/>
<path d="M1038.5 117.987V109.602L1111.68 109.602V117.987H1079.28V150.385H1070.89V117.987L1038.5 117.987Z" fill="#88E755"/>
<path d="M1038.5 191.169V182.783C1060.98 182.783 1079.28 201.079 1079.28 223.566H1070.89C1070.89 205.702 1056.36 191.169 1038.5 191.169Z" fill="#88E755"/>
<path d="M1070.89 150.385H1079.28C1079.28 168.249 1093.81 182.783 1111.68 182.783V191.168C1089.19 191.168 1070.89 172.873 1070.89 150.385Z" fill="#F5F7F8"/>
<path d="M1079.28 296.745H1070.9V223.564H1079.28V255.962H1111.68V264.348H1079.28V296.745Z" fill="#3873E4"/>
<path d="M1184.86 78.2791L1112.76 150.382H1111.68V149.304L1183.78 77.2012H1184.86V78.2791Z" fill="#F5F7F8"/>
<path d="M1111.68 112.714L1147.19 77.2012H1149.35L1111.68 114.87V112.714Z" fill="#88E755"/>
<path d="M1152.46 223.565H1144.08C1144.08 201.077 1162.37 182.782 1184.86 182.782V191.168C1167 191.168 1152.46 205.701 1152.46 223.565Z" fill="#3873E4"/>
<path d="M1111.68 191.167V182.782C1129.54 182.782 1144.08 168.248 1144.08 150.384H1152.46C1152.46 172.872 1134.17 191.167 1111.68 191.167Z" fill="#3873E4"/>
<path d="M1152.46 223.564H1144.08V235.761H1152.46V223.564Z" fill="#88E755"/>
<path d="M1138.92 262.231L1135.41 254.613C1138.64 253.128 1141.24 250.53 1142.73 247.301L1150.34 250.804C1148.02 255.852 1143.96 259.91 1138.92 262.231Z" fill="#88E755"/>
<path d="M1123.88 255.962H1111.68V264.348H1123.88V255.962Z" fill="#3873E4"/>
<path d="M1197.06 109.601L1184.86 109.601L1184.86 117.986L1197.06 117.986L1197.06 109.601Z" fill="#3873E4"/>
<path d="M1223.53 123.148L1215.91 126.651C1214.42 123.421 1211.83 120.824 1208.6 119.339L1212.1 111.72C1217.15 114.041 1221.21 118.1 1223.53 123.148Z" fill="#88E755"/>
<path d="M1225.64 138.188L1217.26 138.188L1217.26 150.385L1225.64 150.385L1225.64 138.188Z" fill="#F5F7F8"/>
<path d="M1217.26 223.567H1225.64V211.37H1217.26V223.567Z" fill="#88E755"/>
<path d="M1230.8 184.899L1234.31 192.518C1231.07 194.003 1228.48 196.6 1226.99 199.83L1219.37 196.327C1221.7 191.279 1225.75 187.221 1230.8 184.899Z" fill="#F5F7F8"/>
<path d="M1245.84 191.169H1258.04V182.783H1245.84V191.169Z" fill="#88E755"/>
<path d="M1258.04 264.349V255.964C1235.55 255.964 1217.26 274.259 1217.26 296.747H1225.64C1225.64 278.883 1240.18 264.349 1258.04 264.349Z" fill="#3873E4"/>
<path d="M1225.64 223.566H1217.26C1217.26 241.43 1202.72 255.963 1184.86 255.963V264.349C1207.35 264.349 1225.64 246.053 1225.64 223.566Z" fill="#88E755"/>
<path d="M1290.44 77.2033H1298.82C1298.82 99.6911 1280.53 117.986 1258.04 117.986V109.601C1275.9 109.601 1290.44 95.0675 1290.44 77.2033Z" fill="#F5F7F8"/>
<path d="M1331.22 109.602V117.987C1313.36 117.987 1298.82 132.521 1298.82 150.385H1290.44C1290.44 127.897 1308.73 109.602 1331.22 109.602Z" fill="#3873E4"/>
<path d="M1270.24 182.783L1258.04 182.783L1258.04 191.168L1270.24 191.168L1270.24 182.783Z" fill="#88E755"/>
<path d="M1296.71 196.33L1289.09 199.833C1287.6 196.602 1285.01 194.006 1281.78 192.52L1285.28 184.902C1290.33 187.223 1294.39 191.282 1296.71 196.33Z" fill="#3873E4"/>
<path d="M1298.82 211.37L1290.44 211.37L1290.44 223.566L1298.82 223.566L1298.82 211.37Z" fill="#F5F7F8"/>
<path d="M1330.14 296.746L1258.04 224.643V223.565H1259.12L1331.22 295.668V296.746H1330.14Z" fill="#F5F7F8"/>
<path d="M1295.71 223.563L1331.22 259.076V261.231L1293.55 223.563H1295.71Z" fill="#3873E4"/>
<path d="M1404.4 109.601L1392.21 109.601L1392.21 117.986L1404.4 117.986L1404.4 109.601Z" fill="#88E755"/>
<path d="M1365.74 104.44L1373.35 100.937C1374.84 104.167 1377.44 106.764 1380.67 108.249L1377.16 115.868C1372.12 113.546 1368.06 109.488 1365.74 104.44Z" fill="#88E755"/>
<path d="M1372.01 77.2026L1363.62 77.2026L1363.62 89.3994L1372.01 89.3994L1372.01 77.2026Z" fill="#F5F7F8"/>
<path d="M1368.57 150.384L1367.05 150.384L1367.05 162.581L1368.57 162.581L1368.57 150.384Z" fill="#88E755"/>
<path d="M1343.42 186.214L1331.22 186.214L1331.22 187.738L1343.42 187.738L1343.42 186.214Z" fill="#F5F7F8"/>
<path d="M1375.94 186.212V187.736H1359.68V186.212H1367.05V174.777H1368.57V186.212H1375.94Z" fill="#3873E4"/>
<path d="M1404.4 186.214L1392.21 186.214L1392.21 187.738L1404.4 187.738L1404.4 186.214Z" fill="#3873E4"/>
<path d="M1403.32 296.746L1331.22 224.643V223.565H1332.3L1404.4 295.668V296.746H1403.32Z" fill="#88E755"/>
<path d="M1368.89 223.563L1404.4 259.076V261.231L1366.73 223.563H1368.89Z" fill="#F5F7F8"/>
<path d="M1445.18 150.383H1436.8C1436.8 127.895 1455.09 109.6 1477.58 109.6V117.985C1459.72 117.985 1445.18 132.518 1445.18 150.383Z" fill="#3873E4"/>
<path d="M1404.4 117.984V109.599C1422.26 109.599 1436.8 95.0654 1436.8 77.2012H1445.18C1445.18 99.689 1426.89 117.984 1404.4 117.984Z" fill="#88E755"/>
<path d="M1445.18 211.369H1436.8V223.566H1445.18V211.369Z" fill="#3873E4"/>
<path d="M1431.64 184.898L1428.13 192.517C1431.36 194.002 1433.96 196.599 1435.45 199.829L1443.06 196.326C1440.74 191.278 1436.68 187.22 1431.64 184.898Z" fill="#3873E4"/>
<path d="M1416.6 182.782H1404.4V191.168H1416.6V182.782Z" fill="#88E755"/>
<path d="M1445.18 284.55H1436.8V296.747H1445.18V284.55Z" fill="#88E755"/>
<path d="M1431.64 258.079L1428.13 265.698C1431.36 267.183 1433.96 269.78 1435.45 273.01L1443.06 269.506C1440.74 264.459 1436.68 260.4 1431.64 258.079Z" fill="#88E755"/>
<path d="M1416.6 255.963H1404.4V264.348H1416.6V255.963Z" fill="#3873E4"/>
</g>
<defs>
<clipPath id="clip0_367_85430">
<rect width="957.449" height="957.449" fill="white" transform="translate(-80 0.976562)"/>
</clipPath>
<clipPath id="clip1_367_85430">
<rect width="841.198" height="957.449" fill="white" transform="translate(745.778 0.976562)"/>
</clipPath>
</defs>
</svg>
