<svg width="282" height="34" viewBox="0 0 282 34" fill="none" xmlns="http://www.w3.org/2000/svg">
<path d="M0 33.0376V3.07195H19.9208V10.2046H7.76575V14.7206H17.2619V21.6844H7.76575V25.905H20.8072V33.0376H0Z" fill="white"/>
<path d="M24.0662 33.0376V1.97462H31.6209V33.0376H24.0662Z" fill="white"/>
<path d="M49.1526 12.3571H56.7073V33.0376H49.5324V31.0962H49.4902C48.2803 32.6719 46.5077 33.4597 44.1723 33.4597C41.3305 33.4597 39.0092 32.4608 37.2085 30.4631C35.4359 28.4654 34.5496 25.8768 34.5496 22.6974C34.5496 19.546 35.4218 16.9715 37.1663 14.9738C38.9108 12.948 41.0914 11.935 43.7081 11.935C45.8746 11.935 47.6754 12.7651 49.1103 14.4251H49.1526V12.3571ZM45.8605 26.8757C46.8735 26.8757 47.7316 26.4958 48.4351 25.7361C49.1385 24.9483 49.4902 23.9354 49.4902 22.6974C49.4902 21.4875 49.1385 20.5027 48.4351 19.743C47.7316 18.9552 46.8735 18.5613 45.8605 18.5613C44.7914 18.5613 43.905 18.9552 43.2016 19.743C42.5263 20.5027 42.1887 21.4875 42.1887 22.6974C42.1887 23.9635 42.5263 24.9764 43.2016 25.7361C43.8769 26.4958 44.7632 26.8757 45.8605 26.8757Z" fill="white"/>
<path d="M73.7114 11.935H73.7536V19.9962C73.3315 19.9681 72.7969 19.954 72.1498 19.954C70.7429 19.954 69.6737 20.3198 68.9422 21.0514C68.2387 21.7829 67.887 22.7677 67.887 24.0057V33.0376H60.3323V12.3571H67.887V15.227H67.9292C69.4486 13.0324 71.376 11.935 73.7114 11.935Z" fill="white"/>
<path d="M89.5442 12.3571H97.099V33.0376H89.9241V31.0962H89.8819C88.672 32.6719 86.8994 33.4597 84.564 33.4597C81.7222 33.4597 79.4009 32.4608 77.6002 30.4631C75.8275 28.4654 74.9412 25.8768 74.9412 22.6974C74.9412 19.546 75.8135 16.9715 77.558 14.9738C79.3024 12.948 81.483 11.935 84.0998 11.935C86.2663 11.935 88.067 12.7651 89.502 14.4251H89.5442V12.3571ZM86.2522 26.8757C87.2652 26.8757 88.1233 26.4958 88.8267 25.7361C89.5302 24.9483 89.8819 23.9354 89.8819 22.6974C89.8819 21.4875 89.5302 20.5027 88.8267 19.743C88.1233 18.9552 87.2652 18.5613 86.2522 18.5613C85.183 18.5613 84.2967 18.9552 83.5933 19.743C82.918 20.5027 82.5804 21.4875 82.5804 22.6974C82.5804 23.9635 82.918 24.9764 83.5933 25.7361C84.2686 26.4958 85.1549 26.8757 86.2522 26.8757Z" fill="white"/>
<path d="M117.278 33.2909C113.086 33.2909 109.541 31.7433 106.643 28.6483L109.006 25.8627C110.047 27.157 111.314 28.1418 112.805 28.8171C114.296 29.4924 115.801 29.83 117.321 29.83C119.178 29.83 120.655 29.4221 121.752 28.6061C122.878 27.7901 123.44 26.6646 123.44 25.2297C123.44 24.4418 123.3 23.7666 123.018 23.2038C122.765 22.6411 122.315 22.1487 121.668 21.7266C121.021 21.2765 120.388 20.9247 119.769 20.6715C119.178 20.3901 118.32 20.0384 117.194 19.6164C116.997 19.532 116.842 19.4757 116.73 19.4476C115.633 19.0536 114.732 18.716 114.029 18.4346C113.353 18.1251 112.566 17.7031 111.665 17.1685C110.793 16.6339 110.104 16.0993 109.597 15.5647C109.119 15.0019 108.697 14.3126 108.331 13.4966C107.965 12.6525 107.782 11.724 107.782 10.7111C107.782 8.48828 108.669 6.61719 110.441 5.0978C112.214 3.57841 114.38 2.80465 116.941 2.77652C120.317 2.77652 123.483 3.94419 126.437 6.27955L124.2 9.1495C121.865 7.17992 119.445 6.19513 116.941 6.19513C115.478 6.19513 114.226 6.58905 113.185 7.37688C112.144 8.13657 111.623 9.1917 111.623 10.5423C111.623 11.105 111.736 11.6255 111.961 12.1039C112.186 12.554 112.439 12.9339 112.72 13.2434C113.002 13.5248 113.494 13.8483 114.198 14.2141C114.901 14.5799 115.45 14.8613 115.844 15.0582C116.266 15.227 116.983 15.5084 117.996 15.9023C121.091 17.0841 123.131 18.0126 124.116 18.6879C126.226 20.1228 127.281 22.1768 127.281 24.8498C127.281 27.4947 126.296 29.5627 124.327 31.054C122.385 32.5452 120.036 33.2909 117.278 33.2909Z" fill="white"/>
<path d="M142.052 33.2909C138.901 33.2909 136.341 32.292 134.371 30.2943C132.401 28.2966 131.417 25.7924 131.417 22.7818C131.417 19.7711 132.401 17.267 134.371 15.2692C136.341 13.2434 138.901 12.2305 142.052 12.2305C145.091 12.2305 147.609 13.2153 149.607 15.1848C151.605 17.1544 152.604 19.6867 152.604 22.7818C152.604 25.8768 151.605 28.4091 149.607 30.3787C147.609 32.3201 145.091 33.2909 142.052 33.2909ZM142.052 30.1677C144.05 30.1677 145.724 29.4783 147.075 28.0996C148.453 26.6928 149.143 24.9202 149.143 22.7818C149.143 20.6152 148.467 18.8426 147.117 17.4639C145.766 16.0852 144.078 15.3959 142.052 15.3959C139.942 15.3959 138.212 16.1134 136.861 17.5483C135.539 18.9552 134.877 20.6996 134.877 22.7818C134.877 24.8639 135.539 26.6224 136.861 28.0574C138.212 29.4643 139.942 30.1677 142.052 30.1677Z" fill="white"/>
<path d="M158.161 33.0376V1.97462H161.58V33.0376H158.161Z" fill="white"/>
<path d="M182.514 12.4837H185.932V33.0376H182.514V29.619H182.471C180.755 32.0669 178.504 33.2909 175.719 33.2909C173.271 33.2909 171.371 32.5874 170.021 31.1806C168.67 29.7456 167.995 27.5932 167.995 24.7232V12.4837H171.414V23.7525C171.414 26.0316 171.822 27.6776 172.638 28.6905C173.482 29.6753 174.748 30.1677 176.436 30.1677C178.124 30.1677 179.559 29.4783 180.741 28.0996C181.923 26.6928 182.514 24.8076 182.514 22.4441V12.4837Z" fill="white"/>
<path d="M198.064 33.2909C194.491 33.2909 192.704 31.1665 192.704 26.9179V15.4381H190.087V12.4837H192.704V5.47765L196.123 5.0978V12.4837H202.96V15.4381H196.123V26.4114C196.123 27.6776 196.306 28.6061 196.671 29.197C197.065 29.7878 197.727 30.0833 198.655 30.0833C199.724 30.0833 200.878 29.7316 202.116 29.0281L203.044 32.0247C201.525 32.8688 199.865 33.2909 198.064 33.2909Z" fill="white"/>
<path d="M209.392 8.68524C208.689 8.68524 208.098 8.46015 207.619 8.00996C207.169 7.53163 206.944 6.95483 206.944 6.27955C206.944 5.60426 207.169 5.04153 207.619 4.59134C208.098 4.11301 208.689 3.87385 209.392 3.87385C210.067 3.87385 210.644 4.11301 211.122 4.59134C211.601 5.06966 211.84 5.6324 211.84 6.27955C211.84 6.95483 211.601 7.53163 211.122 8.00996C210.644 8.46015 210.067 8.68524 209.392 8.68524ZM207.662 33.0376V12.4837H211.08V33.0376H207.662Z" fill="white"/>
<path d="M227.287 33.2909C224.136 33.2909 221.575 32.292 219.606 30.2943C217.636 28.2966 216.651 25.7924 216.651 22.7818C216.651 19.7711 217.636 17.267 219.606 15.2692C221.575 13.2434 224.136 12.2305 227.287 12.2305C230.326 12.2305 232.844 13.2153 234.842 15.1848C236.839 17.1544 237.838 19.6867 237.838 22.7818C237.838 25.8768 236.839 28.4091 234.842 30.3787C232.844 32.3201 230.326 33.2909 227.287 33.2909ZM227.287 30.1677C229.285 30.1677 230.959 29.4783 232.309 28.0996C233.688 26.6928 234.377 24.9202 234.377 22.7818C234.377 20.6152 233.702 18.8426 232.352 17.4639C231.001 16.0852 229.313 15.3959 227.287 15.3959C225.177 15.3959 223.446 16.1134 222.096 17.5483C220.773 18.9552 220.112 20.6996 220.112 22.7818C220.112 24.8639 220.773 26.6224 222.096 28.0574C223.446 29.4643 225.177 30.1677 227.287 30.1677Z" fill="white"/>
<path d="M254.032 12.2305C256.311 12.2305 258.111 12.962 259.434 14.4251C260.756 15.8601 261.417 17.9985 261.417 20.8403V33.0376H257.999V21.8111C257.999 17.5343 256.325 15.3959 252.976 15.3959C251.007 15.3959 249.431 16.0571 248.249 17.3795C247.096 18.6738 246.519 20.4746 246.519 22.7818V33.0376H243.1V12.4837H246.519V16.0711H246.561C248.362 13.5107 250.852 12.2305 254.032 12.2305Z" fill="white"/>
<path d="M273.871 33.2909C270.692 33.2909 268.005 32.3061 265.81 30.3365L267.583 27.762C269.355 29.3939 271.452 30.2099 273.871 30.2099C275.053 30.2099 275.996 29.9426 276.699 29.408C277.402 28.8734 277.754 28.2262 277.754 27.4665C277.754 26.6787 277.402 26.0878 276.699 25.6939C276.024 25.2719 274.828 24.7654 273.112 24.1745C272.999 24.1464 272.915 24.1183 272.858 24.0901C270.861 23.3867 269.327 22.5848 268.258 21.6844C267.217 20.7841 266.696 19.4757 266.696 17.7594C266.696 16.1837 267.329 14.8753 268.596 13.8343C269.89 12.7651 271.522 12.2305 273.491 12.2305C276.108 12.2305 278.458 13.0746 280.54 14.7628L278.767 17.4639C277.135 16.0571 275.32 15.3537 273.323 15.3537C272.507 15.3537 271.775 15.5788 271.128 16.0289C270.481 16.4791 270.157 17.0559 270.157 17.7594C270.157 18.4909 270.467 19.0818 271.086 19.532C271.733 19.9822 272.718 20.4605 274.04 20.9669C274.265 21.0514 274.673 21.2061 275.264 21.4312C275.883 21.6563 276.291 21.8111 276.488 21.8955C276.685 21.9799 277.023 22.1346 277.501 22.3597C277.979 22.5567 278.303 22.7114 278.472 22.824C278.64 22.9084 278.894 23.0631 279.231 23.2882C279.597 23.5133 279.836 23.7103 279.949 23.8791C280.09 24.0479 280.258 24.273 280.455 24.5544C280.68 24.8358 280.835 25.1171 280.92 25.3985C281.004 25.6517 281.074 25.9612 281.131 26.327C281.187 26.6646 281.215 27.0304 281.215 27.4243C281.215 29.1125 280.582 30.5194 279.316 31.6449C278.05 32.7422 276.235 33.2909 273.871 33.2909Z" fill="white"/>
<path d="M205.005 1.97462C205.005 1.18286 205.647 0.541016 206.438 0.541016H212.173C212.965 0.541016 213.606 1.18286 213.606 1.97462V7.70901C213.606 8.50077 212.965 9.14261 212.173 9.14261H206.438C205.647 9.14261 205.005 8.50077 205.005 7.70901V1.97462Z" fill="#88E755"/>
<path d="M254.01 12.21C256.289 12.21 258.09 12.9416 259.413 14.4047C260.735 15.8397 261.396 17.9781 261.396 20.8199V33.0172H257.978V21.7906C257.978 17.5138 256.303 15.3754 252.955 15.3754C250.986 15.3754 249.41 16.0366 248.228 17.359C247.075 18.6533 246.498 20.4541 246.498 22.7613V33.0172H243.079V12.4632H246.498V16.0507H246.54C248.341 13.4902 250.831 12.21 254.01 12.21Z" fill="white"/>
<path d="M257.962 28.0139H261.403V33.0315H257.962V28.0139Z" fill="#88E755"/>
<path d="M257.958 26.5894H261.399V28.023H257.958V26.5894Z" fill="#161141"/>
</svg>
