<svg width="375" height="184" viewBox="0 0 375 184" fill="none" xmlns="http://www.w3.org/2000/svg">
<g clip-path="url(#clip0_367_11882)">
<rect width="512.73" height="583.588" transform="translate(-68.9102 0.948242)" fill="#3873E4"/>
<path d="M468.212 0.946289H-115.376V584.534H468.212V0.946289Z" fill="#161141"/>
<path d="M-24.3056 72.2684V67.1574H20.2998V72.2684H0.552605V92.0156H-4.55844V72.2684H-24.3056Z" fill="#3873E4"/>
<path d="M-4.55554 136.62H0.555502V92.0146H-4.55554V111.762H-24.3027V116.873H-4.55554V136.62Z" fill="#3873E4"/>
<path d="M19.6428 225.832L-24.3056 181.884V181.227H-23.6486L20.2998 225.175V225.832H19.6428Z" fill="#88E755"/>
<path d="M-1.34587 181.225L20.2998 202.87V204.185L-2.65996 181.225H-1.34587Z" fill="#88E755"/>
<path d="M64.9053 91.3566L20.9569 47.4082H20.2998V48.0653L64.2482 92.0137H64.9053V91.3566Z" fill="#3873E4"/>
<path d="M20.302 70.368L41.9476 92.0137H43.2617L20.302 69.0539V70.368Z" fill="#3873E4"/>
<path d="M20.3019 116.874V111.763C34.0088 111.763 45.1602 122.914 45.1602 136.621H40.0491C40.0491 125.732 31.1906 116.874 20.3019 116.874Z" fill="#3873E4"/>
<path d="M40.049 92.0148H45.16C45.16 102.903 54.0186 111.762 64.9072 111.762V116.873C51.2003 116.873 40.049 105.722 40.049 92.0148Z" fill="#88E755"/>
<path d="M40.045 136.621H45.1561V181.227H40.045V161.479H20.2979V156.368H40.045V136.621Z" fill="#88E755"/>
<path d="M42.1381 188.661H43.0674V181.227H42.1381V188.661Z" fill="#3873E4"/>
<path d="M84.6515 47.4082H89.7625V92.0137H84.6515V72.2665H64.9043V67.1554H84.6515V47.4082Z" fill="#88E755"/>
<path d="M109.51 111.761V116.872C95.8027 116.872 84.6514 105.721 84.6514 92.0137H89.7624C89.7624 102.902 98.621 111.761 109.51 111.761Z" fill="#3873E4"/>
<path d="M89.7625 136.62H84.6515C84.6515 125.731 75.7929 116.873 64.9043 116.873V111.762C78.6112 111.762 89.7625 122.913 89.7625 136.62Z" fill="#3873E4"/>
<path d="M109.51 156.368V161.479C95.8027 161.479 84.6514 150.328 84.6514 136.621H89.7624C89.7624 147.51 98.621 156.368 109.51 156.368Z" fill="#3873E4"/>
<path d="M89.7625 181.226H84.6515C84.6515 170.338 75.7929 161.479 64.9043 161.479V156.368C78.6112 156.368 89.7625 167.52 89.7625 181.226Z" fill="#88E755"/>
<path d="M84.6515 181.226H89.7625V225.831H84.6515V206.084H64.9043V200.973H84.6515V181.226Z" fill="#88E755"/>
<path d="M109.507 72.2684V67.1574L154.112 67.1574V72.2684H134.365V92.0156H129.254V72.2684L109.507 72.2684Z" fill="#88E755"/>
<path d="M109.507 116.874V111.763C123.214 111.763 134.365 122.914 134.365 136.621H129.254C129.254 125.732 120.396 116.874 109.507 116.874Z" fill="#88E755"/>
<path d="M129.254 92.0148H134.365C134.365 102.903 143.224 111.762 154.112 111.762V116.873C140.405 116.873 129.254 105.722 129.254 92.0148Z" fill="#F5F7F8"/>
<path d="M134.372 181.226H129.261V136.62H134.372V156.367H154.119V161.478H134.372V181.226Z" fill="#3873E4"/>
<path d="M109.51 181.884L153.458 225.832H154.115V225.175L110.167 181.227H109.51V181.884Z" fill="#3873E4"/>
<path d="M154.113 202.872L132.467 181.227H131.153L154.113 204.186V202.872Z" fill="#88E755"/>
<path d="M198.72 48.0653L154.771 92.0136H154.114V91.3566L198.063 47.4082H198.72V48.0653Z" fill="#F5F7F8"/>
<path d="M154.116 69.0539L175.762 47.4082H177.076L154.116 70.368V69.0539Z" fill="#88E755"/>
<path d="M178.973 136.621H173.861C173.861 122.914 185.013 111.763 198.72 111.763V116.874C187.831 116.874 178.973 125.732 178.973 136.621Z" fill="#3873E4"/>
<path d="M154.114 116.873V111.762C165.003 111.762 173.862 102.903 173.862 92.0146H178.973C178.973 105.722 167.821 116.873 154.114 116.873Z" fill="#3873E4"/>
<path d="M178.977 136.62H173.866V144.055H178.977V136.62Z" fill="#88E755"/>
<path d="M170.723 160.189L168.588 155.546C170.557 154.641 172.14 153.057 173.045 151.089L177.689 153.224C176.274 156.301 173.8 158.775 170.723 160.189Z" fill="#88E755"/>
<path d="M161.553 156.367H154.119V161.479H161.553V156.367Z" fill="#3873E4"/>
<path d="M176.886 181.227H175.957V188.661H176.886V181.227Z" fill="#F5F7F8"/>
<path d="M206.154 67.1556L198.72 67.1556L198.72 72.2666L206.154 72.2666L206.154 67.1556Z" fill="#3873E4"/>
<path d="M222.288 75.4125L217.644 77.5479C216.739 75.5786 215.156 73.9959 213.188 73.0907L215.323 68.447C218.399 69.8618 220.873 72.3357 222.288 75.4125Z" fill="#88E755"/>
<path d="M223.578 84.5804L218.467 84.5804L218.467 92.0146L223.578 92.0147L223.578 84.5804Z" fill="#F5F7F8"/>
<path d="M218.466 136.621H223.577V129.187H218.466V136.621Z" fill="#88E755"/>
<path d="M226.72 113.052L228.855 117.695C226.886 118.601 225.304 120.184 224.398 122.152L219.755 120.017C221.169 116.94 223.643 114.467 226.72 113.052Z" fill="#F5F7F8"/>
<path d="M235.89 116.874H243.324V111.763H235.89V116.874Z" fill="#88E755"/>
<path d="M243.323 161.479V156.368C229.616 156.368 218.465 167.52 218.465 181.227H223.576C223.576 170.338 232.434 161.479 243.323 161.479Z" fill="#3873E4"/>
<path d="M223.576 136.62H218.465C218.465 147.509 209.606 156.367 198.718 156.367V161.479C212.425 161.479 223.576 150.327 223.576 136.62Z" fill="#88E755"/>
<path d="M263.071 47.4084H268.182C268.182 61.1152 257.031 72.2666 243.324 72.2666V67.1556C254.213 67.1556 263.071 58.297 263.071 47.4084Z" fill="#F5F7F8"/>
<path d="M287.93 67.1564V72.2675C277.041 72.2675 268.182 81.126 268.182 92.0146H263.071C263.071 78.3078 274.223 67.1564 287.93 67.1564Z" fill="#3873E4"/>
<path d="M250.761 111.762L243.327 111.762L243.327 116.873L250.761 116.873L250.761 111.762Z" fill="#88E755"/>
<path d="M266.896 120.019L262.252 122.154C261.347 120.185 259.763 118.602 257.795 117.697L259.93 113.053C263.007 114.468 265.481 116.942 266.896 120.019Z" fill="#3873E4"/>
<path d="M268.185 129.187L263.074 129.187L263.074 136.621L268.185 136.621L268.185 129.187Z" fill="#F5F7F8"/>
<path d="M287.277 181.227L243.328 137.278V136.621H243.985L287.934 180.57V181.227H287.277Z" fill="#F5F7F8"/>
<path d="M266.288 136.62L287.934 158.266V159.58L264.974 136.62H266.288Z" fill="#3873E4"/>
<path d="M287.934 181.884L243.985 225.832H243.328V225.175L287.277 181.227H287.934V181.884Z" fill="#3873E4"/>
<path d="M243.33 202.872L264.976 181.227H266.29L243.33 204.186V202.872Z" fill="#88E755"/>
<path d="M332.54 67.1566L325.105 67.1565L325.105 72.2676L332.54 72.2676L332.54 67.1566Z" fill="#88E755"/>
<path d="M308.971 64.0103L313.614 61.875C314.52 63.8443 316.103 65.4269 318.071 66.3322L315.936 70.9759C312.859 69.5611 310.386 67.0872 308.971 64.0103Z" fill="#88E755"/>
<path d="M312.792 47.4095L307.681 47.4095L307.681 54.8438L312.792 54.8438L312.792 47.4095Z" fill="#F5F7F8"/>
<path d="M310.701 92.015L309.772 92.015L309.771 99.4492L310.701 99.4492L310.701 92.015Z" fill="#88E755"/>
<path d="M295.368 113.854L287.934 113.854L287.934 114.783L295.368 114.783L295.368 113.854Z" fill="#F5F7F8"/>
<path d="M315.192 113.852V114.782H305.28V113.852H309.772V106.883H310.701V113.852H315.192Z" fill="#3873E4"/>
<path d="M332.54 113.854L325.105 113.854L325.105 114.783L332.54 114.783L332.54 113.854Z" fill="#3873E4"/>
<path d="M331.884 181.227L287.936 137.278V136.621H288.593L332.541 180.57V181.227H331.884Z" fill="#88E755"/>
<path d="M310.895 136.62L332.541 158.266V159.58L309.581 136.62H310.895Z" fill="#F5F7F8"/>
<path d="M287.929 206.085V200.974C298.818 200.974 307.676 192.115 307.676 181.227H312.787C312.787 194.933 301.636 206.085 287.929 206.085Z" fill="#F5F7F8"/>
<path d="M357.394 92.0145H352.283C352.283 78.3076 363.435 67.1562 377.142 67.1562V72.2673C366.253 72.2673 357.394 81.1258 357.394 92.0145Z" fill="#3873E4"/>
<path d="M332.536 72.2664V67.1554C343.425 67.1554 352.283 58.2969 352.283 47.4082H357.395C357.395 61.1151 346.243 72.2664 332.536 72.2664Z" fill="#88E755"/>
<path d="M357.392 129.187H352.281V136.621H357.392V129.187Z" fill="#3873E4"/>
<path d="M349.138 113.052L347.003 117.695C348.972 118.601 350.555 120.184 351.46 122.152L356.104 120.017C354.689 116.94 352.215 114.467 349.138 113.052Z" fill="#3873E4"/>
<path d="M339.968 111.763H332.534V116.874H339.968V111.763Z" fill="#88E755"/>
<path d="M357.392 173.791H352.281V181.225H357.392V173.791Z" fill="#88E755"/>
<path d="M349.138 157.656L347.003 162.3C348.972 163.205 350.555 164.788 351.46 166.757L356.104 164.621C354.689 161.545 352.215 159.071 349.138 157.656Z" fill="#88E755"/>
<path d="M339.968 156.367H332.534V161.478H339.968V156.367Z" fill="#3873E4"/>
<path d="M352.281 181.227H357.392V225.832H352.281V206.085H332.534V200.974H352.281V181.227Z" fill="#88E755"/>
</g>
<defs>
<clipPath id="clip0_367_11882">
<rect width="512.73" height="583.588" fill="white" transform="translate(-68.9102 0.948242)"/>
</clipPath>
</defs>
</svg>
