<svg width="201" height="24" viewBox="0 0 201 24" fill="none" xmlns="http://www.w3.org/2000/svg">
<path d="M0 23.4553V2.05122H14.2292V7.14599H5.54697V10.3717H12.3299V15.3459H5.54697V18.3605H14.8623V23.4553H0Z" fill="#161141"/>
<path d="M17.1901 23.4553V1.26741H22.5864V23.4553H17.1901Z" fill="#161141"/>
<path d="M35.109 8.68346H40.5052V23.4553H35.3803V22.0685H35.3501C34.4859 23.194 33.2198 23.7567 31.5517 23.7567C29.5218 23.7567 27.8637 23.0433 26.5775 21.6163C25.3113 20.1894 24.6783 18.3404 24.6783 16.0694C24.6783 13.8184 25.3013 11.9795 26.5473 10.5525C27.7934 9.10551 29.351 8.382 31.2201 8.382C32.7676 8.382 34.0538 8.97488 35.0788 10.1606H35.109V8.68346ZM32.7575 19.0539C33.4811 19.0539 34.094 18.7826 34.5965 18.2399C35.0989 17.6772 35.3501 16.9537 35.3501 16.0694C35.3501 15.2052 35.0989 14.5017 34.5965 13.9591C34.094 13.3964 33.4811 13.115 32.7575 13.115C31.9938 13.115 31.3607 13.3964 30.8583 13.9591C30.376 14.5017 30.1348 15.2052 30.1348 16.0694C30.1348 16.9738 30.376 17.6973 30.8583 18.2399C31.3406 18.7826 31.9737 19.0539 32.7575 19.0539Z" fill="#161141"/>
<path d="M52.651 8.382H52.6811V14.14C52.3797 14.1199 51.9978 14.1098 51.5355 14.1098C50.5307 14.1098 49.7669 14.3711 49.2444 14.8937C48.742 15.4162 48.4907 16.1196 48.4907 17.0039V23.4553H43.0945V8.68346H48.4907V10.7334H48.5209C49.6062 9.16581 50.9829 8.382 52.651 8.382Z" fill="#161141"/>
<path d="M63.9602 8.68346H69.3564V23.4553H64.2315V22.0685H64.2013C63.3371 23.194 62.071 23.7567 60.4029 23.7567C58.373 23.7567 56.7149 23.0433 55.4287 21.6163C54.1625 20.1894 53.5295 18.3404 53.5295 16.0694C53.5295 13.8184 54.1525 11.9795 55.3985 10.5525C56.6446 9.10551 58.2022 8.382 60.0713 8.382C61.6188 8.382 62.905 8.97488 63.93 10.1606H63.9602V8.68346ZM61.6087 19.0539C62.3323 19.0539 62.9452 18.7826 63.4477 18.2399C63.9501 17.6772 64.2013 16.9537 64.2013 16.0694C64.2013 15.2052 63.9501 14.5017 63.4477 13.9591C62.9452 13.3964 62.3323 13.115 61.6087 13.115C60.845 13.115 60.2119 13.3964 59.7095 13.9591C59.2272 14.5017 58.986 15.2052 58.986 16.0694C58.986 16.9738 59.2272 17.6973 59.7095 18.2399C60.1918 18.7826 60.8249 19.0539 61.6087 19.0539Z" fill="#161141"/>
<path d="M83.7704 23.6362C80.7758 23.6362 78.2435 22.5308 76.1734 20.32L77.8616 18.3304C78.6053 19.2549 79.5097 19.9583 80.5748 20.4406C81.64 20.923 82.7152 21.1641 83.8005 21.1641C85.127 21.1641 86.1821 20.8727 86.9659 20.2899C87.7698 19.7071 88.1718 18.9031 88.1718 17.8782C88.1718 17.3154 88.0713 16.8331 87.8703 16.4311C87.6894 16.0292 87.3679 15.6775 86.9056 15.376C86.4434 15.0544 85.9912 14.8032 85.549 14.6223C85.127 14.4214 84.514 14.1701 83.7101 13.8687C83.5694 13.8084 83.4589 13.7682 83.3785 13.7481C82.5947 13.4667 81.9515 13.2255 81.4491 13.0246C80.9667 12.8035 80.404 12.502 79.7609 12.1202C79.1378 11.7383 78.6454 11.3565 78.2837 10.9746C77.942 10.5726 77.6406 10.0803 77.3793 9.49742C77.118 8.89449 76.9874 8.23126 76.9874 7.50775C76.9874 5.92003 77.6205 4.58353 78.8866 3.49825C80.1528 2.41298 81.7003 1.86029 83.5292 1.84019C85.9409 1.84019 88.2019 2.67425 90.3122 4.34236L88.7144 6.39232C87.0463 4.98548 85.3179 4.28206 83.5292 4.28206C82.4841 4.28206 81.5898 4.56343 80.8462 5.12617C80.1025 5.66881 79.7307 6.42247 79.7307 7.38716C79.7307 7.78911 79.8111 8.16092 79.9719 8.50258C80.1327 8.82415 80.3136 9.09547 80.5145 9.31654C80.7155 9.51752 81.0672 9.74864 81.5697 10.0099C82.0721 10.2712 82.464 10.4722 82.7454 10.6128C83.0469 10.7334 83.5593 10.9344 84.2829 11.2158C86.4936 12.0599 87.9507 12.7231 88.6541 13.2054C90.1614 14.2304 90.9151 15.6976 90.9151 17.6068C90.9151 19.496 90.2117 20.9732 88.8048 22.0384C87.4181 23.1036 85.7399 23.6362 83.7704 23.6362Z" fill="#161141"/>
<path d="M101.466 23.6362C99.215 23.6362 97.3861 22.9227 95.9793 21.4958C94.5724 20.0688 93.869 18.2801 93.869 16.1297C93.869 13.9792 94.5724 12.1905 95.9793 10.7636C97.3861 9.31654 99.215 8.59302 101.466 8.59302C103.636 8.59302 105.435 9.29644 106.862 10.7033C108.289 12.1101 109.003 13.9189 109.003 16.1297C109.003 18.3404 108.289 20.1492 106.862 21.556C105.435 22.9428 103.636 23.6362 101.466 23.6362ZM101.466 21.4053C102.893 21.4053 104.089 20.9129 105.053 19.9281C106.038 18.9232 106.531 17.6571 106.531 16.1297C106.531 14.5821 106.048 13.316 105.084 12.3312C104.119 11.3464 102.913 10.854 101.466 10.854C99.9586 10.854 98.7226 11.3665 97.7579 12.3915C96.8133 13.3964 96.341 14.6424 96.341 16.1297C96.341 17.6169 96.8133 18.873 97.7579 19.898C98.7226 20.9029 99.9586 21.4053 101.466 21.4053Z" fill="#161141"/>
<path d="M112.972 23.4553V1.26741H115.414V23.4553H112.972Z" fill="#161141"/>
<path d="M130.367 8.7739H132.809V23.4553H130.367V21.0134H130.337C129.111 22.7619 127.503 23.6362 125.513 23.6362C123.765 23.6362 122.408 23.1337 121.443 22.1288C120.479 21.1038 119.996 19.5664 119.996 17.5164V8.7739H122.438V16.823C122.438 18.4509 122.73 19.6267 123.313 20.3502C123.915 21.0536 124.82 21.4053 126.026 21.4053C127.232 21.4053 128.257 20.9129 129.101 19.9281C129.945 18.9232 130.367 17.5767 130.367 15.8885V8.7739Z" fill="#161141"/>
<path d="M141.474 23.6362C138.922 23.6362 137.646 22.1188 137.646 19.084V10.8842H135.777V8.7739H137.646V3.76957L140.088 3.49825V8.7739H144.971V10.8842H140.088V18.7223C140.088 19.6267 140.218 20.2899 140.48 20.7119C140.761 21.134 141.233 21.345 141.896 21.345C142.66 21.345 143.484 21.0938 144.368 20.5914L145.032 22.7318C143.946 23.3347 142.761 23.6362 141.474 23.6362Z" fill="#161141"/>
<path d="M149.566 6.06071C149.063 6.06071 148.641 5.89993 148.3 5.57837C147.978 5.23671 147.817 4.8247 147.817 4.34236C147.817 3.86001 147.978 3.45806 148.3 3.1365C148.641 2.79483 149.063 2.624 149.566 2.624C150.048 2.624 150.46 2.79483 150.802 3.1365C151.143 3.47816 151.314 3.88011 151.314 4.34236C151.314 4.8247 151.143 5.23671 150.802 5.57837C150.46 5.89993 150.048 6.06071 149.566 6.06071ZM148.33 23.4553V8.7739H150.772V23.4553H148.33Z" fill="#161141"/>
<path d="M162.348 23.6362C160.097 23.6362 158.268 22.9227 156.861 21.4958C155.454 20.0688 154.751 18.2801 154.751 16.1297C154.751 13.9792 155.454 12.1905 156.861 10.7636C158.268 9.31654 160.097 8.59302 162.348 8.59302C164.518 8.59302 166.317 9.29644 167.744 10.7033C169.171 12.1101 169.884 13.9189 169.884 16.1297C169.884 18.3404 169.171 20.1492 167.744 21.556C166.317 22.9428 164.518 23.6362 162.348 23.6362ZM162.348 21.4053C163.775 21.4053 164.971 20.9129 165.935 19.9281C166.92 18.9232 167.412 17.6571 167.412 16.1297C167.412 14.5821 166.93 13.316 165.965 12.3312C165.001 11.3464 163.795 10.854 162.348 10.854C160.841 10.854 159.605 11.3665 158.64 12.3915C157.695 13.3964 157.223 14.6424 157.223 16.1297C157.223 17.6169 157.695 18.873 158.64 19.898C159.605 20.9029 160.841 21.4053 162.348 21.4053Z" fill="#161141"/>
<path d="M181.451 8.59302C183.079 8.59302 184.365 9.11556 185.31 10.1606C186.254 11.1856 186.727 12.7131 186.727 14.7429V23.4553H184.285V15.4363C184.285 12.3814 183.089 10.854 180.697 10.854C179.291 10.854 178.165 11.3263 177.321 12.2709C176.497 13.1954 176.085 14.4817 176.085 16.1297V23.4553H173.643V8.7739H176.085V11.3364H176.115C177.401 9.50747 179.18 8.59302 181.451 8.59302Z" fill="#161141"/>
<path d="M195.622 23.6362C193.351 23.6362 191.432 22.9327 189.864 21.5259L191.131 19.687C192.397 20.8526 193.894 21.4355 195.622 21.4355C196.466 21.4355 197.14 21.2445 197.642 20.8627C198.145 20.4808 198.396 20.0186 198.396 19.4759C198.396 18.9132 198.145 18.4911 197.642 18.2098C197.16 17.9083 196.306 17.5466 195.08 17.1245C194.999 17.1044 194.939 17.0843 194.899 17.0642C193.472 16.5618 192.377 15.989 191.613 15.3459C190.869 14.7027 190.497 13.7682 190.497 12.5422C190.497 11.4168 190.95 10.4822 191.854 9.73859C192.779 8.97488 193.944 8.59302 195.351 8.59302C197.22 8.59302 198.898 9.19595 200.386 10.4018L199.119 12.3312C197.954 11.3263 196.657 10.8239 195.23 10.8239C194.648 10.8239 194.125 10.9846 193.663 11.3062C193.201 11.6278 192.969 12.0398 192.969 12.5422C192.969 13.0648 193.191 13.4868 193.633 13.8084C194.095 14.1299 194.798 14.4716 195.743 14.8334C195.904 14.8937 196.195 15.0042 196.617 15.165C197.059 15.3258 197.351 15.4363 197.491 15.4966C197.632 15.5569 197.873 15.6674 198.215 15.8282C198.557 15.9689 198.788 16.0794 198.908 16.1598C199.029 16.2201 199.21 16.3306 199.451 16.4914C199.712 16.6522 199.883 16.7929 199.963 16.9135C200.064 17.0341 200.185 17.1948 200.325 17.3958C200.486 17.5968 200.597 17.7978 200.657 17.9987C200.717 18.1796 200.767 18.4007 200.808 18.662C200.848 18.9031 200.868 19.1644 200.868 19.4458C200.868 20.6516 200.416 21.6565 199.511 22.4604C198.607 23.2443 197.311 23.6362 195.622 23.6362Z" fill="#161141"/>
<path d="M146.432 1.26741C146.432 0.701869 146.89 0.243408 147.456 0.243408H151.552C152.118 0.243408 152.576 0.701869 152.576 1.26741V5.36341C152.576 5.92895 152.118 6.38741 151.552 6.38741H147.456C146.89 6.38741 146.432 5.92895 146.432 5.36341V1.26741Z" fill="#39A300"/>
<path d="M181.436 8.57841C183.064 8.57841 184.35 9.10095 185.295 10.146C186.239 11.171 186.712 12.6984 186.712 14.7283V23.4407H184.27V15.4217C184.27 12.3668 183.074 10.8394 180.682 10.8394C179.275 10.8394 178.15 11.3117 177.306 12.2563C176.482 13.1808 176.07 14.467 176.07 16.115V23.4407H173.628V8.75929H176.07V11.3217H176.1C177.386 9.49285 179.165 8.57841 181.436 8.57841Z" fill="#161141"/>
<path d="M184.259 19.8669H186.716V23.4509H184.259V19.8669Z" fill="#39A300"/>
<path d="M184.256 18.8494H186.714V19.8734H184.256V18.8494Z" fill="white"/>
</svg>
