<svg width="41" height="22" viewBox="0 0 41 22" fill="none" xmlns="http://www.w3.org/2000/svg">
<g clip-path="url(#clip0_248_294029)">
<path fill-rule="evenodd" clip-rule="evenodd" d="M36.8119 11.1595C36.7765 11.0865 36.7619 11.049 36.7431 11.0136C36.2428 10.0629 35.7445 9.11438 35.24 8.16582C35.19 8.06992 35.1962 8.01363 35.265 7.93232C36.0593 7.00461 36.8495 6.07273 37.6417 5.14085C37.6688 5.1075 37.6938 5.07414 37.7042 5.01577L37.01 5.19714C36.0489 5.45148 35.0899 5.70582 34.1309 5.96224C34.0413 5.98517 34.0017 5.96016 33.9558 5.88511C33.4096 4.97407 32.8634 4.06512 32.3151 3.15617C32.2859 3.10823 32.2568 3.06236 32.1963 3.02275C32.1525 3.26458 32.1067 3.5085 32.065 3.75033L31.6084 6.32082C31.5917 6.41255 31.5688 6.50636 31.5605 6.59809C31.5521 6.68565 31.5083 6.719 31.427 6.74402C30.295 7.09843 29.1651 7.457 28.0351 7.81558C27.9851 7.83226 27.9372 7.85102 27.883 7.89897C28.8086 8.26588 29.7321 8.63488 30.6724 9.00805C30.639 9.03515 30.6161 9.056 30.591 9.07268C30.0136 9.44585 29.434 9.81902 28.8565 10.1964C28.7877 10.2422 28.7335 10.2485 28.6543 10.213C27.9643 9.90241 27.27 9.59804 26.5779 9.28741C26.2673 9.14982 25.9879 8.96427 25.7711 8.69951C25.2791 8.09702 25.3771 7.41322 26.0317 6.99627C26.2464 6.85868 26.4904 6.75653 26.7322 6.67731C27.8413 6.31665 28.9524 5.9685 30.0636 5.61826C30.1574 5.58907 30.1991 5.54738 30.2179 5.44731C30.3659 4.59048 30.5202 3.73365 30.6744 2.87682C30.7578 2.41817 30.8016 1.94911 31.0247 1.53007C31.1101 1.36955 31.2123 1.21111 31.3353 1.0756C31.7773 0.585684 32.3923 0.566921 32.8592 1.0339C33.0177 1.19234 33.1532 1.37789 33.2699 1.5676C33.7849 2.40567 34.2894 3.24999 34.7939 4.09431C34.8523 4.19438 34.9065 4.21522 35.017 4.18395C36.2574 3.85248 37.4978 3.52517 38.7382 3.19578C38.9947 3.12907 39.2532 3.10406 39.5158 3.152C40.0871 3.25833 40.3372 3.69404 40.1454 4.2465C40.0579 4.49875 39.9057 4.71139 39.7347 4.91153C38.8696 5.93097 38.0044 6.95041 37.1351 7.96568C37.0642 8.04907 37.0621 8.10953 37.1121 8.20126C37.6312 9.179 38.1441 10.1567 38.659 11.1366C38.782 11.3701 38.8758 11.614 38.88 11.8829C38.8862 12.4937 38.438 12.9941 37.8314 13.0837C37.4916 13.1338 37.1747 13.0608 36.8557 12.9628C36.0781 12.7231 35.3005 12.4854 34.5208 12.2519C34.4478 12.2311 34.4207 12.2019 34.4082 12.1247C34.3186 11.5765 34.2206 11.0303 34.1268 10.482C34.1247 10.4674 34.1289 10.4507 34.1309 10.4173C35.017 10.6633 35.8967 10.9052 36.8119 11.1595Z" fill="#E25C26"/>
<path fill-rule="evenodd" clip-rule="evenodd" d="M35.295 19.144C34.5946 19.1419 33.892 19.1398 33.1915 19.1419C33.0998 19.1419 33.0477 19.1148 32.9956 19.0356C32.1658 17.7722 31.3319 16.5088 30.498 15.2476C30.4709 15.208 30.4438 15.1684 30.3959 15.1016C30.2166 16.4651 30.0415 17.7972 29.8663 19.1335H28.0297C28.0505 18.9543 28.0693 18.7812 28.0922 18.6103C28.2715 17.2406 28.4508 15.873 28.6322 14.5033C28.8031 13.1962 28.9762 11.887 29.1492 10.5798C29.1534 10.5402 29.1805 10.4923 29.2117 10.4714C29.8434 10.0586 30.4772 9.65212 31.1109 9.24142C31.1193 9.23517 31.1339 9.23517 31.1651 9.22474C30.9733 10.6862 30.7836 12.1371 30.5918 13.5881C30.6002 13.5923 30.6064 13.5985 30.6148 13.6048C31.6092 12.502 32.6036 11.3991 33.621 10.2734L33.7002 10.732C33.7711 11.1469 33.8399 11.5638 33.917 11.9787C33.9316 12.0621 33.9108 12.1142 33.8545 12.1726C33.2124 12.8459 32.5703 13.5214 31.9302 14.1948C31.9031 14.224 31.876 14.2552 31.8427 14.2886C31.8635 14.3219 31.8802 14.3532 31.9011 14.3824L35.22 19.0397C35.2408 19.0668 35.2679 19.0898 35.2929 19.1148C35.295 19.1273 35.295 19.1356 35.295 19.144ZM13.5324 15.1079C13.5053 14.964 13.4844 14.7556 13.4219 14.5596C13.1133 13.611 12.1418 13.0899 11.1328 13.3254C10.0279 13.5819 9.2378 14.4512 9.12314 15.579C9.03766 16.4129 9.48797 17.2177 10.3239 17.5179C10.9973 17.7618 11.6436 17.6596 12.2461 17.299C13.0425 16.8216 13.4761 16.1107 13.5324 15.1079ZM8.67909 18.6353C8.62488 19.0439 8.57276 19.4275 8.52273 19.8132C8.45602 20.3239 8.38931 20.8368 8.32468 21.3475C8.31634 21.408 8.29966 21.433 8.23504 21.433C7.73053 21.4309 7.22602 21.4309 6.72151 21.4309C6.71109 21.4309 6.69858 21.4247 6.67148 21.4163C6.70275 21.1745 6.73193 20.9327 6.76321 20.6908C6.8737 19.8424 6.98627 18.9939 7.09885 18.1454C7.2281 17.176 7.33026 16.2003 7.49495 15.2371C7.78682 13.5297 9.23571 12.06 10.9348 11.6931C11.9188 11.4804 12.8632 11.5784 13.7221 12.133C14.5789 12.6854 15.0709 13.488 15.1835 14.4971C15.3419 15.923 14.8166 17.1072 13.8034 18.087C13.1384 18.7312 12.342 19.1398 11.4226 19.2774C10.4761 19.4191 9.58595 19.2628 8.78958 18.7041C8.76039 18.6832 8.72912 18.6666 8.67909 18.6353ZM7.8577 10.5235C7.29273 10.9447 6.74653 11.3512 6.20032 11.7577C6.11277 11.618 6.03355 11.4804 5.93973 11.3512C5.70207 11.0197 5.40604 10.7716 4.97866 10.7404C4.62217 10.7153 4.31572 10.8321 4.07389 11.0968C3.85707 11.3324 3.82788 11.666 4.03011 11.9328C4.25317 12.2247 4.49917 12.502 4.74726 12.773C5.16212 13.2212 5.59366 13.6527 6.00644 14.1051C6.3817 14.5158 6.67982 14.9766 6.77154 15.5374C6.88204 16.2045 6.74861 16.8403 6.43173 17.4282C5.848 18.5144 4.92655 19.144 3.71322 19.3399C3.17744 19.4275 2.64167 19.4087 2.11839 19.2565C1.42417 19.0522 0.940513 18.5957 0.629887 17.9536C0.519395 17.7263 0.436005 17.4866 0.335938 17.2427C0.944683 16.9175 1.53467 16.6006 2.13507 16.2795C2.15592 16.3296 2.17051 16.3713 2.18928 16.4109C2.29143 16.6152 2.37482 16.832 2.50199 17.0217C2.87724 17.5804 3.4839 17.7493 4.0989 17.4741C4.25734 17.4032 4.40953 17.3031 4.53878 17.1885C4.93488 16.8361 5.00994 16.3462 4.71599 15.9043C4.54712 15.6499 4.33656 15.4227 4.13017 15.1934C3.64026 14.6493 3.1295 14.1218 2.65 13.5673C2.32061 13.1837 2.09546 12.7375 2.02458 12.2247C1.94745 11.666 2.05794 11.1385 2.3498 10.6674C3.07321 9.49785 4.12392 8.8891 5.51444 8.93913C6.30665 8.96832 6.93832 9.33941 7.42824 9.95441C7.57417 10.1358 7.70968 10.3255 7.8577 10.5235ZM21.2876 16.8049C21.1959 17.5095 21.1083 18.1787 21.0187 18.8479C21.0145 18.8813 20.9874 18.9271 20.9582 18.9417C19.5906 19.5755 17.7873 19.4879 16.6637 18.21C16.0591 17.5241 15.8068 16.7111 15.8444 15.8063C15.9319 13.7111 17.6685 11.8807 19.747 11.6264C20.9603 11.4763 22.0256 11.8057 22.8491 12.748C23.4099 13.3901 23.6684 14.1573 23.6309 15.0037C23.6059 15.5624 23.5183 16.119 23.4474 16.6756C23.3494 17.4637 23.241 18.2517 23.1368 19.0397C23.1326 19.0668 23.1285 19.096 23.1201 19.1315H21.4836C21.5044 18.9501 21.5253 18.7729 21.5482 18.5957C21.667 17.6846 21.7963 16.7778 21.9005 15.8647C21.9652 15.2976 21.9256 14.7326 21.665 14.2073C21.3898 13.6486 20.9249 13.3525 20.3161 13.2879C19.0549 13.1545 17.8561 14.0301 17.5872 15.2705C17.41 16.0898 17.6894 16.8737 18.3419 17.3094C18.9777 17.7326 19.6594 17.7326 20.3516 17.4595C20.7039 17.3219 21.002 17.1009 21.2876 16.8049ZM28.1798 11.7848C28.1047 12.3519 28.0318 12.9106 27.9567 13.4818C27.6107 13.4818 27.2708 13.4797 26.931 13.4818C26.6558 13.4839 26.4057 13.6611 26.3223 13.9175C26.2889 14.0176 26.2785 14.126 26.2639 14.2302C26.0909 15.5332 25.9199 16.8361 25.749 18.1412C25.7052 18.4706 25.6635 18.7979 25.6197 19.1315H23.9165C23.9478 18.8813 23.979 18.6374 24.0103 18.3955C24.1208 17.5512 24.2313 16.7069 24.3439 15.8626C24.4418 15.1329 24.5273 14.3991 24.642 13.6715C24.7942 12.6958 25.7657 11.8286 26.7517 11.7869C27.2229 11.7681 27.694 11.7848 28.1798 11.7848Z" fill="#3D3B3E"/>
<path d="M37.3034 19.1336V18.4144H37.2992L37.0178 19.1336H36.9281L36.6467 18.4144H36.6425V19.1336H36.5008V18.2726H36.7197L36.9761 18.9272L37.2283 18.2726H37.4452V19.1336H37.3034ZM36.0526 18.3873V19.1336H35.9108V18.3873H35.6419V18.2726H36.3236V18.3873H36.0526ZM10.1392 9.31449H10.5624L10.4623 8.67448L10.1392 9.31449ZM10.627 9.72727H9.92445L9.70138 10.1651H9.20312L10.3018 8.11368H10.7813L11.1544 10.1651H10.6937L10.627 9.72727ZM13.1433 8.52646H12.8931L12.8097 8.9997H13.0599C13.21 8.9997 13.3309 8.89963 13.3309 8.71408C13.3309 8.589 13.2538 8.52646 13.1433 8.52646ZM12.5366 8.11368H13.1933C13.5373 8.11368 13.7791 8.31798 13.7791 8.67239C13.7791 9.11644 13.4664 9.41456 13.0182 9.41456H12.7347L12.6013 10.1651H12.1739L12.5366 8.11368ZM15.2343 9.31449H15.6575L15.5574 8.67448L15.2343 9.31449ZM15.7242 9.72727H15.0216L14.7986 10.1651H14.3003L15.399 8.11368H15.8785L16.2516 10.1651H15.7909L15.7242 9.72727ZM18.5011 10.0921C18.3572 10.1588 18.1967 10.1984 18.0362 10.1984C17.4942 10.1984 17.1523 9.7919 17.1523 9.28114C17.1523 8.62861 17.7005 8.08032 18.3531 8.08032C18.5157 8.08032 18.6637 8.11993 18.7846 8.18664L18.7242 8.67864C18.6345 8.57858 18.4886 8.50978 18.3072 8.50978C17.934 8.50978 17.6005 8.84751 17.6005 9.23944C17.6005 9.53756 17.7881 9.77105 18.0841 9.77105C18.2655 9.77105 18.4406 9.70225 18.5574 9.60427L18.5011 10.0921ZM21.1195 9.33742H20.2273L20.0813 10.163H19.654L20.0167 8.11159H20.4441L20.3002 8.92256H21.1925L21.3363 8.11159H21.7658L21.4031 10.163H20.9757L21.1195 9.33742ZM22.6914 10.1651L23.0521 8.11368H24.1904L24.1174 8.52646H23.4086L23.3356 8.92464H23.986L23.9131 9.33742H23.2606L23.1876 9.7502H23.8964L23.8234 10.163L22.6914 10.1651Z" fill="#3D3B3E"/>
</g>
<defs>
<clipPath id="clip0_248_294029">
<rect width="40" height="20.992" fill="white" transform="translate(0.335938 0.503906)"/>
</clipPath>
</defs>
</svg>
