<svg width="26" height="40" viewBox="0 0 26 40" fill="none" xmlns="http://www.w3.org/2000/svg">
<g clip-path="url(#clip0_248_294037)">
<path d="M8.78205 3.55585C8.34145 3.1131 7.72678 2.83967 7.04343 2.83967C6.36267 2.83967 5.75275 3.1131 5.31734 3.55585H5.30481C4.86551 3.99645 4.59209 4.61155 4.59209 5.29231C4.59209 5.97566 4.86551 6.58558 5.30481 7.02359L5.31734 7.03352C5.75275 7.47412 6.36267 7.74495 7.04343 7.74495C7.72678 7.74495 8.34145 7.47412 8.78205 7.03352L8.78853 7.02359C9.22999 6.58558 9.50082 5.97566 9.50082 5.29231C9.50082 4.61155 9.22999 3.99645 8.78853 3.55585H8.78205ZM7.04343 37.1287C7.72678 37.1287 8.34145 36.8505 8.78205 36.4151L8.78853 36.4021C9.22999 35.9676 9.50082 35.3525 9.50082 34.6765C9.50082 33.9931 9.22999 33.3806 8.78853 32.9379H8.78205C8.34145 32.4899 7.72678 32.2191 7.04343 32.2191C6.36267 32.2191 5.75275 32.4899 5.31734 32.9379H5.30481C4.86551 33.3806 4.59209 33.9931 4.59209 34.6765C4.59209 35.3525 4.86551 35.9676 5.30481 36.4021L5.31734 36.4151C5.75275 36.8505 6.36267 37.1287 7.04343 37.1287ZM20.4064 29.6982C21.0141 29.5388 21.5645 29.1487 21.9001 28.5591L21.9454 28.4732C22.2439 27.9138 22.2983 27.2684 22.139 26.6965C21.9783 26.084 21.5835 25.5424 20.9951 25.2033L20.961 25.1804C20.3878 24.8664 19.7347 24.7981 19.1347 24.9601C18.5248 25.1121 17.9771 25.5195 17.6432 26.1043C17.305 26.6836 17.2341 27.3518 17.3961 27.9669C17.5633 28.5717 17.9542 29.1185 18.5386 29.4602H18.5425C19.1282 29.7967 19.7917 29.8576 20.4064 29.6982ZM9.56043 17.4708C8.91595 16.8281 8.02786 16.4255 7.04343 16.4255C6.06289 16.4255 5.17695 16.8281 4.53377 17.4708C3.89361 18.1114 3.49881 18.9974 3.49881 19.9792C3.49881 20.9636 3.89361 21.8522 4.53377 22.5001C5.17695 23.1377 6.06289 23.5377 7.04343 23.5377C8.02786 23.5377 8.91595 23.1377 9.56043 22.5001C10.2019 21.8522 10.5967 20.9636 10.5967 19.9792C10.5967 18.9974 10.2019 18.1114 9.56043 17.4708ZM8.14535 13.2904C9.57166 13.5254 10.855 14.2087 11.8342 15.1957H11.842C11.9975 15.3525 12.1496 15.5223 12.29 15.6942L14.7387 14.2774C14.4096 13.2826 14.3944 12.2425 14.6588 11.268C15.0082 9.96174 15.8549 8.79244 17.124 8.05855L17.1659 8.0335C18.4211 7.32207 19.8483 7.1752 21.1368 7.52466C22.4413 7.87367 23.6184 8.72419 24.351 9.99241V9.995C25.0801 11.2554 25.2283 12.7029 24.8801 14.004C24.5333 15.3093 23.6828 16.4864 22.415 17.2151L22.0806 17.413H22.0465C20.8738 17.9719 19.5839 18.0583 18.3995 17.7469C17.4268 17.4886 16.5343 16.9469 15.8359 16.175L13.391 17.5875C13.6718 18.3313 13.8277 19.1339 13.8277 19.9792C13.8277 20.822 13.6718 21.6345 13.391 22.3835L15.8359 23.7908C16.5343 23.0089 17.4268 22.4772 18.3995 22.2189C19.704 21.8621 21.1506 22.0142 22.415 22.7506L22.4958 22.7886V22.7938C23.7173 23.5325 24.5372 24.6767 24.8801 25.9674C25.2283 27.2607 25.0801 28.7086 24.351 29.9716L24.3069 30.0602L24.3018 30.0524C23.5692 31.2701 22.415 32.0951 21.1407 32.4441C19.8332 32.7884 18.387 32.6415 17.124 31.9154V31.9051C15.8549 31.1712 15.0082 29.9993 14.6588 28.6961C14.3944 27.7242 14.4096 26.6836 14.7387 25.6892L12.29 24.2767C12.1496 24.4491 11.9975 24.6111 11.842 24.7679L11.8342 24.7752C10.855 25.7575 9.57166 26.4408 8.14535 26.6685V29.4982C9.16174 29.7107 10.0727 30.2196 10.7868 30.9332L10.7902 30.9409C11.747 31.8925 12.3392 33.2186 12.3392 34.6765C12.3392 36.1296 11.747 37.4475 10.7902 38.4043L10.7868 38.4194C9.82349 39.3761 8.50128 39.9684 7.04343 39.9684C5.59336 39.9684 4.26942 39.3761 3.30875 38.4194H3.30529V38.4043C2.34722 37.4475 1.75371 36.1296 1.75371 34.6765C1.75371 33.2186 2.34722 31.8925 3.30529 30.9409V30.9332H3.30875C4.02147 30.2196 4.93376 29.7107 5.94756 29.4982V26.6685C4.51995 26.4408 3.2405 25.7575 2.26255 24.7752L2.25219 24.7679C1.02975 23.5402 0.265625 21.8522 0.265625 19.9792C0.265625 18.1114 1.02975 16.4234 2.25219 15.1957H2.26255C3.2405 14.2087 4.51995 13.5254 5.94756 13.2904V10.4732C4.93376 10.2529 4.02147 9.74447 3.30875 9.03563H3.30529V9.02786C2.34722 8.06633 1.75371 6.75016 1.75371 5.29231C1.75371 3.84181 2.34722 2.51311 3.30529 1.55633L3.30875 1.55158C4.26942 0.59221 5.59336 0 7.04343 0C8.50128 0 9.82349 0.59221 10.7868 1.55158V1.55633H10.7902C11.747 2.51311 12.3392 3.84181 12.3392 5.29231C12.3392 6.75016 11.747 8.06633 10.7902 9.02786L10.7868 9.03563C10.0727 9.74447 9.16174 10.2529 8.14535 10.4732V13.2904ZM21.9001 11.4122L21.8798 11.382C21.5416 10.8123 21.0025 10.4326 20.4064 10.268C19.7917 10.106 19.1282 10.1747 18.5386 10.5112H18.5425C17.9542 10.8451 17.5607 11.3919 17.3961 12.0045C17.2341 12.6118 17.305 13.2826 17.6432 13.867L17.6544 13.8826C17.9935 14.4593 18.5326 14.8463 19.1347 15.0031C19.7399 15.1728 20.4142 15.102 20.9951 14.7629L21.0267 14.7478C21.5986 14.4061 21.9796 13.867 22.139 13.2748C22.3009 12.6649 22.2366 11.9967 21.9001 11.4122Z" fill="#1A1919"/>
</g>
<defs>
<clipPath id="clip0_248_294037">
<rect width="24.7942" height="40" fill="white" transform="translate(0.265625)"/>
</clipPath>
</defs>
</svg>
