<svg width="26" height="40" viewBox="0 0 26 40" fill="none" xmlns="http://www.w3.org/2000/svg">
<path d="M12.5796 3.11086e-06C11.2885 0.000569423 10.1029 0.712842 9.49606 1.85246C8.88923 2.99208 8.96007 4.3734 9.68029 5.44497L11.1731 3.95423C11.1238 3.80553 11.0989 3.6498 11.0994 3.49312C11.0994 2.67911 11.7593 2.01923 12.5733 2.01923C13.3873 2.01923 14.0472 2.67911 14.0472 3.49312C14.0472 4.30712 13.3873 4.967 12.5733 4.967C12.4173 4.96735 12.2623 4.94246 12.1143 4.89331L10.6236 6.38404C11.865 7.22601 13.5054 7.1814 14.6992 6.27322C15.893 5.36504 16.3738 3.79607 15.8936 2.37498C15.4135 0.953898 14.0796 -0.00198998 12.5796 3.11086e-06Z" fill="#34A853"/>
<path d="M11.1891 10.1802C11.1914 9.00025 10.8092 7.85164 10.1005 6.9082L8.16341 8.84321C8.76922 9.95124 8.55121 11.3285 7.63281 12.1952L8.68559 14.7682C10.2455 13.7636 11.1884 12.0356 11.1891 10.1802Z" fill="#FBBC04"/>
<path d="M5.7733 12.9578H5.72277C4.5346 12.9579 3.47778 12.2027 3.09298 11.0786C2.70819 9.95443 3.08054 8.71002 4.01953 7.98199C4.95852 7.25396 6.25645 7.20334 7.24929 7.85604L9.16745 5.93788C7.30227 4.42575 4.66828 4.30911 2.67674 5.65044C0.685199 6.99177 -0.196758 9.47645 0.503411 11.7732C1.20358 14.07 3.32164 15.6401 5.72277 15.6424C6.09326 15.6425 6.46285 15.6059 6.82608 15.5329L5.7733 12.9578Z" fill="#EA4335"/>
<path d="M12.652 15.1833C11.4396 15.182 10.2337 15.3587 9.07257 15.7075L10.6075 19.4575C11.2757 19.2919 11.9615 19.2085 12.6499 19.2091C16.6386 19.2102 20.0711 22.0287 20.8483 25.9409C21.6256 29.8531 19.5312 33.7696 15.8459 35.2954C12.1606 36.8212 7.91067 35.5315 5.69498 32.2148C3.4793 28.8981 3.9149 24.4782 6.7354 21.6578C7.32394 21.0711 7.99583 20.5745 8.72936 20.1839L7.21126 16.4445C1.55246 19.2159 -1.12679 25.7916 0.983829 31.7286C3.09445 37.6656 9.32329 41.0744 15.4616 39.6519C21.5999 38.2293 25.6943 32.4281 24.9782 26.1679C24.2622 19.9077 18.9635 15.1808 12.6625 15.1812L12.652 15.1833Z" fill="#4285F4"/>
</svg>
