<svg width="34" height="40" viewBox="0 0 34 40" fill="none" xmlns="http://www.w3.org/2000/svg">
<path d="M28.3137 11.6266C34.803 18.1159 34.803 28.5258 28.3137 35.0602C21.9596 41.5494 11.5047 41.5494 5.0154 35.0602C-1.47388 28.5709 -1.47388 18.1159 5.0154 11.6266L16.642 0V5.81332L15.5605 6.89486L7.85446 14.6009C2.9875 19.3777 2.9875 27.2189 7.85446 32.0859C12.6313 36.9529 20.4725 36.9529 25.3395 32.0859C30.2064 27.3091 30.2064 19.4679 25.3395 14.6009L28.3137 11.6266ZM22.5004 10.9056C21.3058 10.9056 20.3373 9.93715 20.3373 8.74251C20.3373 7.54786 21.3058 6.57941 22.5004 6.57941C23.6951 6.57941 24.6635 7.54786 24.6635 8.74251C24.6635 9.93715 23.6951 10.9056 22.5004 10.9056Z" fill="#EE4C2C"/>
</svg>
