<svg width="41" height="40" viewBox="0 0 41 40" fill="none" xmlns="http://www.w3.org/2000/svg">
<g clip-path="url(#clip0_248_294060)">
<path d="M40.6641 0H0.664062V40H40.6641V0Z" fill="url(#paint0_linear_248_294060)"/>
<path d="M26.0766 17.5852C25.5467 17.5852 25.1161 17.1555 25.1161 16.6271C25.1161 16.0987 25.5467 15.6685 26.0766 15.6685C26.606 15.6685 27.0365 16.0987 27.0365 16.6271C27.0365 17.1555 26.606 17.5852 26.0766 17.5852ZM23.6438 23.4123C23.1144 23.4123 22.6838 22.9826 22.6838 22.4541C22.6838 21.9257 23.1144 21.496 23.6438 21.496C24.1732 21.496 24.6042 21.9257 24.6042 22.4541C24.6042 22.9826 24.1732 23.4123 23.6438 23.4123ZM17.8052 22.4412C17.2763 22.4412 16.8458 22.0115 16.8458 21.4831C16.8458 20.9546 17.2763 20.5244 17.8052 20.5244C18.3351 20.5244 18.7657 20.9546 18.7657 21.4831C18.7657 22.0115 18.3351 22.4412 17.8052 22.4412ZM15.3729 27.7827C14.844 27.7827 14.413 27.3529 14.413 26.8245C14.413 26.2961 14.844 25.8664 15.3729 25.8664C15.9028 25.8664 16.3333 26.2961 16.3333 26.8245C16.3333 27.3529 15.9028 27.7827 15.3729 27.7827ZM26.0766 14.6715C24.9963 14.6715 24.1172 15.5489 24.1172 16.6271C24.1172 17.2881 24.4494 17.8709 24.9543 18.2253L24.0403 20.5394C23.912 20.513 23.7791 20.499 23.6438 20.499C22.7847 20.499 22.061 21.0573 21.7978 21.8275L19.7526 21.3634C19.6891 20.342 18.8451 19.5274 17.8052 19.5274C16.7254 19.5274 15.8469 20.4048 15.8469 21.4831C15.8469 21.987 16.0437 22.4427 16.3588 22.7896L15.4663 24.8789C15.4343 24.8769 15.4049 24.8694 15.3729 24.8694C14.2931 24.8694 13.4141 25.7463 13.4141 26.8245C13.4141 27.9023 14.2931 28.7797 15.3729 28.7797C16.4532 28.7797 17.3322 27.9023 17.3322 26.8245C17.3322 26.1326 16.9686 25.5274 16.4237 25.1795L17.2114 23.3365C17.4002 23.3968 17.597 23.4382 17.8052 23.4382C18.5759 23.4382 19.2376 22.988 19.5568 22.3415L21.7234 22.833C21.9007 23.7303 22.6938 24.4093 23.6438 24.4093C24.7241 24.4093 25.6031 23.5324 25.6031 22.4541C25.6031 21.8714 25.3409 21.3534 24.9343 20.9945L25.8948 18.5638C25.9557 18.5698 26.0141 18.5823 26.0766 18.5823C27.1564 18.5823 28.0354 17.7049 28.0354 16.6271C28.0354 15.5489 27.1564 14.6715 26.0766 14.6715ZM20.6641 33.003C15.7984 33.003 12.163 31.5424 12.163 30.2363V11.5758C13.8181 12.9207 17.3218 13.6316 20.6746 13.6316C24.0124 13.6316 27.501 12.9267 29.1652 11.5932V30.2363C29.1652 31.5424 25.5292 33.003 20.6641 33.003ZM20.6746 6.99701C25.678 6.99701 29.1652 8.48255 29.1652 9.81605C29.1652 11.1491 25.678 12.6346 20.6746 12.6346C15.6706 12.6346 12.1839 11.1491 12.1839 9.81605C12.1839 8.48255 15.6706 6.99701 20.6746 6.99701ZM30.1641 9.81605C30.1641 7.33749 25.275 6 20.6746 6C16.0741 6 11.185 7.33749 11.185 9.81605C11.185 9.82004 11.186 9.82453 11.186 9.82851H11.1641V30.2363C11.1641 32.681 16.0587 34 20.6641 34C25.2695 34 30.1641 32.681 30.1641 30.2363V9.82851H30.1631C30.1631 9.82453 30.1641 9.82004 30.1641 9.81605Z" fill="white"/>
</g>
<defs>
<linearGradient id="paint0_linear_248_294060" x1="0.664062" y1="40" x2="40.6641" y2="0" gradientUnits="userSpaceOnUse">
<stop stop-color="#4D27A8"/>
<stop offset="1" stop-color="#A166FF"/>
</linearGradient>
<clipPath id="clip0_248_294060">
<rect width="40" height="40" fill="white" transform="translate(0.664062)"/>
</clipPath>
</defs>
</svg>
