<svg width="41" height="40" viewBox="0 0 41 40" fill="none" xmlns="http://www.w3.org/2000/svg">
<g clip-path="url(#clip0_248_294095)">
<path d="M31.0187 27.5406C35.9031 22.6594 36.7156 15.5531 32.8312 11.6719C28.9468 7.79065 21.8406 8.60315 16.9562 13.4844C12.0718 18.3657 13.4843 27.6969 15.1437 29.3531C16.4843 30.6938 26.1343 32.4219 31.0187 27.5406Z" fill="#F89939"/>
<path d="M10.9724 20.4875C8.13802 17.6562 4.01302 17.1844 1.75989 19.4344C-0.493233 21.6875 -0.0213584 25.8094 2.81302 28.6406C5.64739 31.475 11.063 30.6531 12.0255 29.6937C12.8036 28.9156 13.8099 23.3187 10.9724 20.4875Z" fill="#3499CD"/>
<path d="M39.0297 26.7748C38.8484 26.7748 38.7578 26.6654 38.7578 26.4436C38.7578 26.2779 38.8672 25.9154 39.0828 25.3623C39.3984 24.5529 39.5578 23.9717 39.5578 23.6186C39.5578 23.4061 39.4953 23.2279 39.3703 23.0873C39.2453 22.9467 39.0891 22.8748 38.9016 22.8748C38.6266 22.8748 38.3109 23.0029 37.9547 23.2623C37.5984 23.5217 37.1203 23.9873 36.5172 24.6623C36.6047 24.2248 36.7922 23.6248 37.0734 22.8623L35.7266 23.1217C35.4203 23.7842 35.1984 24.3811 35.0609 24.9123C34.9922 25.1717 34.9422 25.4404 34.9078 25.7123C34.4859 26.1217 34.2109 26.3686 34.0922 26.4592C33.9703 26.5498 33.8422 26.5936 33.7109 26.5936C33.5891 26.5936 33.4922 26.5467 33.4203 26.4561C33.3484 26.3654 33.3141 26.2404 33.3141 26.0873C33.3141 25.9217 33.3453 25.7311 33.4078 25.5154C33.4703 25.2998 33.6078 24.8936 33.8234 24.2967L34.3359 22.8842L33.8328 22.9061C33.3766 23.7748 32.8422 24.2436 32.2297 24.3092C32.3953 23.8779 32.4797 23.5467 32.4797 23.3154C32.4797 23.0217 32.3359 22.8748 32.0484 22.8748C31.7078 22.8748 31.4422 23.0342 31.2516 23.3561C31.0578 23.6779 30.9609 23.9811 30.9609 24.2654C30.9609 24.5498 31.1203 24.7498 31.4359 24.8904C31.2297 25.1936 30.9984 25.4779 30.7484 25.7467C30.4516 26.0404 30.2203 26.2654 30.0516 26.4123C29.8797 26.5654 29.7203 26.6404 29.5766 26.6404C29.3516 26.6404 29.2391 26.4811 29.2391 26.1654C29.2391 25.8498 29.3641 25.3061 29.6141 24.4936L30.1016 22.8748H29.7922L28.6641 23.4998C28.4797 23.0779 28.1578 22.8654 27.6984 22.8654C27.3328 22.8654 26.9141 23.0217 26.4391 23.3311C25.9641 23.6404 25.5734 24.0436 25.2703 24.5467C25.0359 24.9342 24.8922 25.3404 24.8391 25.7592C24.4141 26.1842 24.0953 26.4592 23.8828 26.5873C23.6609 26.7186 23.4297 26.7842 23.1859 26.7842C22.5641 26.7842 22.1797 26.4248 22.0328 25.7061C23.6547 25.2311 24.4641 24.6123 24.4641 23.8498C24.4641 23.5623 24.3609 23.3311 24.1547 23.1529C23.9484 22.9748 23.6734 22.8873 23.3328 22.8873C22.6734 22.8873 22.0734 23.2029 21.5328 23.8342C21.0422 24.4061 20.7766 25.0404 20.7297 25.7373C20.2828 26.1779 19.9453 26.4686 19.7266 26.6092C19.5016 26.7529 19.2891 26.8248 19.0922 26.8248C18.8953 26.8248 18.7391 26.7311 18.6234 26.5436C18.5047 26.3561 18.4453 26.1029 18.4453 25.7811C18.4453 25.6373 18.4609 25.3748 18.4891 24.9904C19.2266 24.1904 19.7672 23.4404 20.1141 22.7373C20.4609 22.0342 20.6328 21.3061 20.6328 20.5561C20.6328 20.2904 20.5984 20.0811 20.5297 19.9248C20.4609 19.7686 20.3734 19.6904 20.2672 19.6904C20.2453 19.6904 20.2109 19.6967 20.1672 19.7123L18.7641 20.2311C18.2859 21.1436 17.8766 22.1404 17.5422 23.2248C17.2078 24.3061 17.0391 25.2342 17.0391 26.0061C17.0391 26.5217 17.1578 26.9311 17.4016 27.2373C17.6422 27.5436 17.9609 27.6967 18.3547 27.6967C18.6984 27.6967 19.0578 27.5873 19.4359 27.3686C19.8141 27.1498 20.2516 26.8092 20.7547 26.3498C21.2578 25.8904 20.7547 26.3436 20.7547 26.3436C20.8141 26.6904 20.9578 26.9811 21.1828 27.2186C21.4922 27.5373 21.8953 27.6998 22.3953 27.6998C22.8453 27.6998 23.2547 27.5904 23.6266 27.3717C23.9859 27.1623 24.3891 26.8342 24.8391 26.3998C24.8766 26.7248 24.9828 27.0061 25.1609 27.2467C25.3891 27.5498 25.6641 27.7029 25.9859 27.7029C26.3078 27.7029 26.6391 27.5779 26.9516 27.3279C27.2641 27.0779 27.6016 26.6873 27.9703 26.1623C27.9359 27.1904 28.2109 27.7029 28.7922 27.7029C29.0234 27.7029 29.2672 27.6186 29.5203 27.4498C29.7734 27.2811 30.1953 26.9154 30.7859 26.3561C31.2984 25.8498 31.6734 25.3748 31.9141 24.9311C32.2391 24.8748 32.5359 24.7779 32.8078 24.6373C32.2516 25.5092 31.9734 26.2061 31.9734 26.7248C31.9734 27.0061 32.0516 27.2404 32.2047 27.4279C32.3578 27.6154 32.5484 27.7123 32.7734 27.7123C33.2641 27.7123 33.9609 27.2717 34.8609 26.3998C34.8609 26.4686 34.8547 26.5342 34.8547 26.6029C34.8547 26.8467 34.8766 27.2154 34.9141 27.7123L36.1359 27.4248C36.1359 27.0936 36.1422 26.8311 36.1516 26.6342C36.1703 26.3717 36.2078 26.0842 36.2609 25.7717C36.2953 25.5873 36.3797 25.4123 36.5141 25.2467L36.8234 24.8873C36.9359 24.7561 37.0453 24.6373 37.1422 24.5342C37.2578 24.4123 37.3609 24.3092 37.4516 24.2248C37.5547 24.1342 37.6453 24.0592 37.7234 24.0092C37.8078 23.9592 37.8766 23.9311 37.9266 23.9311C38.0172 23.9311 38.0641 23.9904 38.0641 24.1092C38.0641 24.2279 37.9766 24.5029 37.8047 24.9373C37.4797 25.7467 37.3172 26.3498 37.3172 26.7436C37.3172 27.0342 37.3922 27.2654 37.5453 27.4404C37.6953 27.6123 37.8953 27.6998 38.1422 27.6998C38.7484 27.6998 39.4797 27.2498 40.3297 26.3529V25.7186C39.7266 26.4279 39.2922 26.7842 39.0234 26.7842L39.0297 26.7748ZM18.6359 24.1842C18.8859 22.9623 19.1422 22.0154 19.4016 21.3373C19.6609 20.6592 19.8609 20.3186 19.9953 20.3186C20.0578 20.3186 20.1109 20.3592 20.1516 20.4436C20.1922 20.5248 20.2109 20.6373 20.2109 20.7717C20.2109 21.2373 20.0672 21.7904 19.7734 22.4373C19.4828 23.0811 19.1016 23.6654 18.6359 24.1842ZM22.3203 23.8779C22.5422 23.5061 22.7734 23.3217 23.0172 23.3217C23.2734 23.3217 23.4047 23.4998 23.4047 23.8529C23.4047 24.5686 22.9328 25.0561 21.9891 25.3217C21.9891 24.7279 22.0984 24.2467 22.3203 23.8779ZM27.7828 25.7061C27.4578 26.3342 27.1078 26.6467 26.7422 26.6467C26.5922 26.6467 26.4672 26.5842 26.3703 26.4623C26.2734 26.3404 26.2234 26.1779 26.2234 25.9779C26.2234 25.4529 26.3891 24.8748 26.7172 24.2498C27.0453 23.6248 27.3953 23.3123 27.7641 23.3123C27.9172 23.3123 28.0422 23.3686 28.1328 23.4873C28.2234 23.6029 28.2703 23.7654 28.2703 23.9717C28.2703 24.5029 28.1078 25.0811 27.7828 25.7092V25.7061Z" fill="#010101"/>
<path d="M23.9172 20.2751C23.9641 20.3407 23.9859 20.4251 23.9859 20.5251C23.9859 20.6251 23.9578 20.7157 23.9016 20.8001C23.8453 20.8845 23.7641 20.9532 23.6547 21.0001C23.5484 21.047 23.4266 21.072 23.2922 21.072C23.0672 21.072 22.8984 21.0251 22.7797 20.9313C22.6609 20.8376 22.5859 20.7001 22.5547 20.5157L22.8453 20.4688C22.8609 20.5845 22.9078 20.6751 22.9797 20.7345C23.0547 20.797 23.1578 20.8282 23.2922 20.8282C23.4266 20.8282 23.5266 20.8001 23.5922 20.747C23.6578 20.6938 23.6891 20.6282 23.6891 20.5532C23.6891 20.4876 23.6609 20.4345 23.6016 20.397C23.5609 20.372 23.4609 20.3376 23.3016 20.297C23.0859 20.2438 22.9391 20.197 22.8547 20.1563C22.7703 20.1157 22.7078 20.0626 22.6672 19.9907C22.6266 19.9188 22.6016 19.8438 22.6016 19.7595C22.6016 19.6813 22.6203 19.6126 22.6547 19.547C22.6891 19.4813 22.7391 19.4282 22.7984 19.3845C22.8453 19.3501 22.9047 19.322 22.9828 19.3001C23.0609 19.2782 23.1453 19.2657 23.2359 19.2657C23.3703 19.2657 23.4891 19.2845 23.5922 19.3251C23.6953 19.3626 23.7703 19.4157 23.8203 19.4845C23.8703 19.5501 23.9016 19.6407 23.9203 19.7532L23.6328 19.7907C23.6203 19.7032 23.5828 19.6313 23.5203 19.5813C23.4578 19.5313 23.3703 19.5063 23.2547 19.5063C23.1203 19.5063 23.0234 19.5282 22.9672 19.572C22.9109 19.6157 22.8797 19.6688 22.8797 19.7282C22.8797 19.7657 22.8922 19.8001 22.9141 19.8313C22.9391 19.8626 22.9766 19.8876 23.0266 19.9095C23.0547 19.9188 23.1422 19.9438 23.2859 19.9845C23.4922 20.0407 23.6359 20.0845 23.7203 20.1188C23.8016 20.1532 23.8672 20.2063 23.9141 20.272L23.9172 20.2751ZM25.3141 20.7251C25.2359 20.797 25.1422 20.8313 25.0266 20.8313C24.8828 20.8313 24.7672 20.7782 24.6797 20.6751C24.5922 20.572 24.5453 20.4001 24.5453 20.1688C24.5453 19.9376 24.5922 19.772 24.6828 19.6688C24.7734 19.5657 24.8953 19.5095 25.0422 19.5095C25.1391 19.5095 25.2234 19.5376 25.2922 19.597C25.3609 19.6563 25.4078 19.7438 25.4359 19.8595L25.7203 19.8157C25.6859 19.6407 25.6109 19.5063 25.4922 19.4126C25.3734 19.3188 25.2203 19.272 25.0328 19.272C24.8828 19.272 24.7484 19.3063 24.6203 19.3782C24.4953 19.447 24.3984 19.5532 24.3391 19.6938C24.2766 19.8345 24.2453 19.997 24.2453 20.1845C24.2453 20.472 24.3172 20.6938 24.4609 20.847C24.6047 21.0001 24.7953 21.0782 25.0297 21.0782C25.2172 21.0782 25.3766 21.022 25.5078 20.9095C25.6359 20.797 25.7172 20.6407 25.7484 20.4438L25.4609 20.4063C25.4391 20.5532 25.3922 20.6595 25.3141 20.7313V20.7251ZM25.9984 21.0313H26.2922V19.3063H25.9984V21.0313ZM25.9984 18.9845H26.2922V18.647H25.9984V18.9845ZM28.1016 19.3032H27.7234L27.0297 20.0063V18.647H26.7359V21.0282H27.0297V20.3438L27.2359 20.147L27.8078 21.0282H28.1703L27.4422 19.9438L28.1016 19.3032ZM28.4016 18.9845H28.6953V18.647H28.4016V18.9845ZM28.4016 21.0313H28.6953V19.3063H28.4016V21.0313ZM29.7797 20.7688C29.7266 20.7751 29.6828 20.7813 29.6516 20.7813C29.6078 20.7813 29.5734 20.7751 29.5516 20.7595C29.5297 20.7438 29.5109 20.7251 29.5016 20.7032C29.4922 20.6782 29.4859 20.6251 29.4859 20.5438V19.5345H29.7797V19.3063H29.4859V18.7032L29.1953 18.8782V19.3063H28.9797V19.5345H29.1953V20.5282C29.1953 20.7032 29.2078 20.8188 29.2297 20.872C29.2547 20.9282 29.2953 20.972 29.3516 21.0032C29.4109 21.0376 29.4922 21.0532 29.5984 21.0532C29.6641 21.0532 29.7359 21.0438 29.8203 21.0282L29.7766 20.7688H29.7797Z" fill="white"/>
</g>
<defs>
<clipPath id="clip0_248_294095">
<rect width="40" height="40" fill="white" transform="translate(0.335938)"/>
</clipPath>
</defs>
</svg>
