<svg width="41" height="40" viewBox="0 0 41 40" fill="none" xmlns="http://www.w3.org/2000/svg">
<g clip-path="url(#clip0_248_294056)">
<path d="M15.994 25.2641C17.2675 25.3545 18.2765 26.3975 18.3028 27.6769L18.3033 27.7282V37.4305C18.3033 38.7979 17.1836 39.9058 15.8088 39.9058C14.444 39.9058 13.338 38.8244 13.3116 37.4798L13.3111 37.4305V32.0032L8.55985 34.7193C7.3685 35.4062 5.84485 34.9996 5.1531 33.8187C4.47347 32.65 4.86155 31.1563 6.01894 30.4601L6.06503 30.4331L14.5455 25.5871C15.0009 25.3242 15.5071 25.2228 15.994 25.2641ZM26.0647 25.5537L26.1244 25.5871L34.6031 30.4331C35.798 31.1169 36.2034 32.6346 35.5165 33.8187C34.8372 34.9843 33.3423 35.3956 32.1567 34.7455L32.1101 34.7193L27.362 32.0032V37.4305C27.362 38.7979 26.2458 39.9058 24.8643 39.9058C23.4994 39.9058 22.3963 38.8244 22.3699 37.4798L22.3695 37.4305V27.7282C22.3695 26.4255 23.3854 25.3557 24.6788 25.2641C25.1431 25.2246 25.6252 25.3157 26.0647 25.5537ZM4.0346 12.9702L4.08137 12.9963L12.5555 17.8454C13.1513 18.1859 13.5489 18.726 13.7168 19.3305C13.7725 19.5252 13.798 19.7196 13.8078 19.9143C13.8142 20.1832 13.7789 20.4556 13.6942 20.7199C13.5213 21.2752 13.153 21.7716 12.6121 22.0987L12.5555 22.1319L4.08137 26.9842C2.88511 27.6666 1.36002 27.2628 0.673466 26.0822C-0.00941741 24.9105 0.378871 23.4239 1.53978 22.7268L1.5854 22.7L6.32075 19.9934L1.5854 17.2793C0.389137 16.5952 -0.0197308 15.0855 0.673466 13.9034C1.3511 12.735 2.84564 12.3245 4.0346 12.9702ZM39.9996 13.9034C40.6911 15.0855 40.2822 16.5952 39.0862 17.2793L34.3506 19.9934L39.0862 22.7C40.2822 23.3853 40.6911 24.8952 39.9996 26.0822C39.3096 27.2628 37.7831 27.6666 36.5914 26.9842L28.1109 22.1319C27.5455 21.8057 27.1528 21.2943 26.9785 20.7199C26.8956 20.4556 26.8572 20.1832 26.8667 19.9143C26.8716 19.7196 26.9002 19.5252 26.9546 19.3305C27.1242 18.726 27.5218 18.1862 28.1109 17.8454L36.5914 12.9963C37.7831 12.3139 39.3096 12.7196 39.9996 13.9034ZM20.8525 15.3656C20.9961 15.3656 21.194 15.4463 21.2948 15.5491L24.8195 19.0375C24.92 19.1372 25.0015 19.335 25.0015 19.4777V20.5062C25.0015 20.6457 24.92 20.8433 24.8195 20.9415L21.2948 24.4302C21.194 24.5327 20.9993 24.6166 20.8525 24.6166H19.816C19.6735 24.6166 19.4756 24.5327 19.3733 24.4302L15.8504 20.9415C15.7496 20.8433 15.6681 20.6457 15.6681 20.5062V19.4777C15.6681 19.335 15.7496 19.1372 15.8504 19.0375L19.3733 15.5491C19.4756 15.4463 19.6735 15.3656 19.816 15.3656H20.8525ZM20.3537 18.3428H20.3141C20.172 18.3428 19.974 18.4253 19.8749 18.5247L18.8544 19.5315C18.7521 19.6357 18.6738 19.8322 18.6738 19.973V20.0126C18.6738 20.1517 18.7521 20.3465 18.8544 20.4478L19.8749 21.4575C19.9755 21.5572 20.172 21.6394 20.3141 21.6394H20.3537C20.4962 21.6394 20.6944 21.5572 20.795 21.4575L21.8155 20.4478C21.9161 20.3465 22.0022 20.1517 22.0022 20.0126V19.973C22.0022 19.8322 21.9161 19.6357 21.8155 19.5315L20.795 18.5247C20.6944 18.4253 20.4962 18.3428 20.3537 18.3428ZM24.8643 0.078125C26.2291 0.078125 27.335 1.15978 27.3615 2.50078L27.362 2.54996V7.97899L32.1101 5.25975C33.3031 4.57622 34.8282 4.9817 35.5165 6.16349C36.1944 7.33531 35.8083 8.82292 34.6493 9.51916L34.6031 9.54623L26.1244 14.3968C25.669 14.6565 25.1642 14.7594 24.6788 14.7195C23.4024 14.6263 22.3962 13.5815 22.37 12.3035L22.3695 12.2523V2.54996C22.3695 1.18633 23.4828 0.078125 24.8643 0.078125ZM15.8088 0.078125C17.1671 0.078125 18.2763 1.15978 18.3028 2.50078L18.3033 2.54996V12.2523C18.3033 13.5535 17.2845 14.625 15.994 14.7195C15.5283 14.7576 15.0449 14.6652 14.6052 14.4298L14.5455 14.3968L6.06503 9.54623C4.87195 8.86212 4.46452 7.35073 5.1531 6.16349C5.83587 4.99705 7.32906 4.58688 8.51326 5.23367L8.55985 5.25975L13.3111 7.97899V2.54996C13.3111 1.18633 14.4273 0.078125 15.8088 0.078125Z" fill="#29B5E8"/>
</g>
<defs>
<clipPath id="clip0_248_294056">
<rect width="40" height="39.8438" fill="white" transform="translate(0.335938 0.078125)"/>
</clipPath>
</defs>
</svg>
