<svg width="33" height="32" viewBox="0 0 33 32" fill="none" xmlns="http://www.w3.org/2000/svg">
<g clip-path="url(#clip0_248_294076)">
<path d="M15.8185 1.47802V2.96208H13.1641V3.92732H15.8185V6.88337H16.8561V3.92732H19.5769V2.96208H16.8561V0H15.8185V1.47802Z" fill="#7099A6"/>
<path d="M7.14281 5.24256V7.39625H3.125V8.74758H7.14281V13.1213H8.6329V8.74758H12.711V7.39625H8.6329V3.08887H7.14281V5.24256Z" fill="#EB912C"/>
<path d="M23.9787 5.24256V7.39625H19.9609V8.81394H23.9787V13.1213H25.5292V8.81394H29.547V7.39625H25.5292V3.08887H23.9787V5.24256Z" fill="#59879B"/>
<path d="M15.4312 12.5781V14.9912H10.9609V16.789H15.4312V21.6152H17.241V16.789H21.7113V14.9912H17.241V10.165H15.4312V12.5781Z" fill="#E8762C"/>
<path d="M28.5723 13.7968V15.311H25.8516V16.5356H28.5723V19.558H29.9297V16.5356H32.6505V15.311H29.9297V12.2886H28.5723V13.7968Z" fill="#5B6591"/>
<path d="M2.67003 13.9298V15.3777H0.015625V16.4032H2.67003V19.2989H3.70767V16.4032L6.42844 16.3067V15.3777H3.70767V12.4819H2.67003V13.9298Z" fill="#7099A6"/>
<path d="M7.14281 20.7465V22.9002H3.125V24.3178H7.14281V28.6252H8.69323V24.3178H12.711V22.9002H8.69323V18.5928H7.14281V20.7465Z" fill="#C72035"/>
<path d="M23.9787 20.7465V22.9002H19.9609V24.2515H23.9787V28.6252H25.5292V24.2515H29.547V22.9002H25.5292V18.5928H23.9787V20.7465Z" fill="#1F447E"/>
<path d="M15.6895 26.2183V27.7265H12.9688V28.9512H15.6895V31.9736H17.0469V28.9512H19.7677V27.7265H17.0469V24.7041H15.6895V26.2183Z" fill="#5B6591"/>
</g>
<defs>
<clipPath id="clip0_248_294076">
<rect width="32.6375" height="32" fill="white" transform="translate(0.015625)"/>
</clipPath>
</defs>
</svg>
