<svg width="38" height="40" viewBox="0 0 38 40" fill="none" xmlns="http://www.w3.org/2000/svg">
<g clip-path="url(#clip0_248_294090)">
<path d="M21.5864 6.14111V12.2827L32.223 18.4242V12.2827L21.5864 6.14111ZM0.3125 12.2827V18.4242L5.63081 21.4943V15.3534L0.3125 12.2827ZM16.2674 15.3534L10.9491 18.4242V36.8476L16.2674 39.9183V27.6359L21.5864 30.7066V24.5651L16.2674 21.4943V15.3534Z" fill="#E55B2D"/>
<path d="M21.5884 6.14111L5.63281 15.3534V21.4943L16.2694 15.3534V21.4943L21.5884 18.4242V6.14111ZM37.5439 9.21189L32.225 12.2827V18.4242L37.5439 15.3534V9.21189ZM26.9067 21.4943L21.5884 24.5651V30.7066L26.9067 27.6359V21.4943ZM21.5884 30.7066L16.2694 27.6359V39.9183L21.5884 36.8476V30.7066Z" fill="#ED8E24"/>
<path d="M21.5864 0L0.3125 12.2824L5.63081 15.3532L21.5864 6.14091L32.223 12.2824L37.5419 9.21168L21.5864 0ZM21.5864 18.424L16.2674 21.4941L21.5864 24.5649L26.9047 21.4941L21.5864 18.424Z" fill="#F8BF3C"/>
</g>
<defs>
<clipPath id="clip0_248_294090">
<rect width="37.3723" height="40" fill="white" transform="translate(0.3125)"/>
</clipPath>
</defs>
</svg>
