<svg width="56" height="25" viewBox="0 0 56 25" fill="none" xmlns="http://www.w3.org/2000/svg">
<mask id="mask0_981_4226" style="mask-type:alpha" maskUnits="userSpaceOnUse" x="3" y="0" width="50" height="24">
<path d="M52.5502 19.3808C52.5502 21.9105 50.4309 23.98 47.8407 23.98H8.25634C5.66612 23.98 3.54688 21.9105 3.54688 19.3808V4.73398C3.54688 2.20458 5.66612 0.134766 8.25634 0.134766H47.8407C50.4309 0.134766 52.5502 2.20458 52.5502 4.73398V19.3808Z" fill="white"/>
</mask>
<g mask="url(#mask0_981_4226)">
<path d="M52.5502 19.3808C52.5502 21.9105 50.4309 23.98 47.8407 23.98H8.25634C5.66612 23.98 3.54688 21.9105 3.54688 19.3808V4.73398C3.54688 2.20458 5.66612 0.134766 8.25634 0.134766H47.8407C50.4309 0.134766 52.5502 2.20458 52.5502 4.73398V19.3808Z" fill="url(#paint0_linear_981_4226)"/>
</g>
<mask id="mask1_981_4226" style="mask-type:alpha" maskUnits="userSpaceOnUse" x="0" y="0" width="56" height="25">
<path d="M0.0117188 0.078125H55.9986V24.0321H0.0117188" fill="white"/>
</mask>
<g mask="url(#mask1_981_4226)">
<path fill-rule="evenodd" clip-rule="evenodd" d="M53.6083 8.81369C53.6083 7.02059 53.8841 5.96316 53.8841 4.03225C53.8841 1.04369 52.7805 0.078125 50.3439 0.078125H48.5508V2.193H49.1025C50.3439 2.193 50.6197 2.60688 50.6197 4.12413C50.6197 5.54928 50.4817 6.97466 50.4817 8.62994C50.4817 10.7448 51.1714 11.5723 52.5506 11.8941V12.0322C51.1714 12.3539 50.4817 13.1817 50.4817 15.2966C50.4817 16.9516 50.6197 18.2851 50.6197 19.8024C50.6197 21.3656 50.2979 21.7792 49.1025 21.7792V21.8252H48.5508V24.0321H50.3439C52.7805 24.0321 53.8841 23.0666 53.8841 20.0782C53.8841 18.1012 53.6083 17.0897 53.6083 15.2966C53.6083 14.331 54.2059 13.3195 55.999 13.2276V10.8367C54.2059 10.7908 53.6083 9.77925 53.6083 8.81369Z" fill="#FAF9F8"/>
<path fill-rule="evenodd" clip-rule="evenodd" d="M33.2397 11.6175C31.8143 11.0658 30.527 10.7441 30.527 9.82444C30.527 9.13494 31.0787 8.72106 32.0902 8.72106C33.1017 8.72106 34.0213 9.13494 35.0328 9.87059L36.8718 7.43372C35.7223 6.56025 34.1591 5.64062 32.0443 5.64062C28.9179 5.64062 26.8028 7.43372 26.8028 9.96247C26.8028 12.2154 28.7798 13.3647 30.4351 14.0085C31.8603 14.5602 33.2397 15.02 33.2397 15.9394C33.2397 16.6291 32.6878 17.0889 31.4466 17.0889C30.2971 17.0889 29.1478 16.6291 27.9064 15.6635L26.1133 18.3303C27.4925 19.4796 29.6074 20.2612 31.3545 20.2612C35.0328 20.2612 37.0097 18.3303 37.0097 15.8016C37.0097 13.2728 35.0328 12.2154 33.2397 11.6175Z" fill="#FAF9F8"/>
<path fill-rule="evenodd" clip-rule="evenodd" d="M44.3647 11.6175C42.9855 11.0658 41.6982 10.7441 41.6982 9.82444C41.6982 9.13494 42.2498 8.72106 43.2613 8.72106C44.2728 8.72106 45.1925 9.13494 46.204 9.87059L48.043 7.43372C46.8935 6.56025 45.3303 5.64062 43.2154 5.64062C40.0888 5.64062 37.9739 7.43372 37.9739 9.96247C37.9739 12.2154 39.951 13.3647 41.6061 14.0085C43.0314 14.5602 44.4107 15.02 44.4107 15.9394C44.4107 16.6291 43.859 17.0889 42.6176 17.0889C41.4683 17.0889 40.3187 16.6291 39.0775 15.6635L37.2383 18.3303C38.6177 19.4796 40.7326 20.2612 42.4798 20.2612C46.1578 20.2612 48.1349 18.3303 48.1349 15.8016C48.1349 13.2728 46.1578 12.2154 44.3647 11.6175Z" fill="#FAF9F8"/>
<path fill-rule="evenodd" clip-rule="evenodd" d="M17.0554 11.3886C17.3312 9.54961 18.4346 8.67614 19.7219 8.67614C21.3772 8.67614 22.021 9.82545 22.021 11.3886H17.0554ZM25.5151 12.2164C25.561 8.49217 23.538 5.5957 19.676 5.5957C16.3197 5.5957 13.1015 8.4003 13.1933 12.814C13.1933 17.3658 16.1819 20.0323 20.1358 20.0323C21.7911 20.0323 23.6301 19.4347 25.0553 18.4691L23.676 16.0325C22.6645 16.6301 21.699 16.906 20.6875 16.906C18.8485 16.906 17.4231 16.0325 17.0554 13.9174H25.3773C25.4232 13.5956 25.5151 12.952 25.5151 12.2164Z" fill="#FAF9F8"/>
<path fill-rule="evenodd" clip-rule="evenodd" d="M12.9655 16.8138C12.6438 16.8138 12.2299 16.538 12.2299 15.6643V0.078125H5.70106C3.21847 0.078125 2.11488 1.04369 2.11488 4.03225C2.11488 6.00909 2.39072 7.11269 2.39072 8.81369C2.39072 9.77925 1.79309 10.7908 0 10.8826V13.2736C1.79309 13.3195 2.39072 14.331 2.39072 15.2966C2.39072 16.9978 2.11488 18.0091 2.11488 19.9861C2.11488 22.9747 3.21847 23.9403 5.65513 23.9403H7.44822V21.8252H6.89653C5.74722 21.8252 5.37928 21.3656 5.37928 19.8483C5.37928 18.3311 5.51731 17.0437 5.51731 15.3425C5.51731 13.2276 4.82759 12.3999 3.44816 12.0781V11.9403C4.82759 11.6183 5.51731 10.7908 5.51731 8.67587C5.51731 7.02059 5.37928 5.68731 5.37928 4.17006C5.37928 2.65281 5.70106 2.23916 6.89653 2.23916H8.13794V15.4344C8.13794 18.239 9.1035 20.0782 11.9081 20.0782C12.7816 20.0782 13.4713 19.9402 13.977 19.7562L13.5172 16.7679C13.2414 16.8138 13.1036 16.8138 12.9655 16.8138Z" fill="#FAF9F8"/>
</g>
<defs>
<linearGradient id="paint0_linear_981_4226" x1="28.0485" y1="0.134766" x2="28.0485" y2="23.98" gradientUnits="userSpaceOnUse">
<stop stop-color="#2E4F82"/>
<stop offset="1" stop-color="#182E4D"/>
</linearGradient>
</defs>
</svg>
