<svg width="46" height="40" viewBox="0 0 46 40" fill="none" xmlns="http://www.w3.org/2000/svg">
<g clip-path="url(#clip0_248_326958)">
<path d="M37.4699 12.9515C37.004 12.7911 36.5212 12.6394 36.0241 12.4959C36.1058 12.1625 36.1808 11.8333 36.2475 11.5098C37.3419 6.19735 36.6263 1.91759 34.1828 0.508507C31.8399 -0.842613 28.0081 0.566147 24.1382 3.934C23.7661 4.25785 23.3929 4.60072 23.0199 4.96007C22.7714 4.72232 22.5232 4.49256 22.2757 4.2728C18.2199 0.671672 14.1547 -0.845891 11.7136 0.567266C9.37286 1.9223 8.67967 5.94569 9.66481 10.9804C9.75995 11.4666 9.87115 11.9633 9.9969 12.4682C9.42155 12.6315 8.8661 12.8056 8.33464 12.9908C3.57969 14.6486 0.542969 17.2468 0.542969 19.9418C0.542969 22.7251 3.80289 25.5169 8.75554 27.2097C9.14638 27.3433 9.55193 27.4696 9.96988 27.5895C9.83421 28.1356 9.71622 28.6708 9.61717 29.1927C8.67783 34.14 9.41139 38.0683 11.7459 39.4148C14.1572 40.8053 18.2041 39.376 22.1448 35.9314C22.4562 35.6592 22.7688 35.3704 23.0819 35.0677C23.4878 35.4586 23.893 35.8285 24.2961 36.1754C28.1131 39.4601 31.883 40.7864 34.2153 39.4362C36.6242 38.0416 37.4071 33.8217 36.3907 28.6874C36.3131 28.2953 36.2228 27.8947 36.1213 27.487C36.4055 27.4029 36.6845 27.3162 36.9566 27.226C42.1053 25.5201 45.4552 22.7623 45.4552 19.9418C45.4552 17.237 42.3206 14.6214 37.4699 12.9515ZM36.3531 25.4048C36.1076 25.4861 35.8556 25.5647 35.5988 25.6409C35.0304 23.8415 34.2633 21.928 33.3245 19.9511C34.2203 18.0213 34.9578 16.1323 35.5103 14.3445C35.9697 14.4775 36.4157 14.6177 36.8454 14.7657C41.0014 16.1964 43.5366 18.3118 43.5366 19.9418C43.5366 21.678 40.7987 23.9318 36.3531 25.4048ZM34.5085 29.06C34.958 31.3303 35.0222 33.3829 34.7245 34.9876C34.457 36.4294 33.919 37.3907 33.2539 37.7757C31.8385 38.595 28.8117 37.5301 25.5474 34.721C25.1732 34.399 24.7962 34.0552 24.4181 33.6913C25.6836 32.3072 26.9484 30.6982 28.1828 28.9112C30.354 28.7186 32.4052 28.4036 34.2654 27.9736C34.357 28.3431 34.4384 28.7056 34.5085 29.06ZM15.8546 37.6342C14.4717 38.1225 13.3703 38.1365 12.7046 37.7526C11.2879 36.9355 10.699 33.7814 11.5023 29.5505C11.5943 29.066 11.7038 28.5683 11.8301 28.0595C13.6699 28.4663 15.7061 28.7591 17.8825 28.9355C19.1252 30.6841 20.4265 32.2914 21.7379 33.6987C21.4514 33.9753 21.166 34.2386 20.8822 34.4868C19.1397 36.0099 17.3935 37.0906 15.8546 37.6342ZM9.37606 25.3942C7.18609 24.6457 5.37754 23.6729 4.13786 22.6113C3.02393 21.6573 2.46153 20.7102 2.46153 19.9418C2.46153 18.3064 4.89972 16.2204 8.96619 14.8026C9.4596 14.6306 9.97611 14.4684 10.5121 14.3161C11.0741 16.1443 11.8114 18.0557 12.7011 19.9884C11.7999 21.9499 11.0521 23.8918 10.4846 25.7413C10.1025 25.6315 9.73229 25.5159 9.37606 25.3942ZM11.5477 10.6119C10.7037 6.29832 11.2642 3.04431 12.6748 2.22777C14.1774 1.3579 17.4999 2.59814 21.0017 5.70754C21.2256 5.90628 21.4503 6.11429 21.6756 6.3295C20.3707 7.73066 19.0813 9.32585 17.8496 11.0641C15.7374 11.2599 13.7155 11.5744 11.8565 11.9956C11.7396 11.5254 11.6361 11.0635 11.5477 10.6119ZM30.9208 15.3956C30.4764 14.628 30.0202 13.8785 29.5551 13.1495C30.9881 13.3307 32.361 13.5712 33.6503 13.8654C33.2633 15.106 32.7808 16.4031 32.2129 17.7328C31.8055 16.9593 31.3746 16.1795 30.9208 15.3956ZM23.0205 7.70068C23.9055 8.65944 24.7918 9.72988 25.6635 10.8913C24.785 10.8498 23.8958 10.8282 22.9991 10.8282C22.1109 10.8282 21.2282 10.8493 20.3552 10.8901C21.2278 9.73948 22.1217 8.67047 23.0205 7.70068ZM15.0696 15.4089C14.6257 16.1787 14.2028 16.9543 13.8018 17.7313C13.2431 16.4063 12.7651 15.1033 12.3746 13.8451C13.6561 13.5584 15.0225 13.3239 16.4464 13.1462C15.9747 13.8819 15.5147 14.6369 15.0696 15.4087V15.4089ZM16.4874 26.8742C15.0163 26.7101 13.6293 26.4877 12.3482 26.2088C12.7449 24.9282 13.2334 23.5974 13.804 22.2438C14.206 23.0203 14.6306 23.7962 15.0772 24.5677H15.0773C15.5322 25.3536 16.0036 26.1234 16.4874 26.8742ZM23.0736 32.3181C22.1643 31.3369 21.2572 30.2516 20.3714 29.0842C21.2313 29.118 22.1081 29.1352 22.9991 29.1352C23.9145 29.1352 24.8195 29.1146 25.7102 29.075C24.8356 30.2634 23.9526 31.3504 23.0736 32.3181ZM32.2312 22.1748C32.8315 23.543 33.3375 24.8669 33.7393 26.1257C32.4371 26.4228 31.0312 26.662 29.5498 26.8398C30.016 26.101 30.4763 25.3386 30.9285 24.5545C31.386 23.7611 31.8204 22.9666 32.2312 22.1748ZM29.2666 23.596C28.5645 24.8133 27.8437 25.9753 27.112 27.0722C25.7793 27.1675 24.4024 27.2166 22.9991 27.2166C21.6015 27.2166 20.2419 27.1732 18.9328 27.0882C18.1716 25.9769 17.4351 24.8114 16.7376 23.6064H16.7377C16.042 22.4047 15.4016 21.1929 14.8214 19.9878C15.4015 18.7799 16.0401 17.5667 16.7319 16.3672L16.7317 16.3674C17.4253 15.1647 18.1553 14.0048 18.9095 12.9005C20.2451 12.7995 21.6148 12.7469 22.999 12.7469H22.9991C24.3896 12.7469 25.761 12.7999 27.0963 12.9018C27.839 13.9981 28.564 15.1541 29.2603 16.357C29.9645 17.5734 30.6114 18.7786 31.1964 19.9605C30.6131 21.1628 29.9677 22.3801 29.2666 23.596ZM33.2245 2.17069C34.7285 3.03799 35.3133 6.53583 34.3684 11.1226C34.3081 11.4152 34.2402 11.7134 34.1665 12.0155C32.3032 11.5855 30.2799 11.2656 28.1614 11.0669C26.9274 9.30946 25.6485 7.71179 24.3649 6.32862C24.71 5.99661 25.0546 5.68004 25.3978 5.38129C28.7135 2.49574 31.8125 1.35647 33.2245 2.17069ZM22.9991 15.9312C25.214 15.9312 27.0096 17.7268 27.0096 19.9418C27.0096 22.1567 25.214 23.9523 22.9991 23.9523C20.7842 23.9523 18.9886 22.1567 18.9886 19.9418C18.9886 17.7268 20.7842 15.9312 22.9991 15.9312Z" fill="#00D8FF"/>
</g>
<defs>
<clipPath id="clip0_248_326958">
<rect width="44.9123" height="40" fill="white" transform="translate(0.542969)"/>
</clipPath>
</defs>
</svg>
