<svg width="40" height="30" viewBox="0 0 40 30" fill="none" xmlns="http://www.w3.org/2000/svg">
<g clip-path="url(#clip0_248_327018)">
<path d="M34.4183 17.2671C33.0267 17.2744 31.8172 17.6096 30.8045 18.105C30.4329 17.3691 30.0613 16.7134 29.9957 16.2325C29.9229 15.6715 29.8354 15.3291 29.9229 14.6588C30.0103 13.9884 30.4037 13.034 30.3965 12.9611C30.3892 12.8883 30.309 12.5458 29.5076 12.5385C28.7061 12.5313 28.0139 12.6915 27.9338 12.9028C27.8536 13.1141 27.7006 13.595 27.5986 14.0904C27.4602 14.819 25.9957 17.4201 25.1578 18.7826C24.8883 18.2507 24.6551 17.7844 24.6041 17.4129C24.5312 16.8518 24.4438 16.5094 24.5312 15.8391C24.6187 15.1688 25.0121 14.2143 25.0048 14.1415C24.9975 14.0686 24.9174 13.7262 24.1159 13.7189C23.3145 13.7116 22.6223 13.8719 22.5422 14.0832C22.462 14.2945 22.3746 14.7899 22.207 15.2708C22.0394 15.7517 20.0941 20.0941 19.5841 21.2161C19.3218 21.7917 19.0959 22.2507 18.9356 22.564C18.9356 22.564 18.9283 22.5859 18.9065 22.6223C18.768 22.8919 18.6879 23.0376 18.6879 23.0376C18.6879 23.0376 18.6879 23.0376 18.6879 23.0449C18.5786 23.2416 18.462 23.4238 18.4037 23.4238C18.36 23.4238 18.2799 22.8992 18.4183 22.1852C18.7097 20.677 19.4019 18.3309 19.3946 18.2507C19.3946 18.207 19.5258 17.799 18.9429 17.5877C18.3746 17.3764 18.1706 17.7262 18.1196 17.7262C18.0686 17.7262 18.0322 17.85 18.0322 17.85C18.0322 17.85 18.666 15.2125 16.8227 15.2125C15.6715 15.2125 14.0832 16.473 13.2963 17.6096C12.8008 17.8792 11.7444 18.4547 10.615 19.0741C10.1852 19.3145 9.74071 19.5549 9.32541 19.7808C9.29627 19.7517 9.26712 19.7152 9.23798 19.6861C7.00847 17.3036 2.88461 15.6205 3.05947 12.422C3.12505 11.2562 3.52577 8.1961 10.9793 4.48025C17.1141 1.45657 21.9957 2.29446 22.8409 4.15238C24.0504 6.80447 20.2252 11.7298 13.8864 12.4438C11.4675 12.7134 10.1997 11.7808 9.87914 11.4311C9.54399 11.0668 9.49299 11.0449 9.36913 11.1178C9.16512 11.2271 9.29627 11.5549 9.36913 11.7444C9.55856 12.2398 10.3382 13.1141 11.6569 13.544C12.8227 13.9229 15.6569 14.1342 19.0886 12.8081C22.9283 11.3218 25.9301 7.19063 25.0485 3.72979C24.1669 0.217954 18.3382 -0.940516 12.8227 1.01941C9.54399 2.18517 5.98843 4.02123 3.43106 6.41103C0.392806 9.25256 -0.0880686 11.7225 0.108653 12.7571C0.815392 16.4292 5.87914 18.819 7.90465 20.5895C7.80264 20.6478 7.70792 20.6988 7.62778 20.7425C6.61503 21.2453 2.75346 23.2635 1.79171 25.3983C0.698817 27.8172 1.96658 29.5513 2.80446 29.7844C5.40556 30.5057 8.07951 29.2088 9.51485 27.0668C10.9502 24.9247 10.7753 22.1414 10.1123 20.8664C10.105 20.8518 10.0977 20.8373 10.0832 20.8227C10.3454 20.6697 10.615 20.5094 10.8773 20.3564C11.3946 20.0504 11.9046 19.7662 12.3418 19.5331C12.0941 20.2107 11.9119 21.0194 11.8245 22.1852C11.7152 23.5549 12.2762 25.3327 13.0121 26.0322C13.34 26.3382 13.7261 26.3455 13.9739 26.3455C14.8336 26.3455 15.2198 25.6314 15.6496 24.7863C16.1742 23.7516 16.6478 22.5495 16.6478 22.5495C16.6478 22.5495 16.0577 25.799 17.6606 25.799C18.2434 25.799 18.8336 25.0413 19.0959 24.6551V24.6624C19.0959 24.6624 19.1105 24.6405 19.1396 24.5895C19.1979 24.4948 19.2343 24.4365 19.2343 24.4365V24.422C19.4675 24.0139 19.9921 23.0886 20.7717 21.5513C21.7771 19.5695 22.7462 17.0923 22.7462 17.0923C22.7462 17.0923 22.8336 17.697 23.1323 18.7025C23.3072 19.2926 23.6715 19.9411 23.9629 20.5677C23.7298 20.8955 23.5841 21.0777 23.5841 21.0777C23.5841 21.0777 23.5841 21.0777 23.5914 21.085C23.4019 21.3327 23.1979 21.6023 22.972 21.8646C22.1779 22.8118 21.2307 23.8974 21.0995 24.2107C20.9465 24.5823 20.983 24.8518 21.2744 25.0704C21.4857 25.2307 21.8646 25.2526 22.2507 25.2307C22.9648 25.1797 23.4675 25.0048 23.7152 24.8955C24.1014 24.7571 24.5531 24.5458 24.9757 24.2325C25.7553 23.6569 26.2289 22.8336 26.1852 21.748C26.1633 21.1506 25.9666 20.5531 25.7261 19.9921C25.799 19.8901 25.8646 19.7881 25.9374 19.6861C27.1688 17.8864 28.1232 15.9119 28.1232 15.9119C28.1232 15.9119 28.2107 16.5167 28.5094 17.5221C28.6551 18.0322 28.9538 18.5859 29.2161 19.1251C28.0577 20.0649 27.3436 21.1578 27.0886 21.8719C26.6296 23.1979 26.9866 23.7954 27.6642 23.9338C27.9702 23.9994 28.4074 23.8537 28.728 23.7152C29.136 23.5841 29.6169 23.3582 30.0759 23.0231C30.8555 22.4475 31.6059 21.646 31.5622 20.5604C31.5403 20.0649 31.4092 19.5768 31.2271 19.1032C32.2107 18.6952 33.4784 18.4693 35.0959 18.6588C38.564 19.0668 39.2489 21.2307 39.1178 22.1414C38.9866 23.0522 38.258 23.5476 38.0176 23.7006C37.7771 23.8537 37.697 23.9047 37.7189 24.0139C37.748 24.1742 37.8646 24.167 38.0686 24.1378C38.3527 24.0868 39.8901 23.4019 39.9556 21.7261C40.0649 19.5841 38.0249 17.2453 34.4183 17.2671ZM7.66421 26.2872C6.51302 27.5404 4.91011 28.0139 4.21794 27.6132C3.47477 27.1833 3.76621 25.3327 5.17969 24.0067C6.03944 23.1979 7.1469 22.4475 7.88279 21.9884C8.05036 21.8864 8.29809 21.7407 8.59681 21.5586C8.64781 21.5294 8.67696 21.5149 8.67696 21.5149C8.73525 21.4784 8.79353 21.442 8.85182 21.4056C9.36913 23.2999 8.87368 24.9684 7.66421 26.2872ZM16.0431 20.5895C15.6423 21.5659 14.8045 24.0649 14.2944 23.9265C13.8573 23.8099 13.5877 21.9156 14.207 20.0431C14.5203 19.1032 15.1833 17.9812 15.5695 17.544C16.1961 16.8445 16.8883 16.6114 17.0558 16.8955C17.2671 17.2671 16.2908 19.9775 16.0431 20.5895ZM22.9575 23.8974C22.7899 23.9848 22.6296 24.0431 22.5567 23.9994C22.5057 23.9702 22.6296 23.8537 22.6296 23.8537C22.6296 23.8537 23.4966 22.921 23.8391 22.4985C24.0358 22.2507 24.2689 21.9593 24.5167 21.6314V21.7261C24.5167 22.8409 23.4383 23.5914 22.9575 23.8974ZM28.2908 22.6806C28.1669 22.5932 28.1888 22.3017 28.6041 21.391C28.7644 21.034 29.1433 20.4365 29.7917 19.8609C29.8646 20.0941 29.9156 20.32 29.9083 20.5312C29.901 21.9374 28.8955 22.462 28.2908 22.6806Z" fill="#CD6799"/>
</g>
<defs>
<clipPath id="clip0_248_327018">
<rect width="40" height="30" fill="white"/>
</clipPath>
</defs>
</svg>
