<svg width="32" height="32" viewBox="0 0 32 32" fill="none" xmlns="http://www.w3.org/2000/svg">
<g clip-path="url(#clip0_248_326995)">
<path d="M0 16V32H16H32V16V0H16H0V16Z" fill="#007ACC"/>
<path d="M7.07772 16.1066L7.06756 17.417H9.1501H11.2326L11.2326 23.3345V29.252H12.7057H14.1787V23.3345L14.1787 17.417H16.2612H18.3438V16.132C18.3438 15.4208 18.3285 14.8266 18.3082 14.8113C18.293 14.791 15.7584 14.7808 12.6853 14.7859L7.09296 14.8012L7.07772 16.1066Z" fill="white"/>
<path d="M25.822 14.7638C26.6347 14.967 27.2543 15.3276 27.8232 15.9168C28.1178 16.2318 28.5547 16.8057 28.5902 16.9429C28.6004 16.9835 27.2086 17.9181 26.3654 18.4413C26.335 18.4616 26.2131 18.3295 26.0759 18.1264C25.6645 17.527 25.2327 17.268 24.5724 17.2222C23.6023 17.1562 22.9775 17.6641 22.9826 18.5124C22.9826 18.7613 23.0181 18.9086 23.1197 19.1118C23.3331 19.5537 23.7293 19.8178 24.9737 20.3562C27.2645 21.3416 28.2448 21.9918 28.8543 22.9162C29.535 23.9473 29.6874 25.593 29.2251 26.8172C28.7172 28.148 27.4575 29.0521 25.6848 29.3518C25.1362 29.4483 23.8359 29.433 23.2467 29.3264C21.9616 29.0978 20.7426 28.4629 19.9908 27.6299C19.6962 27.3048 19.1223 26.4565 19.1578 26.3956C19.1731 26.3753 19.3051 26.294 19.4524 26.2076C19.5947 26.1264 20.1331 25.8165 20.641 25.5219L21.5604 24.9886L21.7534 25.273C22.0226 25.6845 22.6118 26.2483 22.9674 26.4362C23.9883 26.9746 25.3902 26.8984 26.081 26.2787C26.3756 26.0095 26.4975 25.7302 26.4975 25.3187C26.4975 24.948 26.4518 24.7854 26.2588 24.506C26.0099 24.1505 25.502 23.8508 24.0594 23.226C22.4086 22.5149 21.6975 22.073 21.0474 21.3721C20.6715 20.9657 20.3159 20.3156 20.1686 19.7721C20.0467 19.32 20.0162 18.1873 20.1127 17.7302C20.4531 16.1353 21.6569 15.0229 23.394 14.6927C23.9578 14.5861 25.2683 14.6267 25.822 14.7638Z" fill="white"/>
</g>
<defs>
<clipPath id="clip0_248_326995">
<rect width="32" height="32" fill="white"/>
</clipPath>
</defs>
</svg>
