<svg width="48" height="37" viewBox="0 0 48 37" fill="none" xmlns="http://www.w3.org/2000/svg">
<path d="M15.368 36.48C12.488 36.48 9.912 35.728 7.64 34.224C5.4 32.688 3.64 30.576 2.36 27.888C1.08 25.168 0.44 22.064 0.44 18.576C0.44 15.088 1.08 12.032 2.36 9.408C3.64 6.752 5.4 4.688 7.64 3.216C9.912 1.712 12.488 0.959999 15.368 0.959999C18.28 0.959999 20.856 1.712 23.096 3.216C25.336 4.688 27.096 6.752 28.376 9.408C29.656 12.032 30.296 15.088 30.296 18.576C30.296 22.096 29.656 25.2 28.376 27.888C27.096 30.576 25.32 32.688 23.048 34.224C20.808 35.728 18.248 36.48 15.368 36.48ZM15.368 30.336C17 30.336 18.344 29.792 19.4 28.704C20.456 27.616 21.24 26.176 21.752 24.384C22.264 22.592 22.52 20.64 22.52 18.528C22.52 16.416 22.264 14.496 21.752 12.768C21.24 11.04 20.456 9.664 19.4 8.64C18.344 7.616 17 7.104 15.368 7.104C13.736 7.104 12.392 7.632 11.336 8.688C10.28 9.712 9.496 11.088 8.984 12.816C8.472 14.544 8.216 16.448 8.216 18.528C8.216 20.672 8.472 22.64 8.984 24.432C9.496 26.224 10.28 27.664 11.336 28.752C12.424 29.808 13.768 30.336 15.368 30.336ZM40.5988 36V7.776L41.4148 8.496C40.9348 9.488 40.2468 10.416 39.3508 11.28C38.4548 12.112 37.3988 12.832 36.1828 13.44C34.9988 14.016 33.6708 14.448 32.1988 14.736V7.536C33.3828 7.376 34.6148 6.992 35.8948 6.384C37.1748 5.744 38.3268 4.992 39.3508 4.128C40.4068 3.232 41.1588 2.336 41.6068 1.44H47.7988V36H40.5988Z" fill="#39A300"/>
</svg>
