<svg width="58" height="37" viewBox="0 0 58 37" fill="none" xmlns="http://www.w3.org/2000/svg">
<path d="M15.368 36.48C12.488 36.48 9.912 35.728 7.64 34.224C5.4 32.688 3.64 30.576 2.36 27.888C1.08 25.168 0.44 22.064 0.44 18.576C0.44 15.088 1.08 12.032 2.36 9.408C3.64 6.752 5.4 4.688 7.64 3.216C9.912 1.712 12.488 0.959999 15.368 0.959999C18.28 0.959999 20.856 1.712 23.096 3.216C25.336 4.688 27.096 6.752 28.376 9.408C29.656 12.032 30.296 15.088 30.296 18.576C30.296 22.096 29.656 25.2 28.376 27.888C27.096 30.576 25.32 32.688 23.048 34.224C20.808 35.728 18.248 36.48 15.368 36.48ZM15.368 30.336C17 30.336 18.344 29.792 19.4 28.704C20.456 27.616 21.24 26.176 21.752 24.384C22.264 22.592 22.52 20.64 22.52 18.528C22.52 16.416 22.264 14.496 21.752 12.768C21.24 11.04 20.456 9.664 19.4 8.64C18.344 7.616 17 7.104 15.368 7.104C13.736 7.104 12.392 7.632 11.336 8.688C10.28 9.712 9.496 11.088 8.984 12.816C8.472 14.544 8.216 16.448 8.216 18.528C8.216 20.672 8.472 22.64 8.984 24.432C9.496 26.224 10.28 27.664 11.336 28.752C12.424 29.808 13.768 30.336 15.368 30.336ZM32.5906 36V30.24C35.7586 27.648 38.3986 25.424 40.5106 23.568C42.6546 21.68 44.3506 20.016 45.5986 18.576C46.8786 17.136 47.7906 15.824 48.3346 14.64C48.8786 13.456 49.1506 12.272 49.1506 11.088C49.1506 9.68 48.7666 8.592 47.9986 7.824C47.2626 7.024 46.2226 6.624 44.8786 6.624C43.4706 6.624 42.3026 7.056 41.3746 7.92C40.4466 8.784 39.8706 9.968 39.6466 11.472H32.2546C32.6066 8.208 33.9346 5.648 36.2386 3.792C38.5426 1.904 41.5186 0.959999 45.1666 0.959999C48.8786 0.959999 51.7746 1.92 53.8546 3.84C55.9346 5.728 56.9746 8.368 56.9746 11.76C56.9746 13.36 56.7026 14.896 56.1586 16.368C55.6466 17.84 54.7826 19.36 53.5666 20.928C52.3506 22.496 50.6866 24.224 48.5746 26.112C46.4946 27.968 43.8866 30.096 40.7506 32.496L38.9746 30.336H57.6466V36H32.5906Z" fill="#39A300"/>
</svg>
