<svg width="61" height="37" viewBox="0 0 61 37" fill="none" xmlns="http://www.w3.org/2000/svg">
<path d="M15.368 36.48C12.488 36.48 9.912 35.728 7.64 34.224C5.4 32.688 3.64 30.576 2.36 27.888C1.08 25.168 0.44 22.064 0.44 18.576C0.44 15.088 1.08 12.032 2.36 9.408C3.64 6.752 5.4 4.688 7.64 3.216C9.912 1.712 12.488 0.959999 15.368 0.959999C18.28 0.959999 20.856 1.712 23.096 3.216C25.336 4.688 27.096 6.752 28.376 9.408C29.656 12.032 30.296 15.088 30.296 18.576C30.296 22.096 29.656 25.2 28.376 27.888C27.096 30.576 25.32 32.688 23.048 34.224C20.808 35.728 18.248 36.48 15.368 36.48ZM15.368 30.336C17 30.336 18.344 29.792 19.4 28.704C20.456 27.616 21.24 26.176 21.752 24.384C22.264 22.592 22.52 20.64 22.52 18.528C22.52 16.416 22.264 14.496 21.752 12.768C21.24 11.04 20.456 9.664 19.4 8.64C18.344 7.616 17 7.104 15.368 7.104C13.736 7.104 12.392 7.632 11.336 8.688C10.28 9.712 9.496 11.088 8.984 12.816C8.472 14.544 8.216 16.448 8.216 18.528C8.216 20.672 8.472 22.64 8.984 24.432C9.496 26.224 10.28 27.664 11.336 28.752C12.424 29.808 13.768 30.336 15.368 30.336ZM49.4833 36V26.88L49.8673 25.92V6.192L52.7953 7.776L38.7793 26.352L35.3713 23.808H60.4273V29.472H32.6833V23.808L49.6753 1.44H56.9713V36H49.4833Z" fill="#39A300"/>
</svg>
