<svg width="62" height="37" viewBox="0 0 62 37" fill="none" xmlns="http://www.w3.org/2000/svg">
<path d="M15.368 36.48C12.488 36.48 9.912 35.728 7.64 34.224C5.4 32.688 3.64 30.576 2.36 27.888C1.08 25.168 0.44 22.064 0.44 18.576C0.44 15.088 1.08 12.032 2.36 9.408C3.64 6.752 5.4 4.688 7.64 3.216C9.912 1.712 12.488 0.959999 15.368 0.959999C18.28 0.959999 20.856 1.712 23.096 3.216C25.336 4.688 27.096 6.752 28.376 9.408C29.656 12.032 30.296 15.088 30.296 18.576C30.296 22.096 29.656 25.2 28.376 27.888C27.096 30.576 25.32 32.688 23.048 34.224C20.808 35.728 18.248 36.48 15.368 36.48ZM15.368 30.336C17 30.336 18.344 29.792 19.4 28.704C20.456 27.616 21.24 26.176 21.752 24.384C22.264 22.592 22.52 20.64 22.52 18.528C22.52 16.416 22.264 14.496 21.752 12.768C21.24 11.04 20.456 9.664 19.4 8.64C18.344 7.616 17 7.104 15.368 7.104C13.736 7.104 12.392 7.632 11.336 8.688C10.28 9.712 9.496 11.088 8.984 12.816C8.472 14.544 8.216 16.448 8.216 18.528C8.216 20.672 8.472 22.64 8.984 24.432C9.496 26.224 10.28 27.664 11.336 28.752C12.424 29.808 13.768 30.336 15.368 30.336ZM48.071 36.48C43.527 36.48 40.007 35.008 37.511 32.064C35.047 29.088 33.815 24.896 33.815 19.488C33.815 15.68 34.407 12.4 35.591 9.648C36.807 6.864 38.519 4.72 40.727 3.216C42.935 1.712 45.527 0.959999 48.503 0.959999C51.863 0.959999 54.599 1.856 56.711 3.648C58.855 5.408 60.167 7.856 60.647 10.992H53.303C53.143 9.584 52.615 8.512 51.719 7.776C50.855 7.008 49.767 6.624 48.455 6.624C46.119 6.624 44.375 7.632 43.223 9.648C42.071 11.664 41.495 14.784 41.495 19.008V22.128L40.007 21.696C40.359 20.16 40.983 18.832 41.879 17.712C42.775 16.592 43.895 15.728 45.239 15.12C46.615 14.512 48.151 14.208 49.847 14.208C52.087 14.208 54.055 14.672 55.751 15.6C57.447 16.496 58.759 17.776 59.687 19.44C60.647 21.072 61.127 22.992 61.127 25.2C61.127 27.472 60.583 29.456 59.495 31.152C58.439 32.848 56.935 34.16 54.983 35.088C53.031 36.016 50.727 36.48 48.071 36.48ZM47.543 30.816C49.175 30.816 50.535 30.352 51.623 29.424C52.743 28.464 53.303 27.072 53.303 25.248C53.303 23.424 52.727 22.064 51.575 21.168C50.455 20.24 49.079 19.776 47.447 19.776C45.783 19.776 44.375 20.24 43.223 21.168C42.071 22.064 41.495 23.392 41.495 25.152C41.495 26.336 41.767 27.36 42.311 28.224C42.887 29.056 43.623 29.696 44.519 30.144C45.447 30.592 46.455 30.816 47.543 30.816Z" fill="#39A300"/>
</svg>
