<svg width="24" height="30" viewBox="0 0 24 30" fill="none" xmlns="http://www.w3.org/2000/svg">
<g clip-path="url(#clip0_267_231461)">
<path d="M23.625 23.2501H23.25V4.10639C23.25 3.6944 22.9599 3.19178 22.6025 2.98396C22.6025 2.98396 19.9039 1.6319 19.8984 1.62916C19.5176 1.43836 19.0199 1.45777 18.6912 1.74908L17.4346 2.86402C17.1253 3.13812 16.875 3.6944 16.875 4.10639V12.4016C17.1589 12.2691 17.5051 12.1938 17.8654 12.1938C18.1076 12.1938 18.4678 12.2269 18.8081 12.3846L19.6875 12.7916V11.3596L22.5 12.8396V14.242L21.5737 13.7544C21.6821 13.9384 21.75 14.6947 21.75 14.6947L22.5 15.0892V16.4916L21.75 16.0971V16.9443L22.5 17.3391V18.7415L21.75 18.3467V19.1941L22.5 19.5889V20.9913L21.75 20.5965V21.4439L22.5 21.8385V23.2501H21V14.9764C21 14.5624 20.6953 14.0856 20.3194 13.9115L18.4931 13.0665C18.3175 12.9852 18.0926 12.9451 17.8654 12.9451C17.6061 12.9451 17.3438 12.9973 17.1484 13.0998L15.6641 13.8782C15.2974 14.0706 15 14.5624 15 14.9764V23.2501H14.25V2.62085C14.25 2.20668 13.9601 1.70129 13.6025 1.4922L11.2734 0.130076C10.909 -0.0830703 10.3815 -0.0283217 10.0662 0.250742L8.80957 1.3717C8.50048 1.64729 8.25 2.20668 8.25 2.62085V23.2501H7.5V6.15442C7.5 5.7375 7.20099 5.24549 6.83221 5.05561L5.23737 4.23419C4.94147 4.08168 4.5465 4.08661 4.24822 4.23219C4.16711 4.27173 4.07152 4.32594 4.00743 4.39002L1.31212 6.78633C1.00159 7.06263 0.75 7.62422 0.75 8.04114V23.2501H0.375C0.167908 23.2501 0 23.418 0 23.6251C0 23.8322 0.167908 24.0001 0.375 24.0001H23.625C23.8321 24.0001 24 23.8322 24 23.6251C24 23.418 23.8321 23.2501 23.625 23.2501ZM4.3125 23.2501H3.06903L4.3125 22.1981V23.2501ZM4.3125 21.216L1.914 23.2451L1.91821 23.2501H1.5V22.2329L4.3125 19.8425V21.216ZM4.3125 18.8587L1.5 21.2491V19.7958L4.3125 17.4053V18.8587ZM4.3125 16.4215L1.5 18.8118V17.3585L4.3125 14.968V16.4215ZM4.3125 13.9842L1.5 16.3746V14.9212L4.3125 12.5309V13.9842ZM4.3125 11.5469L1.5 13.9373V12.484L4.3125 10.0936V11.5469ZM4.3125 9.10975L1.5 11.5V10.0467L4.3125 7.65644V9.10975ZM4.3125 6.67242L1.5 9.06288V8.04114C1.5 7.8379 1.65967 7.48102 1.81056 7.3468L4.3125 5.12226V6.67242ZM13.5 23.2501H11.25V21.3604L13.5 22.6259V23.2501ZM13.5 21.7653L11.25 20.4998V19.1106L13.5 20.376V21.7653ZM13.5 19.5156L11.25 18.25V16.8608L13.5 18.1264V19.5156ZM13.5 17.2658L11.25 16.0004V14.6112L13.5 15.8766V17.2658ZM13.5 15.016L11.25 13.7505V12.3613L13.5 13.6268V15.016ZM13.5 12.7664L11.25 11.5007V10.1115L13.5 11.3771V12.7664ZM13.5 10.5166L11.25 9.25111V7.86189L13.5 9.12733V10.5166ZM13.5 8.26673L11.25 7.00128V5.61207L13.5 6.87751V8.26673ZM13.5 6.01709L11.25 4.75166V3.36224L13.5 4.62787V6.01709ZM13.5 3.76728L11.25 2.50184V0.985362L13.2239 2.13965C13.3504 2.21363 13.5 2.47438 13.5 2.62085V3.76728ZM17.4375 23.2501H15.75V14.9764C15.75 14.8406 15.8923 14.6055 16.0126 14.5423L17.4375 13.7949V23.2501ZM22.5 11.9922L19.6875 10.512V9.10975L22.5 10.5898V11.9922ZM22.5 9.74256L19.6875 8.26217V6.85992L22.5 8.33998V9.74256ZM22.5 7.49273L19.6875 6.01252V4.6103L22.5 6.09033V7.49273ZM22.5 5.24293L19.6875 3.76271V2.3623L22.2383 3.64021C22.3612 3.72259 22.5 3.96723 22.5 4.10639V5.24293Z" fill="#88E755"/>
</g>
<defs>
<clipPath id="clip0_267_231461">
<rect width="24" height="30" fill="white"/>
</clipPath>
</defs>
</svg>
