<svg width="32" height="32" viewBox="0 0 32 32" fill="none" xmlns="http://www.w3.org/2000/svg">
<g clip-path="url(#clip0_267_231470)">
<path d="M6.5 5H6C5.86739 5 5.74021 5.05268 5.64645 5.14645C5.55268 5.24021 5.5 5.36739 5.5 5.5C5.5 5.63261 5.55268 5.75979 5.64645 5.85355C5.74021 5.94732 5.86739 6 6 6H6.5C6.63261 6 6.75979 5.94732 6.85355 5.85355C6.94732 5.75979 7 5.63261 7 5.5C7 5.36739 6.94732 5.24021 6.85355 5.14645C6.75979 5.05268 6.63261 5 6.5 5Z" fill="#88E755"/>
<path d="M9 5H8.5C8.36739 5 8.24021 5.05268 8.14645 5.14645C8.05268 5.24021 8 5.36739 8 5.5C8 5.63261 8.05268 5.75979 8.14645 5.85355C8.24021 5.94732 8.36739 6 8.5 6H9C9.13261 6 9.25979 5.94732 9.35355 5.85355C9.44732 5.75979 9.5 5.63261 9.5 5.5C9.5 5.36739 9.44732 5.24021 9.35355 5.14645C9.25979 5.05268 9.13261 5 9 5Z" fill="#88E755"/>
<path d="M6.5 7H6C5.86739 7 5.74021 7.05268 5.64645 7.14645C5.55268 7.24021 5.5 7.36739 5.5 7.5C5.5 7.63261 5.55268 7.75979 5.64645 7.85355C5.74021 7.94732 5.86739 8 6 8H6.5C6.63261 8 6.75979 7.94732 6.85355 7.85355C6.94732 7.75979 7 7.63261 7 7.5C7 7.36739 6.94732 7.24021 6.85355 7.14645C6.75979 7.05268 6.63261 7 6.5 7Z" fill="#88E755"/>
<path d="M9 7H8.5C8.36739 7 8.24021 7.05268 8.14645 7.14645C8.05268 7.24021 8 7.36739 8 7.5C8 7.63261 8.05268 7.75979 8.14645 7.85355C8.24021 7.94732 8.36739 8 8.5 8H9C9.13261 8 9.25979 7.94732 9.35355 7.85355C9.44732 7.75979 9.5 7.63261 9.5 7.5C9.5 7.36739 9.44732 7.24021 9.35355 7.14645C9.25979 7.05268 9.13261 7 9 7Z" fill="#88E755"/>
<path d="M6.5 9H6C5.86739 9 5.74021 9.05268 5.64645 9.14645C5.55268 9.24021 5.5 9.36739 5.5 9.5C5.5 9.63261 5.55268 9.75979 5.64645 9.85355C5.74021 9.94732 5.86739 10 6 10H6.5C6.63261 10 6.75979 9.94732 6.85355 9.85355C6.94732 9.75979 7 9.63261 7 9.5C7 9.36739 6.94732 9.24021 6.85355 9.14645C6.75979 9.05268 6.63261 9 6.5 9Z" fill="#88E755"/>
<path d="M9 9H8.5C8.36739 9 8.24021 9.05268 8.14645 9.14645C8.05268 9.24021 8 9.36739 8 9.5C8 9.63261 8.05268 9.75979 8.14645 9.85355C8.24021 9.94732 8.36739 10 8.5 10H9C9.13261 10 9.25979 9.94732 9.35355 9.85355C9.44732 9.75979 9.5 9.63261 9.5 9.5C9.5 9.36739 9.44732 9.24021 9.35355 9.14645C9.25979 9.05268 9.13261 9 9 9Z" fill="#88E755"/>
<path d="M6.5 11H6C5.86739 11 5.74021 11.0527 5.64645 11.1464C5.55268 11.2402 5.5 11.3674 5.5 11.5C5.5 11.6326 5.55268 11.7598 5.64645 11.8536C5.74021 11.9473 5.86739 12 6 12H6.5C6.63261 12 6.75979 11.9473 6.85355 11.8536C6.94732 11.7598 7 11.6326 7 11.5C7 11.3674 6.94732 11.2402 6.85355 11.1464C6.75979 11.0527 6.63261 11 6.5 11Z" fill="#88E755"/>
<path d="M9 11H8.5C8.36739 11 8.24021 11.0527 8.14645 11.1464C8.05268 11.2402 8 11.3674 8 11.5C8 11.6326 8.05268 11.7598 8.14645 11.8536C8.24021 11.9473 8.36739 12 8.5 12H9C9.13261 12 9.25979 11.9473 9.35355 11.8536C9.44732 11.7598 9.5 11.6326 9.5 11.5C9.5 11.3674 9.44732 11.2402 9.35355 11.1464C9.25979 11.0527 9.13261 11 9 11Z" fill="#88E755"/>
<path d="M0.5 14H14.5C14.6326 14 14.7598 13.9473 14.8536 13.8536C14.9473 13.7598 15 13.6326 15 13.5C15 13.3674 14.9473 13.2402 14.8536 13.1464C14.7598 13.0527 14.6326 13 14.5 13H14V7C14 6.8674 13.9473 6.74024 13.8535 6.64648L11.5 4.29297V3.5C11.5 3.36739 11.4473 3.24022 11.3535 3.14645C11.2598 3.05269 11.1326 3.00001 11 3H10.5V1.5C10.5 1.36739 10.4473 1.24022 10.3535 1.14645C10.2598 1.05269 10.1326 1.00001 10 1H9.5V0.5C9.5 0.367392 9.44732 0.240215 9.35355 0.146447C9.25979 0.0526784 9.13261 0 9 0C8.86739 0 8.74021 0.0526784 8.64645 0.146447C8.55268 0.240215 8.5 0.367392 8.5 0.5V1H6.5V0.5C6.5 0.367392 6.44732 0.240215 6.35355 0.146447C6.25979 0.0526784 6.13261 0 6 0C5.86739 0 5.74021 0.0526784 5.64645 0.146447C5.55268 0.240215 5.5 0.367392 5.5 0.5V1H5C4.86739 1.00001 4.74022 1.05269 4.64645 1.14645C4.55269 1.24022 4.50001 1.36739 4.5 1.5V3H4C3.86739 3.00001 3.74022 3.05269 3.64645 3.14645C3.55269 3.24022 3.50001 3.36739 3.5 3.5V4.29297L1.14648 6.64648C1.05272 6.74024 1.00003 6.8674 1 7V13H0.5C0.367392 13 0.240215 13.0527 0.146447 13.1464C0.0526784 13.2402 0 13.3674 0 13.5C0 13.6326 0.0526784 13.7598 0.146447 13.8536C0.240215 13.9473 0.367392 14 0.5 14ZM11.5 5.70715L13 7.20715V13H11.5V5.70715ZM5.5 2H9.5V3H5.5V2ZM4.5 4H10.5V13H4.5V4ZM2 7.20715L3.5 5.70715V13H2V7.20715Z" fill="#88E755"/>
<path d="M23 6H23.5C23.6326 6 23.7598 5.94732 23.8536 5.85355C23.9473 5.75979 24 5.63261 24 5.5C24 5.36739 23.9473 5.24021 23.8536 5.14645C23.7598 5.05268 23.6326 5 23.5 5H23C22.8674 5 22.7402 5.05268 22.6464 5.14645C22.5527 5.24021 22.5 5.36739 22.5 5.5C22.5 5.63261 22.5527 5.75979 22.6464 5.85355C22.7402 5.94732 22.8674 6 23 6Z" fill="#88E755"/>
<path d="M25.5 6H26C26.1326 6 26.2598 5.94732 26.3536 5.85355C26.4473 5.75979 26.5 5.63261 26.5 5.5C26.5 5.36739 26.4473 5.24021 26.3536 5.14645C26.2598 5.05268 26.1326 5 26 5H25.5C25.3674 5 25.2402 5.05268 25.1464 5.14645C25.0527 5.24021 25 5.36739 25 5.5C25 5.63261 25.0527 5.75979 25.1464 5.85355C25.2402 5.94732 25.3674 6 25.5 6Z" fill="#88E755"/>
<path d="M23 8H23.5C23.6326 8 23.7598 7.94732 23.8536 7.85355C23.9473 7.75979 24 7.63261 24 7.5C24 7.36739 23.9473 7.24021 23.8536 7.14645C23.7598 7.05268 23.6326 7 23.5 7H23C22.8674 7 22.7402 7.05268 22.6464 7.14645C22.5527 7.24021 22.5 7.36739 22.5 7.5C22.5 7.63261 22.5527 7.75979 22.6464 7.85355C22.7402 7.94732 22.8674 8 23 8Z" fill="#88E755"/>
<path d="M25.5 8H26C26.1326 8 26.2598 7.94732 26.3536 7.85355C26.4473 7.75979 26.5 7.63261 26.5 7.5C26.5 7.36739 26.4473 7.24021 26.3536 7.14645C26.2598 7.05268 26.1326 7 26 7H25.5C25.3674 7 25.2402 7.05268 25.1464 7.14645C25.0527 7.24021 25 7.36739 25 7.5C25 7.63261 25.0527 7.75979 25.1464 7.85355C25.2402 7.94732 25.3674 8 25.5 8Z" fill="#88E755"/>
<path d="M23 10H23.5C23.6326 10 23.7598 9.94732 23.8536 9.85355C23.9473 9.75979 24 9.63261 24 9.5C24 9.36739 23.9473 9.24021 23.8536 9.14645C23.7598 9.05268 23.6326 9 23.5 9H23C22.8674 9 22.7402 9.05268 22.6464 9.14645C22.5527 9.24021 22.5 9.36739 22.5 9.5C22.5 9.63261 22.5527 9.75979 22.6464 9.85355C22.7402 9.94732 22.8674 10 23 10Z" fill="#88E755"/>
<path d="M25.5 10H26C26.1326 10 26.2598 9.94732 26.3536 9.85355C26.4473 9.75979 26.5 9.63261 26.5 9.5C26.5 9.36739 26.4473 9.24021 26.3536 9.14645C26.2598 9.05268 26.1326 9 26 9H25.5C25.3674 9 25.2402 9.05268 25.1464 9.14645C25.0527 9.24021 25 9.36739 25 9.5C25 9.63261 25.0527 9.75979 25.1464 9.85355C25.2402 9.94732 25.3674 10 25.5 10Z" fill="#88E755"/>
<path d="M23 12H23.5C23.6326 12 23.7598 11.9473 23.8536 11.8536C23.9473 11.7598 24 11.6326 24 11.5C24 11.3674 23.9473 11.2402 23.8536 11.1464C23.7598 11.0527 23.6326 11 23.5 11H23C22.8674 11 22.7402 11.0527 22.6464 11.1464C22.5527 11.2402 22.5 11.3674 22.5 11.5C22.5 11.6326 22.5527 11.7598 22.6464 11.8536C22.7402 11.9473 22.8674 12 23 12Z" fill="#88E755"/>
<path d="M25.5 12H26C26.1326 12 26.2598 11.9473 26.3536 11.8536C26.4473 11.7598 26.5 11.6326 26.5 11.5C26.5 11.3674 26.4473 11.2402 26.3536 11.1464C26.2598 11.0527 26.1326 11 26 11H25.5C25.3674 11 25.2402 11.0527 25.1464 11.1464C25.0527 11.2402 25 11.3674 25 11.5C25 11.6326 25.0527 11.7598 25.1464 11.8536C25.2402 11.9473 25.3674 12 25.5 12Z" fill="#88E755"/>
<path d="M28.5 3.5C28.5 3.36739 28.4473 3.24022 28.3535 3.14645C28.2598 3.05269 28.1326 3.00001 28 3H27.5V1.5C27.5 1.36739 27.4473 1.24022 27.3535 1.14645C27.2598 1.05269 27.1326 1.00001 27 1H26.5V0.5C26.5 0.367392 26.4473 0.240215 26.3536 0.146447C26.2598 0.0526784 26.1326 0 26 0C25.8674 0 25.7402 0.0526784 25.6464 0.146447C25.5527 0.240215 25.5 0.367392 25.5 0.5V1H23.5V0.5C23.5 0.367392 23.4473 0.240215 23.3536 0.146447C23.2598 0.0526784 23.1326 0 23 0C22.8674 0 22.7402 0.0526784 22.6464 0.146447C22.5527 0.240215 22.5 0.367392 22.5 0.5V1H22C21.8674 1.00001 21.7402 1.05269 21.6465 1.14645C21.5527 1.24022 21.5 1.36739 21.5 1.5V3H21C20.8674 3.00001 20.7402 3.05269 20.6465 3.14645C20.5527 3.24022 20.5 3.36739 20.5 3.5V4.29297L18.1465 6.64648C18.0527 6.74024 18 6.8674 18 7V13H17.5C17.3674 13 17.2402 13.0527 17.1464 13.1464C17.0527 13.2402 17 13.3674 17 13.5C17 13.6326 17.0527 13.7598 17.1464 13.8536C17.2402 13.9473 17.3674 14 17.5 14H31.5C31.6326 14 31.7598 13.9473 31.8536 13.8536C31.9473 13.7598 32 13.6326 32 13.5C32 13.3674 31.9473 13.2402 31.8536 13.1464C31.7598 13.0527 31.6326 13 31.5 13H31V7C31 6.8674 30.9473 6.74024 30.8535 6.64648L28.5 4.29297V3.5ZM20.5 13H19V7.20715L20.5 5.70715V13ZM22.5 2H26.5V3H22.5V2ZM27.5 13H21.5V4H27.5V13ZM30 7.20715V13H28.5V5.70715L30 7.20715Z" fill="#88E755"/>
<path d="M14.5 24H15C15.1326 24 15.2598 23.9473 15.3536 23.8536C15.4473 23.7598 15.5 23.6326 15.5 23.5C15.5 23.3674 15.4473 23.2402 15.3536 23.1464C15.2598 23.0527 15.1326 23 15 23H14.5C14.3674 23 14.2402 23.0527 14.1464 23.1464C14.0527 23.2402 14 23.3674 14 23.5C14 23.6326 14.0527 23.7598 14.1464 23.8536C14.2402 23.9473 14.3674 24 14.5 24Z" fill="#88E755"/>
<path d="M17 24H17.5C17.6326 24 17.7598 23.9473 17.8536 23.8536C17.9473 23.7598 18 23.6326 18 23.5C18 23.3674 17.9473 23.2402 17.8536 23.1464C17.7598 23.0527 17.6326 23 17.5 23H17C16.8674 23 16.7402 23.0527 16.6464 23.1464C16.5527 23.2402 16.5 23.3674 16.5 23.5C16.5 23.6326 16.5527 23.7598 16.6464 23.8536C16.7402 23.9473 16.8674 24 17 24Z" fill="#88E755"/>
<path d="M14.5 26H15C15.1326 26 15.2598 25.9473 15.3536 25.8536C15.4473 25.7598 15.5 25.6326 15.5 25.5C15.5 25.3674 15.4473 25.2402 15.3536 25.1464C15.2598 25.0527 15.1326 25 15 25H14.5C14.3674 25 14.2402 25.0527 14.1464 25.1464C14.0527 25.2402 14 25.3674 14 25.5C14 25.6326 14.0527 25.7598 14.1464 25.8536C14.2402 25.9473 14.3674 26 14.5 26Z" fill="#88E755"/>
<path d="M17 26H17.5C17.6326 26 17.7598 25.9473 17.8536 25.8536C17.9473 25.7598 18 25.6326 18 25.5C18 25.3674 17.9473 25.2402 17.8536 25.1464C17.7598 25.0527 17.6326 25 17.5 25H17C16.8674 25 16.7402 25.0527 16.6464 25.1464C16.5527 25.2402 16.5 25.3674 16.5 25.5C16.5 25.6326 16.5527 25.7598 16.6464 25.8536C16.7402 25.9473 16.8674 26 17 26Z" fill="#88E755"/>
<path d="M14.5 28H15C15.1326 28 15.2598 27.9473 15.3536 27.8536C15.4473 27.7598 15.5 27.6326 15.5 27.5C15.5 27.3674 15.4473 27.2402 15.3536 27.1464C15.2598 27.0527 15.1326 27 15 27H14.5C14.3674 27 14.2402 27.0527 14.1464 27.1464C14.0527 27.2402 14 27.3674 14 27.5C14 27.6326 14.0527 27.7598 14.1464 27.8536C14.2402 27.9473 14.3674 28 14.5 28Z" fill="#88E755"/>
<path d="M17 28H17.5C17.6326 28 17.7598 27.9473 17.8536 27.8536C17.9473 27.7598 18 27.6326 18 27.5C18 27.3674 17.9473 27.2402 17.8536 27.1464C17.7598 27.0527 17.6326 27 17.5 27H17C16.8674 27 16.7402 27.0527 16.6464 27.1464C16.5527 27.2402 16.5 27.3674 16.5 27.5C16.5 27.6326 16.5527 27.7598 16.6464 27.8536C16.7402 27.9473 16.8674 28 17 28Z" fill="#88E755"/>
<path d="M14.5 30H15C15.1326 30 15.2598 29.9473 15.3536 29.8536C15.4473 29.7598 15.5 29.6326 15.5 29.5C15.5 29.3674 15.4473 29.2402 15.3536 29.1464C15.2598 29.0527 15.1326 29 15 29H14.5C14.3674 29 14.2402 29.0527 14.1464 29.1464C14.0527 29.2402 14 29.3674 14 29.5C14 29.6326 14.0527 29.7598 14.1464 29.8536C14.2402 29.9473 14.3674 30 14.5 30Z" fill="#88E755"/>
<path d="M17 30H17.5C17.6326 30 17.7598 29.9473 17.8536 29.8536C17.9473 29.7598 18 29.6326 18 29.5C18 29.3674 17.9473 29.2402 17.8536 29.1464C17.7598 29.0527 17.6326 29 17.5 29H17C16.8674 29 16.7402 29.0527 16.6464 29.1464C16.5527 29.2402 16.5 29.3674 16.5 29.5C16.5 29.6326 16.5527 29.7598 16.6464 29.8536C16.7402 29.9473 16.8674 30 17 30Z" fill="#88E755"/>
<path d="M23.5 31.5C23.5 31.3674 23.4473 31.2402 23.3535 31.1465C23.2598 31.0527 23.1326 31 23 31H22.5V25C22.5 24.8674 22.4473 24.7402 22.3535 24.6465L20 22.293V21.5C20 21.3674 19.9473 21.2402 19.8535 21.1465C19.7598 21.0527 19.6326 21 19.5 21H19V19.5C19 19.3674 18.9473 19.2402 18.8535 19.1465C18.7598 19.0527 18.6326 19 18.5 19H18V18.5C18 18.3674 17.9473 18.2402 17.8536 18.1464C17.7598 18.0527 17.6326 18 17.5 18C17.3674 18 17.2402 18.0527 17.1464 18.1464C17.0527 18.2402 17 18.3674 17 18.5V19H15V18.5C15 18.3674 14.9473 18.2402 14.8536 18.1464C14.7598 18.0527 14.6326 18 14.5 18C14.3674 18 14.2402 18.0527 14.1464 18.1464C14.0527 18.2402 14 18.3674 14 18.5V19H13.5C13.3674 19 13.2402 19.0527 13.1465 19.1465C13.0527 19.2402 13 19.3674 13 19.5V21H12.5C12.3674 21 12.2402 21.0527 12.1465 21.1465C12.0527 21.2402 12 21.3674 12 21.5V22.293L9.64649 24.6465C9.55272 24.7402 9.50003 24.8674 9.5 25V31H9C8.86739 31 8.74021 31.0527 8.64645 31.1464C8.55268 31.2402 8.5 31.3674 8.5 31.5C8.5 31.6326 8.55268 31.7598 8.64645 31.8536C8.74021 31.9473 8.86739 32 9 32H23C23.1326 32 23.2598 31.9473 23.3535 31.8535C23.4473 31.7598 23.5 31.6326 23.5 31.5ZM12 31H10.5V25.207L12 23.707V31ZM14 20H18V21H14V20ZM19 31H13V22H19V31ZM21.5 31H20V23.707L21.5 25.207V31Z" fill="#88E755"/>
<path d="M3.25 15C3.11739 15 2.99022 15.0527 2.89645 15.1465C2.80269 15.2402 2.75001 15.3674 2.75 15.5V27.25C2.75001 27.3826 2.80269 27.5098 2.89645 27.6035C2.99022 27.6973 3.11739 27.75 3.25 27.75H8C8.13261 27.75 8.25979 27.6973 8.35355 27.6036C8.44732 27.5098 8.5 27.3826 8.5 27.25C8.5 27.1174 8.44732 26.9902 8.35355 26.8964C8.25979 26.8027 8.13261 26.75 8 26.75H3.75V15.5C3.74999 15.3674 3.69731 15.2402 3.60355 15.1465C3.50978 15.0527 3.38261 15 3.25 15Z" fill="#88E755"/>
<path d="M28.25 15.5V26.75H24C23.8674 26.75 23.7402 26.8027 23.6464 26.8964C23.5527 26.9902 23.5 27.1174 23.5 27.25C23.5 27.3826 23.5527 27.5098 23.6464 27.6036C23.7402 27.6973 23.8674 27.75 24 27.75H28.75C28.8826 27.75 29.0098 27.6973 29.1035 27.6035C29.1973 27.5098 29.25 27.3826 29.25 27.25V15.5C29.25 15.3674 29.1973 15.2402 29.1036 15.1464C29.0098 15.0527 28.8826 15 28.75 15C28.6174 15 28.4902 15.0527 28.3964 15.1464C28.3027 15.2402 28.25 15.3674 28.25 15.5Z" fill="#88E755"/>
</g>
<defs>
<clipPath id="clip0_267_231470">
<rect width="32" height="32" fill="white"/>
</clipPath>
</defs>
</svg>
