<svg width="24" height="24" viewBox="0 0 24 24" fill="none" xmlns="http://www.w3.org/2000/svg">
<path d="M3.42969 20.6919C3.42969 21.4755 3.60045 21.9476 4.34375 22.3091C6.06138 23.0524 8.43192 23.5447 11.2746 23.5447C14.0871 23.5447 17.2511 23.1228 19.5212 22.0179C20.7266 21.4453 21.0178 20.9129 21.0178 19.6674V4.24888C21.0178 2.62165 20.2947 1.87835 18.7277 1.87835H17.7835V1.47657C17.7835 0.482143 17.2813 0 16.3973 0C16.0959 0 15.7344 0.0703125 15.3025 0.210938C12.269 1.20536 9.49665 1.83817 5.94085 1.83817H5.13728C4.05246 1.83817 3.42969 2.47098 3.42969 3.45536V20.6919ZM6.99554 9.45197V6.05692C6.99554 5.91629 7.09598 5.79576 7.23661 5.78571C9.57701 5.69531 11.6663 5.28348 13.8058 4.5C13.9263 4.44978 14.1373 4.5 14.1373 4.74107V8.28683C14.1373 8.37723 14.0871 8.46764 13.9966 8.49777C12.1283 9.26117 9.66741 9.69309 7.23661 9.69309C7.10602 9.69309 6.99554 9.61269 6.99554 9.45197ZM7.50781 21.827C11.4554 21.7165 15.1216 20.6116 17.1105 19.0948C17.5725 18.7433 17.7835 18.3817 17.7835 17.4978V3.49553H18.7377C19.1797 3.49553 19.4007 3.73661 19.4007 4.24888V19.5569C19.4007 20.1596 19.3102 20.3805 18.7377 20.6317C16.7388 21.5055 13.9263 22.0681 11.2746 22.0681C10.0089 22.0681 8.81362 21.9978 7.50781 21.827Z" fill="#88E755"/>
</svg>
