<svg width="24" height="24" viewBox="0 0 24 24" fill="none" xmlns="http://www.w3.org/2000/svg">
<g clip-path="url(#clip0_267_125088)">
<path d="M4.27232 17.9195L5.08594 19.3056L12.2478 15.7097L19.4096 19.3056L20.2233 17.9195L13.0614 14.3235V5.84584H11.4442V14.3235L4.27232 17.9195ZM1.73103 19.3559C1.73103 19.7677 1.90179 20.0691 2.26339 20.2699L4.27232 21.4451C4.53348 21.6059 4.71429 21.636 5.06585 21.4351L7.02455 20.3001C7.38616 20.0992 7.45647 19.9284 7.44643 19.597L7.45647 17.2666C7.45647 16.8648 7.27567 16.5735 6.93415 16.3727L4.91518 15.1974C4.65401 15.0568 4.43303 15.0065 4.09151 15.1974L2.10268 16.3525C1.76116 16.5434 1.71094 16.7443 1.71094 17.0255L1.73103 19.3559ZM16.9888 19.607C16.9788 19.9385 17.0491 20.1092 17.4107 20.3101L19.3695 21.4451C19.721 21.6461 19.9018 21.616 20.1629 21.4552L22.1719 20.28C22.5335 20.0791 22.7043 19.7777 22.7043 19.366L22.7243 17.0356C22.7243 16.7543 22.6741 16.5534 22.3326 16.3625L20.3438 15.2075C20.0022 15.0166 19.7812 15.0668 19.5201 15.2075L17.5011 16.3827C17.1596 16.5836 16.9788 16.8749 16.9788 17.2766L16.9888 19.607ZM9.68639 7.56348L11.7154 8.72865C12.0569 8.9195 12.3884 8.9195 12.7299 8.72865L14.759 7.56348C15.0402 7.40276 15.1607 7.25209 15.1607 6.84026V4.57017C15.1607 4.16839 15.0402 4.02776 14.779 3.87709L12.75 2.72196C12.3884 2.52107 12.0469 2.52107 11.6953 2.72196L9.66629 3.87709C9.41518 4.01772 9.27455 4.16839 9.27455 4.57017V6.84026C9.27455 7.25209 9.42522 7.41281 9.68639 7.56348Z" fill="#88E755"/>
</g>
<defs>
<clipPath id="clip0_267_125088">
<rect width="21.0134" height="19.0547" fill="white" transform="translate(1.71094 2.57129)"/>
</clipPath>
</defs>
</svg>
