<svg width="24" height="24" viewBox="0 0 24 24" fill="none" xmlns="http://www.w3.org/2000/svg">
<path d="M2.39844 13.0187V14.4403C2.39844 16.3054 3.34007 17.247 5.24143 17.247H7.53212V15.7893H5.25954C4.35413 15.7893 3.85615 15.3004 3.85615 14.3588V13.0187H2.39844ZM3.85615 11.7784V7.66777H2.39844V11.7784H3.85615ZM3.85615 6.43641V5.35897C3.85615 4.41734 4.35413 3.92842 5.25954 3.92842H6.57238V2.4707H5.24143C3.34007 2.4707 2.39844 3.41233 2.39844 5.27748V6.43641H3.85615ZM11.9143 2.4707H7.80374V3.92842H11.9143V2.4707ZM13.1457 3.92842H14.3046C15.201 3.92842 15.708 4.41734 15.708 5.35897V7.34182H17.1657V5.27748C17.1657 3.41233 16.215 2.4707 14.3318 2.4707H13.1457V3.92842ZM21.557 16.4774V9.46955C21.557 7.60439 20.6063 6.66276 18.723 6.66276H9.63268C7.73131 6.66276 6.78968 7.59533 6.78968 9.46955V18.6323C6.78968 20.4974 7.73131 21.4391 9.63268 21.4391H14.1959V19.9814H9.65079C8.75443 19.9814 8.2474 19.4924 8.2474 18.5508V9.55106C8.2474 8.60939 8.75443 8.12047 9.65079 8.12047H18.6959C19.5922 8.12047 20.0993 8.60939 20.0993 9.55106V15.0107L21.557 16.4774ZM15.0108 19.8003C15.0018 20.1534 15.4183 20.262 15.6446 20.0448L17.0299 18.6595L18.5781 22.4803C18.6506 22.6523 18.8316 22.7339 18.9947 22.6704L19.9 22.3083C20.054 22.2358 20.1264 22.0457 20.0358 21.8737L18.4152 18.1072L20.3708 18.0347C20.7059 18.0166 20.8779 17.6816 20.6335 17.4281L15.6808 12.3397C15.4544 12.1043 15.1014 12.2401 15.0923 12.5751L15.0108 19.8003Z" fill="#88E755"/>
</svg>
