<svg width="24" height="24" viewBox="0 0 24 24" fill="none" xmlns="http://www.w3.org/2000/svg">
<path d="M2.57031 7.99539C2.57031 8.87933 3.51451 9.10031 4.07701 8.52776L8.52679 4.07798C9.10938 3.50544 8.87835 2.57129 7.99442 2.57129H3.48438C2.92187 2.57129 2.57031 2.95299 2.57031 3.49539V7.99539ZM5.16183 6.42843L17.8884 19.1651L19.1641 17.9094L6.4375 5.16281L5.16183 6.42843ZM21.7656 16.3425C21.7656 15.4485 20.8215 15.2375 20.2489 15.8001L15.7991 20.2499C15.2265 20.8325 15.4576 21.7666 16.3415 21.7666H20.8515C21.4141 21.7666 21.7656 21.3749 21.7656 20.8425V16.3425ZM21.7656 7.99539V3.49539C21.7656 2.95299 21.4141 2.57129 20.8515 2.57129H16.3415C15.4576 2.57129 15.2265 3.50544 15.7991 4.07798L20.2489 8.52776C20.8215 9.10031 21.7656 8.87933 21.7656 7.99539ZM6.4375 19.1651L19.1741 6.42843L17.8984 5.16281L5.16183 17.8994L6.4375 19.1651ZM2.57031 16.3425V20.8425C2.57031 21.3749 2.92187 21.7666 3.48438 21.7666H7.99442C8.87835 21.7666 9.10938 20.8325 8.52679 20.2499L4.07701 15.8001C3.51451 15.2375 2.57031 15.4485 2.57031 16.3425Z" fill="#88E755"/>
</svg>
