<svg width="24" height="24" viewBox="0 0 24 24" fill="none" xmlns="http://www.w3.org/2000/svg">
<path d="M8.62637 19.7088H17.2799C18.9568 19.7088 19.7953 18.8622 19.7953 17.1526V7.27804C19.7953 5.57665 18.9568 4.72188 17.2799 4.72188H9.48928L10.8244 6.03252H17.2066C18.0532 6.03252 18.4847 6.48025 18.4847 7.29432V17.1363C18.4847 17.9504 18.0532 18.3981 17.2147 18.3981H8.6915C7.85301 18.3981 7.41342 17.9504 7.41342 17.1363V11.3239H6.10278V17.1526C6.10278 18.8622 6.9494 19.7088 8.62637 19.7088ZM9.86375 9.52488H15.8553C16.1402 9.52488 16.36 9.30508 16.36 9.02013C16.36 8.74338 16.1402 8.52358 15.8553 8.52358H9.86375C9.56255 8.52358 9.35089 8.74338 9.35089 9.02013C9.35089 9.30508 9.56255 9.52488 9.86375 9.52488ZM9.86375 12.716H15.8553C16.1402 12.716 16.36 12.488 16.36 12.2031C16.36 11.9263 16.1402 11.7147 15.8553 11.7147H9.86375C9.56255 11.7147 9.35089 11.9263 9.35089 12.2031C9.35089 12.488 9.56255 12.716 9.86375 12.716ZM9.86375 15.8989H15.8553C16.1402 15.8989 16.36 15.6873 16.36 15.4105C16.36 15.1256 16.1402 14.8976 15.8553 14.8976H9.86375C9.56255 14.8976 9.35089 15.1256 9.35089 15.4105C9.35089 15.6873 9.56255 15.8989 9.86375 15.8989ZM3.75013 8.01884C3.74199 8.32817 4.11646 8.43404 4.31997 8.2305L5.56549 6.98498L6.95754 10.4203C7.02267 10.575 7.18548 10.6483 7.33201 10.5913L8.14607 10.2657C8.28446 10.2005 8.34145 10.0296 8.26818 9.87492L6.81101 6.49654L8.56125 6.42327C8.87059 6.40699 9.02526 6.11393 8.80546 5.87785L4.35254 1.30282C4.14902 1.0993 3.83154 1.21327 3.8234 1.51447L3.75013 8.01884Z" fill="#88E755"/>
</svg>
