<svg width="15" height="22" viewBox="0 0 15 22" fill="none" xmlns="http://www.w3.org/2000/svg">
<g clip-path="url(#clip0_267_125050)">
<path d="M1.01313 21.5722C1.54488 21.5722 1.8051 21.2894 1.89561 20.8255L4.13578 9.42105L3.00438 10.3375H11.4446L10.3132 9.42105L12.5533 20.8255C12.6439 21.2894 12.9041 21.5722 13.4359 21.5722C14.1938 21.5722 14.4541 21.0518 14.3296 20.4408L12.2139 9.66995C12.0781 8.95718 11.4785 8.43674 10.7884 8.43674H3.6719C2.98175 8.43674 2.38211 8.95718 2.24634 9.66995L0.13064 20.4408C0.0061864 21.0518 0.277721 21.5722 1.01313 21.5722ZM3.42299 9.35317H11.0373L8.2201 0.946915C8.05039 0.47173 7.7336 0.200195 7.2471 0.200195C6.73798 0.200195 6.38725 0.47173 6.22885 0.946915L3.42299 9.35317Z" fill="#88E755"/>
</g>
<defs>
<clipPath id="clip0_267_125050">
<rect width="14.2578" height="21.372" fill="white" transform="translate(0.101562 0.200195)"/>
</clipPath>
</defs>
</svg>
