<svg width="24" height="24" viewBox="0 0 24 24" fill="none" xmlns="http://www.w3.org/2000/svg">
<path d="M1.04688 15.8727C1.04688 16.0543 1.13768 16.2689 1.27801 16.4093L4.91845 20.1405C5.0753 20.3056 5.26516 20.3882 5.47153 20.3882C5.66965 20.3882 5.85952 20.3056 6.01636 20.1405L9.66507 16.4093C9.80539 16.2689 9.88795 16.0543 9.88795 15.8727C9.88795 15.4352 9.59076 15.1463 9.16148 15.1463C8.94684 15.1463 8.7818 15.2123 8.65796 15.3444L7.46098 16.6074L6.12368 18.1428L6.20623 16.2359V8.35244L6.12368 6.44554L7.46098 7.98097L8.65796 9.24398C8.7818 9.37606 8.94684 9.4421 9.16148 9.4421C9.59076 9.4421 9.88795 9.15317 9.88795 8.71566C9.88795 8.53405 9.80539 8.31942 9.66507 8.17909L6.01636 4.44784C5.85952 4.28275 5.66965 4.2002 5.47153 4.2002C5.26516 4.2002 5.0753 4.28275 4.91845 4.44784L1.27801 8.17909C1.13768 8.31942 1.04688 8.53405 1.04688 8.71566C1.04688 9.15317 1.34405 9.4421 1.77331 9.4421C1.98794 9.4421 2.16129 9.3678 2.27686 9.24398L3.48209 7.98097L4.81114 6.44554L4.72859 8.35244V16.2359L4.81114 18.1428L3.48209 16.6074L2.27686 15.3444C2.16129 15.2205 1.98794 15.1463 1.77331 15.1463C1.34405 15.1463 1.04688 15.4352 1.04688 15.8727ZM11.4976 10.1107C11.4976 10.3501 11.6793 10.54 11.9351 10.573C15.8233 11.0105 16.3929 11.5554 16.9129 15.5673C16.9542 15.8149 17.1441 15.9801 17.367 15.9801C17.5981 15.9801 17.7879 15.8149 17.8292 15.5673C18.3493 11.5554 18.9106 11.0105 22.7987 10.573C23.0629 10.54 23.2362 10.3501 23.2362 10.1107C23.2362 9.87135 23.0629 9.68149 22.7987 9.64847C18.9189 9.21096 18.3493 8.65787 17.8292 4.65422C17.7879 4.41482 17.6063 4.24973 17.367 4.24973C17.1358 4.24973 16.9542 4.41482 16.9129 4.65422C16.3598 8.63311 15.8315 9.1284 11.9351 9.64847C11.6793 9.68149 11.4976 9.87135 11.4976 10.1107ZM10.7135 17.3008C10.7135 17.4659 10.829 17.6062 11.0106 17.6475C13.1156 18.0437 13.1569 18.019 13.3963 20.0002C13.4293 20.19 13.5614 20.3304 13.743 20.3304C13.9329 20.3304 14.065 20.1983 14.0979 20.0084C14.3621 17.9365 14.4529 17.9365 16.4671 17.6475C16.657 17.6145 16.7808 17.4742 16.7808 17.3008C16.7808 17.1357 16.6653 16.9871 16.4754 16.9541C14.4282 16.5579 14.3704 16.6074 14.0979 14.5849C14.065 14.4033 13.9246 14.2713 13.743 14.2713C13.5614 14.2713 13.4293 14.4116 13.3963 14.6014C13.1569 16.5826 13.1074 16.6157 11.0436 16.9541C10.8372 16.9871 10.7135 17.1192 10.7135 17.3008Z" fill="#88E755"/>
</svg>
