<svg width="24" height="18" viewBox="0 0 24 18" fill="none" xmlns="http://www.w3.org/2000/svg">
<g clip-path="url(#clip0_267_125059)">
<path d="M2.68125 10.9622H8.74513C10.1648 10.9622 10.9921 10.1536 10.9921 8.7529V2.68897C10.9921 1.28816 10.1648 0.47964 8.74513 0.47964H2.68125C1.27105 0.47964 0.453125 1.27876 0.453125 2.68897V8.7529C0.453125 10.1631 1.27105 10.9622 2.68125 10.9622ZM14.9031 11.0844H21.0892C22.5558 11.0844 23.3926 10.2571 23.3926 8.82807V2.62316C23.3926 1.18474 22.5558 0.357422 21.0892 0.357422H14.9031C13.4458 0.357422 12.6091 1.18474 12.6091 2.62316V8.82807C12.6091 10.2571 13.4458 11.0844 14.9031 11.0844ZM14.9219 9.59896C14.3672 9.59896 14.0945 9.32635 14.0945 8.76229V2.67956C14.0945 2.11548 14.3672 1.84285 14.9219 1.84285H21.0704C21.6439 1.84285 21.9071 2.11548 21.9071 2.67956V8.76229C21.9071 9.32635 21.6439 9.59896 21.0704 9.59896H14.9219ZM1.16763 14.4783C0.782174 14.4783 0.453125 14.8168 0.453125 15.2398C0.453125 15.6629 0.782174 15.9919 1.16763 15.9919H4.20428V14.4783H1.16763ZM5.84012 17.4962C7.08111 17.4962 8.09646 16.4808 8.09646 15.2398C8.09646 13.9894 7.08111 12.9741 5.84012 12.9741C4.59914 12.9741 3.58379 13.9894 3.58379 15.2398C3.58379 16.4808 4.59914 17.4962 5.84012 17.4962ZM5.84012 16.3398C5.21964 16.3398 4.74016 15.8509 4.74016 15.2304C4.74016 14.6099 5.21964 14.1305 5.84012 14.1305C6.45121 14.1305 6.94009 14.6099 6.94009 15.2304C6.94009 15.8509 6.45121 16.3398 5.84012 16.3398ZM7.33494 14.4783V15.9919H22.631C23.0541 15.9919 23.3926 15.6629 23.3926 15.2398C23.3926 14.8168 23.0541 14.4783 22.631 14.4783H7.33494Z" fill="#88E755"/>
</g>
<defs>
<clipPath id="clip0_267_125059">
<rect width="22.9394" height="17.496" fill="white" transform="translate(0.453125)"/>
</clipPath>
</defs>
</svg>
