<svg width="24" height="24" viewBox="0 0 24 24" fill="none" xmlns="http://www.w3.org/2000/svg">
<g clip-path="url(#clip0_267_125010)">
<path d="M0.898438 12.1259C0.898438 16.3611 3.34226 20.0987 6.68179 21.9343C7.84288 22.5867 8.80493 21.0386 7.52219 20.2978C4.74662 18.7496 2.78936 15.6755 2.78936 12.1259C2.78936 6.90647 6.94718 2.72654 12.1666 2.72654C17.386 2.72654 21.577 6.90647 21.577 12.1259C21.577 12.7893 22.0856 13.1101 22.5722 13.1101C23.0255 13.1101 23.4568 12.7783 23.4568 12.1259C23.4568 5.95549 18.337 0.84668 12.1666 0.84668C6.00724 0.84668 0.898438 5.95549 0.898438 12.1259ZM5.36588 12.1259C5.36588 14.5918 6.71496 16.6597 8.32943 17.6992C9.44629 18.451 10.4083 16.9582 9.46841 16.3168C8.09722 15.4212 7.19045 13.8841 7.19045 12.1259C7.19045 9.33924 9.40206 7.12764 12.1666 7.12764C14.9311 7.12764 17.0653 9.32819 17.1648 12.1259C17.1869 12.6346 17.574 13.0326 18.0826 13.0326C18.5913 13.0326 18.9894 12.6346 18.9894 12.1259C18.9894 8.38825 15.9041 5.30306 12.1666 5.30306C8.45107 5.30306 5.36588 8.38825 5.36588 12.1259ZM11.7464 20.1319C11.7353 20.5631 12.2439 20.7069 12.5204 20.4305L14.2123 18.7385L16.1032 23.405C16.1917 23.6152 16.4128 23.7147 16.6118 23.6372L17.7066 23.195C17.9056 23.1065 17.9831 22.8742 17.8836 22.6642L15.9041 18.064L18.2817 17.9755C18.7019 17.9535 18.9009 17.5443 18.6023 17.2347L12.5647 11.02C12.2772 10.7325 11.857 10.8984 11.8459 11.3076L11.7464 20.1319Z" fill="#88E755"/>
</g>
<defs>
<clipPath id="clip0_267_125010">
<rect width="24" height="24" fill="white"/>
</clipPath>
</defs>
</svg>
