<svg width="24" height="24" viewBox="0 0 24 24" fill="none" xmlns="http://www.w3.org/2000/svg">
<path d="M13.0289 3.91022C13.4867 3.91022 13.8351 3.56184 13.8351 3.10398C13.8351 2.65607 13.4867 2.30769 13.0289 2.30769H5.74284L7.32546 3.91022H13.0289ZM15.8258 6.75694C16.2737 6.75694 16.6321 6.39862 16.6321 5.94075C16.6321 5.49284 16.2737 5.15441 15.8258 5.15441H8.51989L10.1025 6.75694H15.8258ZM18.563 9.59371C19.011 9.59371 19.3594 9.23539 19.3594 8.77753C19.3594 8.32961 19.011 7.99119 18.563 7.99119H11.297L12.8795 9.59371H18.563ZM21.3302 10.828H14.074C14.6712 11.4351 14.9399 11.8034 14.9798 12.4305H21.3302C21.7781 12.4305 22.1364 12.0821 22.1364 11.6243C22.1364 11.1763 21.7781 10.828 21.3302 10.828ZM12.1231 20.6621L8.54976 12.3111L8.07199 13.1273L13.0289 13.4059C13.6958 13.4458 14.0143 12.7291 13.5365 12.2414L3.68245 2.16834C3.24449 1.72043 2.56765 1.96927 2.56765 2.59634L2.39844 16.611C2.39844 17.2978 3.16486 17.5765 3.60282 17.0689L6.80788 13.5254L5.88219 13.2865L9.33609 21.8267C9.47544 22.1651 9.82382 22.3243 10.1324 22.185L11.8444 21.4783C12.1629 21.3589 12.2724 20.9906 12.1231 20.6621Z" fill="#88E755"/>
</svg>
