<svg width="24" height="24" viewBox="0 0 24 24" fill="none" xmlns="http://www.w3.org/2000/svg">
<g clip-path="url(#clip0_267_125070)">
<path d="M3.42857 11.9594C3.42857 11.0453 3.5692 10.1614 3.83036 9.3478L2.25335 8.68485C1.91183 9.71944 1.71094 10.8143 1.71094 11.9594C1.71094 13.0944 1.91183 14.1994 2.26339 15.2339L3.83036 14.571C3.5692 13.7574 3.42857 12.8734 3.42857 11.9594ZM8.04911 4.34556L7.40625 2.79868C5.41741 3.79311 3.78013 5.43039 2.78572 7.41922L4.35268 8.07213C5.15625 6.47503 6.46205 5.16922 8.04911 4.34556ZM11.9464 3.42146C12.8605 3.42146 13.7445 3.56208 14.5781 3.83329L15.221 2.26632C14.1864 1.91476 13.0815 1.71387 11.9464 1.71387C10.8114 1.71387 9.69643 1.91476 8.66183 2.26632L9.32477 3.83329C10.1484 3.56208 11.0324 3.42146 11.9464 3.42146ZM19.5603 8.06208L21.1172 7.41922C20.1128 5.43039 18.4755 3.79311 16.4866 2.78865L15.8438 4.34556C17.4308 5.15918 18.7467 6.46498 19.5603 8.06208ZM20.4945 11.9594C20.4945 12.8734 20.3538 13.7574 20.0926 14.581L21.6495 15.244C22.0011 14.2094 22.202 13.0944 22.202 11.9594C22.202 10.8143 22.0011 9.7094 21.6495 8.6748L20.0826 9.33775C20.3538 10.1614 20.4945 11.0453 20.4945 11.9594ZM15.8438 19.5632L16.4866 21.1301C18.4855 20.1257 20.1228 18.4884 21.1071 16.4996L19.5703 15.8567C18.7567 17.4538 17.4409 18.7496 15.8438 19.5632ZM11.9565 20.4974C11.0324 20.4974 10.1484 20.3567 9.32477 20.0855L8.67187 21.6525C9.70647 22.0041 10.8214 22.2049 11.9565 22.2049C13.0915 22.2049 14.1964 22.0041 15.221 21.6625L14.5681 20.0956C13.7445 20.3567 12.8705 20.4974 11.9565 20.4974ZM4.35268 15.8567L2.79575 16.4996C3.80022 18.4884 5.41741 20.1257 7.40625 21.1201L8.04911 19.5532C6.46205 18.7396 5.15625 17.4438 4.35268 15.8567ZM11.9364 18.9706C15.8438 18.9706 18.9576 15.8567 18.9476 11.9594C18.9375 8.06208 15.8236 4.94824 11.9264 4.94824C8.02901 4.94824 4.93527 8.05204 4.93527 11.9594C4.93527 15.8668 8.03906 18.9706 11.9364 18.9706Z" fill="#88E755"/>
</g>
<defs>
<clipPath id="clip0_267_125070">
<rect width="20.491" height="20.5011" fill="white" transform="translate(1.71094 1.71387)"/>
</clipPath>
</defs>
</svg>
