<svg width="24" height="23" viewBox="0 0 24 23" fill="none" xmlns="http://www.w3.org/2000/svg">
<g clip-path="url(#clip0_267_125041)">
<path d="M4.44083 20.6453C5.11549 20.6453 5.65327 20.1076 5.65327 19.4329C5.65327 18.7582 5.10572 18.2205 4.44083 18.2205C3.76618 18.2205 3.22841 18.768 3.22841 19.4329C3.22841 20.1173 3.77596 20.6453 4.44083 20.6453ZM1.37064 13.2045C2.04531 13.2045 2.58308 12.6472 2.58308 11.9823C2.58308 11.2979 2.02575 10.7699 1.37064 10.7699C0.695987 10.7699 0.148438 11.3174 0.148438 11.9823C0.148438 12.657 0.705765 13.2045 1.37064 13.2045ZM4.44083 5.76369C5.11549 5.76369 5.65327 5.21614 5.65327 4.55126C5.65327 3.86682 5.10572 3.33883 4.44083 3.33883C3.76618 3.33883 3.22841 3.8766 3.22841 4.55126C3.22841 5.22592 3.77596 5.76369 4.44083 5.76369ZM11.9403 2.63484C12.615 2.63484 13.1527 2.08729 13.1527 1.41262C13.1527 0.737967 12.6052 0.200195 11.9403 0.200195C11.2559 0.200195 10.7279 0.747745 10.7279 1.41262C10.7279 2.09707 11.2656 2.63484 11.9403 2.63484ZM19.43 5.74413C20.1047 5.74413 20.6424 5.19658 20.6424 4.53171C20.6424 3.84726 20.0948 3.31927 19.43 3.31927C18.7456 3.31927 18.2078 3.85704 18.2078 4.53171C18.2078 5.20636 18.7554 5.74413 19.43 5.74413ZM22.51 13.2045C23.1846 13.2045 23.7322 12.6472 23.7322 11.9823C23.7322 11.2979 23.1749 10.7699 22.51 10.7699C21.8256 10.7699 21.2877 11.3174 21.2877 11.9823C21.2877 12.657 21.8451 13.2045 22.51 13.2045ZM19.4203 20.6551C20.0948 20.6551 20.6327 20.1173 20.6327 19.4426C20.6327 18.768 20.0851 18.2302 19.4203 18.2302C18.7357 18.2302 18.198 18.7777 18.198 19.4426C18.198 20.1271 18.7456 20.6551 19.4203 20.6551ZM11.9403 19.1004C15.8611 19.1004 19.0486 15.9227 19.0486 11.9823C19.0486 8.30588 16.2523 5.28458 12.6639 4.92281L12.6541 12.129C12.6541 12.52 12.3118 12.8623 11.9403 12.8525C11.5101 12.8329 11.207 12.5298 11.207 12.1094V4.92281C7.62835 5.28458 4.82216 8.30588 4.82216 11.9823C4.82216 15.9325 8.01946 19.1004 11.9403 19.1004Z" fill="#88E755"/>
</g>
<defs>
<clipPath id="clip0_267_125041">
<rect width="23.5837" height="21.99" fill="white" transform="translate(0.148438 0.200195)"/>
</clipPath>
</defs>
</svg>
