<svg width="66" height="66" viewBox="0 0 66 66" fill="none" xmlns="http://www.w3.org/2000/svg">
<path fill-rule="evenodd" clip-rule="evenodd" d="M33.0039 49.8988V60.5C50.7194 60.5 64.5354 43.1008 58.7329 24.233C56.2166 16.0023 49.7376 9.45178 41.6306 6.86403C23.0544 0.970782 5.92188 15.004 5.92188 33H16.3939C16.3939 21.7113 27.4159 12.98 39.1144 17.281C41.2703 18.0864 43.2248 19.3519 44.8419 20.9894C46.459 22.6269 47.6999 24.5972 48.4781 26.763C52.7406 38.632 44.1331 49.8163 33.0341 49.8355V39.2673H22.5649V49.9015L33.0039 49.8988ZM22.5649 58.0388H14.5514V49.8988L22.5649 49.9015V58.0388ZM7.82487 49.8988H14.5514V43.065H7.82762L7.82487 49.8988Z" fill="#39A300"/>
</svg>
