<svg width="62" height="50" viewBox="0 0 62 50" fill="none" xmlns="http://www.w3.org/2000/svg">
<path d="M61.9375 47.6263C61.9375 48.1733 61.7202 48.6979 61.3334 49.0847C60.9466 49.4715 60.422 49.6888 59.875 49.6888H2.125C1.57799 49.6888 1.05339 49.4715 0.666592 49.0847C0.279798 48.6979 0.0625 48.1733 0.0625 47.6263C0.0625 47.0793 0.279798 46.5547 0.666592 46.1679C1.05339 45.7811 1.57799 45.5638 2.125 45.5638H59.875C60.422 45.5638 60.9466 45.7811 61.3334 46.1679C61.7202 46.5547 61.9375 47.0793 61.9375 47.6263ZM2.20234 19.3133C2.07967 18.8808 2.10169 18.42 2.26505 18.0012C2.4284 17.5823 2.72415 17.2283 3.10727 16.993L29.9198 0.493014C30.2447 0.293256 30.6186 0.1875 31 0.1875C31.3814 0.1875 31.7553 0.293256 32.0802 0.493014L58.8927 16.993C59.276 17.228 59.5719 17.5818 59.7356 18.0005C59.8992 18.4191 59.9216 18.8798 59.7993 19.3124C59.677 19.745 59.4167 20.1258 59.0581 20.3968C58.6994 20.6678 58.262 20.8143 57.8125 20.8138H51.625V37.3138H55.75C56.297 37.3138 56.8216 37.5311 57.2084 37.9179C57.5952 38.3047 57.8125 38.8293 57.8125 39.3763C57.8125 39.9233 57.5952 40.4479 57.2084 40.8347C56.8216 41.2215 56.297 41.4388 55.75 41.4388H6.25C5.70299 41.4388 5.17839 41.2215 4.79159 40.8347C4.4048 40.4479 4.1875 39.9233 4.1875 39.3763C4.1875 38.8293 4.4048 38.3047 4.79159 37.9179C5.17839 37.5311 5.70299 37.3138 6.25 37.3138H10.375V20.8138H4.1875C3.73836 20.8139 3.30145 20.6675 2.94314 20.3967C2.58484 20.1258 2.32473 19.7455 2.20234 19.3133ZM35.125 35.2513C35.125 35.7983 35.3423 36.3229 35.7291 36.7097C36.1159 37.0965 36.6405 37.3138 37.1875 37.3138C37.7345 37.3138 38.2591 37.0965 38.6459 36.7097C39.0327 36.3229 39.25 35.7983 39.25 35.2513V22.8763C39.25 22.3293 39.0327 21.8047 38.6459 21.4179C38.2591 21.0311 37.7345 20.8138 37.1875 20.8138C36.6405 20.8138 36.1159 21.0311 35.7291 21.4179C35.3423 21.8047 35.125 22.3293 35.125 22.8763V35.2513ZM22.75 35.2513C22.75 35.7983 22.9673 36.3229 23.3541 36.7097C23.7409 37.0965 24.2655 37.3138 24.8125 37.3138C25.3595 37.3138 25.8841 37.0965 26.2709 36.7097C26.6577 36.3229 26.875 35.7983 26.875 35.2513V22.8763C26.875 22.3293 26.6577 21.8047 26.2709 21.4179C25.8841 21.0311 25.3595 20.8138 24.8125 20.8138C24.2655 20.8138 23.7409 21.0311 23.3541 21.4179C22.9673 21.8047 22.75 22.3293 22.75 22.8763V35.2513Z" fill="#39A300"/>
</svg>
