<svg width="66" height="66" viewBox="0 0 66 66" fill="none" xmlns="http://www.w3.org/2000/svg">
<g clip-path="url(#clip0_248_295985)">
<mask id="mask0_248_295985" style="mask-type:luminance" maskUnits="userSpaceOnUse" x="0" y="0" width="66" height="66">
<path d="M0 0H66V66H0V0Z" fill="white"/>
<path fill-rule="evenodd" clip-rule="evenodd" d="M33.0025 14.4204L17.6144 24.1123H48.3907L33.0025 14.4204ZM33.6803 11.8464C33.4777 11.7188 33.2432 11.6511 33.0038 11.6511C32.7644 11.6511 32.5299 11.7188 32.3273 11.8464L12.54 24.3077C11.4637 24.9855 11.9435 26.6507 13.2178 26.6507H52.7873C54.0616 26.6507 54.5414 24.9855 53.4651 24.3077L33.6803 11.8464ZM12.6949 50.7661C12.6949 50.4295 12.8286 50.1067 13.0666 49.8686C13.3046 49.6306 13.6275 49.4969 13.9641 49.4969H52.041C52.3776 49.4969 52.7005 49.6306 52.9385 49.8686C53.1765 50.1067 53.3102 50.4295 53.3102 50.7661C53.3102 51.1027 53.1765 51.4256 52.9385 51.6636C52.7005 51.9016 52.3776 52.0354 52.041 52.0354H13.9641C13.6275 52.0354 13.3046 51.9016 13.0666 51.6636C12.8286 51.4256 12.6949 51.1027 12.6949 50.7661ZM16.5025 29.1892C16.8392 29.1892 17.162 29.3229 17.4 29.561C17.6381 29.799 17.7718 30.1218 17.7718 30.4584V45.6892C17.7718 46.0258 17.6381 46.3487 17.4 46.5867C17.162 46.8247 16.8392 46.9584 16.5025 46.9584C16.1659 46.9584 15.8431 46.8247 15.6051 46.5867C15.367 46.3487 15.2333 46.0258 15.2333 45.6892V30.4584C15.2333 30.1218 15.367 29.799 15.6051 29.561C15.8431 29.3229 16.1659 29.1892 16.5025 29.1892ZM24.1179 29.1892C24.4546 29.1892 24.7774 29.3229 25.0154 29.561C25.2534 29.799 25.3872 30.1218 25.3872 30.4584V45.6892C25.3872 46.0258 25.2534 46.3487 25.0154 46.5867C24.7774 46.8247 24.4546 46.9584 24.1179 46.9584C23.7813 46.9584 23.4585 46.8247 23.2204 46.5867C22.9824 46.3487 22.8487 46.0258 22.8487 45.6892V30.4584C22.8487 30.1218 22.9824 29.799 23.2204 29.561C23.4585 29.3229 23.7813 29.1892 24.1179 29.1892ZM31.7333 29.1892C32.0699 29.1892 32.3928 29.3229 32.6308 29.561C32.8688 29.799 33.0025 30.1218 33.0025 30.4584V45.6892C33.0025 46.0258 32.8688 46.3487 32.6308 46.5867C32.3928 46.8247 32.0699 46.9584 31.7333 46.9584C31.3967 46.9584 31.0739 46.8247 30.8358 46.5867C30.5978 46.3487 30.4641 46.0258 30.4641 45.6892V30.4584C30.4641 30.1218 30.5978 29.799 30.8358 29.561C31.0739 29.3229 31.3967 29.1892 31.7333 29.1892ZM39.3487 29.1892C39.6853 29.1892 40.0082 29.3229 40.2462 29.561C40.4842 29.799 40.6179 30.1218 40.6179 30.4584V45.6892C40.6179 46.0258 40.4842 46.3487 40.2462 46.5867C40.0082 46.8247 39.6853 46.9584 39.3487 46.9584C39.0121 46.9584 38.6892 46.8247 38.4512 46.5867C38.2132 46.3487 38.0795 46.0258 38.0795 45.6892V30.4584C38.0795 30.1218 38.2132 29.799 38.4512 29.561C38.6892 29.3229 39.0121 29.1892 39.3487 29.1892ZM46.9641 29.1892C47.3007 29.1892 47.6235 29.3229 47.8616 29.561C48.0996 29.799 48.2333 30.1218 48.2333 30.4584V45.6892C48.2333 46.0258 48.0996 46.3487 47.8616 46.5867C47.6235 46.8247 47.3007 46.9584 46.9641 46.9584C46.6275 46.9584 46.3046 46.8247 46.0666 46.5867C45.8286 46.3487 45.6949 46.0258 45.6949 45.6892V30.4584C45.6949 30.1218 45.8286 29.799 46.0666 29.561C46.3046 29.3229 46.6275 29.1892 46.9641 29.1892Z" fill="black"/>
</mask>
<g mask="url(#mask0_248_295985)">
<path d="M33 66C51.2254 66 66 51.2254 66 33C66 14.7746 51.2254 0 33 0C14.7746 0 0 14.7746 0 33C0 51.2254 14.7746 66 33 66Z" fill="#39A300"/>
</g>
</g>
<defs>
<clipPath id="clip0_248_295985">
<rect width="66" height="66" fill="white"/>
</clipPath>
</defs>
</svg>
