<svg width="66" height="66" viewBox="0 0 66 66" fill="none" xmlns="http://www.w3.org/2000/svg">
<g clip-path="url(#clip0_248_296009)">
<mask id="mask0_248_296009" style="mask-type:luminance" maskUnits="userSpaceOnUse" x="0" y="0" width="66" height="66">
<path d="M0 0H66V66H0V0Z" fill="white"/>
<path fill-rule="evenodd" clip-rule="evenodd" d="M10.7891 33.0001C10.7891 38.891 13.1292 44.5406 17.2947 48.706C21.4601 52.8715 27.1097 55.2117 33.0006 55.2117C38.8915 55.2117 44.5411 52.8715 48.7065 48.706C52.872 44.5406 55.2121 38.891 55.2121 33.0001C55.2121 27.1092 52.872 21.4597 48.7065 17.2942C44.5411 13.1287 38.8915 10.7886 33.0006 10.7886C27.1097 10.7886 21.4601 13.1287 17.2947 17.2942C13.1292 21.4597 10.7891 27.1092 10.7891 33.0001ZM51.4044 33.0001C51.4044 37.8811 49.4655 42.5622 46.0141 46.0136C42.5627 49.465 37.8816 51.404 33.0006 51.404C28.1196 51.404 23.4385 49.465 19.9871 46.0136C16.5357 42.5622 14.5968 37.8811 14.5968 33.0001C14.5968 28.1191 16.5357 23.438 19.9871 19.9866C23.4385 16.5352 28.1196 14.5963 33.0006 14.5963C37.8816 14.5963 42.5627 16.5352 46.0141 19.9866C49.4655 23.438 51.4044 28.1191 51.4044 33.0001Z" fill="black"/>
<path fill-rule="evenodd" clip-rule="evenodd" d="M23.4844 33.0002C23.4844 44.4791 27.2692 53.9425 33.0036 53.9425C38.738 53.9425 42.5228 44.4791 42.5228 33.0002C42.5228 21.5212 38.738 12.0579 33.0036 12.0579C27.2692 12.0579 23.4844 21.5212 23.4844 33.0002ZM38.7151 33.0002C38.7151 42.5499 35.6817 50.1348 33.0036 50.1348C30.3255 50.1348 27.2921 42.5499 27.2921 33.0002C27.2921 23.4505 30.3255 15.8656 33.0036 15.8656C35.6817 15.8656 38.7151 23.4505 38.7151 33.0002Z" fill="black"/>
<path d="M16.7559 21.4932L19.3096 18.6704C19.5635 18.9006 19.8385 19.1265 20.1346 19.3482C23.361 21.7648 28.5115 23.2574 34.1342 23.2574C38.9345 23.2574 43.4072 22.1735 46.6514 20.3179C47.4349 19.8694 48.1279 19.3871 48.7304 18.8709L51.2028 21.7673C50.4142 22.4426 49.5275 23.0603 48.5425 23.6204C44.6942 25.8238 39.5716 27.0626 34.1342 27.0626C27.7322 27.0626 21.7846 25.3415 17.85 22.3943C17.4715 22.1111 17.1064 21.8104 16.7559 21.4932ZM16.7559 44.5475L19.3096 47.3703C19.5635 47.1401 19.8385 46.9142 20.1346 46.6925C23.361 44.2759 28.5115 42.7833 34.1342 42.7833C38.9345 42.7833 43.4072 43.8672 46.6514 45.7228C47.4349 46.1713 48.1279 46.6536 48.7304 47.1697L51.2028 44.2733C50.3744 43.5759 49.4839 42.9556 48.5425 42.4203C44.6942 40.2169 39.5716 38.9781 34.1342 38.9781C27.7322 38.9781 21.7846 40.6992 17.85 43.6463C17.4715 43.9296 17.1064 44.2303 16.7559 44.5475ZM12.0547 34.9039V31.0962H53.9393V34.9039H12.0547Z" fill="black"/>
</mask>
<g mask="url(#mask0_248_296009)">
<path d="M33 66C51.2254 66 66 51.2254 66 33C66 14.7746 51.2254 0 33 0C14.7746 0 0 14.7746 0 33C0 51.2254 14.7746 66 33 66Z" fill="#39A300"/>
</g>
</g>
<defs>
<clipPath id="clip0_248_296009">
<rect width="66" height="66" fill="white"/>
</clipPath>
</defs>
</svg>
