<svg width="56" height="55" viewBox="0 0 56 55" fill="none" xmlns="http://www.w3.org/2000/svg">
<path d="M55.5 16.5V35.75C55.5 37.938 54.6308 40.0365 53.0836 41.5836C51.5365 43.1308 49.438 44 47.25 44H8.75C6.56196 44 4.46354 43.1308 2.91637 41.5836C1.36919 40.0365 0.5 37.938 0.5 35.75V16.5H55.5ZM44.5 27.5H36.25C35.5207 27.5 34.8212 27.7897 34.3055 28.3055C33.7897 28.8212 33.5 29.5207 33.5 30.25C33.5 30.9793 33.7897 31.6788 34.3055 32.1945C34.8212 32.7103 35.5207 33 36.25 33H44.5C45.2293 33 45.9288 32.7103 46.4445 32.1945C46.9603 31.6788 47.25 30.9793 47.25 30.25C47.25 29.5207 46.9603 28.8212 46.4445 28.3055C45.9288 27.7897 45.2293 27.5 44.5 27.5ZM47.25 0C49.438 0 51.5365 0.869194 53.0836 2.41637C54.6308 3.96354 55.5 6.06196 55.5 8.25V11H0.5V8.25C0.5 6.06196 1.36919 3.96354 2.91637 2.41637C4.46354 0.869194 6.56196 0 8.75 0H47.25Z" fill="#39A300"/>
</svg>
