<svg width="66" height="66" viewBox="0 0 66 66" fill="none" xmlns="http://www.w3.org/2000/svg">
<path d="M30.25 11V27.5C30.25 30.5375 24.7096 33 17.875 33C11.0405 33 5.5 30.5375 5.5 27.5V11" stroke="#39A300" stroke-width="6" stroke-linecap="round" stroke-linejoin="round"/>
<path d="M30.25 19.25C30.25 22.2875 24.7096 24.75 17.875 24.75C11.0405 24.75 5.5 22.2875 5.5 19.25" stroke="#39A300" stroke-width="6" stroke-linecap="round" stroke-linejoin="round"/>
<path d="M30.25 11C30.25 14.0375 24.7096 16.5 17.875 16.5C11.0405 16.5 5.5 14.0375 5.5 11C5.5 7.96243 11.0405 5.5 17.875 5.5C24.7096 5.5 30.25 7.96243 30.25 11Z" fill="white" stroke="#39A300" stroke-width="6" stroke-linecap="round" stroke-linejoin="round"/>
<path d="M44 8.25H52.25C55.2875 8.25 57.75 10.7124 57.75 13.75V22" stroke="#39A300" stroke-width="6" stroke-linecap="round" stroke-linejoin="round"/>
<path d="M22 57.75H13.75C10.7124 57.75 8.25 55.2875 8.25 52.25V44" stroke="#39A300" stroke-width="6" stroke-linecap="round" stroke-linejoin="round"/>
<path d="M48.125 46.75C51.922 46.75 55 43.672 55 39.875C55 36.078 51.922 33 48.125 33C44.328 33 41.25 36.078 41.25 39.875C41.25 43.672 44.328 46.75 48.125 46.75Z" fill="white" stroke="#39A300" stroke-width="6" stroke-linecap="round" stroke-linejoin="round"/>
<path d="M60.5 60.5H35.75C35.75 53.6654 41.2904 48.125 48.125 48.125C54.9596 48.125 60.5 53.6654 60.5 60.5Z" fill="white" stroke="#39A300" stroke-width="6" stroke-linecap="round" stroke-linejoin="round"/>
</svg>
